G75*
G70*
%OFA0B0*%
%FSLAX24Y24*%
%IPPOS*%
%LPD*%
%AMOC8*
5,1,8,0,0,1.08239X$1,22.5*
%
%ADD10C,0.2362*%
%ADD11C,0.0060*%
%ADD12C,0.1559*%
%ADD13C,0.1472*%
%ADD14C,0.0665*%
%ADD15R,0.0512X0.0472*%
%ADD16R,0.0665X0.0665*%
%ADD17R,0.0780X0.0780*%
%ADD18C,0.0780*%
%ADD19C,0.2039*%
%ADD20O,0.0712X0.1306*%
%ADD21O,0.1220X0.0665*%
%ADD22R,0.0693X0.0614*%
%ADD23R,0.0614X0.0693*%
%ADD24C,0.0523*%
D10*
X003193Y002004D03*
X019140Y002004D03*
X019168Y030004D03*
X003193Y030004D03*
D11*
X009361Y035034D02*
X009681Y035247D01*
X009361Y035461D01*
X009681Y035674D02*
X009681Y035034D01*
X009898Y035034D02*
X010219Y035034D01*
X010325Y035141D01*
X010325Y035354D01*
X010219Y035461D01*
X009898Y035461D01*
X010543Y035354D02*
X010543Y035247D01*
X010970Y035247D01*
X010970Y035141D02*
X010970Y035354D01*
X010863Y035461D01*
X010650Y035461D01*
X010543Y035354D01*
X010650Y035034D02*
X010863Y035034D01*
X010970Y035141D01*
X011187Y035034D02*
X011187Y035354D01*
X011294Y035461D01*
X011508Y035461D01*
X011614Y035354D01*
X011832Y035461D02*
X012152Y035461D01*
X012259Y035354D01*
X012259Y035141D01*
X012152Y035034D01*
X011832Y035034D01*
X011614Y035034D02*
X011614Y035674D01*
X013228Y035461D02*
X013335Y035461D01*
X013548Y035247D01*
X013548Y035034D02*
X013548Y035461D01*
X013766Y035354D02*
X013766Y035141D01*
X013872Y035034D01*
X014086Y035034D01*
X014193Y035141D01*
X014193Y035354D01*
X014086Y035461D01*
X013872Y035461D01*
X013766Y035354D01*
X014517Y035461D02*
X014624Y035461D01*
X014837Y035247D01*
X014837Y035034D02*
X014837Y035461D01*
X015161Y035461D02*
X015268Y035461D01*
X015482Y035247D01*
X015482Y035034D02*
X015482Y035461D01*
X015912Y035461D02*
X015912Y035034D01*
X016019Y035034D02*
X015805Y035034D01*
X016236Y035034D02*
X016236Y035674D01*
X016450Y035461D01*
X016663Y035674D01*
X016663Y035034D01*
X016019Y035461D02*
X015912Y035461D01*
X015912Y035674D02*
X015912Y035781D01*
D12*
X016943Y027504D03*
X012443Y027504D03*
X010443Y027504D03*
X005943Y027504D03*
X004292Y021130D03*
X004292Y017130D03*
X005965Y014587D03*
X005965Y009744D03*
D13*
X010650Y009004D03*
X010650Y015323D03*
D14*
X009465Y013413D03*
X009465Y012413D03*
X009465Y011413D03*
X009465Y010413D03*
X008465Y010913D03*
X008465Y011913D03*
X008465Y012913D03*
X008465Y013913D03*
X006784Y017886D03*
X006784Y018886D03*
X006784Y019886D03*
X007784Y019386D03*
X007784Y018386D03*
X007443Y024004D03*
X006943Y025004D03*
X006443Y024004D03*
X007943Y025004D03*
X008443Y024004D03*
X008943Y025004D03*
X009443Y024004D03*
X009943Y025004D03*
X012943Y024004D03*
X013443Y025004D03*
X013943Y024004D03*
X014443Y025004D03*
X014943Y024004D03*
X015443Y025004D03*
X015943Y024004D03*
X016443Y025004D03*
D15*
X015193Y008839D03*
X015193Y008169D03*
X009193Y004839D03*
X009193Y004169D03*
D16*
X007784Y020386D03*
D17*
X019193Y015004D03*
D18*
X019193Y016004D03*
X019193Y017004D03*
X019193Y018004D03*
X019193Y019004D03*
X019193Y020004D03*
X019193Y021004D03*
X019193Y022004D03*
D19*
X007048Y006776D03*
X005866Y004890D03*
X004646Y006776D03*
D20*
X006193Y002504D03*
X007193Y002504D03*
X008193Y002504D03*
D21*
X012705Y002492D03*
X012705Y003492D03*
X012705Y004492D03*
D22*
X014693Y019169D03*
X014693Y019839D03*
D23*
X011028Y003504D03*
X010359Y003504D03*
D24*
X009693Y001504D03*
X009193Y005504D03*
X012193Y008004D03*
X015197Y007197D03*
X016929Y003614D03*
X019016Y008969D03*
X017693Y012504D03*
X018193Y013504D03*
X014815Y016409D03*
X013193Y017004D03*
X012693Y017504D03*
X012693Y016004D03*
X013193Y015504D03*
X012378Y020004D03*
X013193Y021004D03*
X012496Y021504D03*
X014693Y020504D03*
X016693Y018504D03*
M02*
