G75*
G70*
%OFA0B0*%
%FSLAX24Y24*%
%IPPOS*%
%LPD*%
%AMOC8*
5,1,8,0,0,1.08239X$1,22.5*
%
%ADD10C,0.0060*%
%ADD11R,0.0500X0.0300*%
%ADD12C,0.1227*%
%ADD13C,0.0554*%
%ADD14R,0.0433X0.0394*%
%ADD15R,0.0551X0.0394*%
%ADD16R,0.0394X0.0433*%
%ADD17R,0.0554X0.0554*%
%ADD18R,0.0650X0.0650*%
%ADD19C,0.0650*%
%ADD20R,0.0551X0.1083*%
%ADD21C,0.1699*%
%ADD22R,0.0472X0.0472*%
%ADD23O,0.0594X0.1187*%
%ADD24O,0.1109X0.0554*%
%ADD25R,0.0591X0.0591*%
%ADD26R,0.0512X0.0591*%
%ADD27C,0.0320*%
%ADD28C,0.0160*%
%ADD29C,0.0100*%
%ADD30C,0.0500*%
%ADD31C,0.0400*%
%ADD32C,0.0436*%
%ADD33C,0.0240*%
D10*
X002723Y036034D02*
X002723Y036674D01*
X002937Y036461D01*
X003150Y036674D01*
X003150Y036034D01*
X003368Y036034D02*
X003581Y036034D01*
X003474Y036034D02*
X003474Y036461D01*
X003368Y036461D01*
X003474Y036674D02*
X003474Y036781D01*
X003905Y036461D02*
X003905Y036034D01*
X003905Y036247D02*
X004118Y036461D01*
X004225Y036461D01*
X004549Y036461D02*
X004549Y036034D01*
X004549Y036247D02*
X004763Y036461D01*
X004870Y036461D01*
X005194Y036354D02*
X005194Y036141D01*
X005301Y036034D01*
X005514Y036034D01*
X005621Y036141D01*
X005621Y036354D01*
X005514Y036461D01*
X005301Y036461D01*
X005194Y036354D01*
X005838Y036247D02*
X006052Y036461D01*
X006159Y036461D01*
X005838Y036461D02*
X005838Y036034D01*
X007127Y036141D02*
X007234Y036034D01*
X007554Y036034D01*
X007772Y036034D02*
X007772Y036674D01*
X007879Y036461D02*
X008092Y036461D01*
X008199Y036354D01*
X008199Y036034D01*
X008417Y036141D02*
X008417Y036354D01*
X008523Y036461D01*
X008737Y036461D01*
X008844Y036354D01*
X008844Y036247D01*
X008417Y036247D01*
X008417Y036141D02*
X008523Y036034D01*
X008737Y036034D01*
X009061Y036141D02*
X009168Y036034D01*
X009488Y036034D01*
X009706Y036034D02*
X009706Y036674D01*
X009488Y036461D02*
X009168Y036461D01*
X009061Y036354D01*
X009061Y036141D01*
X009706Y036247D02*
X010026Y036461D01*
X009706Y036247D02*
X010026Y036034D01*
X007879Y036461D02*
X007772Y036354D01*
X007554Y036461D02*
X007234Y036461D01*
X007127Y036354D01*
X007127Y036141D01*
D11*
X011693Y022504D03*
X011693Y022004D03*
X011693Y021504D03*
X011693Y021004D03*
X011693Y020504D03*
X011693Y020004D03*
X011693Y019504D03*
X011693Y019004D03*
X011693Y018504D03*
X011693Y018004D03*
X011693Y017504D03*
X011693Y017004D03*
X011693Y016504D03*
X011693Y016004D03*
X015743Y016004D03*
X015743Y016504D03*
X015743Y017004D03*
X015743Y017504D03*
X015743Y018004D03*
X015743Y018504D03*
X015743Y019004D03*
X015743Y019504D03*
X015743Y020004D03*
X015743Y020504D03*
X015743Y021004D03*
X015743Y021504D03*
X015743Y022004D03*
X015743Y022504D03*
D12*
X010650Y015323D03*
X010650Y009004D03*
D13*
X009465Y010413D03*
X009465Y011413D03*
X009465Y012413D03*
X009465Y013413D03*
X008465Y012913D03*
X008465Y011913D03*
X008465Y010913D03*
X008465Y013913D03*
X006784Y017886D03*
X006784Y018886D03*
X006784Y019886D03*
X007784Y019386D03*
X007784Y018386D03*
X007443Y024004D03*
X006943Y025004D03*
X006443Y024004D03*
X007943Y025004D03*
X008443Y024004D03*
X008943Y025004D03*
X009443Y024004D03*
X009943Y025004D03*
X012943Y024004D03*
X013443Y025004D03*
X013943Y024004D03*
X014443Y025004D03*
X014943Y024004D03*
X015443Y025004D03*
X015943Y024004D03*
X016443Y025004D03*
D14*
X009536Y008220D03*
X009536Y007551D03*
D15*
X016760Y010004D03*
X017626Y010378D03*
X017626Y009630D03*
D16*
X018859Y009504D03*
X019528Y009504D03*
X019528Y011004D03*
X018859Y011004D03*
X019028Y012504D03*
X018359Y012504D03*
D17*
X007784Y020386D03*
D18*
X019193Y015004D03*
D19*
X019193Y016004D03*
X019193Y017004D03*
X019193Y018004D03*
X019193Y019004D03*
X019193Y020004D03*
X019193Y021004D03*
X019193Y022004D03*
D20*
X016693Y004504D03*
X015107Y004504D03*
X015107Y001854D03*
X016693Y001854D03*
D21*
X004646Y006776D03*
X005866Y004890D03*
X007048Y006776D03*
D22*
X010341Y002486D03*
X010341Y001384D03*
X007280Y001352D03*
X006177Y001352D03*
D23*
X006193Y002504D03*
X007193Y002504D03*
X008193Y002504D03*
D24*
X012705Y002492D03*
X012705Y003492D03*
X012705Y004492D03*
D25*
X012193Y005815D03*
X012193Y007193D03*
X010693Y007193D03*
X010693Y005815D03*
X013693Y005815D03*
X013693Y007193D03*
D26*
X008414Y008173D03*
X007744Y008173D03*
D27*
X007693Y008969D02*
X007693Y009004D01*
X008465Y008181D02*
X008465Y010913D01*
X008465Y010937D01*
X008465Y008181D02*
X008465Y006528D01*
X008465Y006488D01*
X008465Y004520D01*
X007693Y004504D02*
X012693Y004504D01*
X012705Y004492D01*
X012705Y002492D02*
X010335Y002492D01*
X010329Y002486D01*
X010341Y002486D01*
X008211Y002486D01*
X008193Y002504D01*
X007280Y002417D02*
X007280Y004091D01*
X007693Y004504D01*
X009693Y001504D02*
X010193Y001504D01*
X010315Y002472D02*
X010329Y002486D01*
X004646Y006776D02*
X004646Y009457D01*
X004693Y009504D01*
X014193Y015504D02*
X014193Y019004D01*
X014693Y019504D01*
X015743Y019504D01*
X016693Y019504D01*
X019193Y022004D01*
D28*
X017193Y015504D02*
X017193Y010672D01*
X017171Y010649D01*
X017171Y010396D01*
X017193Y010396D01*
X017193Y010359D01*
X017171Y010359D01*
X017171Y010320D01*
X017110Y010381D01*
X016410Y010381D01*
X016305Y010275D01*
X016305Y009733D01*
X016410Y009627D01*
X017110Y009627D01*
X017171Y009688D01*
X017171Y009359D01*
X017193Y009336D01*
X017193Y009004D01*
X008805Y009004D01*
X008805Y010607D01*
X008852Y010654D01*
X008922Y010822D01*
X008922Y011004D01*
X008852Y011172D01*
X008724Y011301D01*
X008556Y011371D01*
X008374Y011371D01*
X008206Y011301D01*
X008077Y011172D01*
X008008Y011004D01*
X008008Y010822D01*
X008077Y010654D01*
X008125Y010607D01*
X008125Y009004D01*
X006822Y009004D01*
X006922Y009104D01*
X007094Y009519D01*
X007094Y009969D01*
X006922Y010384D01*
X006605Y010702D01*
X006190Y010874D01*
X005740Y010874D01*
X005325Y010702D01*
X005007Y010384D01*
X004835Y009969D01*
X004835Y009519D01*
X005007Y009104D01*
X005108Y009004D01*
X001925Y009004D01*
X001925Y022004D01*
X003568Y022004D01*
X003334Y021770D01*
X003162Y021355D01*
X003162Y020905D01*
X003334Y020490D01*
X003652Y020172D01*
X004067Y020000D01*
X004516Y020000D01*
X004931Y020172D01*
X005249Y020490D01*
X005421Y020905D01*
X005421Y021355D01*
X005249Y021770D01*
X005015Y022004D01*
X005693Y022004D01*
X005693Y017504D01*
X007693Y015504D01*
X009866Y015504D01*
X009857Y015481D01*
X009857Y015403D01*
X010570Y015403D01*
X010570Y015504D01*
X010730Y015504D01*
X010730Y015403D01*
X011443Y015403D01*
X011443Y015481D01*
X011434Y015504D01*
X012795Y015504D01*
X012795Y015425D01*
X012856Y015279D01*
X012968Y015167D01*
X013114Y015106D01*
X013272Y015106D01*
X013419Y015167D01*
X013530Y015279D01*
X013591Y015425D01*
X013591Y015504D01*
X017193Y015504D01*
X017193Y015407D02*
X013584Y015407D01*
X013500Y015248D02*
X017193Y015248D01*
X017193Y015090D02*
X011412Y015090D01*
X011443Y015165D02*
X011322Y014873D01*
X011099Y014650D01*
X010808Y014529D01*
X010730Y014529D01*
X010730Y015243D01*
X011443Y015243D01*
X011443Y015165D01*
X011443Y015407D02*
X012803Y015407D01*
X012886Y015248D02*
X006900Y015248D01*
X006922Y015226D02*
X006605Y015544D01*
X006190Y015716D01*
X005740Y015716D01*
X005325Y015544D01*
X005007Y015226D01*
X004835Y014811D01*
X004835Y014362D01*
X005007Y013947D01*
X005325Y013629D01*
X005740Y013457D01*
X006190Y013457D01*
X006605Y013629D01*
X006922Y013947D01*
X007094Y014362D01*
X007094Y014811D01*
X006922Y015226D01*
X006979Y015090D02*
X009888Y015090D01*
X009857Y015165D02*
X009977Y014873D01*
X010200Y014650D01*
X010492Y014529D01*
X010570Y014529D01*
X010570Y015243D01*
X009857Y015243D01*
X009857Y015165D01*
X009857Y015407D02*
X006742Y015407D01*
X006553Y015566D02*
X007632Y015566D01*
X007473Y015724D02*
X001925Y015724D01*
X001925Y015566D02*
X005377Y015566D01*
X005188Y015407D02*
X001925Y015407D01*
X001925Y015248D02*
X005029Y015248D01*
X004951Y015090D02*
X001925Y015090D01*
X001925Y014931D02*
X004885Y014931D01*
X004835Y014773D02*
X001925Y014773D01*
X001925Y014614D02*
X004835Y014614D01*
X004835Y014456D02*
X001925Y014456D01*
X001925Y014297D02*
X004862Y014297D01*
X004928Y014139D02*
X001925Y014139D01*
X001925Y013980D02*
X004993Y013980D01*
X005132Y013822D02*
X001925Y013822D01*
X001925Y013663D02*
X005291Y013663D01*
X005626Y013504D02*
X001925Y013504D01*
X001925Y013346D02*
X008315Y013346D01*
X008374Y013371D02*
X008206Y013301D01*
X008077Y013172D01*
X008008Y013004D01*
X008008Y012822D01*
X008077Y012654D01*
X008206Y012526D01*
X008374Y012456D01*
X008556Y012456D01*
X008724Y012526D01*
X008852Y012654D01*
X008922Y012822D01*
X008922Y013004D01*
X008852Y013172D01*
X008724Y013301D01*
X008556Y013371D01*
X008374Y013371D01*
X008374Y013456D02*
X008556Y013456D01*
X008724Y013526D01*
X008852Y013654D01*
X008922Y013822D01*
X008922Y014004D01*
X008852Y014172D01*
X008724Y014301D01*
X008556Y014371D01*
X008374Y014371D01*
X008206Y014301D01*
X008077Y014172D01*
X008008Y014004D01*
X008008Y013822D01*
X006797Y013822D01*
X006936Y013980D02*
X008008Y013980D01*
X008008Y013822D02*
X008077Y013654D01*
X008206Y013526D01*
X008374Y013456D01*
X008257Y013504D02*
X006304Y013504D01*
X006639Y013663D02*
X008074Y013663D01*
X008092Y013187D02*
X001925Y013187D01*
X001925Y013029D02*
X008018Y013029D01*
X008008Y012870D02*
X001925Y012870D01*
X001925Y012712D02*
X008054Y012712D01*
X008179Y012553D02*
X001925Y012553D01*
X001925Y012395D02*
X009008Y012395D01*
X009008Y012322D02*
X009077Y012154D01*
X009206Y012026D01*
X009374Y011956D01*
X009556Y011956D01*
X009724Y012026D01*
X009852Y012154D01*
X009922Y012322D01*
X009922Y012504D01*
X009852Y012672D01*
X009724Y012801D01*
X009556Y012871D01*
X009374Y012871D01*
X009206Y012801D01*
X009077Y012672D01*
X009008Y012504D01*
X009008Y012322D01*
X009043Y012236D02*
X008789Y012236D01*
X008852Y012172D02*
X008724Y012301D01*
X008556Y012371D01*
X008374Y012371D01*
X008206Y012301D01*
X008077Y012172D01*
X008008Y012004D01*
X008008Y011822D01*
X008077Y011654D01*
X008206Y011526D01*
X008374Y011456D01*
X008556Y011456D01*
X008724Y011526D01*
X008852Y011654D01*
X008922Y011822D01*
X008922Y012004D01*
X008852Y012172D01*
X008892Y012078D02*
X009154Y012078D01*
X008922Y011919D02*
X017193Y011919D01*
X017193Y011761D02*
X009764Y011761D01*
X009724Y011801D02*
X009852Y011672D01*
X009922Y011504D01*
X009922Y011322D01*
X009852Y011154D01*
X009724Y011026D01*
X009556Y010956D01*
X009374Y010956D01*
X009206Y011026D01*
X009077Y011154D01*
X009008Y011322D01*
X009008Y011504D01*
X009077Y011672D01*
X009206Y011801D01*
X009374Y011871D01*
X009556Y011871D01*
X009724Y011801D01*
X009882Y011602D02*
X017193Y011602D01*
X017193Y011443D02*
X009922Y011443D01*
X009906Y011285D02*
X017193Y011285D01*
X017193Y011126D02*
X009824Y011126D01*
X009584Y010968D02*
X017193Y010968D01*
X017193Y010809D02*
X009704Y010809D01*
X009724Y010801D02*
X009556Y010871D01*
X009473Y010871D01*
X009473Y010422D01*
X009922Y010422D01*
X009922Y010504D01*
X009852Y010672D01*
X009724Y010801D01*
X009861Y010651D02*
X017172Y010651D01*
X017171Y010492D02*
X009922Y010492D01*
X009922Y010405D02*
X009473Y010405D01*
X009473Y009956D01*
X009556Y009956D01*
X009724Y010026D01*
X009852Y010154D01*
X009922Y010322D01*
X009922Y010405D01*
X009922Y010334D02*
X016363Y010334D01*
X016305Y010175D02*
X009861Y010175D01*
X009701Y010017D02*
X016305Y010017D01*
X016305Y009858D02*
X008805Y009858D01*
X008805Y009699D02*
X010256Y009699D01*
X010200Y009676D02*
X009977Y009453D01*
X009857Y009162D01*
X009857Y009084D01*
X010570Y009084D01*
X010570Y009797D01*
X010492Y009797D01*
X010200Y009676D01*
X010065Y009541D02*
X008805Y009541D01*
X008805Y009382D02*
X009948Y009382D01*
X009882Y009224D02*
X008805Y009224D01*
X008805Y009065D02*
X017193Y009065D01*
X017193Y009224D02*
X011418Y009224D01*
X011443Y009162D02*
X011322Y009453D01*
X011099Y009676D01*
X010808Y009797D01*
X010730Y009797D01*
X010730Y009084D01*
X011443Y009084D01*
X011443Y009162D01*
X011352Y009382D02*
X017171Y009382D01*
X017171Y009541D02*
X011235Y009541D01*
X011044Y009699D02*
X016338Y009699D01*
X017157Y010334D02*
X017171Y010334D01*
X017193Y012078D02*
X009776Y012078D01*
X009886Y012236D02*
X017193Y012236D01*
X017193Y012395D02*
X009922Y012395D01*
X009902Y012553D02*
X017193Y012553D01*
X017193Y012712D02*
X009813Y012712D01*
X009556Y012870D02*
X017193Y012870D01*
X017193Y013029D02*
X009727Y013029D01*
X009724Y013026D02*
X009852Y013154D01*
X009922Y013322D01*
X009922Y013504D01*
X009852Y013672D01*
X009724Y013801D01*
X009556Y013871D01*
X009374Y013871D01*
X009206Y013801D01*
X009077Y013672D01*
X009008Y013504D01*
X009008Y013322D01*
X009077Y013154D01*
X009206Y013026D01*
X009374Y012956D01*
X009556Y012956D01*
X009724Y013026D01*
X009866Y013187D02*
X017193Y013187D01*
X017193Y013346D02*
X009922Y013346D01*
X009922Y013504D02*
X017193Y013504D01*
X017193Y013663D02*
X009856Y013663D01*
X009674Y013822D02*
X017193Y013822D01*
X017193Y013980D02*
X008922Y013980D01*
X008922Y013822D02*
X009256Y013822D01*
X009074Y013663D02*
X008856Y013663D01*
X009008Y013504D02*
X008672Y013504D01*
X008615Y013346D02*
X009008Y013346D01*
X009064Y013187D02*
X008837Y013187D01*
X008912Y013029D02*
X009203Y013029D01*
X009373Y012870D02*
X008922Y012870D01*
X008876Y012712D02*
X009117Y012712D01*
X009028Y012553D02*
X008751Y012553D01*
X008141Y012236D02*
X001925Y012236D01*
X001925Y012078D02*
X008038Y012078D01*
X008008Y011919D02*
X001925Y011919D01*
X001925Y011761D02*
X008033Y011761D01*
X008130Y011602D02*
X001925Y011602D01*
X001925Y011443D02*
X009008Y011443D01*
X009023Y011285D02*
X008740Y011285D01*
X008871Y011126D02*
X009105Y011126D01*
X008922Y010968D02*
X009346Y010968D01*
X009374Y010871D02*
X009206Y010801D01*
X009077Y010672D01*
X009008Y010504D01*
X009008Y010422D01*
X009456Y010422D01*
X009456Y010871D01*
X009374Y010871D01*
X009456Y010809D02*
X009473Y010809D01*
X009456Y010651D02*
X009473Y010651D01*
X009456Y010492D02*
X009473Y010492D01*
X009456Y010405D02*
X009008Y010405D01*
X009008Y010322D01*
X009077Y010154D01*
X009206Y010026D01*
X009374Y009956D01*
X009456Y009956D01*
X009456Y010405D01*
X009456Y010334D02*
X009473Y010334D01*
X009456Y010175D02*
X009473Y010175D01*
X009456Y010017D02*
X009473Y010017D01*
X009228Y010017D02*
X008805Y010017D01*
X008805Y010175D02*
X009069Y010175D01*
X009008Y010334D02*
X008805Y010334D01*
X008805Y010492D02*
X009008Y010492D01*
X009068Y010651D02*
X008849Y010651D01*
X008917Y010809D02*
X009226Y010809D01*
X009048Y011602D02*
X008800Y011602D01*
X008896Y011761D02*
X009166Y011761D01*
X008190Y011285D02*
X001925Y011285D01*
X001925Y011126D02*
X008058Y011126D01*
X008008Y010968D02*
X001925Y010968D01*
X001925Y010809D02*
X005585Y010809D01*
X005274Y010651D02*
X001925Y010651D01*
X001925Y010492D02*
X005115Y010492D01*
X004986Y010334D02*
X001925Y010334D01*
X001925Y010175D02*
X004921Y010175D01*
X004855Y010017D02*
X001925Y010017D01*
X001925Y009858D02*
X004835Y009858D01*
X004835Y009699D02*
X001925Y009699D01*
X001925Y009541D02*
X004835Y009541D01*
X004892Y009382D02*
X001925Y009382D01*
X001925Y009224D02*
X004958Y009224D01*
X005046Y009065D02*
X001925Y009065D01*
X006345Y010809D02*
X008013Y010809D01*
X008081Y010651D02*
X006656Y010651D01*
X006814Y010492D02*
X008125Y010492D01*
X008125Y010334D02*
X006943Y010334D01*
X007009Y010175D02*
X008125Y010175D01*
X008125Y010017D02*
X007075Y010017D01*
X007094Y009858D02*
X008125Y009858D01*
X008125Y009699D02*
X007094Y009699D01*
X007094Y009541D02*
X008125Y009541D01*
X008125Y009382D02*
X007038Y009382D01*
X006972Y009224D02*
X008125Y009224D01*
X008125Y009065D02*
X006884Y009065D01*
X007002Y014139D02*
X008063Y014139D01*
X008202Y014297D02*
X007068Y014297D01*
X007094Y014456D02*
X017193Y014456D01*
X017193Y014614D02*
X011013Y014614D01*
X011222Y014773D02*
X017193Y014773D01*
X017193Y014931D02*
X011346Y014931D01*
X010730Y014931D02*
X010570Y014931D01*
X010570Y014773D02*
X010730Y014773D01*
X010730Y014614D02*
X010570Y014614D01*
X010287Y014614D02*
X007094Y014614D01*
X007094Y014773D02*
X010078Y014773D01*
X009953Y014931D02*
X007045Y014931D01*
X007315Y015883D02*
X001925Y015883D01*
X001925Y016041D02*
X003968Y016041D01*
X004067Y016000D02*
X003652Y016172D01*
X003334Y016490D01*
X003162Y016905D01*
X003162Y017355D01*
X003334Y017770D01*
X003652Y018088D01*
X004067Y018259D01*
X004516Y018259D01*
X004931Y018088D01*
X005249Y017770D01*
X005421Y017355D01*
X005421Y016905D01*
X005249Y016490D01*
X004931Y016172D01*
X004516Y016000D01*
X004067Y016000D01*
X003624Y016200D02*
X001925Y016200D01*
X001925Y016358D02*
X003466Y016358D01*
X003323Y016517D02*
X001925Y016517D01*
X001925Y016675D02*
X003257Y016675D01*
X003192Y016834D02*
X001925Y016834D01*
X001925Y016992D02*
X003162Y016992D01*
X003162Y017151D02*
X001925Y017151D01*
X001925Y017310D02*
X003162Y017310D01*
X003209Y017468D02*
X001925Y017468D01*
X001925Y017627D02*
X003275Y017627D01*
X003349Y017785D02*
X001925Y017785D01*
X001925Y017944D02*
X003508Y017944D01*
X003687Y018102D02*
X001925Y018102D01*
X001925Y018261D02*
X005693Y018261D01*
X005693Y018419D02*
X001925Y018419D01*
X001925Y018578D02*
X005693Y018578D01*
X005693Y018736D02*
X001925Y018736D01*
X001925Y018895D02*
X005693Y018895D01*
X005693Y019054D02*
X001925Y019054D01*
X001925Y019212D02*
X005693Y019212D01*
X005693Y019371D02*
X001925Y019371D01*
X001925Y019529D02*
X005693Y019529D01*
X005693Y019688D02*
X001925Y019688D01*
X001925Y019846D02*
X005693Y019846D01*
X005693Y020005D02*
X004527Y020005D01*
X004910Y020163D02*
X005693Y020163D01*
X005693Y020322D02*
X005081Y020322D01*
X005240Y020480D02*
X005693Y020480D01*
X005693Y020639D02*
X005311Y020639D01*
X005377Y020797D02*
X005693Y020797D01*
X005693Y020956D02*
X005421Y020956D01*
X005421Y021115D02*
X005693Y021115D01*
X005693Y021273D02*
X005421Y021273D01*
X005389Y021432D02*
X005693Y021432D01*
X005693Y021590D02*
X005324Y021590D01*
X005258Y021749D02*
X005693Y021749D01*
X005693Y021907D02*
X005112Y021907D01*
X004056Y020005D02*
X001925Y020005D01*
X001925Y020163D02*
X003673Y020163D01*
X003502Y020322D02*
X001925Y020322D01*
X001925Y020480D02*
X003344Y020480D01*
X003272Y020639D02*
X001925Y020639D01*
X001925Y020797D02*
X003207Y020797D01*
X003162Y020956D02*
X001925Y020956D01*
X001925Y021115D02*
X003162Y021115D01*
X003162Y021273D02*
X001925Y021273D01*
X001925Y021432D02*
X003194Y021432D01*
X003260Y021590D02*
X001925Y021590D01*
X001925Y021749D02*
X003325Y021749D01*
X003472Y021907D02*
X001925Y021907D01*
X004896Y018102D02*
X005693Y018102D01*
X005693Y017944D02*
X005075Y017944D01*
X005234Y017785D02*
X005693Y017785D01*
X005693Y017627D02*
X005309Y017627D01*
X005374Y017468D02*
X005729Y017468D01*
X005888Y017310D02*
X005421Y017310D01*
X005421Y017151D02*
X006046Y017151D01*
X006205Y016992D02*
X005421Y016992D01*
X005392Y016834D02*
X006363Y016834D01*
X006522Y016675D02*
X005326Y016675D01*
X005260Y016517D02*
X006680Y016517D01*
X006839Y016358D02*
X005117Y016358D01*
X004959Y016200D02*
X006997Y016200D01*
X007156Y016041D02*
X004615Y016041D01*
X008728Y014297D02*
X017193Y014297D01*
X017193Y014139D02*
X008866Y014139D01*
X010570Y015090D02*
X010730Y015090D01*
X010730Y015407D02*
X010570Y015407D01*
X010570Y009699D02*
X010730Y009699D01*
X010730Y009541D02*
X010570Y009541D01*
X010570Y009382D02*
X010730Y009382D01*
X010730Y009224D02*
X010570Y009224D01*
D29*
X010650Y009004D02*
X010693Y009004D01*
X010693Y007193D01*
X010193Y006504D02*
X011193Y006504D01*
X011693Y006004D01*
X011981Y006004D01*
X012170Y005815D01*
X012193Y005815D01*
X012166Y007157D02*
X012193Y007185D01*
X012193Y008004D01*
X012193Y007193D02*
X012193Y007185D01*
X013693Y007193D02*
X015193Y007193D01*
X015197Y007197D01*
X013693Y005815D02*
X013693Y004004D01*
X013193Y003504D01*
X012693Y003504D01*
X012705Y003492D01*
X010693Y005815D02*
X009689Y005819D01*
X009508Y005819D01*
X009193Y005504D01*
X008465Y006488D02*
X008426Y006488D01*
X008465Y006528D01*
X008414Y006579D01*
X008414Y008173D01*
X008457Y008173D01*
X008465Y008181D01*
X008504Y008220D01*
X009536Y008220D01*
X009536Y007551D02*
X009536Y007161D01*
X010193Y006504D01*
X008465Y004520D02*
X008449Y004504D01*
X007693Y004504D01*
X007744Y008173D02*
X007744Y008902D01*
X007677Y008969D01*
X007693Y008969D01*
X011193Y016004D02*
X010693Y016504D01*
X007193Y016504D01*
X006193Y017504D01*
X006193Y018350D01*
X006772Y018929D01*
X006784Y018917D01*
X006784Y018886D01*
X007784Y019386D02*
X005311Y019386D01*
X005193Y019504D01*
X007441Y021843D02*
X007441Y023969D01*
X007443Y023970D01*
X007443Y024004D01*
X007953Y024992D02*
X007953Y021882D01*
X008662Y021173D01*
X008662Y018299D01*
X008957Y018004D01*
X010693Y018004D01*
X011193Y017504D01*
X011693Y017504D01*
X011693Y018004D02*
X011193Y018004D01*
X010693Y018504D01*
X009126Y018504D01*
X009016Y018614D01*
X009016Y021488D01*
X008426Y022079D01*
X008426Y023969D01*
X008443Y023986D01*
X008443Y024004D01*
X007953Y024992D02*
X007943Y025002D01*
X007943Y025004D01*
X008937Y025031D02*
X008937Y022236D01*
X009410Y021764D01*
X009410Y019165D01*
X009571Y019004D01*
X010693Y019004D01*
X011193Y018504D01*
X011693Y018504D01*
X011693Y019004D02*
X011193Y019004D01*
X010693Y019504D01*
X010055Y019504D01*
X009843Y019717D01*
X009843Y021961D01*
X009449Y022354D01*
X009449Y024008D01*
X009445Y024004D01*
X009443Y024004D01*
X008943Y025004D02*
X008943Y025026D01*
X008937Y025031D01*
X009922Y025031D02*
X009922Y022669D01*
X010237Y022354D01*
X010237Y020150D01*
X010382Y020004D01*
X010693Y020004D01*
X011193Y019504D01*
X011693Y019504D01*
X011693Y021004D02*
X013193Y021004D01*
X012496Y021504D02*
X011693Y021504D01*
X011693Y022004D02*
X011886Y022004D01*
X011890Y022000D01*
X012166Y022000D01*
X012363Y022197D01*
X012363Y024283D01*
X012638Y024559D01*
X013386Y024559D01*
X013941Y024004D01*
X013943Y024004D01*
X014449Y024992D02*
X014443Y024998D01*
X013937Y025504D01*
X012693Y025504D01*
X011693Y024504D01*
X011693Y022504D01*
X009943Y025004D02*
X009943Y025010D01*
X009922Y025031D01*
X007441Y021843D02*
X008307Y020976D01*
X008307Y017906D01*
X008709Y017504D01*
X010693Y017504D01*
X011193Y017004D01*
X011693Y017004D01*
X011693Y016504D02*
X011193Y016504D01*
X010693Y017004D01*
X008193Y017004D01*
X007784Y017413D01*
X007784Y018386D01*
X011193Y016004D02*
X011693Y016004D01*
X012693Y016004D02*
X012693Y017504D01*
X013193Y017004D02*
X013193Y015504D01*
X014788Y016409D02*
X015193Y016004D01*
X015743Y016004D01*
X017193Y016004D01*
X017693Y015504D01*
X017693Y012504D01*
X018339Y012504D01*
X018347Y012512D01*
X018355Y012504D01*
X018359Y012504D01*
X019016Y012472D02*
X019016Y011803D01*
X018859Y011646D01*
X018859Y011004D01*
X019489Y011016D02*
X019685Y011213D01*
X019685Y023142D01*
X017205Y025622D01*
X016024Y025622D01*
X015433Y025031D01*
X015443Y025022D01*
X015443Y025004D01*
X015443Y024963D01*
X015433Y024953D01*
X015433Y023417D01*
X015630Y023220D01*
X015827Y023220D01*
X016193Y022854D01*
X016193Y022004D01*
X015743Y022004D01*
X015743Y022504D02*
X015166Y022504D01*
X014922Y022748D01*
X014922Y024008D01*
X014926Y024004D01*
X014943Y024004D01*
X014443Y024998D02*
X014443Y025004D01*
X015943Y024004D02*
X015949Y024004D01*
X016575Y023378D01*
X016575Y021803D01*
X016276Y021504D01*
X015743Y021504D01*
X015743Y021004D02*
X016327Y021004D01*
X017126Y021803D01*
X017126Y024323D01*
X016445Y025004D01*
X016443Y025004D01*
X015985Y019008D02*
X015743Y019004D01*
X015985Y019008D02*
X018898Y019008D01*
X019193Y019004D01*
X019174Y018024D02*
X019193Y018004D01*
X019174Y018024D02*
X015985Y018024D01*
X015743Y018004D01*
X015743Y018504D02*
X016693Y018504D01*
X017193Y017504D02*
X017693Y017004D01*
X019193Y017004D01*
X019193Y016004D02*
X018193Y016004D01*
X017193Y017004D01*
X015743Y017004D01*
X015743Y016504D02*
X017193Y016504D01*
X018693Y015004D01*
X019193Y015004D01*
X018193Y013504D02*
X019028Y012669D01*
X019028Y012504D01*
X019028Y012484D01*
X019016Y012472D01*
X019489Y011016D02*
X019500Y011004D01*
X019528Y011004D01*
X019693Y011004D01*
X019693Y010504D01*
X019193Y010004D01*
X016760Y010004D01*
X017171Y010396D02*
X017244Y010386D01*
X017363Y010386D01*
X017626Y010378D01*
X017626Y009630D02*
X017874Y009520D01*
X018701Y009520D01*
X018859Y009504D01*
X019370Y009323D02*
X019016Y008969D01*
X019370Y009323D02*
X019528Y009504D01*
X016929Y003614D02*
X016929Y002394D01*
X016693Y001854D01*
X015158Y001843D02*
X015118Y001803D01*
X015118Y001567D01*
X014935Y001384D01*
X010341Y001384D01*
X010313Y001384D01*
X010193Y001504D01*
X015107Y001854D02*
X015146Y001854D01*
X015158Y001843D01*
X015743Y016004D02*
X015512Y016055D01*
X014815Y016409D02*
X014788Y016409D01*
X015743Y017504D02*
X017193Y017504D01*
X015743Y018504D02*
X015693Y018504D01*
D30*
X009489Y010425D02*
X009477Y010413D01*
X009465Y010413D01*
D31*
X007193Y002504D02*
X007280Y002417D01*
X007280Y001352D01*
X006177Y001352D02*
X006177Y002488D01*
X006193Y002504D01*
D32*
X009193Y005504D03*
X009693Y001504D03*
X012193Y008004D03*
X015197Y007197D03*
X016929Y003614D03*
X019016Y008969D03*
X017693Y012504D03*
X018193Y013504D03*
X014815Y016409D03*
X013193Y017004D03*
X012693Y017504D03*
X012693Y016004D03*
X013193Y015504D03*
X012378Y020004D03*
X013193Y021004D03*
X012496Y021504D03*
X014693Y020504D03*
X016693Y018504D03*
D33*
X014693Y019504D02*
X014693Y020504D01*
X011693Y020504D01*
X011693Y020004D02*
X012378Y020004D01*
X014693Y020504D02*
X014693Y022504D01*
X014193Y023004D01*
X013693Y023004D01*
X012943Y023754D01*
X012943Y024004D01*
X006443Y024004D02*
X005693Y024004D01*
X005193Y023504D01*
X005193Y022004D01*
M02*
