G75*
G70*
%OFA0B0*%
%FSLAX24Y24*%
%IPPOS*%
%LPD*%
%AMOC8*
5,1,8,0,0,1.08239X$1,22.5*
%
%ADD10C,0.0000*%
%ADD11C,0.0060*%
%ADD12C,0.0030*%
%ADD13C,0.0157*%
%ADD14C,0.0040*%
%ADD15C,0.0080*%
%ADD16C,0.0050*%
%ADD17C,0.0079*%
%ADD18R,0.0167X0.0128*%
%ADD19R,0.0138X0.0138*%
%ADD20C,0.0100*%
%ADD21R,0.0039X0.0551*%
%ADD22R,0.0079X0.0551*%
%ADD23R,0.0079X0.0039*%
%ADD24R,0.0551X0.0039*%
%ADD25R,0.0551X0.0079*%
%ADD26R,0.0039X0.0079*%
D10*
X001125Y000180D02*
X022834Y000180D01*
X022893Y000182D01*
X022952Y000187D01*
X023011Y000197D01*
X023069Y000210D01*
X023126Y000226D01*
X023182Y000246D01*
X023236Y000270D01*
X023289Y000297D01*
X023340Y000327D01*
X023389Y000360D01*
X023436Y000397D01*
X023481Y000436D01*
X023523Y000478D01*
X023562Y000523D01*
X023599Y000570D01*
X023632Y000619D01*
X023662Y000670D01*
X023689Y000723D01*
X023713Y000777D01*
X023733Y000833D01*
X023749Y000890D01*
X023762Y000948D01*
X023772Y001007D01*
X023777Y001066D01*
X023779Y001125D01*
X023778Y001125D02*
X023778Y018881D01*
X023779Y018881D02*
X023777Y018940D01*
X023772Y018999D01*
X023762Y019058D01*
X023749Y019116D01*
X023733Y019173D01*
X023713Y019229D01*
X023689Y019283D01*
X023662Y019336D01*
X023632Y019387D01*
X023599Y019436D01*
X023562Y019483D01*
X023523Y019528D01*
X023481Y019570D01*
X023436Y019609D01*
X023389Y019646D01*
X023340Y019679D01*
X023289Y019709D01*
X023236Y019736D01*
X023182Y019760D01*
X023126Y019780D01*
X023069Y019796D01*
X023011Y019809D01*
X022952Y019819D01*
X022893Y019824D01*
X022834Y019826D01*
X001125Y019826D01*
X001066Y019824D01*
X001007Y019819D01*
X000948Y019809D01*
X000890Y019796D01*
X000833Y019780D01*
X000777Y019760D01*
X000723Y019736D01*
X000670Y019709D01*
X000619Y019679D01*
X000570Y019646D01*
X000523Y019609D01*
X000478Y019570D01*
X000436Y019528D01*
X000397Y019483D01*
X000360Y019436D01*
X000327Y019387D01*
X000297Y019336D01*
X000270Y019283D01*
X000246Y019229D01*
X000226Y019173D01*
X000210Y019116D01*
X000197Y019058D01*
X000187Y018999D01*
X000182Y018940D01*
X000180Y018881D01*
X000180Y001125D01*
X000182Y001066D01*
X000187Y001007D01*
X000197Y000948D01*
X000210Y000890D01*
X000226Y000833D01*
X000246Y000777D01*
X000270Y000723D01*
X000297Y000670D01*
X000327Y000619D01*
X000360Y000570D01*
X000397Y000523D01*
X000436Y000478D01*
X000478Y000436D01*
X000523Y000397D01*
X000570Y000360D01*
X000619Y000327D01*
X000670Y000297D01*
X000723Y000270D01*
X000777Y000246D01*
X000833Y000226D01*
X000890Y000210D01*
X000948Y000197D01*
X001007Y000187D01*
X001066Y000182D01*
X001125Y000180D01*
X000550Y001180D02*
X000552Y001230D01*
X000558Y001280D01*
X000568Y001329D01*
X000582Y001377D01*
X000599Y001424D01*
X000620Y001469D01*
X000645Y001513D01*
X000673Y001554D01*
X000705Y001593D01*
X000739Y001630D01*
X000776Y001664D01*
X000816Y001694D01*
X000858Y001721D01*
X000902Y001745D01*
X000948Y001766D01*
X000995Y001782D01*
X001043Y001795D01*
X001093Y001804D01*
X001142Y001809D01*
X001193Y001810D01*
X001243Y001807D01*
X001292Y001800D01*
X001341Y001789D01*
X001389Y001774D01*
X001435Y001756D01*
X001480Y001734D01*
X001523Y001708D01*
X001564Y001679D01*
X001603Y001647D01*
X001639Y001612D01*
X001671Y001574D01*
X001701Y001534D01*
X001728Y001491D01*
X001751Y001447D01*
X001770Y001401D01*
X001786Y001353D01*
X001798Y001304D01*
X001806Y001255D01*
X001810Y001205D01*
X001810Y001155D01*
X001806Y001105D01*
X001798Y001056D01*
X001786Y001007D01*
X001770Y000959D01*
X001751Y000913D01*
X001728Y000869D01*
X001701Y000826D01*
X001671Y000786D01*
X001639Y000748D01*
X001603Y000713D01*
X001564Y000681D01*
X001523Y000652D01*
X001480Y000626D01*
X001435Y000604D01*
X001389Y000586D01*
X001341Y000571D01*
X001292Y000560D01*
X001243Y000553D01*
X001193Y000550D01*
X001142Y000551D01*
X001093Y000556D01*
X001043Y000565D01*
X000995Y000578D01*
X000948Y000594D01*
X000902Y000615D01*
X000858Y000639D01*
X000816Y000666D01*
X000776Y000696D01*
X000739Y000730D01*
X000705Y000767D01*
X000673Y000806D01*
X000645Y000847D01*
X000620Y000891D01*
X000599Y000936D01*
X000582Y000983D01*
X000568Y001031D01*
X000558Y001080D01*
X000552Y001130D01*
X000550Y001180D01*
X006770Y016908D02*
X006772Y016958D01*
X006778Y017008D01*
X006788Y017058D01*
X006801Y017106D01*
X006818Y017154D01*
X006839Y017200D01*
X006863Y017244D01*
X006891Y017286D01*
X006922Y017326D01*
X006956Y017363D01*
X006993Y017398D01*
X007032Y017429D01*
X007073Y017458D01*
X007117Y017483D01*
X007163Y017505D01*
X007210Y017523D01*
X007258Y017537D01*
X007307Y017548D01*
X007357Y017555D01*
X007407Y017558D01*
X007458Y017557D01*
X007508Y017552D01*
X007558Y017543D01*
X007606Y017531D01*
X007654Y017514D01*
X007700Y017494D01*
X007745Y017471D01*
X007788Y017444D01*
X007828Y017414D01*
X007866Y017381D01*
X007901Y017345D01*
X007934Y017306D01*
X007963Y017265D01*
X007989Y017222D01*
X008012Y017177D01*
X008031Y017130D01*
X008046Y017082D01*
X008058Y017033D01*
X008066Y016983D01*
X008070Y016933D01*
X008070Y016883D01*
X008066Y016833D01*
X008058Y016783D01*
X008046Y016734D01*
X008031Y016686D01*
X008012Y016639D01*
X007989Y016594D01*
X007963Y016551D01*
X007934Y016510D01*
X007901Y016471D01*
X007866Y016435D01*
X007828Y016402D01*
X007788Y016372D01*
X007745Y016345D01*
X007700Y016322D01*
X007654Y016302D01*
X007606Y016285D01*
X007558Y016273D01*
X007508Y016264D01*
X007458Y016259D01*
X007407Y016258D01*
X007357Y016261D01*
X007307Y016268D01*
X007258Y016279D01*
X007210Y016293D01*
X007163Y016311D01*
X007117Y016333D01*
X007073Y016358D01*
X007032Y016387D01*
X006993Y016418D01*
X006956Y016453D01*
X006922Y016490D01*
X006891Y016530D01*
X006863Y016572D01*
X006839Y016616D01*
X006818Y016662D01*
X006801Y016710D01*
X006788Y016758D01*
X006778Y016808D01*
X006772Y016858D01*
X006770Y016908D01*
X011613Y016908D02*
X011615Y016958D01*
X011621Y017008D01*
X011631Y017058D01*
X011644Y017106D01*
X011661Y017154D01*
X011682Y017200D01*
X011706Y017244D01*
X011734Y017286D01*
X011765Y017326D01*
X011799Y017363D01*
X011836Y017398D01*
X011875Y017429D01*
X011916Y017458D01*
X011960Y017483D01*
X012006Y017505D01*
X012053Y017523D01*
X012101Y017537D01*
X012150Y017548D01*
X012200Y017555D01*
X012250Y017558D01*
X012301Y017557D01*
X012351Y017552D01*
X012401Y017543D01*
X012449Y017531D01*
X012497Y017514D01*
X012543Y017494D01*
X012588Y017471D01*
X012631Y017444D01*
X012671Y017414D01*
X012709Y017381D01*
X012744Y017345D01*
X012777Y017306D01*
X012806Y017265D01*
X012832Y017222D01*
X012855Y017177D01*
X012874Y017130D01*
X012889Y017082D01*
X012901Y017033D01*
X012909Y016983D01*
X012913Y016933D01*
X012913Y016883D01*
X012909Y016833D01*
X012901Y016783D01*
X012889Y016734D01*
X012874Y016686D01*
X012855Y016639D01*
X012832Y016594D01*
X012806Y016551D01*
X012777Y016510D01*
X012744Y016471D01*
X012709Y016435D01*
X012671Y016402D01*
X012631Y016372D01*
X012588Y016345D01*
X012543Y016322D01*
X012497Y016302D01*
X012449Y016285D01*
X012401Y016273D01*
X012351Y016264D01*
X012301Y016259D01*
X012250Y016258D01*
X012200Y016261D01*
X012150Y016268D01*
X012101Y016279D01*
X012053Y016293D01*
X012006Y016311D01*
X011960Y016333D01*
X011916Y016358D01*
X011875Y016387D01*
X011836Y016418D01*
X011799Y016453D01*
X011765Y016490D01*
X011734Y016530D01*
X011706Y016572D01*
X011682Y016616D01*
X011661Y016662D01*
X011644Y016710D01*
X011631Y016758D01*
X011621Y016808D01*
X011615Y016858D01*
X011613Y016908D01*
X000550Y018802D02*
X000552Y018852D01*
X000558Y018902D01*
X000568Y018951D01*
X000582Y018999D01*
X000599Y019046D01*
X000620Y019091D01*
X000645Y019135D01*
X000673Y019176D01*
X000705Y019215D01*
X000739Y019252D01*
X000776Y019286D01*
X000816Y019316D01*
X000858Y019343D01*
X000902Y019367D01*
X000948Y019388D01*
X000995Y019404D01*
X001043Y019417D01*
X001093Y019426D01*
X001142Y019431D01*
X001193Y019432D01*
X001243Y019429D01*
X001292Y019422D01*
X001341Y019411D01*
X001389Y019396D01*
X001435Y019378D01*
X001480Y019356D01*
X001523Y019330D01*
X001564Y019301D01*
X001603Y019269D01*
X001639Y019234D01*
X001671Y019196D01*
X001701Y019156D01*
X001728Y019113D01*
X001751Y019069D01*
X001770Y019023D01*
X001786Y018975D01*
X001798Y018926D01*
X001806Y018877D01*
X001810Y018827D01*
X001810Y018777D01*
X001806Y018727D01*
X001798Y018678D01*
X001786Y018629D01*
X001770Y018581D01*
X001751Y018535D01*
X001728Y018491D01*
X001701Y018448D01*
X001671Y018408D01*
X001639Y018370D01*
X001603Y018335D01*
X001564Y018303D01*
X001523Y018274D01*
X001480Y018248D01*
X001435Y018226D01*
X001389Y018208D01*
X001341Y018193D01*
X001292Y018182D01*
X001243Y018175D01*
X001193Y018172D01*
X001142Y018173D01*
X001093Y018178D01*
X001043Y018187D01*
X000995Y018200D01*
X000948Y018216D01*
X000902Y018237D01*
X000858Y018261D01*
X000816Y018288D01*
X000776Y018318D01*
X000739Y018352D01*
X000705Y018389D01*
X000673Y018428D01*
X000645Y018469D01*
X000620Y018513D01*
X000599Y018558D01*
X000582Y018605D01*
X000568Y018653D01*
X000558Y018702D01*
X000552Y018752D01*
X000550Y018802D01*
X022129Y018802D02*
X022131Y018852D01*
X022137Y018902D01*
X022147Y018951D01*
X022161Y018999D01*
X022178Y019046D01*
X022199Y019091D01*
X022224Y019135D01*
X022252Y019176D01*
X022284Y019215D01*
X022318Y019252D01*
X022355Y019286D01*
X022395Y019316D01*
X022437Y019343D01*
X022481Y019367D01*
X022527Y019388D01*
X022574Y019404D01*
X022622Y019417D01*
X022672Y019426D01*
X022721Y019431D01*
X022772Y019432D01*
X022822Y019429D01*
X022871Y019422D01*
X022920Y019411D01*
X022968Y019396D01*
X023014Y019378D01*
X023059Y019356D01*
X023102Y019330D01*
X023143Y019301D01*
X023182Y019269D01*
X023218Y019234D01*
X023250Y019196D01*
X023280Y019156D01*
X023307Y019113D01*
X023330Y019069D01*
X023349Y019023D01*
X023365Y018975D01*
X023377Y018926D01*
X023385Y018877D01*
X023389Y018827D01*
X023389Y018777D01*
X023385Y018727D01*
X023377Y018678D01*
X023365Y018629D01*
X023349Y018581D01*
X023330Y018535D01*
X023307Y018491D01*
X023280Y018448D01*
X023250Y018408D01*
X023218Y018370D01*
X023182Y018335D01*
X023143Y018303D01*
X023102Y018274D01*
X023059Y018248D01*
X023014Y018226D01*
X022968Y018208D01*
X022920Y018193D01*
X022871Y018182D01*
X022822Y018175D01*
X022772Y018172D01*
X022721Y018173D01*
X022672Y018178D01*
X022622Y018187D01*
X022574Y018200D01*
X022527Y018216D01*
X022481Y018237D01*
X022437Y018261D01*
X022395Y018288D01*
X022355Y018318D01*
X022318Y018352D01*
X022284Y018389D01*
X022252Y018428D01*
X022224Y018469D01*
X022199Y018513D01*
X022178Y018558D01*
X022161Y018605D01*
X022147Y018653D01*
X022137Y018702D01*
X022131Y018752D01*
X022129Y018802D01*
X022129Y001180D02*
X022131Y001230D01*
X022137Y001280D01*
X022147Y001329D01*
X022161Y001377D01*
X022178Y001424D01*
X022199Y001469D01*
X022224Y001513D01*
X022252Y001554D01*
X022284Y001593D01*
X022318Y001630D01*
X022355Y001664D01*
X022395Y001694D01*
X022437Y001721D01*
X022481Y001745D01*
X022527Y001766D01*
X022574Y001782D01*
X022622Y001795D01*
X022672Y001804D01*
X022721Y001809D01*
X022772Y001810D01*
X022822Y001807D01*
X022871Y001800D01*
X022920Y001789D01*
X022968Y001774D01*
X023014Y001756D01*
X023059Y001734D01*
X023102Y001708D01*
X023143Y001679D01*
X023182Y001647D01*
X023218Y001612D01*
X023250Y001574D01*
X023280Y001534D01*
X023307Y001491D01*
X023330Y001447D01*
X023349Y001401D01*
X023365Y001353D01*
X023377Y001304D01*
X023385Y001255D01*
X023389Y001205D01*
X023389Y001155D01*
X023385Y001105D01*
X023377Y001056D01*
X023365Y001007D01*
X023349Y000959D01*
X023330Y000913D01*
X023307Y000869D01*
X023280Y000826D01*
X023250Y000786D01*
X023218Y000748D01*
X023182Y000713D01*
X023143Y000681D01*
X023102Y000652D01*
X023059Y000626D01*
X023014Y000604D01*
X022968Y000586D01*
X022920Y000571D01*
X022871Y000560D01*
X022822Y000553D01*
X022772Y000550D01*
X022721Y000551D01*
X022672Y000556D01*
X022622Y000565D01*
X022574Y000578D01*
X022527Y000594D01*
X022481Y000615D01*
X022437Y000639D01*
X022395Y000666D01*
X022355Y000696D01*
X022318Y000730D01*
X022284Y000767D01*
X022252Y000806D01*
X022224Y000847D01*
X022199Y000891D01*
X022178Y000936D01*
X022161Y000983D01*
X022147Y001031D01*
X022137Y001080D01*
X022131Y001130D01*
X022129Y001180D01*
D11*
X022100Y002728D02*
X022100Y002841D01*
X022100Y002785D02*
X021760Y002785D01*
X021760Y002841D02*
X021760Y002728D01*
X021816Y002973D02*
X022043Y002973D01*
X022100Y003030D01*
X022100Y003144D01*
X022043Y003200D01*
X021816Y003200D01*
X021760Y003144D01*
X021760Y003030D01*
X021816Y002973D01*
X021816Y003342D02*
X021760Y003398D01*
X021760Y003512D01*
X021816Y003569D01*
X021873Y003569D01*
X022100Y003342D01*
X022100Y003569D01*
X020750Y003789D02*
X020750Y003902D01*
X020750Y003845D02*
X020410Y003845D01*
X020410Y003789D02*
X020410Y003902D01*
X020410Y004034D02*
X020750Y004261D01*
X020410Y004261D01*
X020466Y004403D02*
X020410Y004459D01*
X020410Y004573D01*
X020466Y004629D01*
X020523Y004629D01*
X020580Y004573D01*
X020637Y004629D01*
X020693Y004629D01*
X020750Y004573D01*
X020750Y004459D01*
X020693Y004403D01*
X020580Y004516D02*
X020580Y004573D01*
X020750Y004034D02*
X020410Y004034D01*
X019750Y004034D02*
X019410Y004034D01*
X019750Y004261D01*
X019410Y004261D01*
X019466Y004403D02*
X019410Y004459D01*
X019410Y004573D01*
X019466Y004629D01*
X019523Y004629D01*
X019750Y004403D01*
X019750Y004629D01*
X018817Y004997D02*
X018476Y004997D01*
X018476Y005167D01*
X018533Y005224D01*
X018646Y005224D01*
X018703Y005167D01*
X018703Y004997D01*
X018703Y005110D02*
X018817Y005224D01*
X018817Y005365D02*
X018476Y005365D01*
X018817Y005592D01*
X018476Y005592D01*
X018590Y005733D02*
X018476Y005847D01*
X018817Y005847D01*
X018817Y005960D02*
X018817Y005733D01*
X017930Y006430D02*
X018180Y006680D01*
X018180Y007180D01*
X017930Y007430D01*
X017430Y007430D01*
X017180Y007180D01*
X017180Y006680D01*
X017430Y006430D01*
X017930Y006430D01*
X017180Y006680D02*
X016930Y006430D01*
X016430Y006430D01*
X016180Y006680D01*
X015930Y006430D01*
X015430Y006430D01*
X015180Y006680D01*
X014930Y006430D01*
X014430Y006430D01*
X014180Y006680D01*
X014180Y007180D01*
X014430Y007430D01*
X014930Y007430D01*
X015180Y007180D01*
X015430Y007430D01*
X015930Y007430D01*
X016180Y007180D01*
X016180Y006680D01*
X016206Y006220D02*
X015979Y006220D01*
X016092Y006220D02*
X016092Y005880D01*
X015837Y005880D02*
X015724Y005993D01*
X015780Y005993D02*
X015610Y005993D01*
X015610Y005880D02*
X015610Y006220D01*
X015780Y006220D01*
X015837Y006164D01*
X015837Y006050D01*
X015780Y005993D01*
X015469Y006050D02*
X015242Y006050D01*
X015242Y006107D02*
X015242Y005880D01*
X015101Y005937D02*
X015101Y006220D01*
X015242Y006107D02*
X015355Y006220D01*
X015469Y006107D01*
X015469Y005880D01*
X015101Y005937D02*
X015044Y005880D01*
X014930Y005880D01*
X014874Y005937D01*
X014874Y006220D01*
X015180Y006680D02*
X015180Y007180D01*
X016180Y007180D02*
X016430Y007430D01*
X016930Y007430D01*
X017180Y007180D01*
X016517Y006220D02*
X016404Y006220D01*
X016347Y006164D01*
X016517Y006220D02*
X016574Y006164D01*
X016574Y006107D01*
X016347Y005880D01*
X016574Y005880D01*
X016563Y004752D02*
X016506Y004752D01*
X016449Y004696D01*
X016449Y004582D01*
X016506Y004525D01*
X016449Y004384D02*
X016676Y004384D01*
X016789Y004270D01*
X016676Y004157D01*
X016449Y004157D01*
X016506Y004016D02*
X016563Y004016D01*
X016619Y003959D01*
X016676Y004016D01*
X016733Y004016D01*
X016789Y003959D01*
X016789Y003845D01*
X016733Y003789D01*
X016619Y003902D02*
X016619Y003959D01*
X016506Y004016D02*
X016449Y003959D01*
X016449Y003845D01*
X016506Y003789D01*
X017214Y003791D02*
X017327Y003791D01*
X017271Y003791D02*
X017271Y004131D01*
X017327Y004131D02*
X017214Y004131D01*
X017459Y004131D02*
X017686Y003791D01*
X017686Y004131D01*
X017828Y004075D02*
X017885Y004131D01*
X017998Y004131D01*
X018055Y004075D01*
X017828Y003848D01*
X017885Y003791D01*
X017998Y003791D01*
X018055Y003848D01*
X018055Y004075D01*
X017828Y004075D02*
X017828Y003848D01*
X017459Y003791D02*
X017459Y004131D01*
X016789Y004582D02*
X016733Y004525D01*
X016789Y004582D02*
X016789Y004696D01*
X016733Y004752D01*
X016676Y004752D01*
X016619Y004696D01*
X016619Y004639D01*
X016619Y004696D02*
X016563Y004752D01*
X015750Y004696D02*
X015750Y004582D01*
X015693Y004525D01*
X015637Y004384D02*
X015410Y004384D01*
X015466Y004525D02*
X015410Y004582D01*
X015410Y004696D01*
X015466Y004752D01*
X015523Y004752D01*
X015580Y004696D01*
X015637Y004752D01*
X015693Y004752D01*
X015750Y004696D01*
X015580Y004696D02*
X015580Y004639D01*
X015637Y004384D02*
X015750Y004270D01*
X015637Y004157D01*
X015410Y004157D01*
X015466Y004016D02*
X015523Y004016D01*
X015580Y003959D01*
X015637Y004016D01*
X015693Y004016D01*
X015750Y003959D01*
X015750Y003845D01*
X015693Y003789D01*
X015580Y003902D02*
X015580Y003959D01*
X015466Y004016D02*
X015410Y003959D01*
X015410Y003845D01*
X015466Y003789D01*
X014750Y003845D02*
X014750Y003959D01*
X014693Y004016D01*
X014580Y004016D01*
X014580Y003902D01*
X014693Y003789D02*
X014750Y003845D01*
X014693Y003789D02*
X014466Y003789D01*
X014410Y003845D01*
X014410Y003959D01*
X014466Y004016D01*
X014410Y004157D02*
X014750Y004384D01*
X014410Y004384D01*
X014410Y004525D02*
X014410Y004696D01*
X014466Y004752D01*
X014693Y004752D01*
X014750Y004696D01*
X014750Y004525D01*
X014410Y004525D01*
X014410Y004157D02*
X014750Y004157D01*
X013800Y004157D02*
X013460Y004157D01*
X013800Y004384D01*
X013460Y004384D01*
X013460Y004525D02*
X013460Y004696D01*
X013516Y004752D01*
X013743Y004752D01*
X013800Y004696D01*
X013800Y004525D01*
X013460Y004525D01*
X013516Y004016D02*
X013460Y003959D01*
X013460Y003845D01*
X013516Y003789D01*
X013743Y003789D01*
X013800Y003845D01*
X013800Y003959D01*
X013743Y004016D01*
X013630Y004016D01*
X013630Y003902D01*
X012100Y003569D02*
X012100Y003342D01*
X012100Y003455D02*
X011760Y003455D01*
X011873Y003342D01*
X011816Y003200D02*
X011760Y003144D01*
X011760Y003030D01*
X011816Y002973D01*
X012043Y002973D01*
X012100Y003030D01*
X012100Y003144D01*
X012043Y003200D01*
X011816Y003200D01*
X011760Y002841D02*
X011760Y002728D01*
X011760Y002785D02*
X012100Y002785D01*
X012100Y002841D02*
X012100Y002728D01*
X011000Y003845D02*
X010943Y003789D01*
X011000Y003845D02*
X011000Y003959D01*
X010943Y004016D01*
X010887Y004016D01*
X010830Y003959D01*
X010830Y003902D01*
X010830Y003959D02*
X010773Y004016D01*
X010716Y004016D01*
X010660Y003959D01*
X010660Y003845D01*
X010716Y003789D01*
X010660Y004157D02*
X010887Y004157D01*
X011000Y004270D01*
X010887Y004384D01*
X010660Y004384D01*
X010716Y004525D02*
X010660Y004582D01*
X010660Y004696D01*
X010716Y004752D01*
X010773Y004752D01*
X010830Y004696D01*
X010887Y004752D01*
X010943Y004752D01*
X011000Y004696D01*
X011000Y004582D01*
X010943Y004525D01*
X010830Y004639D02*
X010830Y004696D01*
X009800Y004696D02*
X009800Y004525D01*
X009460Y004525D01*
X009460Y004696D01*
X009516Y004752D01*
X009743Y004752D01*
X009800Y004696D01*
X009800Y004384D02*
X009460Y004384D01*
X009460Y004157D02*
X009800Y004384D01*
X009800Y004157D02*
X009460Y004157D01*
X009516Y004016D02*
X009460Y003959D01*
X009460Y003845D01*
X009516Y003789D01*
X009743Y003789D01*
X009800Y003845D01*
X009800Y003959D01*
X009743Y004016D01*
X009630Y004016D01*
X009630Y003902D01*
X008800Y003789D02*
X008460Y003789D01*
X008460Y003959D01*
X008516Y004016D01*
X008630Y004016D01*
X008687Y003959D01*
X008687Y003789D01*
X008800Y004157D02*
X008460Y004157D01*
X008460Y004384D02*
X008800Y004384D01*
X008687Y004270D01*
X008800Y004157D01*
X008800Y004525D02*
X008460Y004525D01*
X008573Y004639D01*
X008460Y004752D01*
X008800Y004752D01*
X007750Y004771D02*
X007410Y004771D01*
X007410Y004941D01*
X007466Y004998D01*
X007580Y004998D01*
X007637Y004941D01*
X007637Y004771D01*
X007637Y004884D02*
X007750Y004998D01*
X007750Y005139D02*
X007750Y005366D01*
X007580Y005253D02*
X007580Y005139D01*
X007410Y005139D02*
X007750Y005139D01*
X007410Y005139D02*
X007410Y005366D01*
X007410Y004639D02*
X007410Y004525D01*
X007410Y004582D02*
X007750Y004582D01*
X007750Y004525D02*
X007750Y004639D01*
X007750Y004384D02*
X007410Y004384D01*
X007410Y004157D02*
X007750Y004157D01*
X007637Y004270D01*
X007750Y004384D01*
X007750Y004016D02*
X007750Y003789D01*
X007750Y003902D02*
X007410Y003902D01*
X007523Y003789D01*
X007137Y003757D02*
X007137Y003984D01*
X007024Y004097D01*
X006910Y003984D01*
X006910Y003757D01*
X006769Y003814D02*
X006769Y004040D01*
X006712Y004097D01*
X006542Y004097D01*
X006542Y003757D01*
X006712Y003757D01*
X006769Y003814D01*
X006910Y003927D02*
X007137Y003927D01*
X006401Y003870D02*
X006401Y003814D01*
X006344Y003757D01*
X006230Y003757D01*
X006174Y003814D01*
X006230Y003927D02*
X006344Y003927D01*
X006401Y003870D01*
X006401Y004040D02*
X006344Y004097D01*
X006230Y004097D01*
X006174Y004040D01*
X006174Y003984D01*
X006230Y003927D01*
X006002Y003757D02*
X005775Y003757D01*
X005775Y004097D01*
X005634Y004040D02*
X005577Y004097D01*
X005464Y004097D01*
X005407Y004040D01*
X005407Y003814D01*
X005464Y003757D01*
X005577Y003757D01*
X005634Y003814D01*
X005266Y003814D02*
X005209Y003757D01*
X005095Y003757D01*
X005039Y003814D01*
X005095Y003927D02*
X005039Y003984D01*
X005039Y004040D01*
X005095Y004097D01*
X005209Y004097D01*
X005266Y004040D01*
X005209Y003927D02*
X005266Y003870D01*
X005266Y003814D01*
X005209Y003927D02*
X005095Y003927D01*
X004114Y003880D02*
X004057Y003937D01*
X003830Y003937D01*
X003773Y003880D01*
X003773Y003767D01*
X003830Y003710D01*
X004057Y003710D01*
X004114Y003767D01*
X004114Y003880D01*
X004114Y004078D02*
X003773Y004078D01*
X003773Y004248D01*
X003830Y004305D01*
X003944Y004305D01*
X004000Y004248D01*
X004000Y004078D01*
X003773Y004447D02*
X003773Y004673D01*
X003773Y004560D02*
X004114Y004560D01*
X004057Y004815D02*
X004114Y004872D01*
X004114Y004985D01*
X004057Y005042D01*
X003830Y005042D01*
X003773Y004985D01*
X003773Y004872D01*
X003830Y004815D01*
X004057Y004815D01*
X003944Y005183D02*
X003944Y005410D01*
X003475Y005297D02*
X003248Y005297D01*
X003362Y005410D02*
X003362Y005183D01*
X003475Y005042D02*
X003248Y005042D01*
X003192Y004985D01*
X003192Y004872D01*
X003248Y004815D01*
X003475Y004815D01*
X003532Y004872D01*
X003532Y004985D01*
X003475Y005042D01*
X003192Y004673D02*
X003192Y004447D01*
X003192Y004560D02*
X003532Y004560D01*
X003362Y004305D02*
X003248Y004305D01*
X003192Y004248D01*
X003192Y004078D01*
X003532Y004078D01*
X003418Y004078D02*
X003418Y004248D01*
X003362Y004305D01*
X003475Y003937D02*
X003248Y003937D01*
X003192Y003880D01*
X003192Y003767D01*
X003248Y003710D01*
X003475Y003710D01*
X003532Y003767D01*
X003532Y003880D01*
X003475Y003937D01*
X002550Y003569D02*
X002550Y003342D01*
X002323Y003569D01*
X002266Y003569D01*
X002210Y003512D01*
X002210Y003398D01*
X002266Y003342D01*
X002266Y003200D02*
X002380Y003200D01*
X002437Y003144D01*
X002437Y002973D01*
X002550Y002973D02*
X002210Y002973D01*
X002210Y003144D01*
X002266Y003200D01*
X002437Y003087D02*
X002550Y003200D01*
X001100Y005960D02*
X001100Y006073D01*
X001100Y006017D02*
X000760Y006017D01*
X000760Y006073D02*
X000760Y005960D01*
X000816Y006206D02*
X000760Y006262D01*
X000760Y006376D01*
X000816Y006432D01*
X000816Y006574D02*
X000760Y006631D01*
X000760Y006744D01*
X000816Y006801D01*
X000873Y006801D01*
X000930Y006744D01*
X000987Y006801D01*
X001043Y006801D01*
X001100Y006744D01*
X001100Y006631D01*
X001043Y006574D01*
X001043Y006432D02*
X001100Y006376D01*
X001100Y006262D01*
X001043Y006206D01*
X000816Y006206D01*
X000930Y006687D02*
X000930Y006744D01*
X000743Y008910D02*
X000800Y008967D01*
X000800Y009080D01*
X000743Y009137D01*
X000743Y009278D02*
X000800Y009335D01*
X000800Y009448D01*
X000743Y009505D01*
X000630Y009505D01*
X000573Y009448D01*
X000573Y009392D01*
X000630Y009278D01*
X000460Y009278D01*
X000460Y009505D01*
X000516Y009137D02*
X000460Y009080D01*
X000460Y008967D01*
X000516Y008910D01*
X000743Y008910D01*
X002323Y009210D02*
X002323Y009550D01*
X002494Y009550D01*
X002550Y009494D01*
X002550Y009380D01*
X002494Y009323D01*
X002323Y009323D01*
X002437Y009323D02*
X002550Y009210D01*
X002692Y009210D02*
X002919Y009210D01*
X002805Y009210D02*
X002805Y009550D01*
X002692Y009437D01*
X005171Y009495D02*
X005171Y009155D01*
X005171Y009268D02*
X005341Y009268D01*
X005397Y009325D01*
X005397Y009438D01*
X005341Y009495D01*
X005171Y009495D01*
X005284Y009268D02*
X005397Y009155D01*
X005539Y009155D02*
X005539Y009495D01*
X005766Y009155D01*
X005766Y009495D01*
X005907Y009438D02*
X005964Y009495D01*
X006077Y009495D01*
X006134Y009438D01*
X006134Y009382D01*
X006077Y009325D01*
X006134Y009268D01*
X006134Y009212D01*
X006077Y009155D01*
X005964Y009155D01*
X005907Y009212D01*
X006021Y009325D02*
X006077Y009325D01*
X003838Y013072D02*
X003611Y013072D01*
X003725Y013072D02*
X003725Y013412D01*
X003611Y013299D01*
X003470Y013356D02*
X003413Y013412D01*
X003300Y013412D01*
X003243Y013356D01*
X003243Y013129D01*
X003300Y013072D01*
X003413Y013072D01*
X003470Y013129D01*
X003111Y013072D02*
X002997Y013072D01*
X003054Y013072D02*
X003054Y013412D01*
X002997Y013412D02*
X003111Y013412D01*
X004247Y013423D02*
X004247Y013310D01*
X004303Y013253D01*
X004530Y013253D01*
X004587Y013310D01*
X004587Y013423D01*
X004530Y013480D01*
X004587Y013621D02*
X004360Y013848D01*
X004303Y013848D01*
X004247Y013791D01*
X004247Y013678D01*
X004303Y013621D01*
X004303Y013480D02*
X004247Y013423D01*
X004587Y013621D02*
X004587Y013848D01*
X004480Y014390D02*
X004253Y014390D01*
X004197Y014447D01*
X004197Y014560D01*
X004253Y014617D01*
X004310Y014759D02*
X004197Y014872D01*
X004537Y014872D01*
X004537Y014759D02*
X004537Y014985D01*
X004480Y014617D02*
X004537Y014560D01*
X004537Y014447D01*
X004480Y014390D01*
X002308Y015241D02*
X002251Y015184D01*
X002308Y015241D02*
X002308Y015354D01*
X002251Y015411D01*
X002195Y015411D01*
X002138Y015354D01*
X002138Y015241D01*
X002081Y015184D01*
X002024Y015184D01*
X001968Y015241D01*
X001968Y015354D01*
X002024Y015411D01*
X001968Y015552D02*
X002251Y015552D01*
X002308Y015609D01*
X002308Y015722D01*
X002251Y015779D01*
X001968Y015779D01*
X001968Y015921D02*
X001968Y016091D01*
X002024Y016147D01*
X002138Y016147D01*
X002195Y016091D01*
X002195Y015921D01*
X002308Y015921D02*
X001968Y015921D01*
X001680Y015930D02*
X001430Y015680D01*
X001680Y015430D01*
X001680Y014930D01*
X001430Y014680D01*
X000930Y014680D01*
X000680Y014930D01*
X000680Y015430D01*
X000930Y015680D01*
X000680Y015930D01*
X000680Y016430D01*
X000930Y016680D01*
X001430Y016680D01*
X001680Y016430D01*
X001680Y015930D01*
X001430Y015680D02*
X000930Y015680D01*
X001184Y014334D02*
X001184Y013907D01*
X000971Y014120D02*
X001398Y014120D01*
X001358Y017120D02*
X000931Y017120D01*
X001922Y018111D02*
X002263Y018338D01*
X002263Y018479D02*
X002263Y018706D01*
X002263Y018593D02*
X001922Y018593D01*
X002036Y018479D01*
X001922Y018338D02*
X002263Y018111D01*
X013860Y017228D02*
X013973Y017115D01*
X013916Y016973D02*
X013860Y016917D01*
X013860Y016803D01*
X013916Y016747D01*
X014143Y016747D01*
X014200Y016803D01*
X014200Y016917D01*
X014143Y016973D01*
X014200Y017115D02*
X014200Y017342D01*
X014200Y017228D02*
X013860Y017228D01*
X013916Y016605D02*
X013860Y016548D01*
X013860Y016435D01*
X013916Y016378D01*
X013973Y016378D01*
X014030Y016435D01*
X014030Y016548D01*
X014087Y016605D01*
X014143Y016605D01*
X014200Y016548D01*
X014200Y016435D01*
X014143Y016378D01*
X014143Y016237D02*
X013916Y016237D01*
X013860Y016180D01*
X013860Y016067D01*
X013916Y016010D01*
X014143Y016010D01*
X014200Y016067D01*
X014200Y016180D01*
X014143Y016237D01*
X015266Y018160D02*
X015493Y018160D01*
X015550Y018217D01*
X015550Y018330D01*
X015493Y018387D01*
X015380Y018387D01*
X015380Y018273D01*
X015266Y018160D02*
X015210Y018217D01*
X015210Y018330D01*
X015266Y018387D01*
X015210Y018528D02*
X015550Y018755D01*
X015210Y018755D01*
X015210Y018897D02*
X015210Y019067D01*
X015266Y019123D01*
X015493Y019123D01*
X015550Y019067D01*
X015550Y018897D01*
X015210Y018897D01*
X015210Y018528D02*
X015550Y018528D01*
X015680Y018430D02*
X015680Y018930D01*
X015930Y019180D01*
X016430Y019180D01*
X016680Y018930D01*
X016930Y019180D01*
X017430Y019180D01*
X017680Y018930D01*
X017930Y019180D01*
X018430Y019180D01*
X018680Y018930D01*
X018930Y019180D01*
X019430Y019180D01*
X019680Y018930D01*
X019930Y019180D01*
X020430Y019180D01*
X020680Y018930D01*
X020930Y019180D01*
X021430Y019180D01*
X021680Y018930D01*
X021680Y018430D01*
X021430Y018180D01*
X020930Y018180D01*
X020680Y018430D01*
X020430Y018180D01*
X019930Y018180D01*
X019680Y018430D01*
X019680Y018930D01*
X019680Y018430D02*
X019430Y018180D01*
X018930Y018180D01*
X018680Y018430D01*
X018430Y018180D01*
X017930Y018180D01*
X017680Y018430D01*
X017430Y018180D01*
X016930Y018180D01*
X016680Y018430D01*
X016430Y018180D01*
X015930Y018180D01*
X015680Y018430D01*
X016680Y018430D02*
X016680Y018930D01*
X017680Y018930D02*
X017680Y018430D01*
X018117Y017900D02*
X018060Y017844D01*
X018117Y017900D02*
X018230Y017900D01*
X018287Y017844D01*
X018287Y017787D01*
X018060Y017560D01*
X018287Y017560D01*
X018710Y017617D02*
X018710Y017844D01*
X018767Y017900D01*
X018880Y017900D01*
X018937Y017844D01*
X018937Y017730D02*
X018823Y017730D01*
X018937Y017730D02*
X018937Y017617D01*
X018880Y017560D01*
X018767Y017560D01*
X018710Y017617D01*
X019078Y017560D02*
X019078Y017900D01*
X019305Y017560D01*
X019305Y017900D01*
X019447Y017900D02*
X019617Y017900D01*
X019673Y017844D01*
X019673Y017617D01*
X019617Y017560D01*
X019447Y017560D01*
X019447Y017900D01*
X020060Y017787D02*
X020173Y017900D01*
X020173Y017560D01*
X020060Y017560D02*
X020287Y017560D01*
X021060Y017617D02*
X021287Y017844D01*
X021287Y017617D01*
X021230Y017560D01*
X021117Y017560D01*
X021060Y017617D01*
X021060Y017844D01*
X021117Y017900D01*
X021230Y017900D01*
X021287Y017844D01*
X020680Y018430D02*
X020680Y018930D01*
X018680Y018930D02*
X018680Y018430D01*
X017287Y017844D02*
X017287Y017787D01*
X017230Y017730D01*
X017287Y017673D01*
X017287Y017617D01*
X017230Y017560D01*
X017117Y017560D01*
X017060Y017617D01*
X017173Y017730D02*
X017230Y017730D01*
X017287Y017844D02*
X017230Y017900D01*
X017117Y017900D01*
X017060Y017844D01*
X017760Y016955D02*
X017816Y016955D01*
X018043Y016728D01*
X018100Y016728D01*
X018043Y016587D02*
X018100Y016530D01*
X018100Y016417D01*
X018043Y016360D01*
X017816Y016360D01*
X017760Y016417D01*
X017760Y016530D01*
X017816Y016587D01*
X017760Y016728D02*
X017760Y016955D01*
X017735Y014850D02*
X017848Y014850D01*
X017905Y014794D01*
X017905Y014737D01*
X017848Y014680D01*
X017905Y014623D01*
X017905Y014567D01*
X017848Y014510D01*
X017735Y014510D01*
X017678Y014567D01*
X017537Y014567D02*
X017480Y014510D01*
X017367Y014510D01*
X017310Y014567D01*
X017310Y014794D01*
X017367Y014850D01*
X017480Y014850D01*
X017537Y014794D01*
X017678Y014794D02*
X017735Y014850D01*
X017792Y014680D02*
X017848Y014680D01*
X019410Y014644D02*
X019410Y014417D01*
X019467Y014360D01*
X019580Y014360D01*
X019637Y014417D01*
X019778Y014417D02*
X019835Y014360D01*
X019948Y014360D01*
X020005Y014417D01*
X020005Y014473D01*
X019948Y014530D01*
X019778Y014530D01*
X019778Y014417D01*
X019778Y014530D02*
X019892Y014644D01*
X020005Y014700D01*
X019637Y014644D02*
X019580Y014700D01*
X019467Y014700D01*
X019410Y014644D01*
X017929Y011880D02*
X017816Y011880D01*
X017759Y011823D01*
X017618Y011823D02*
X017561Y011880D01*
X017448Y011880D01*
X017391Y011823D01*
X017391Y011597D01*
X017448Y011540D01*
X017561Y011540D01*
X017618Y011597D01*
X017759Y011540D02*
X017986Y011767D01*
X017986Y011823D01*
X017929Y011880D01*
X017986Y011540D02*
X017759Y011540D01*
X017259Y011540D02*
X017145Y011540D01*
X017202Y011540D02*
X017202Y011880D01*
X017145Y011880D02*
X017259Y011880D01*
X018549Y008572D02*
X018719Y008402D01*
X018719Y008629D01*
X018889Y008572D02*
X018549Y008572D01*
X018606Y008261D02*
X018549Y008204D01*
X018549Y008091D01*
X018606Y008034D01*
X018833Y008034D01*
X018889Y008091D01*
X018889Y008204D01*
X018833Y008261D01*
X022028Y011060D02*
X022028Y011400D01*
X022198Y011400D01*
X022255Y011344D01*
X022255Y011230D01*
X022198Y011173D01*
X022028Y011173D01*
X022142Y011173D02*
X022255Y011060D01*
X022396Y011060D02*
X022396Y011117D01*
X022623Y011344D01*
X022623Y011400D01*
X022396Y011400D01*
X022849Y007865D02*
X022963Y007865D01*
X023019Y007809D01*
X023019Y007639D01*
X023133Y007639D02*
X022792Y007639D01*
X022792Y007809D01*
X022849Y007865D01*
X022849Y007497D02*
X022792Y007440D01*
X022792Y007327D01*
X022849Y007270D01*
X022906Y007270D01*
X022963Y007327D01*
X022963Y007440D01*
X023019Y007497D01*
X023076Y007497D01*
X023133Y007440D01*
X023133Y007327D01*
X023076Y007270D01*
X023076Y007129D02*
X023133Y007072D01*
X023133Y006959D01*
X023076Y006902D01*
X022849Y006902D01*
X022792Y006959D01*
X022792Y007072D01*
X022849Y007129D01*
X022792Y006770D02*
X022792Y006656D01*
X022792Y006713D02*
X023133Y006713D01*
X023133Y006656D02*
X023133Y006770D01*
X019750Y003902D02*
X019750Y003789D01*
X019750Y003845D02*
X019410Y003845D01*
X019410Y003789D02*
X019410Y003902D01*
X018750Y003902D02*
X018750Y003789D01*
X018750Y003845D02*
X018410Y003845D01*
X018410Y003789D02*
X018410Y003902D01*
X018410Y004034D02*
X018750Y004261D01*
X018410Y004261D01*
X018523Y004403D02*
X018410Y004516D01*
X018750Y004516D01*
X018750Y004403D02*
X018750Y004629D01*
X018750Y004034D02*
X018410Y004034D01*
D12*
X003859Y014062D02*
X003859Y014255D01*
X003859Y014062D02*
X003762Y013965D01*
X003665Y014062D01*
X003665Y014255D01*
X003269Y014207D02*
X003076Y014013D01*
X003124Y013965D01*
X003221Y013965D01*
X003269Y014013D01*
X003269Y014207D01*
X003221Y014255D01*
X003124Y014255D01*
X003076Y014207D01*
X003076Y014013D01*
X002975Y014013D02*
X002926Y013965D01*
X002830Y013965D01*
X002781Y014013D01*
X002682Y014013D02*
X002682Y013965D01*
X002634Y013965D01*
X002634Y014013D01*
X002682Y014013D01*
X002535Y014013D02*
X002535Y013965D01*
X002487Y013965D01*
X002487Y014013D01*
X002535Y014013D01*
X002385Y014013D02*
X002337Y013965D01*
X002240Y013965D01*
X002192Y014013D01*
X002192Y014110D02*
X002289Y014159D01*
X002337Y014159D01*
X002385Y014110D01*
X002385Y014013D01*
X002192Y014110D02*
X002192Y014255D01*
X002385Y014255D01*
X002781Y014207D02*
X002830Y014255D01*
X002926Y014255D01*
X002975Y014207D01*
X002975Y014159D01*
X002926Y014110D01*
X002975Y014062D01*
X002975Y014013D01*
X002926Y014110D02*
X002878Y014110D01*
X002292Y014743D02*
X002292Y014937D01*
X002388Y014840D02*
X002195Y014840D01*
X003821Y014840D02*
X004014Y014840D01*
D13*
X003674Y014837D02*
X003410Y014837D01*
X002944Y014837D02*
X002946Y014857D01*
X002952Y014875D01*
X002961Y014893D01*
X002973Y014908D01*
X002988Y014920D01*
X003006Y014929D01*
X003024Y014935D01*
X003044Y014937D01*
X003064Y014935D01*
X003082Y014929D01*
X003100Y014920D01*
X003115Y014908D01*
X003127Y014893D01*
X003136Y014875D01*
X003142Y014857D01*
X003144Y014837D01*
X003142Y014817D01*
X003136Y014799D01*
X003127Y014781D01*
X003115Y014766D01*
X003100Y014754D01*
X003082Y014745D01*
X003064Y014739D01*
X003044Y014737D01*
X003024Y014739D01*
X003006Y014745D01*
X002988Y014754D01*
X002973Y014766D01*
X002961Y014781D01*
X002952Y014799D01*
X002946Y014817D01*
X002944Y014837D01*
X002986Y015177D02*
X003023Y015181D01*
X003059Y015180D01*
X003096Y015176D01*
X003132Y015168D01*
X003166Y015156D01*
X003200Y015141D01*
X003231Y015122D01*
X003261Y015100D01*
X003288Y015076D01*
X003312Y015048D01*
X003334Y015018D01*
X003352Y014986D01*
X003367Y014953D01*
X003378Y014918D01*
X003386Y014882D01*
X003390Y014845D01*
X003390Y014809D01*
X003386Y014772D01*
X003378Y014736D01*
X003367Y014701D01*
X003352Y014668D01*
X003334Y014636D01*
X003312Y014606D01*
X003288Y014578D01*
X003261Y014554D01*
X003231Y014532D01*
X003200Y014513D01*
X003166Y014498D01*
X003132Y014486D01*
X003096Y014478D01*
X003059Y014474D01*
X003023Y014473D01*
X002986Y014477D01*
X003044Y014837D02*
X002544Y014837D01*
D14*
X013900Y009800D02*
X014033Y009800D01*
X013967Y009800D02*
X013967Y009600D01*
X014121Y009600D02*
X014254Y009800D01*
X014342Y009733D02*
X014409Y009800D01*
X014409Y009600D01*
X014475Y009600D02*
X014342Y009600D01*
X014254Y009600D02*
X014121Y009800D01*
X014900Y009800D02*
X014900Y009600D01*
X014900Y009667D02*
X015000Y009667D01*
X015033Y009700D01*
X015033Y009767D01*
X015000Y009800D01*
X014900Y009800D01*
X014967Y009667D02*
X015033Y009600D01*
X015121Y009600D02*
X015254Y009800D01*
X015342Y009733D02*
X015409Y009800D01*
X015409Y009600D01*
X015475Y009600D02*
X015342Y009600D01*
X015254Y009600D02*
X015121Y009800D01*
X014942Y007800D02*
X014842Y007800D01*
X014842Y007600D01*
X014942Y007600D01*
X014975Y007633D01*
X014975Y007767D01*
X014942Y007800D01*
X014754Y007800D02*
X014754Y007600D01*
X014621Y007800D01*
X014621Y007600D01*
X014533Y007633D02*
X014533Y007700D01*
X014467Y007700D01*
X014533Y007633D02*
X014500Y007600D01*
X014433Y007600D01*
X014400Y007633D01*
X014400Y007767D01*
X014433Y007800D01*
X014500Y007800D01*
X014533Y007767D01*
X015400Y007800D02*
X015500Y007800D01*
X015533Y007767D01*
X015533Y007700D01*
X015500Y007667D01*
X015400Y007667D01*
X015467Y007667D02*
X015533Y007600D01*
X015621Y007600D02*
X015721Y007600D01*
X015754Y007633D01*
X015754Y007767D01*
X015721Y007800D01*
X015621Y007800D01*
X015621Y007600D01*
X015400Y007600D02*
X015400Y007800D01*
X015842Y007700D02*
X015975Y007700D01*
X015942Y007600D02*
X015942Y007800D01*
X015842Y007700D01*
X016400Y007800D02*
X016533Y007800D01*
X016467Y007800D02*
X016467Y007600D01*
X016621Y007600D02*
X016754Y007800D01*
X016842Y007767D02*
X016875Y007800D01*
X016942Y007800D01*
X016975Y007767D01*
X016975Y007733D01*
X016842Y007600D01*
X016975Y007600D01*
X016754Y007600D02*
X016621Y007800D01*
X017400Y007800D02*
X017500Y007800D01*
X017533Y007767D01*
X017533Y007700D01*
X017500Y007667D01*
X017400Y007667D01*
X017467Y007667D02*
X017533Y007600D01*
X017621Y007600D02*
X017754Y007800D01*
X017842Y007767D02*
X017875Y007800D01*
X017942Y007800D01*
X017975Y007767D01*
X017975Y007733D01*
X017842Y007600D01*
X017975Y007600D01*
X017754Y007600D02*
X017621Y007800D01*
X017400Y007800D02*
X017400Y007600D01*
X020650Y009100D02*
X020650Y009300D01*
X020717Y009233D01*
X020783Y009300D01*
X020783Y009100D01*
X020871Y009133D02*
X020904Y009100D01*
X020971Y009100D01*
X021004Y009133D01*
X021092Y009100D02*
X021092Y009300D01*
X021004Y009267D02*
X020971Y009300D01*
X020904Y009300D01*
X020871Y009267D01*
X020871Y009133D01*
X021092Y009100D02*
X021225Y009100D01*
X021313Y009100D02*
X021313Y009300D01*
X021413Y009300D01*
X021446Y009267D01*
X021446Y009200D01*
X021413Y009167D01*
X021313Y009167D01*
X021380Y009167D02*
X021446Y009100D01*
X021442Y008300D02*
X021475Y008267D01*
X021475Y008233D01*
X021442Y008200D01*
X021475Y008167D01*
X021475Y008133D01*
X021442Y008100D01*
X021375Y008100D01*
X021342Y008133D01*
X021254Y008167D02*
X021254Y008300D01*
X021342Y008267D02*
X021375Y008300D01*
X021442Y008300D01*
X021442Y008200D02*
X021409Y008200D01*
X021254Y008167D02*
X021188Y008100D01*
X021121Y008167D01*
X021121Y008300D01*
X021033Y008267D02*
X021033Y008233D01*
X021000Y008200D01*
X021033Y008167D01*
X021033Y008133D01*
X021000Y008100D01*
X020933Y008100D01*
X020900Y008133D01*
X020967Y008200D02*
X021000Y008200D01*
X021033Y008267D02*
X021000Y008300D01*
X020933Y008300D01*
X020900Y008267D01*
X020933Y007300D02*
X020900Y007267D01*
X020900Y007133D01*
X020933Y007100D01*
X021000Y007100D01*
X021033Y007133D01*
X021033Y007200D01*
X020967Y007200D01*
X021033Y007267D02*
X021000Y007300D01*
X020933Y007300D01*
X021121Y007300D02*
X021254Y007100D01*
X021254Y007300D01*
X021342Y007300D02*
X021442Y007300D01*
X021475Y007267D01*
X021475Y007133D01*
X021442Y007100D01*
X021342Y007100D01*
X021342Y007300D01*
X021121Y007300D02*
X021121Y007100D01*
X021154Y006300D02*
X021121Y006267D01*
X021121Y006133D01*
X021154Y006100D01*
X021221Y006100D01*
X021254Y006133D01*
X021254Y006200D01*
X021188Y006200D01*
X021254Y006267D02*
X021221Y006300D01*
X021154Y006300D01*
X021033Y006267D02*
X021033Y006200D01*
X021000Y006167D01*
X020900Y006167D01*
X020900Y006100D02*
X020900Y006300D01*
X021000Y006300D01*
X021033Y006267D01*
X021342Y006300D02*
X021442Y006300D01*
X021475Y006267D01*
X021475Y006133D01*
X021442Y006100D01*
X021342Y006100D01*
X021342Y006300D01*
X021375Y005300D02*
X021342Y005267D01*
X021342Y005133D01*
X021375Y005100D01*
X021442Y005100D01*
X021475Y005133D01*
X021475Y005267D02*
X021442Y005300D01*
X021375Y005300D01*
X021254Y005267D02*
X021221Y005300D01*
X021154Y005300D01*
X021121Y005267D01*
X021121Y005133D01*
X021154Y005100D01*
X021221Y005100D01*
X021254Y005133D01*
X021254Y005200D01*
X021188Y005200D01*
X021033Y005200D02*
X021033Y005267D01*
X021000Y005300D01*
X020900Y005300D01*
X020900Y005100D01*
X020900Y005167D02*
X021000Y005167D01*
X021033Y005200D01*
X019836Y010781D02*
X019913Y010858D01*
X019913Y011011D01*
X019836Y011088D01*
X019759Y011088D01*
X019683Y011011D01*
X019683Y010858D01*
X019606Y010781D01*
X019529Y010781D01*
X019452Y010858D01*
X019452Y011011D01*
X019529Y011088D01*
X019452Y011241D02*
X019913Y011241D01*
X019759Y011395D01*
X019913Y011548D01*
X019452Y011548D01*
X019606Y011702D02*
X019452Y011855D01*
X019913Y011855D01*
X019913Y011702D02*
X019913Y012009D01*
D15*
X019440Y013448D02*
X019282Y013605D01*
X015818Y013605D01*
X015660Y013448D01*
X015660Y009983D01*
X015818Y009826D01*
X019282Y009826D01*
X019440Y009983D01*
X019440Y013448D01*
X019451Y016970D02*
X019731Y016970D01*
X019912Y017040D02*
X019912Y017320D01*
X019982Y017390D01*
X020122Y017390D01*
X020192Y017320D01*
X020192Y017040D01*
X020122Y016970D01*
X019982Y016970D01*
X019912Y017040D01*
X020372Y017040D02*
X020442Y016970D01*
X020582Y016970D01*
X020652Y017040D01*
X020652Y017180D01*
X020512Y017180D01*
X020372Y017320D02*
X020372Y017040D01*
X020372Y017320D02*
X020442Y017390D01*
X020582Y017390D01*
X020652Y017320D01*
X019451Y017390D02*
X019451Y016970D01*
X019271Y016970D02*
X019271Y017250D01*
X019131Y017390D01*
X018991Y017250D01*
X018991Y016970D01*
X018811Y016970D02*
X018811Y017390D01*
X018991Y017180D02*
X019271Y017180D01*
X018811Y016970D02*
X018530Y017390D01*
X018530Y016970D01*
X018350Y016970D02*
X018350Y017250D01*
X018210Y017390D01*
X018070Y017250D01*
X018070Y016970D01*
X018070Y017180D02*
X018350Y017180D01*
X014648Y010390D02*
X014507Y010390D01*
X014437Y010320D01*
X014437Y010040D01*
X014507Y009970D01*
X014648Y009970D01*
X014718Y010040D01*
X014718Y010320D02*
X014648Y010390D01*
X014271Y010390D02*
X014130Y010390D01*
X014200Y010390D02*
X014200Y009970D01*
X014130Y009970D02*
X014271Y009970D01*
X013950Y010180D02*
X013950Y010320D01*
X013880Y010390D01*
X013670Y010390D01*
X013670Y009970D01*
X013670Y010110D02*
X013880Y010110D01*
X013950Y010180D01*
X012062Y007497D02*
X012062Y007417D01*
X012062Y007257D02*
X012062Y006937D01*
X011982Y006937D02*
X012142Y006937D01*
X012325Y006937D02*
X012646Y007257D01*
X012646Y006937D02*
X012325Y007257D01*
X012062Y007257D02*
X011982Y007257D01*
X011786Y007177D02*
X011786Y006937D01*
X011466Y006937D02*
X011466Y007257D01*
X011706Y007257D01*
X011786Y007177D01*
X011271Y007177D02*
X011271Y007017D01*
X011191Y006937D01*
X011030Y006937D01*
X010950Y007017D01*
X010950Y007177D01*
X011030Y007257D01*
X011191Y007257D01*
X011271Y007177D01*
X010761Y007257D02*
X010681Y007257D01*
X010521Y007097D01*
X010521Y006937D02*
X010521Y007257D01*
X010325Y007417D02*
X010005Y007417D01*
X010165Y007417D02*
X010165Y006937D01*
X009810Y006937D02*
X009569Y006937D01*
X009489Y007017D01*
X009569Y007097D01*
X009810Y007097D01*
X009810Y007177D02*
X009810Y006937D01*
X009835Y006540D02*
X009595Y006540D01*
X009595Y006220D01*
X009411Y006220D02*
X009331Y006300D01*
X009331Y006620D01*
X009251Y006540D02*
X009411Y006540D01*
X009300Y006937D02*
X009060Y007097D01*
X009300Y007257D01*
X009569Y007257D02*
X009730Y007257D01*
X009810Y007177D01*
X009835Y006540D02*
X009915Y006460D01*
X009915Y006220D01*
X010111Y006300D02*
X010191Y006220D01*
X010351Y006220D01*
X010431Y006300D01*
X010431Y006460D01*
X010351Y006540D01*
X010191Y006540D01*
X010111Y006460D01*
X010111Y006300D01*
X010626Y006300D02*
X010626Y006460D01*
X010706Y006540D01*
X010947Y006540D01*
X010947Y006700D02*
X010947Y006220D01*
X010706Y006220D01*
X010626Y006300D01*
X011142Y006300D02*
X011142Y006460D01*
X011222Y006540D01*
X011382Y006540D01*
X011462Y006460D01*
X011462Y006380D01*
X011142Y006380D01*
X011142Y006300D02*
X011222Y006220D01*
X011382Y006220D01*
X012173Y006540D02*
X012333Y006220D01*
X012494Y006540D01*
X012689Y006620D02*
X012769Y006700D01*
X012929Y006700D01*
X013009Y006620D01*
X013009Y006540D01*
X012929Y006460D01*
X013009Y006380D01*
X013009Y006300D01*
X012929Y006220D01*
X012769Y006220D01*
X012689Y006300D01*
X012849Y006460D02*
X012929Y006460D01*
X009056Y006460D02*
X009056Y006380D01*
X008736Y006380D01*
X008736Y006300D02*
X008736Y006460D01*
X008816Y006540D01*
X008976Y006540D01*
X009056Y006460D01*
X008976Y006220D02*
X008816Y006220D01*
X008736Y006300D01*
X008540Y006220D02*
X008540Y006700D01*
X008521Y006937D02*
X008200Y006937D01*
X008200Y007417D01*
X008716Y007257D02*
X008796Y007257D01*
X008796Y006937D01*
X008716Y006937D02*
X008876Y006937D01*
X009060Y006937D02*
X009060Y007417D01*
X008796Y007417D02*
X008796Y007497D01*
X008220Y006700D02*
X008540Y006220D01*
X008220Y006220D02*
X008220Y006700D01*
X006487Y005455D02*
X006207Y005455D01*
X006347Y005455D02*
X006347Y005035D01*
X006027Y005035D02*
X006027Y005315D01*
X005887Y005455D01*
X005747Y005315D01*
X005747Y005035D01*
X005567Y005035D02*
X005286Y005035D01*
X005286Y005455D01*
X005567Y005455D01*
X005427Y005245D02*
X005286Y005245D01*
X005106Y005175D02*
X005106Y005105D01*
X005036Y005035D01*
X004826Y005035D01*
X004826Y005455D01*
X005036Y005455D01*
X005106Y005385D01*
X005106Y005315D01*
X005036Y005245D01*
X004826Y005245D01*
X004646Y005245D02*
X004366Y005245D01*
X004366Y005035D02*
X004366Y005455D01*
X004646Y005455D02*
X004646Y005035D01*
X005036Y005245D02*
X005106Y005175D01*
X005747Y005245D02*
X006027Y005245D01*
X006149Y006496D02*
X005939Y006706D01*
X005869Y006636D02*
X006149Y006916D01*
X005869Y006916D02*
X005869Y006496D01*
X005689Y006496D02*
X005689Y006916D01*
X005409Y006916D02*
X005689Y006496D01*
X005409Y006496D02*
X005409Y006916D01*
X005242Y006916D02*
X005102Y006916D01*
X005172Y006916D02*
X005172Y006496D01*
X005102Y006496D02*
X005242Y006496D01*
X004921Y006496D02*
X004641Y006496D01*
X004641Y006916D01*
X005194Y007956D02*
X005194Y008377D01*
X005405Y008377D01*
X005475Y008307D01*
X005475Y008166D01*
X005405Y008096D01*
X005194Y008096D01*
X005655Y007956D02*
X005795Y008096D01*
X005935Y007956D01*
X005935Y008377D01*
X006115Y008377D02*
X006325Y008377D01*
X006395Y008307D01*
X006395Y008166D01*
X006325Y008096D01*
X006115Y008096D01*
X006115Y007956D02*
X006115Y008377D01*
X006255Y008096D02*
X006395Y007956D01*
X005655Y007956D02*
X005655Y008377D01*
X021627Y008454D02*
X021627Y007954D01*
X021877Y007704D01*
X021627Y007454D01*
X021627Y006954D01*
X021877Y006704D01*
X021627Y006454D01*
X021627Y005954D01*
X021877Y005704D01*
X021627Y005454D01*
X021627Y004954D01*
X021877Y004704D01*
X022377Y004704D01*
X022627Y004954D01*
X022627Y005454D01*
X022377Y005704D01*
X022627Y005954D01*
X022627Y006454D01*
X022377Y006704D01*
X022627Y006954D01*
X022627Y007454D01*
X022377Y007704D01*
X022627Y007954D01*
X022627Y008454D01*
X022377Y008704D01*
X022627Y008954D01*
X022627Y009454D01*
X022377Y009704D01*
X021877Y009704D01*
X021627Y009454D01*
X021627Y008954D01*
X021877Y008704D01*
X021627Y008454D01*
D16*
X021038Y011723D02*
X023322Y011723D01*
X023322Y014637D01*
X021038Y014637D01*
X021038Y011723D01*
X016564Y015429D02*
X016564Y016531D01*
X015895Y017358D02*
X015265Y017358D01*
X014556Y017594D02*
X014558Y017612D01*
X014564Y017628D01*
X014573Y017643D01*
X014586Y017656D01*
X014601Y017665D01*
X014617Y017671D01*
X014635Y017673D01*
X014653Y017671D01*
X014669Y017665D01*
X014684Y017656D01*
X014697Y017643D01*
X014706Y017628D01*
X014712Y017612D01*
X014714Y017594D01*
X014712Y017576D01*
X014706Y017560D01*
X014697Y017545D01*
X014684Y017532D01*
X014669Y017523D01*
X014653Y017517D01*
X014635Y017515D01*
X014617Y017517D01*
X014601Y017523D01*
X014586Y017532D01*
X014573Y017545D01*
X014564Y017560D01*
X014558Y017576D01*
X014556Y017594D01*
X014517Y016531D02*
X014517Y015429D01*
X015265Y014602D02*
X015895Y014602D01*
X012974Y011930D02*
X012929Y011975D01*
X012839Y011975D01*
X012794Y011930D01*
X012794Y011885D01*
X012839Y011840D01*
X012929Y011840D01*
X012974Y011795D01*
X012974Y011750D01*
X012929Y011705D01*
X012839Y011705D01*
X012794Y011750D01*
X012839Y011705D01*
X012929Y011705D01*
X012974Y011750D01*
X012974Y011795D01*
X012929Y011840D01*
X012839Y011840D01*
X012794Y011885D01*
X012794Y011930D01*
X012839Y011975D01*
X012929Y011975D01*
X012974Y011930D01*
X012680Y011975D02*
X012500Y011975D01*
X012680Y011975D01*
X012590Y011975D02*
X012590Y011705D01*
X012590Y011975D01*
X012385Y011930D02*
X012385Y011840D01*
X012340Y011795D01*
X012205Y011795D01*
X012340Y011795D01*
X012385Y011840D01*
X012385Y011930D01*
X012340Y011975D01*
X012205Y011975D01*
X012205Y011705D01*
X012205Y011975D01*
X012340Y011975D01*
X012385Y011930D01*
X012295Y011795D02*
X012385Y011705D01*
X012295Y011795D01*
X010474Y012705D02*
X010294Y012975D01*
X010180Y012975D02*
X010000Y012975D01*
X010090Y012975D02*
X010090Y012705D01*
X010294Y012705D02*
X010474Y012975D01*
X009885Y012930D02*
X009885Y012840D01*
X009840Y012795D01*
X009705Y012795D01*
X009705Y012705D02*
X009705Y012975D01*
X009840Y012975D01*
X009885Y012930D01*
X009474Y012975D02*
X009294Y012975D01*
X009384Y012975D02*
X009384Y012705D01*
X009180Y012750D02*
X009135Y012705D01*
X009045Y012705D01*
X009000Y012750D01*
X009045Y012840D02*
X009135Y012840D01*
X009180Y012795D01*
X009180Y012750D01*
X009045Y012840D02*
X009000Y012885D01*
X009000Y012930D01*
X009045Y012975D01*
X009135Y012975D01*
X009180Y012930D01*
X008885Y012930D02*
X008885Y012840D01*
X008840Y012795D01*
X008705Y012795D01*
X008705Y012705D02*
X008705Y012975D01*
X008840Y012975D01*
X008885Y012930D01*
X008795Y012795D02*
X008885Y012705D01*
X008474Y012750D02*
X008474Y012930D01*
X008429Y012975D01*
X008294Y012975D01*
X008294Y012705D01*
X008429Y012705D01*
X008474Y012750D01*
X008180Y012705D02*
X008180Y012975D01*
X008000Y012975D02*
X008000Y012705D01*
X007885Y012750D02*
X007885Y012840D01*
X007795Y012840D01*
X007705Y012930D02*
X007705Y012750D01*
X007750Y012705D01*
X007840Y012705D01*
X007885Y012750D01*
X007885Y012930D02*
X007840Y012975D01*
X007750Y012975D01*
X007705Y012930D01*
X008000Y012975D02*
X008180Y012705D01*
X008287Y014811D02*
X008377Y014901D01*
X008377Y015082D01*
X008492Y015036D02*
X008492Y014856D01*
X008537Y014811D01*
X008627Y014811D01*
X008672Y014856D01*
X008786Y014856D02*
X008831Y014811D01*
X008922Y014811D01*
X008967Y014856D01*
X008967Y015036D02*
X008922Y015082D01*
X008831Y015082D01*
X008786Y015036D01*
X008786Y014856D01*
X008672Y015036D02*
X008627Y015082D01*
X008537Y015082D01*
X008492Y015036D01*
X008197Y015082D02*
X008197Y014901D01*
X008287Y014811D01*
X009221Y014811D02*
X009221Y015082D01*
X009356Y015082D01*
X009401Y015036D01*
X009401Y014946D01*
X009356Y014901D01*
X009221Y014901D01*
X009515Y014901D02*
X009651Y014901D01*
X009696Y014946D01*
X009696Y015036D01*
X009651Y015082D01*
X009515Y015082D01*
X009515Y014811D01*
X009605Y014901D02*
X009696Y014811D01*
X009810Y014811D02*
X009990Y015082D01*
X009810Y015082D02*
X009990Y014811D01*
X010205Y014856D02*
X010250Y014811D01*
X010340Y014811D01*
X010385Y014856D01*
X010385Y014901D01*
X010340Y014946D01*
X010250Y014946D01*
X010205Y014991D01*
X010205Y015036D01*
X010250Y015082D01*
X010340Y015082D01*
X010385Y015036D01*
X010500Y015082D02*
X010680Y015082D01*
X010590Y015082D02*
X010590Y014811D01*
X010794Y014811D02*
X010794Y014991D01*
X010884Y015082D01*
X010974Y014991D01*
X010974Y014811D01*
X010974Y014946D02*
X010794Y014946D01*
X011229Y014901D02*
X011364Y014901D01*
X011409Y014946D01*
X011409Y015036D01*
X011364Y015082D01*
X011229Y015082D01*
X011229Y014811D01*
X011319Y014901D02*
X011409Y014811D01*
X011613Y014811D02*
X011613Y015082D01*
X011523Y015082D02*
X011703Y015082D01*
X011818Y015036D02*
X011818Y014991D01*
X011863Y014946D01*
X011953Y014946D01*
X011998Y014901D01*
X011998Y014856D01*
X011953Y014811D01*
X011863Y014811D01*
X011818Y014856D01*
X011818Y015036D02*
X011863Y015082D01*
X011953Y015082D01*
X011998Y015036D01*
X006223Y015668D02*
X006223Y021180D01*
X002680Y021180D01*
X002680Y015668D01*
X006223Y015668D01*
X005487Y012885D02*
X005487Y009893D01*
X000881Y009893D01*
X000881Y012885D01*
X005487Y012885D01*
X001191Y010286D02*
X001193Y010311D01*
X001199Y010335D01*
X001208Y010358D01*
X001220Y010379D01*
X001236Y010398D01*
X001255Y010415D01*
X001276Y010428D01*
X001298Y010438D01*
X001322Y010445D01*
X001347Y010448D01*
X001372Y010447D01*
X001396Y010442D01*
X001419Y010434D01*
X001441Y010422D01*
X001461Y010407D01*
X001478Y010389D01*
X001492Y010369D01*
X001503Y010347D01*
X001511Y010323D01*
X001515Y010298D01*
X001515Y010274D01*
X001511Y010249D01*
X001503Y010225D01*
X001492Y010203D01*
X001478Y010183D01*
X001461Y010165D01*
X001441Y010150D01*
X001419Y010138D01*
X001396Y010130D01*
X001372Y010125D01*
X001347Y010124D01*
X001322Y010127D01*
X001298Y010134D01*
X001276Y010144D01*
X001255Y010157D01*
X001236Y010174D01*
X001220Y010193D01*
X001208Y010214D01*
X001199Y010237D01*
X001193Y010261D01*
X001191Y010286D01*
X006680Y007834D02*
X012999Y007834D01*
X012999Y021180D01*
X006680Y021180D01*
X006680Y007834D01*
X002680Y003680D02*
X011680Y003680D01*
X011680Y000680D01*
X002680Y000680D01*
X002680Y003680D01*
X012680Y003680D02*
X012680Y000680D01*
X021680Y000680D01*
X021680Y003680D01*
X012680Y003680D01*
D17*
X021453Y015249D02*
X021750Y015491D01*
X021808Y015458D01*
X021869Y015430D01*
X022039Y015839D01*
X021975Y015873D01*
X021919Y015919D01*
X021873Y015975D01*
X021839Y016039D01*
X021818Y016108D01*
X021811Y016180D01*
X021818Y016252D01*
X021839Y016321D01*
X021873Y016385D01*
X021919Y016441D01*
X021975Y016487D01*
X022039Y016521D01*
X022108Y016542D01*
X022180Y016549D01*
X022252Y016542D01*
X022321Y016521D01*
X022385Y016487D01*
X022441Y016441D01*
X022487Y016385D01*
X022521Y016321D01*
X022542Y016252D01*
X022549Y016180D01*
X022542Y016108D01*
X022521Y016039D01*
X022487Y015975D01*
X022441Y015919D01*
X022385Y015873D01*
X022321Y015839D01*
X022491Y015430D01*
X022552Y015458D01*
X022610Y015491D01*
X022907Y015249D01*
X023111Y015453D01*
X022869Y015750D01*
X022912Y015828D01*
X022946Y015911D01*
X022971Y015997D01*
X023352Y016036D01*
X023352Y016324D01*
X022971Y016363D01*
X022946Y016449D01*
X022912Y016532D01*
X022869Y016610D01*
X023111Y016907D01*
X022907Y017111D01*
X022610Y016869D01*
X022532Y016912D01*
X022449Y016946D01*
X022363Y016971D01*
X022324Y017352D01*
X022036Y017352D01*
X021997Y016971D01*
X021911Y016946D01*
X021828Y016912D01*
X021750Y016869D01*
X021453Y017111D01*
X021249Y016907D01*
X021491Y016610D01*
X021448Y016532D01*
X021414Y016449D01*
X021389Y016363D01*
X021008Y016324D01*
X021008Y016036D01*
X021389Y015997D01*
X021414Y015911D01*
X021448Y015828D01*
X021491Y015750D01*
X021249Y015453D01*
X021453Y015249D01*
X021383Y015319D02*
X021538Y015319D01*
X021633Y015396D02*
X021306Y015396D01*
X021266Y015474D02*
X021728Y015474D01*
X021781Y015474D02*
X021887Y015474D01*
X021919Y015551D02*
X021329Y015551D01*
X021392Y015628D02*
X021951Y015628D01*
X021983Y015705D02*
X021455Y015705D01*
X021473Y015783D02*
X022015Y015783D01*
X022000Y015860D02*
X021435Y015860D01*
X021406Y015937D02*
X021904Y015937D01*
X021852Y016014D02*
X021222Y016014D01*
X021008Y016092D02*
X021823Y016092D01*
X021812Y016169D02*
X021008Y016169D01*
X021008Y016246D02*
X021817Y016246D01*
X021840Y016323D02*
X021008Y016323D01*
X021400Y016400D02*
X021886Y016400D01*
X021964Y016478D02*
X021426Y016478D01*
X021461Y016555D02*
X022899Y016555D01*
X022886Y016632D02*
X021474Y016632D01*
X021411Y016709D02*
X022949Y016709D01*
X023012Y016787D02*
X021348Y016787D01*
X021285Y016864D02*
X023075Y016864D01*
X023077Y016941D02*
X022699Y016941D01*
X022794Y017018D02*
X022999Y017018D01*
X022922Y017096D02*
X022889Y017096D01*
X022461Y016941D02*
X021899Y016941D01*
X022002Y017018D02*
X022358Y017018D01*
X022350Y017096D02*
X022010Y017096D01*
X022018Y017173D02*
X022342Y017173D01*
X022334Y017250D02*
X022026Y017250D01*
X022034Y017327D02*
X022326Y017327D01*
X021661Y016941D02*
X021283Y016941D01*
X021361Y017018D02*
X021566Y017018D01*
X021471Y017096D02*
X021438Y017096D01*
X022396Y016478D02*
X022934Y016478D01*
X022960Y016400D02*
X022474Y016400D01*
X022520Y016323D02*
X023352Y016323D01*
X023352Y016246D02*
X022543Y016246D01*
X022548Y016169D02*
X023352Y016169D01*
X023352Y016092D02*
X022537Y016092D01*
X022508Y016014D02*
X023138Y016014D01*
X022954Y015937D02*
X022456Y015937D01*
X022360Y015860D02*
X022925Y015860D01*
X022887Y015783D02*
X022345Y015783D01*
X022377Y015705D02*
X022905Y015705D01*
X022968Y015628D02*
X022409Y015628D01*
X022441Y015551D02*
X023031Y015551D01*
X023094Y015474D02*
X022632Y015474D01*
X022579Y015474D02*
X022473Y015474D01*
X022727Y015396D02*
X023054Y015396D01*
X022977Y015319D02*
X022822Y015319D01*
D18*
X005547Y007687D03*
X005547Y007146D03*
X005586Y006226D03*
X005586Y005685D03*
X005586Y004766D03*
X005586Y004224D03*
D19*
X005434Y004495D03*
X005434Y005956D03*
X005395Y007416D03*
D20*
X015864Y010141D02*
X015866Y010161D01*
X015871Y010181D01*
X015881Y010199D01*
X015893Y010216D01*
X015908Y010230D01*
X015926Y010240D01*
X015945Y010248D01*
X015965Y010252D01*
X015985Y010252D01*
X016005Y010248D01*
X016024Y010240D01*
X016042Y010230D01*
X016057Y010216D01*
X016069Y010199D01*
X016079Y010181D01*
X016084Y010161D01*
X016086Y010141D01*
X016084Y010121D01*
X016079Y010101D01*
X016069Y010083D01*
X016057Y010066D01*
X016042Y010052D01*
X016024Y010042D01*
X016005Y010034D01*
X015985Y010030D01*
X015965Y010030D01*
X015945Y010034D01*
X015926Y010042D01*
X015908Y010052D01*
X015893Y010066D01*
X015881Y010083D01*
X015871Y010101D01*
X015866Y010121D01*
X015864Y010141D01*
D21*
X005038Y008692D03*
D22*
X003523Y008692D03*
D23*
X003562Y008948D03*
X003562Y008436D03*
D24*
X017680Y004452D03*
D25*
X017680Y005967D03*
D26*
X017424Y005928D03*
X017936Y005928D03*
M02*
