%
M48
M72
T01C0.0197
T02C0.0315
T03C0.0354
T04C0.0394
T05C0.0400
T06C0.0433
T07C0.0827
T08C0.1063
T09C0.1260
T10C0.1299
%
T01
X2149Y574
X574Y2149
X574Y4117
X574Y6086
X574Y8054
X574Y10023
X574Y11991
X2149Y11991
X3330Y11991
X2739Y13369
X4314Y14353
X7267Y13369
X8054Y11991
X7267Y11007
X8054Y10023
X9038Y11007
X10023Y10023
X9038Y9038
X8054Y8054
X7267Y9038
X6086Y10023
X3180Y8680
X7680Y6680
X7680Y5680
X10023Y6086
X10023Y5086
X10680Y4180
X11991Y5086
X11991Y6086
X13180Y7180
X14180Y8180
X11991Y8054
X10810Y8054
X11991Y9629
X14523Y11523
X15928Y11991
X15980Y12630
X16322Y13172
X17109Y13172
X17109Y12385
X16680Y11680
X17109Y11204
X17130Y10430
X16180Y10680
X17503Y8891
X18830Y7880
X18830Y7080
X18680Y6180
X18680Y5680
X19680Y5680
X20680Y6180
X20259Y7267
X19865Y9235
X20652Y9735
X22227Y10023
X23408Y10023
X23408Y11991
X21680Y13180
X20680Y13180
X20680Y12680
X19830Y14030
X19078Y13172
X19078Y12385
X19078Y11597
X19078Y10810
X18430Y10480
X18290Y11597
X18290Y12385
X18290Y13172
X14991Y14034
X14180Y13180
X11991Y13566
X11991Y11991
X9630Y12280
X10023Y15534
X11007Y16715
X10023Y17897
X9038Y16715
X8054Y17897
X8054Y19471
X6086Y19471
X4117Y19471
X2149Y19471
X574Y17897
X574Y13960
X7267Y15534
X8054Y15534
X11991Y15534
X13507Y16715
X13991Y15534
X15180Y17680
X15680Y17680
X16180Y17680
X16680Y17680
X15928Y19471
X13960Y19471
X11991Y19471
X10023Y19471
X17897Y19471
X19865Y19471
X21834Y19471
X23408Y17897
X23408Y15928
X23408Y13960
X23408Y8054
X23408Y6086
X23408Y4117
X21834Y4117
X21834Y2149
X23408Y2149
X21834Y574
X19865Y574
X17897Y574
X15928Y574
X13960Y574
X11991Y574
X11991Y2149
X10023Y574
X9054Y574
X8790Y3078
X4117Y574
X14353Y6086
X16180Y5430
X16715Y6086
X18180Y4180
X15928Y4117
T02
X4180Y10680
X3180Y10680
X2180Y10680
T03
X8089Y13408
X9089Y13408
X10089Y13408
X11089Y13408
X10589Y14408
X9589Y14408
X8589Y14408
X11589Y14408
T04
X14180Y9180
X15180Y9180
T05
X14680Y6930
X15680Y6930
X16680Y6930
X17680Y6930
X22127Y7204
X22127Y8204
X22127Y9204
X22127Y6204
X22127Y5204
X21180Y18680
X20180Y18680
X19180Y18680
X18180Y18680
X17180Y18680
X16180Y18680
X1180Y16180
X1180Y15180
T06
X3680Y2180
X4680Y2180
X5680Y2180
X6680Y2180
X7680Y2180
X8680Y2180
X9680Y2180
X10680Y2180
X13680Y2180
X14680Y2180
X15680Y2180
X16680Y2180
X17680Y2180
X18680Y2180
X19680Y2180
X20680Y2180
T07
X12999Y12223
X6680Y12223
T08
X4452Y15826
X2566Y17007
X4452Y18227
T09
X1180Y1180
X1180Y18802
X22759Y18802
X22759Y1180
T10
X12263Y16908
X7420Y16908
M30
