G75*
G70*
%OFA0B0*%
%FSLAX24Y24*%
%IPPOS*%
%LPD*%
%AMOC8*
5,1,8,0,0,1.08239X$1,22.5*
%
%ADD10C,0.0000*%
%ADD11C,0.0080*%
%ADD12R,0.0660X0.0660*%
%ADD13C,0.0660*%
%ADD14C,0.1500*%
%ADD15C,0.0557*%
%ADD16C,0.0984*%
%ADD17C,0.0512*%
%ADD18R,0.0591X0.0591*%
%ADD19C,0.0591*%
%ADD20C,0.0557*%
%ADD21R,0.0433X0.0394*%
%ADD22C,0.0160*%
%ADD23C,0.0354*%
%ADD24C,0.0400*%
%ADD25C,0.0551*%
D10*
X001164Y000180D02*
X022818Y000180D01*
X022880Y000182D01*
X022941Y000188D01*
X023002Y000197D01*
X023063Y000211D01*
X023122Y000228D01*
X023180Y000249D01*
X023237Y000274D01*
X023292Y000302D01*
X023345Y000333D01*
X023396Y000368D01*
X023445Y000406D01*
X023492Y000447D01*
X023535Y000490D01*
X023576Y000537D01*
X023614Y000586D01*
X023649Y000637D01*
X023680Y000690D01*
X023708Y000745D01*
X023733Y000802D01*
X023754Y000860D01*
X023771Y000919D01*
X023785Y000980D01*
X023794Y001041D01*
X023800Y001102D01*
X023802Y001164D01*
X023802Y018881D01*
X023800Y018943D01*
X023794Y019004D01*
X023785Y019065D01*
X023771Y019126D01*
X023754Y019185D01*
X023733Y019243D01*
X023708Y019300D01*
X023680Y019355D01*
X023649Y019408D01*
X023614Y019459D01*
X023576Y019508D01*
X023535Y019555D01*
X023492Y019598D01*
X023445Y019639D01*
X023396Y019677D01*
X023345Y019712D01*
X023292Y019743D01*
X023237Y019771D01*
X023180Y019796D01*
X023122Y019817D01*
X023063Y019834D01*
X023002Y019848D01*
X022941Y019857D01*
X022880Y019863D01*
X022818Y019865D01*
X001164Y019865D01*
X001102Y019863D01*
X001041Y019857D01*
X000980Y019848D01*
X000919Y019834D01*
X000860Y019817D01*
X000802Y019796D01*
X000745Y019771D01*
X000690Y019743D01*
X000637Y019712D01*
X000586Y019677D01*
X000537Y019639D01*
X000490Y019598D01*
X000447Y019555D01*
X000406Y019508D01*
X000368Y019459D01*
X000333Y019408D01*
X000302Y019355D01*
X000274Y019300D01*
X000249Y019243D01*
X000228Y019185D01*
X000211Y019126D01*
X000197Y019065D01*
X000188Y019004D01*
X000182Y018943D01*
X000180Y018881D01*
X000180Y001164D01*
X000182Y001102D01*
X000188Y001041D01*
X000197Y000980D01*
X000211Y000919D01*
X000228Y000860D01*
X000249Y000802D01*
X000274Y000745D01*
X000302Y000690D01*
X000333Y000637D01*
X000368Y000586D01*
X000406Y000537D01*
X000447Y000490D01*
X000490Y000447D01*
X000537Y000406D01*
X000586Y000368D01*
X000637Y000333D01*
X000690Y000302D01*
X000745Y000274D01*
X000802Y000249D01*
X000860Y000228D01*
X000919Y000211D01*
X000980Y000197D01*
X001041Y000188D01*
X001102Y000182D01*
X001164Y000180D01*
X000550Y001180D02*
X000552Y001230D01*
X000558Y001280D01*
X000568Y001329D01*
X000582Y001377D01*
X000599Y001424D01*
X000620Y001469D01*
X000645Y001513D01*
X000673Y001554D01*
X000705Y001593D01*
X000739Y001630D01*
X000776Y001664D01*
X000816Y001694D01*
X000858Y001721D01*
X000902Y001745D01*
X000948Y001766D01*
X000995Y001782D01*
X001043Y001795D01*
X001093Y001804D01*
X001142Y001809D01*
X001193Y001810D01*
X001243Y001807D01*
X001292Y001800D01*
X001341Y001789D01*
X001389Y001774D01*
X001435Y001756D01*
X001480Y001734D01*
X001523Y001708D01*
X001564Y001679D01*
X001603Y001647D01*
X001639Y001612D01*
X001671Y001574D01*
X001701Y001534D01*
X001728Y001491D01*
X001751Y001447D01*
X001770Y001401D01*
X001786Y001353D01*
X001798Y001304D01*
X001806Y001255D01*
X001810Y001205D01*
X001810Y001155D01*
X001806Y001105D01*
X001798Y001056D01*
X001786Y001007D01*
X001770Y000959D01*
X001751Y000913D01*
X001728Y000869D01*
X001701Y000826D01*
X001671Y000786D01*
X001639Y000748D01*
X001603Y000713D01*
X001564Y000681D01*
X001523Y000652D01*
X001480Y000626D01*
X001435Y000604D01*
X001389Y000586D01*
X001341Y000571D01*
X001292Y000560D01*
X001243Y000553D01*
X001193Y000550D01*
X001142Y000551D01*
X001093Y000556D01*
X001043Y000565D01*
X000995Y000578D01*
X000948Y000594D01*
X000902Y000615D01*
X000858Y000639D01*
X000816Y000666D01*
X000776Y000696D01*
X000739Y000730D01*
X000705Y000767D01*
X000673Y000806D01*
X000645Y000847D01*
X000620Y000891D01*
X000599Y000936D01*
X000582Y000983D01*
X000568Y001031D01*
X000558Y001080D01*
X000552Y001130D01*
X000550Y001180D01*
X006770Y016908D02*
X006772Y016958D01*
X006778Y017008D01*
X006788Y017058D01*
X006801Y017106D01*
X006818Y017154D01*
X006839Y017200D01*
X006863Y017244D01*
X006891Y017286D01*
X006922Y017326D01*
X006956Y017363D01*
X006993Y017398D01*
X007032Y017429D01*
X007073Y017458D01*
X007117Y017483D01*
X007163Y017505D01*
X007210Y017523D01*
X007258Y017537D01*
X007307Y017548D01*
X007357Y017555D01*
X007407Y017558D01*
X007458Y017557D01*
X007508Y017552D01*
X007558Y017543D01*
X007606Y017531D01*
X007654Y017514D01*
X007700Y017494D01*
X007745Y017471D01*
X007788Y017444D01*
X007828Y017414D01*
X007866Y017381D01*
X007901Y017345D01*
X007934Y017306D01*
X007963Y017265D01*
X007989Y017222D01*
X008012Y017177D01*
X008031Y017130D01*
X008046Y017082D01*
X008058Y017033D01*
X008066Y016983D01*
X008070Y016933D01*
X008070Y016883D01*
X008066Y016833D01*
X008058Y016783D01*
X008046Y016734D01*
X008031Y016686D01*
X008012Y016639D01*
X007989Y016594D01*
X007963Y016551D01*
X007934Y016510D01*
X007901Y016471D01*
X007866Y016435D01*
X007828Y016402D01*
X007788Y016372D01*
X007745Y016345D01*
X007700Y016322D01*
X007654Y016302D01*
X007606Y016285D01*
X007558Y016273D01*
X007508Y016264D01*
X007458Y016259D01*
X007407Y016258D01*
X007357Y016261D01*
X007307Y016268D01*
X007258Y016279D01*
X007210Y016293D01*
X007163Y016311D01*
X007117Y016333D01*
X007073Y016358D01*
X007032Y016387D01*
X006993Y016418D01*
X006956Y016453D01*
X006922Y016490D01*
X006891Y016530D01*
X006863Y016572D01*
X006839Y016616D01*
X006818Y016662D01*
X006801Y016710D01*
X006788Y016758D01*
X006778Y016808D01*
X006772Y016858D01*
X006770Y016908D01*
X011613Y016908D02*
X011615Y016958D01*
X011621Y017008D01*
X011631Y017058D01*
X011644Y017106D01*
X011661Y017154D01*
X011682Y017200D01*
X011706Y017244D01*
X011734Y017286D01*
X011765Y017326D01*
X011799Y017363D01*
X011836Y017398D01*
X011875Y017429D01*
X011916Y017458D01*
X011960Y017483D01*
X012006Y017505D01*
X012053Y017523D01*
X012101Y017537D01*
X012150Y017548D01*
X012200Y017555D01*
X012250Y017558D01*
X012301Y017557D01*
X012351Y017552D01*
X012401Y017543D01*
X012449Y017531D01*
X012497Y017514D01*
X012543Y017494D01*
X012588Y017471D01*
X012631Y017444D01*
X012671Y017414D01*
X012709Y017381D01*
X012744Y017345D01*
X012777Y017306D01*
X012806Y017265D01*
X012832Y017222D01*
X012855Y017177D01*
X012874Y017130D01*
X012889Y017082D01*
X012901Y017033D01*
X012909Y016983D01*
X012913Y016933D01*
X012913Y016883D01*
X012909Y016833D01*
X012901Y016783D01*
X012889Y016734D01*
X012874Y016686D01*
X012855Y016639D01*
X012832Y016594D01*
X012806Y016551D01*
X012777Y016510D01*
X012744Y016471D01*
X012709Y016435D01*
X012671Y016402D01*
X012631Y016372D01*
X012588Y016345D01*
X012543Y016322D01*
X012497Y016302D01*
X012449Y016285D01*
X012401Y016273D01*
X012351Y016264D01*
X012301Y016259D01*
X012250Y016258D01*
X012200Y016261D01*
X012150Y016268D01*
X012101Y016279D01*
X012053Y016293D01*
X012006Y016311D01*
X011960Y016333D01*
X011916Y016358D01*
X011875Y016387D01*
X011836Y016418D01*
X011799Y016453D01*
X011765Y016490D01*
X011734Y016530D01*
X011706Y016572D01*
X011682Y016616D01*
X011661Y016662D01*
X011644Y016710D01*
X011631Y016758D01*
X011621Y016808D01*
X011615Y016858D01*
X011613Y016908D01*
X000550Y018802D02*
X000552Y018852D01*
X000558Y018902D01*
X000568Y018951D01*
X000582Y018999D01*
X000599Y019046D01*
X000620Y019091D01*
X000645Y019135D01*
X000673Y019176D01*
X000705Y019215D01*
X000739Y019252D01*
X000776Y019286D01*
X000816Y019316D01*
X000858Y019343D01*
X000902Y019367D01*
X000948Y019388D01*
X000995Y019404D01*
X001043Y019417D01*
X001093Y019426D01*
X001142Y019431D01*
X001193Y019432D01*
X001243Y019429D01*
X001292Y019422D01*
X001341Y019411D01*
X001389Y019396D01*
X001435Y019378D01*
X001480Y019356D01*
X001523Y019330D01*
X001564Y019301D01*
X001603Y019269D01*
X001639Y019234D01*
X001671Y019196D01*
X001701Y019156D01*
X001728Y019113D01*
X001751Y019069D01*
X001770Y019023D01*
X001786Y018975D01*
X001798Y018926D01*
X001806Y018877D01*
X001810Y018827D01*
X001810Y018777D01*
X001806Y018727D01*
X001798Y018678D01*
X001786Y018629D01*
X001770Y018581D01*
X001751Y018535D01*
X001728Y018491D01*
X001701Y018448D01*
X001671Y018408D01*
X001639Y018370D01*
X001603Y018335D01*
X001564Y018303D01*
X001523Y018274D01*
X001480Y018248D01*
X001435Y018226D01*
X001389Y018208D01*
X001341Y018193D01*
X001292Y018182D01*
X001243Y018175D01*
X001193Y018172D01*
X001142Y018173D01*
X001093Y018178D01*
X001043Y018187D01*
X000995Y018200D01*
X000948Y018216D01*
X000902Y018237D01*
X000858Y018261D01*
X000816Y018288D01*
X000776Y018318D01*
X000739Y018352D01*
X000705Y018389D01*
X000673Y018428D01*
X000645Y018469D01*
X000620Y018513D01*
X000599Y018558D01*
X000582Y018605D01*
X000568Y018653D01*
X000558Y018702D01*
X000552Y018752D01*
X000550Y018802D01*
X022129Y018802D02*
X022131Y018852D01*
X022137Y018902D01*
X022147Y018951D01*
X022161Y018999D01*
X022178Y019046D01*
X022199Y019091D01*
X022224Y019135D01*
X022252Y019176D01*
X022284Y019215D01*
X022318Y019252D01*
X022355Y019286D01*
X022395Y019316D01*
X022437Y019343D01*
X022481Y019367D01*
X022527Y019388D01*
X022574Y019404D01*
X022622Y019417D01*
X022672Y019426D01*
X022721Y019431D01*
X022772Y019432D01*
X022822Y019429D01*
X022871Y019422D01*
X022920Y019411D01*
X022968Y019396D01*
X023014Y019378D01*
X023059Y019356D01*
X023102Y019330D01*
X023143Y019301D01*
X023182Y019269D01*
X023218Y019234D01*
X023250Y019196D01*
X023280Y019156D01*
X023307Y019113D01*
X023330Y019069D01*
X023349Y019023D01*
X023365Y018975D01*
X023377Y018926D01*
X023385Y018877D01*
X023389Y018827D01*
X023389Y018777D01*
X023385Y018727D01*
X023377Y018678D01*
X023365Y018629D01*
X023349Y018581D01*
X023330Y018535D01*
X023307Y018491D01*
X023280Y018448D01*
X023250Y018408D01*
X023218Y018370D01*
X023182Y018335D01*
X023143Y018303D01*
X023102Y018274D01*
X023059Y018248D01*
X023014Y018226D01*
X022968Y018208D01*
X022920Y018193D01*
X022871Y018182D01*
X022822Y018175D01*
X022772Y018172D01*
X022721Y018173D01*
X022672Y018178D01*
X022622Y018187D01*
X022574Y018200D01*
X022527Y018216D01*
X022481Y018237D01*
X022437Y018261D01*
X022395Y018288D01*
X022355Y018318D01*
X022318Y018352D01*
X022284Y018389D01*
X022252Y018428D01*
X022224Y018469D01*
X022199Y018513D01*
X022178Y018558D01*
X022161Y018605D01*
X022147Y018653D01*
X022137Y018702D01*
X022131Y018752D01*
X022129Y018802D01*
X022129Y001180D02*
X022131Y001230D01*
X022137Y001280D01*
X022147Y001329D01*
X022161Y001377D01*
X022178Y001424D01*
X022199Y001469D01*
X022224Y001513D01*
X022252Y001554D01*
X022284Y001593D01*
X022318Y001630D01*
X022355Y001664D01*
X022395Y001694D01*
X022437Y001721D01*
X022481Y001745D01*
X022527Y001766D01*
X022574Y001782D01*
X022622Y001795D01*
X022672Y001804D01*
X022721Y001809D01*
X022772Y001810D01*
X022822Y001807D01*
X022871Y001800D01*
X022920Y001789D01*
X022968Y001774D01*
X023014Y001756D01*
X023059Y001734D01*
X023102Y001708D01*
X023143Y001679D01*
X023182Y001647D01*
X023218Y001612D01*
X023250Y001574D01*
X023280Y001534D01*
X023307Y001491D01*
X023330Y001447D01*
X023349Y001401D01*
X023365Y001353D01*
X023377Y001304D01*
X023385Y001255D01*
X023389Y001205D01*
X023389Y001155D01*
X023385Y001105D01*
X023377Y001056D01*
X023365Y001007D01*
X023349Y000959D01*
X023330Y000913D01*
X023307Y000869D01*
X023280Y000826D01*
X023250Y000786D01*
X023218Y000748D01*
X023182Y000713D01*
X023143Y000681D01*
X023102Y000652D01*
X023059Y000626D01*
X023014Y000604D01*
X022968Y000586D01*
X022920Y000571D01*
X022871Y000560D01*
X022822Y000553D01*
X022772Y000550D01*
X022721Y000551D01*
X022672Y000556D01*
X022622Y000565D01*
X022574Y000578D01*
X022527Y000594D01*
X022481Y000615D01*
X022437Y000639D01*
X022395Y000666D01*
X022355Y000696D01*
X022318Y000730D01*
X022284Y000767D01*
X022252Y000806D01*
X022224Y000847D01*
X022199Y000891D01*
X022178Y000936D01*
X022161Y000983D01*
X022147Y001031D01*
X022137Y001080D01*
X022131Y001130D01*
X022129Y001180D01*
D11*
X021390Y001190D02*
X021390Y000770D01*
X021180Y000770D01*
X021110Y000840D01*
X021110Y000910D01*
X021180Y000980D01*
X021390Y000980D01*
X021180Y000980D02*
X021110Y001050D01*
X021110Y001120D01*
X021180Y001190D01*
X021390Y001190D01*
X020930Y001190D02*
X020649Y001190D01*
X020789Y001190D02*
X020789Y000770D01*
X020469Y000770D02*
X020469Y001190D01*
X020329Y001050D01*
X020189Y001190D01*
X020189Y000770D01*
D12*
X002180Y010680D03*
D13*
X003180Y010680D03*
X004180Y010680D03*
D14*
X004452Y015826D03*
X002566Y017007D03*
X004452Y018227D03*
D15*
X001459Y016180D02*
X000901Y016180D01*
X000901Y015180D02*
X001459Y015180D01*
X014680Y007209D02*
X014680Y006651D01*
X015680Y006651D02*
X015680Y007209D01*
X016680Y007209D02*
X016680Y006651D01*
X017680Y006651D02*
X017680Y007209D01*
X017180Y018401D02*
X017180Y018959D01*
X016180Y018959D02*
X016180Y018401D01*
X018180Y018401D02*
X018180Y018959D01*
X019180Y018959D02*
X019180Y018401D01*
X020180Y018401D02*
X020180Y018959D01*
X021180Y018959D02*
X021180Y018401D01*
D16*
X012999Y012223D03*
X006680Y012223D03*
D17*
X008089Y013408D03*
X009089Y013408D03*
X010089Y013408D03*
X011089Y013408D03*
X010589Y014408D03*
X009589Y014408D03*
X008589Y014408D03*
X011589Y014408D03*
D18*
X010680Y002180D03*
X020680Y002180D03*
D19*
X019680Y002180D03*
X018680Y002180D03*
X017680Y002180D03*
X016680Y002180D03*
X015680Y002180D03*
X014680Y002180D03*
X013680Y002180D03*
X009680Y002180D03*
X008680Y002180D03*
X007680Y002180D03*
X006680Y002180D03*
X005680Y002180D03*
X004680Y002180D03*
X003680Y002180D03*
D20*
X022127Y005204D03*
X022127Y006204D03*
X022127Y007204D03*
X022127Y008204D03*
X022127Y009204D03*
D21*
X008180Y001665D03*
X008180Y000995D03*
X007180Y000995D03*
X007180Y001665D03*
X006130Y001665D03*
X006130Y000995D03*
D22*
X005755Y000602D02*
X008655Y000602D01*
X008794Y000659D01*
X008901Y000766D01*
X008937Y000802D01*
X015898Y000802D01*
X016314Y000937D01*
X016667Y001193D01*
X016667Y001193D01*
X016667Y001193D01*
X016923Y001546D01*
X017023Y001853D01*
X017082Y001912D01*
X017154Y002086D01*
X017154Y002274D01*
X017082Y002448D01*
X016948Y002582D01*
X016938Y002586D01*
X016938Y002680D01*
X016943Y002727D01*
X016979Y002814D01*
X017046Y002881D01*
X017133Y002917D01*
X017180Y002922D01*
X022331Y002922D01*
X022610Y003037D01*
X022823Y003250D01*
X022823Y003250D01*
X022938Y003529D01*
X022938Y007836D01*
X022819Y008123D01*
X022599Y008343D01*
X022557Y008360D01*
X022515Y008463D01*
X022386Y008591D01*
X022218Y008661D01*
X022036Y008661D01*
X021868Y008591D01*
X021740Y008463D01*
X021670Y008295D01*
X021670Y008113D01*
X021740Y007945D01*
X021868Y007816D01*
X022036Y007746D01*
X022218Y007746D01*
X022382Y007814D01*
X022416Y007732D01*
X022422Y007680D01*
X022422Y007528D01*
X022412Y007537D01*
X022357Y007578D01*
X022295Y007609D01*
X022230Y007630D01*
X022162Y007641D01*
X022147Y007641D01*
X022147Y007224D01*
X022107Y007224D01*
X022107Y007641D01*
X022093Y007641D01*
X022025Y007630D01*
X021959Y007609D01*
X021898Y007578D01*
X021842Y007537D01*
X021794Y007489D01*
X021753Y007433D01*
X021722Y007372D01*
X021701Y007306D01*
X021690Y007238D01*
X021690Y007224D01*
X022107Y007224D01*
X022107Y007184D01*
X021690Y007184D01*
X021690Y007169D01*
X021701Y007101D01*
X021722Y007036D01*
X021753Y006974D01*
X021794Y006919D01*
X021842Y006870D01*
X021898Y006829D01*
X021959Y006798D01*
X022025Y006777D01*
X022093Y006766D01*
X022107Y006766D01*
X022107Y007184D01*
X022147Y007184D01*
X022147Y006766D01*
X022162Y006766D01*
X022230Y006777D01*
X022295Y006798D01*
X022357Y006829D01*
X022412Y006870D01*
X022422Y006879D01*
X022422Y006556D01*
X022386Y006591D01*
X022218Y006661D01*
X022036Y006661D01*
X021868Y006591D01*
X021740Y006463D01*
X021670Y006295D01*
X021670Y006113D01*
X021740Y005945D01*
X021868Y005816D01*
X022036Y005746D01*
X022218Y005746D01*
X022386Y005816D01*
X022422Y005851D01*
X022422Y005556D01*
X022386Y005591D01*
X022218Y005661D01*
X022036Y005661D01*
X021868Y005591D01*
X021740Y005463D01*
X021670Y005295D01*
X021670Y005113D01*
X021740Y004945D01*
X021868Y004816D01*
X022036Y004746D01*
X022218Y004746D01*
X022386Y004816D01*
X022422Y004851D01*
X022422Y003680D01*
X022417Y003633D01*
X022381Y003546D01*
X022314Y003479D01*
X022227Y003443D01*
X022180Y003438D01*
X017029Y003438D01*
X016750Y003323D01*
X016537Y003110D01*
X016537Y003110D01*
X016422Y002831D01*
X016422Y002586D01*
X016412Y002582D01*
X016389Y002558D01*
X015971Y002558D01*
X015948Y002582D01*
X015774Y002654D01*
X015586Y002654D01*
X015412Y002582D01*
X015278Y002448D01*
X015206Y002274D01*
X015206Y002086D01*
X015278Y001912D01*
X015412Y001778D01*
X015586Y001706D01*
X015774Y001706D01*
X015948Y001778D01*
X015971Y001802D01*
X016164Y001802D01*
X016120Y001740D01*
X015962Y001626D01*
X015777Y001566D01*
X015680Y001558D01*
X011058Y001558D01*
X011058Y001716D01*
X011154Y001811D01*
X011154Y002549D01*
X011049Y002654D01*
X010311Y002654D01*
X010206Y002549D01*
X010206Y001811D01*
X010302Y001716D01*
X010302Y001558D01*
X008705Y001558D01*
X008575Y001505D01*
X008575Y001711D01*
X008586Y001706D01*
X008774Y001706D01*
X008948Y001778D01*
X009082Y001912D01*
X009154Y002086D01*
X009154Y002274D01*
X009150Y002284D01*
X009314Y002448D01*
X009292Y002418D01*
X009259Y002354D01*
X009237Y002286D01*
X009226Y002216D01*
X009226Y002208D01*
X009652Y002208D01*
X009652Y002634D01*
X009644Y002634D01*
X009574Y002623D01*
X009506Y002601D01*
X009442Y002568D01*
X009412Y002546D01*
X010287Y003422D01*
X014481Y003422D01*
X014576Y003461D01*
X016190Y005074D01*
X016251Y005074D01*
X016381Y005129D01*
X016481Y005229D01*
X016536Y005359D01*
X016536Y005501D01*
X016481Y005631D01*
X016381Y005731D01*
X016251Y005786D01*
X016151Y005786D01*
X016326Y005961D01*
X016399Y006034D01*
X016438Y006129D01*
X016438Y006256D01*
X016589Y006194D01*
X016771Y006194D01*
X016939Y006264D01*
X017068Y006392D01*
X017137Y006560D01*
X017137Y007107D01*
X017223Y007022D01*
X017223Y006560D01*
X017292Y006392D01*
X017421Y006264D01*
X017589Y006194D01*
X017771Y006194D01*
X017922Y006256D01*
X017922Y004424D01*
X017879Y004381D01*
X017824Y004251D01*
X017824Y004109D01*
X017879Y003979D01*
X017979Y003879D01*
X018109Y003824D01*
X018251Y003824D01*
X018381Y003879D01*
X018481Y003979D01*
X018536Y004109D01*
X018536Y004251D01*
X018481Y004381D01*
X018438Y004424D01*
X018438Y005419D01*
X018479Y005379D01*
X018609Y005324D01*
X018751Y005324D01*
X018881Y005379D01*
X018924Y005422D01*
X019436Y005422D01*
X019479Y005379D01*
X019609Y005324D01*
X019751Y005324D01*
X019881Y005379D01*
X019981Y005479D01*
X020036Y005609D01*
X020036Y005751D01*
X019981Y005881D01*
X019941Y005922D01*
X020436Y005922D01*
X020479Y005879D01*
X020609Y005824D01*
X020751Y005824D01*
X020881Y005879D01*
X020981Y005979D01*
X021036Y006109D01*
X021036Y006251D01*
X020981Y006381D01*
X020881Y006481D01*
X020751Y006536D01*
X020609Y006536D01*
X020479Y006481D01*
X020436Y006438D01*
X018924Y006438D01*
X018881Y006481D01*
X018751Y006536D01*
X018650Y006536D01*
X018688Y006629D01*
X018688Y010236D01*
X018731Y010279D01*
X018786Y010409D01*
X018786Y010551D01*
X018731Y010681D01*
X018631Y010781D01*
X018501Y010836D01*
X018359Y010836D01*
X018229Y010781D01*
X018129Y010681D01*
X018074Y010551D01*
X018074Y010409D01*
X018129Y010279D01*
X018172Y010236D01*
X018172Y006787D01*
X018137Y006753D01*
X018137Y007300D01*
X018068Y007468D01*
X017939Y007596D01*
X017771Y007666D01*
X017589Y007666D01*
X017421Y007596D01*
X017400Y007575D01*
X017388Y007587D01*
X017388Y010186D01*
X017431Y010229D01*
X017486Y010359D01*
X017486Y010501D01*
X017431Y010631D01*
X017331Y010731D01*
X017201Y010786D01*
X017059Y010786D01*
X016938Y010736D01*
X016938Y011436D01*
X016981Y011479D01*
X017036Y011609D01*
X017036Y011751D01*
X016981Y011881D01*
X016881Y011981D01*
X016751Y012036D01*
X016609Y012036D01*
X016479Y011981D01*
X016379Y011881D01*
X016324Y011751D01*
X016324Y011609D01*
X016379Y011479D01*
X016422Y011436D01*
X016422Y010941D01*
X016381Y010981D01*
X016251Y011036D01*
X016109Y011036D01*
X015979Y010981D01*
X015879Y010881D01*
X015824Y010751D01*
X015824Y010609D01*
X015879Y010479D01*
X015922Y010436D01*
X015922Y009287D01*
X015570Y008936D01*
X015634Y009090D01*
X015634Y009270D01*
X015565Y009437D01*
X015437Y009565D01*
X015270Y009634D01*
X015091Y009634D01*
X014899Y009826D01*
X014826Y009899D01*
X014731Y009938D01*
X013288Y009938D01*
X010838Y012436D01*
X010838Y013045D01*
X010843Y013040D01*
X011003Y012974D01*
X011176Y012974D01*
X011335Y013040D01*
X011458Y013162D01*
X011524Y013322D01*
X011524Y013495D01*
X011458Y013654D01*
X011335Y013777D01*
X011176Y013843D01*
X011003Y013843D01*
X010843Y013777D01*
X010838Y013772D01*
X010838Y013787D01*
X010841Y013796D01*
X010838Y013839D01*
X010838Y013881D01*
X010835Y013890D01*
X010834Y013898D01*
X010815Y013937D01*
X010799Y013976D01*
X010793Y013983D01*
X010789Y013991D01*
X010765Y014011D01*
X010835Y014040D01*
X010958Y014162D01*
X011024Y014322D01*
X011024Y014495D01*
X010958Y014654D01*
X010840Y014772D01*
X011338Y014772D01*
X011221Y014654D01*
X011155Y014495D01*
X011155Y014322D01*
X011221Y014162D01*
X011343Y014040D01*
X011503Y013974D01*
X011676Y013974D01*
X011835Y014040D01*
X011945Y014150D01*
X012845Y014150D01*
X013824Y013170D01*
X013824Y013109D01*
X013879Y012979D01*
X013979Y012879D01*
X014109Y012824D01*
X014251Y012824D01*
X014381Y012879D01*
X014481Y012979D01*
X014506Y013038D01*
X015134Y012411D01*
X015229Y012372D01*
X015736Y012372D01*
X015779Y012329D01*
X015909Y012274D01*
X016051Y012274D01*
X016181Y012329D01*
X016281Y012429D01*
X016336Y012559D01*
X016336Y012701D01*
X016281Y012831D01*
X016181Y012931D01*
X016051Y012986D01*
X015909Y012986D01*
X015779Y012931D01*
X015736Y012888D01*
X015387Y012888D01*
X013099Y015176D01*
X013026Y015249D01*
X012931Y015288D01*
X009473Y015288D01*
X009464Y015291D01*
X009421Y015288D01*
X009379Y015288D01*
X009370Y015285D01*
X009362Y015284D01*
X009323Y015265D01*
X009284Y015249D01*
X009277Y015243D01*
X009269Y015239D01*
X009241Y015207D01*
X009211Y015176D01*
X009208Y015168D01*
X008891Y014807D01*
X008861Y014776D01*
X008858Y014768D01*
X008852Y014761D01*
X008851Y014761D01*
X008835Y014777D01*
X008676Y014843D01*
X008503Y014843D01*
X008343Y014777D01*
X008221Y014654D01*
X008155Y014495D01*
X008155Y014322D01*
X008221Y014162D01*
X008343Y014040D01*
X008503Y013974D01*
X008676Y013974D01*
X008822Y014034D01*
X008822Y013755D01*
X008721Y013654D01*
X008655Y013495D01*
X008655Y013322D01*
X008721Y013162D01*
X008843Y013040D01*
X009003Y012974D01*
X009176Y012974D01*
X009335Y013040D01*
X009458Y013162D01*
X009524Y013322D01*
X009524Y013495D01*
X009458Y013654D01*
X009338Y013774D01*
X009338Y014045D01*
X009343Y014040D01*
X009503Y013974D01*
X009658Y013974D01*
X009671Y013961D01*
X009766Y013922D01*
X010083Y013922D01*
X010173Y013843D01*
X010003Y013843D01*
X009843Y013777D01*
X009721Y013654D01*
X009655Y013495D01*
X009655Y013322D01*
X009721Y013162D01*
X009831Y013053D01*
X009831Y012582D01*
X009701Y012636D01*
X009559Y012636D01*
X009429Y012581D01*
X009329Y012481D01*
X009274Y012351D01*
X009274Y012209D01*
X009329Y012079D01*
X009429Y011979D01*
X009559Y011924D01*
X009570Y011924D01*
X010922Y010573D01*
X010922Y009287D01*
X007670Y006036D01*
X007609Y006036D01*
X007479Y005981D01*
X007379Y005881D01*
X007324Y005751D01*
X007324Y005609D01*
X007379Y005479D01*
X007479Y005379D01*
X007609Y005324D01*
X007751Y005324D01*
X007881Y005379D01*
X007981Y005479D01*
X008036Y005609D01*
X008036Y005670D01*
X011399Y009034D01*
X011438Y009129D01*
X011438Y010556D01*
X012961Y009034D01*
X013034Y008961D01*
X013129Y008922D01*
X013796Y008922D01*
X013923Y008795D01*
X014090Y008726D01*
X014270Y008726D01*
X014437Y008795D01*
X014565Y008923D01*
X014634Y009090D01*
X014634Y009270D01*
X014571Y009422D01*
X014573Y009422D01*
X014726Y009269D01*
X014726Y009090D01*
X014795Y008923D01*
X014923Y008795D01*
X015090Y008726D01*
X015270Y008726D01*
X015424Y008790D01*
X015034Y008399D01*
X014961Y008326D01*
X014922Y008231D01*
X014922Y007574D01*
X014909Y007583D01*
X014848Y007614D01*
X014782Y007635D01*
X014714Y007646D01*
X014700Y007646D01*
X014700Y006950D01*
X014660Y006950D01*
X014660Y007646D01*
X014646Y007646D01*
X014578Y007635D01*
X014512Y007614D01*
X014451Y007583D01*
X014438Y007574D01*
X014438Y007936D01*
X014481Y007979D01*
X014536Y008109D01*
X014536Y008251D01*
X014481Y008381D01*
X014381Y008481D01*
X014251Y008536D01*
X014109Y008536D01*
X013979Y008481D01*
X013879Y008381D01*
X013824Y008251D01*
X013824Y008109D01*
X013879Y007979D01*
X013922Y007936D01*
X013922Y006787D01*
X013073Y005938D01*
X009629Y005938D01*
X009534Y005899D01*
X009461Y005826D01*
X006534Y002899D01*
X006534Y002899D01*
X006461Y002826D01*
X006422Y002731D01*
X006422Y002586D01*
X006412Y002582D01*
X006278Y002448D01*
X006206Y002274D01*
X006206Y002206D01*
X006154Y002258D01*
X006154Y002274D01*
X006082Y002448D01*
X005948Y002582D01*
X005947Y002582D01*
X009787Y006422D01*
X012731Y006422D01*
X012826Y006461D01*
X013190Y006824D01*
X013251Y006824D01*
X013381Y006879D01*
X013481Y006979D01*
X013536Y007109D01*
X013536Y007251D01*
X013481Y007381D01*
X013381Y007481D01*
X013251Y007536D01*
X013109Y007536D01*
X012979Y007481D01*
X012879Y007381D01*
X012824Y007251D01*
X012824Y007190D01*
X012573Y006938D01*
X009629Y006938D01*
X009534Y006899D01*
X009461Y006826D01*
X005534Y002899D01*
X005461Y002826D01*
X005422Y002731D01*
X005422Y002586D01*
X005412Y002582D01*
X005278Y002448D01*
X005206Y002274D01*
X005206Y002086D01*
X005278Y001912D01*
X005412Y001778D01*
X005586Y001706D01*
X005735Y001706D01*
X005735Y001546D01*
X005705Y001558D01*
X004180Y001558D01*
X003923Y001571D01*
X003419Y001671D01*
X002944Y001868D01*
X002517Y002153D01*
X002153Y002517D01*
X001868Y002944D01*
X001671Y003419D01*
X001571Y003923D01*
X001558Y004180D01*
X001558Y009023D01*
X001837Y009302D01*
X003755Y009302D01*
X003894Y009359D01*
X004001Y009466D01*
X004501Y009966D01*
X004558Y010105D01*
X004558Y010339D01*
X004611Y010392D01*
X004688Y010579D01*
X004688Y010781D01*
X004611Y010968D01*
X004558Y011021D01*
X004558Y012680D01*
X004566Y012777D01*
X004626Y012962D01*
X004740Y013120D01*
X004898Y013234D01*
X005083Y013294D01*
X005180Y013302D01*
X005855Y013302D01*
X006178Y013435D01*
X006425Y013682D01*
X006425Y013682D01*
X006558Y014005D01*
X006558Y016619D01*
X006651Y016395D01*
X006907Y016140D01*
X007240Y016002D01*
X007601Y016002D01*
X007934Y016140D01*
X008189Y016395D01*
X008327Y016728D01*
X008327Y017089D01*
X008189Y017422D01*
X007934Y017677D01*
X007601Y017815D01*
X007240Y017815D01*
X006907Y017677D01*
X006651Y017422D01*
X006558Y017197D01*
X006558Y017680D01*
X006566Y017777D01*
X006626Y017962D01*
X006740Y018120D01*
X006898Y018234D01*
X007083Y018294D01*
X007180Y018302D01*
X013680Y018302D01*
X013704Y018299D01*
X013748Y018281D01*
X013781Y018248D01*
X013799Y018204D01*
X013802Y018180D01*
X013802Y018005D01*
X013935Y017682D01*
X014182Y017435D01*
X014182Y017435D01*
X014505Y017302D01*
X016755Y017302D01*
X016894Y017359D01*
X016922Y017386D01*
X016922Y017129D01*
X016961Y017034D01*
X017034Y016961D01*
X019572Y014423D01*
X019572Y014274D01*
X019529Y014231D01*
X019474Y014101D01*
X019474Y013959D01*
X019529Y013829D01*
X019629Y013729D01*
X019759Y013674D01*
X019901Y013674D01*
X020031Y013729D01*
X020131Y013829D01*
X020186Y013959D01*
X020186Y014101D01*
X020131Y014231D01*
X020088Y014274D01*
X020088Y014581D01*
X020049Y014676D01*
X017438Y017287D01*
X017438Y018013D01*
X017439Y018014D01*
X017568Y018142D01*
X017637Y018310D01*
X017637Y019050D01*
X017568Y019218D01*
X017439Y019346D01*
X017271Y019416D01*
X017089Y019416D01*
X016921Y019346D01*
X016792Y019218D01*
X016723Y019050D01*
X016723Y018310D01*
X016792Y018142D01*
X016921Y018014D01*
X016922Y018013D01*
X016922Y017974D01*
X016894Y018001D01*
X016755Y018058D01*
X016452Y018058D01*
X016465Y018068D01*
X016514Y018116D01*
X016554Y018172D01*
X016585Y018233D01*
X016607Y018299D01*
X016617Y018367D01*
X016617Y018660D01*
X016200Y018660D01*
X016200Y018700D01*
X016160Y018700D01*
X016160Y019396D01*
X016146Y019396D01*
X016078Y019385D01*
X016012Y019364D01*
X015951Y019333D01*
X015895Y019292D01*
X015846Y019244D01*
X015806Y019188D01*
X015775Y019127D01*
X015753Y019061D01*
X015743Y018993D01*
X015743Y018700D01*
X016160Y018700D01*
X016160Y018660D01*
X015743Y018660D01*
X015743Y018367D01*
X015753Y018299D01*
X015775Y018233D01*
X015806Y018172D01*
X015846Y018116D01*
X015895Y018068D01*
X015908Y018058D01*
X014680Y018058D01*
X014656Y018061D01*
X014612Y018079D01*
X014579Y018112D01*
X014561Y018156D01*
X014558Y018180D01*
X014558Y018355D01*
X014425Y018678D01*
X014178Y018925D01*
X013855Y019058D01*
X006962Y019058D01*
X006546Y018923D01*
X006193Y018667D01*
X006193Y018667D01*
X006193Y018667D01*
X005937Y018314D01*
X005937Y018314D01*
X005802Y017898D01*
X005802Y014180D01*
X005799Y014156D01*
X005781Y014112D01*
X005748Y014079D01*
X005704Y014061D01*
X005680Y014058D01*
X004962Y014058D01*
X004546Y013923D01*
X004193Y013667D01*
X004193Y013667D01*
X004193Y013667D01*
X003937Y013314D01*
X003937Y013314D01*
X003802Y012898D01*
X003802Y011021D01*
X003749Y010968D01*
X003672Y010781D01*
X003672Y010579D01*
X003749Y010392D01*
X003802Y010339D01*
X003802Y010337D01*
X003523Y010058D01*
X001605Y010058D01*
X001466Y010001D01*
X000966Y009501D01*
X000859Y009394D01*
X000802Y009255D01*
X000802Y003847D01*
X000931Y003195D01*
X000931Y003195D01*
X001186Y002580D01*
X001186Y002580D01*
X001556Y002026D01*
X001627Y001955D01*
X001356Y002067D01*
X001004Y002067D01*
X000678Y001932D01*
X000437Y001692D01*
X000437Y018290D01*
X000678Y018050D01*
X001004Y017915D01*
X001356Y017915D01*
X001682Y018050D01*
X001932Y018300D01*
X002067Y018626D01*
X002067Y018978D01*
X001932Y019305D01*
X001682Y019554D01*
X001553Y019608D01*
X022386Y019608D01*
X022256Y019554D01*
X022007Y019305D01*
X021872Y018978D01*
X021872Y018626D01*
X022007Y018300D01*
X022256Y018050D01*
X022582Y017915D01*
X022935Y017915D01*
X023261Y018050D01*
X023511Y018300D01*
X023545Y018382D01*
X023545Y001600D01*
X023511Y001682D01*
X023261Y001932D01*
X022935Y002067D01*
X022582Y002067D01*
X022256Y001932D01*
X022007Y001682D01*
X021872Y001356D01*
X021872Y001004D01*
X022007Y000678D01*
X022247Y000437D01*
X001692Y000437D01*
X001932Y000678D01*
X002067Y001004D01*
X002067Y001356D01*
X001955Y001627D01*
X002026Y001556D01*
X002026Y001556D01*
X002580Y001186D01*
X003195Y000931D01*
X003847Y000802D01*
X005473Y000802D01*
X005509Y000766D01*
X005616Y000659D01*
X005755Y000602D01*
X005625Y000656D02*
X001910Y000656D01*
X001989Y000814D02*
X003785Y000814D01*
X003095Y000973D02*
X002054Y000973D01*
X002067Y001131D02*
X002713Y001131D01*
X002425Y001290D02*
X002067Y001290D01*
X002029Y001448D02*
X002188Y001448D01*
X001976Y001607D02*
X001964Y001607D01*
X001556Y002026D02*
X001556Y002026D01*
X001519Y002082D02*
X000437Y002082D01*
X000437Y001924D02*
X000669Y001924D01*
X000510Y001765D02*
X000437Y001765D01*
X000437Y002241D02*
X001413Y002241D01*
X001307Y002399D02*
X000437Y002399D01*
X000437Y002558D02*
X001201Y002558D01*
X001130Y002716D02*
X000437Y002716D01*
X000437Y002875D02*
X001064Y002875D01*
X000998Y003033D02*
X000437Y003033D01*
X000437Y003192D02*
X000933Y003192D01*
X000900Y003350D02*
X000437Y003350D01*
X000437Y003509D02*
X000869Y003509D01*
X000837Y003667D02*
X000437Y003667D01*
X000437Y003826D02*
X000806Y003826D01*
X000802Y003984D02*
X000437Y003984D01*
X000437Y004143D02*
X000802Y004143D01*
X000802Y004301D02*
X000437Y004301D01*
X000437Y004460D02*
X000802Y004460D01*
X000802Y004618D02*
X000437Y004618D01*
X000437Y004777D02*
X000802Y004777D01*
X000802Y004935D02*
X000437Y004935D01*
X000437Y005094D02*
X000802Y005094D01*
X000802Y005252D02*
X000437Y005252D01*
X000437Y005411D02*
X000802Y005411D01*
X000802Y005569D02*
X000437Y005569D01*
X000437Y005728D02*
X000802Y005728D01*
X000802Y005886D02*
X000437Y005886D01*
X000437Y006045D02*
X000802Y006045D01*
X000802Y006203D02*
X000437Y006203D01*
X000437Y006362D02*
X000802Y006362D01*
X000802Y006520D02*
X000437Y006520D01*
X000437Y006679D02*
X000802Y006679D01*
X000802Y006837D02*
X000437Y006837D01*
X000437Y006996D02*
X000802Y006996D01*
X000802Y007154D02*
X000437Y007154D01*
X000437Y007313D02*
X000802Y007313D01*
X000802Y007471D02*
X000437Y007471D01*
X000437Y007630D02*
X000802Y007630D01*
X000802Y007788D02*
X000437Y007788D01*
X000437Y007947D02*
X000802Y007947D01*
X000802Y008105D02*
X000437Y008105D01*
X000437Y008264D02*
X000802Y008264D01*
X000802Y008422D02*
X000437Y008422D01*
X000437Y008581D02*
X000802Y008581D01*
X000802Y008739D02*
X000437Y008739D01*
X000437Y008898D02*
X000802Y008898D01*
X000802Y009056D02*
X000437Y009056D01*
X000437Y009215D02*
X000802Y009215D01*
X000850Y009373D02*
X000437Y009373D01*
X000437Y009532D02*
X000996Y009532D01*
X001155Y009690D02*
X000437Y009690D01*
X000437Y009849D02*
X001313Y009849D01*
X001481Y010007D02*
X000437Y010007D01*
X000437Y010166D02*
X003630Y010166D01*
X003498Y010307D02*
X003553Y010362D01*
X003598Y010424D01*
X003633Y010492D01*
X003657Y010566D01*
X003669Y010642D01*
X003669Y010680D01*
X003669Y010718D01*
X003657Y010794D01*
X003633Y010868D01*
X003598Y010936D01*
X003553Y010998D01*
X003498Y011053D01*
X003436Y011098D01*
X003368Y011133D01*
X003294Y011157D01*
X003218Y011169D01*
X003180Y011169D01*
X003142Y011169D01*
X003066Y011157D01*
X002992Y011133D01*
X002924Y011098D01*
X002862Y011053D01*
X002807Y010998D01*
X002762Y010936D01*
X002727Y010868D01*
X002703Y010794D01*
X002691Y010718D01*
X002691Y010680D01*
X002691Y010642D01*
X002703Y010566D01*
X002727Y010492D01*
X002762Y010424D01*
X002807Y010362D01*
X002862Y010307D01*
X002924Y010262D01*
X002992Y010227D01*
X003066Y010203D01*
X003142Y010191D01*
X003180Y010191D01*
X003180Y010680D01*
X003669Y010680D01*
X003180Y010680D01*
X003180Y010680D01*
X003180Y010680D01*
X003180Y011169D01*
X003180Y010680D01*
X003180Y010191D01*
X003218Y010191D01*
X003294Y010203D01*
X003368Y010227D01*
X003436Y010262D01*
X003498Y010307D01*
X003515Y010324D02*
X003789Y010324D01*
X003711Y010483D02*
X003628Y010483D01*
X003669Y010641D02*
X003672Y010641D01*
X003655Y010800D02*
X003679Y010800D01*
X003745Y010958D02*
X003582Y010958D01*
X003400Y011117D02*
X003802Y011117D01*
X003802Y011275D02*
X000437Y011275D01*
X000437Y011117D02*
X001704Y011117D01*
X001672Y011084D02*
X001672Y010276D01*
X001776Y010172D01*
X002584Y010172D01*
X002688Y010276D01*
X002688Y011084D01*
X002584Y011188D01*
X001776Y011188D01*
X001672Y011084D01*
X001672Y010958D02*
X000437Y010958D01*
X000437Y010800D02*
X001672Y010800D01*
X001672Y010641D02*
X000437Y010641D01*
X000437Y010483D02*
X001672Y010483D01*
X001672Y010324D02*
X000437Y010324D01*
X000437Y011434D02*
X003802Y011434D01*
X003802Y011592D02*
X000437Y011592D01*
X000437Y011751D02*
X003802Y011751D01*
X003802Y011909D02*
X000437Y011909D01*
X000437Y012068D02*
X003802Y012068D01*
X003802Y012226D02*
X000437Y012226D01*
X000437Y012385D02*
X003802Y012385D01*
X003802Y012543D02*
X000437Y012543D01*
X000437Y012702D02*
X003802Y012702D01*
X003802Y012860D02*
X000437Y012860D01*
X000437Y013019D02*
X003841Y013019D01*
X003892Y013177D02*
X000437Y013177D01*
X000437Y013336D02*
X003952Y013336D01*
X004068Y013494D02*
X000437Y013494D01*
X000437Y013653D02*
X004183Y013653D01*
X004392Y013811D02*
X000437Y013811D01*
X000437Y013970D02*
X004688Y013970D01*
X004546Y013923D02*
X004546Y013923D01*
X004820Y013177D02*
X007745Y013177D01*
X007735Y013191D02*
X007773Y013138D01*
X007819Y013092D01*
X007872Y013054D01*
X007930Y013024D01*
X007992Y013004D01*
X008057Y012994D01*
X008081Y012994D01*
X008081Y013400D01*
X007675Y013400D01*
X007675Y013376D01*
X007685Y013311D01*
X007705Y013249D01*
X007735Y013191D01*
X007681Y013336D02*
X005937Y013336D01*
X006178Y013435D02*
X006178Y013435D01*
X006236Y013494D02*
X007683Y013494D01*
X007685Y013505D02*
X007675Y013441D01*
X007675Y013417D01*
X008081Y013417D01*
X008081Y013823D01*
X008057Y013823D01*
X007992Y013813D01*
X007930Y013793D01*
X007872Y013763D01*
X007819Y013725D01*
X007773Y013678D01*
X007735Y013626D01*
X007705Y013568D01*
X007685Y013505D01*
X007754Y013653D02*
X006395Y013653D01*
X006478Y013811D02*
X007987Y013811D01*
X008081Y013811D02*
X008098Y013811D01*
X008098Y013823D02*
X008098Y013417D01*
X008081Y013417D01*
X008081Y013400D01*
X008098Y013400D01*
X008098Y013417D01*
X008504Y013417D01*
X008504Y013441D01*
X008494Y013505D01*
X008474Y013568D01*
X008444Y013626D01*
X008406Y013678D01*
X008360Y013725D01*
X008307Y013763D01*
X008249Y013793D01*
X008187Y013813D01*
X008122Y013823D01*
X008098Y013823D01*
X008192Y013811D02*
X008822Y013811D01*
X008822Y013970D02*
X006544Y013970D01*
X006558Y014128D02*
X008256Y014128D01*
X008170Y014287D02*
X006558Y014287D01*
X006558Y014445D02*
X008155Y014445D01*
X008200Y014604D02*
X006558Y014604D01*
X006558Y014762D02*
X008329Y014762D01*
X008850Y014762D02*
X008852Y014762D01*
X008991Y014921D02*
X006558Y014921D01*
X006558Y015079D02*
X009130Y015079D01*
X009268Y015238D02*
X006558Y015238D01*
X006558Y015396D02*
X018599Y015396D01*
X018757Y015238D02*
X013038Y015238D01*
X013196Y015079D02*
X018916Y015079D01*
X019074Y014921D02*
X013355Y014921D01*
X013513Y014762D02*
X019233Y014762D01*
X019391Y014604D02*
X013672Y014604D01*
X013830Y014445D02*
X019550Y014445D01*
X019572Y014287D02*
X013989Y014287D01*
X014147Y014128D02*
X019486Y014128D01*
X019474Y013970D02*
X014306Y013970D01*
X014464Y013811D02*
X019546Y013811D01*
X019830Y014030D02*
X019830Y014530D01*
X017180Y017180D01*
X017180Y018680D01*
X017637Y018725D02*
X017723Y018725D01*
X017723Y018883D02*
X017637Y018883D01*
X017637Y019042D02*
X017723Y019042D01*
X017723Y019050D02*
X017723Y018310D01*
X017792Y018142D01*
X017921Y018014D01*
X017922Y018013D01*
X017922Y017129D01*
X017961Y017034D01*
X018034Y016961D01*
X020422Y014573D01*
X020422Y013424D01*
X020379Y013381D01*
X020324Y013251D01*
X020324Y013109D01*
X020379Y012979D01*
X020427Y012930D01*
X020379Y012881D01*
X020324Y012751D01*
X020324Y012609D01*
X020379Y012479D01*
X020479Y012379D01*
X020609Y012324D01*
X020751Y012324D01*
X020881Y012379D01*
X020981Y012479D01*
X021036Y012609D01*
X021036Y012670D01*
X021368Y013003D01*
X021379Y012979D01*
X021479Y012879D01*
X021609Y012824D01*
X021751Y012824D01*
X021881Y012879D01*
X021981Y012979D01*
X022036Y013109D01*
X022036Y013251D01*
X021981Y013381D01*
X021938Y013424D01*
X021938Y017231D01*
X021899Y017326D01*
X021438Y017787D01*
X021438Y018013D01*
X021439Y018014D01*
X021568Y018142D01*
X021637Y018310D01*
X021637Y019050D01*
X021568Y019218D01*
X021439Y019346D01*
X021271Y019416D01*
X021089Y019416D01*
X020921Y019346D01*
X020792Y019218D01*
X020723Y019050D01*
X020723Y018310D01*
X020792Y018142D01*
X020921Y018014D01*
X020922Y018013D01*
X020922Y017629D01*
X020961Y017534D01*
X021034Y017461D01*
X021422Y017073D01*
X021422Y016272D01*
X021399Y016326D01*
X021326Y016399D01*
X020438Y017287D01*
X020438Y018013D01*
X020439Y018014D01*
X020568Y018142D01*
X020637Y018310D01*
X020637Y019050D01*
X020568Y019218D01*
X020439Y019346D01*
X020271Y019416D01*
X020089Y019416D01*
X019921Y019346D01*
X019792Y019218D01*
X019723Y019050D01*
X019723Y018310D01*
X019792Y018142D01*
X019921Y018014D01*
X019922Y018013D01*
X019922Y017129D01*
X019961Y017034D01*
X020034Y016961D01*
X020922Y016073D01*
X020922Y014772D01*
X020899Y014826D01*
X018438Y017287D01*
X018438Y018013D01*
X018439Y018014D01*
X018568Y018142D01*
X018637Y018310D01*
X018637Y019050D01*
X018568Y019218D01*
X018439Y019346D01*
X018271Y019416D01*
X018089Y019416D01*
X017921Y019346D01*
X017792Y019218D01*
X017723Y019050D01*
X017785Y019200D02*
X017575Y019200D01*
X017409Y019359D02*
X017951Y019359D01*
X018409Y019359D02*
X019001Y019359D01*
X019012Y019364D02*
X018951Y019333D01*
X018895Y019292D01*
X018846Y019244D01*
X018806Y019188D01*
X018775Y019127D01*
X018753Y019061D01*
X018743Y018993D01*
X018743Y018700D01*
X019160Y018700D01*
X019160Y019396D01*
X019146Y019396D01*
X019078Y019385D01*
X019012Y019364D01*
X019160Y019359D02*
X019200Y019359D01*
X019200Y019396D02*
X019200Y018700D01*
X019160Y018700D01*
X019160Y018660D01*
X018743Y018660D01*
X018743Y018367D01*
X018753Y018299D01*
X018775Y018233D01*
X018806Y018172D01*
X018846Y018116D01*
X018895Y018068D01*
X018951Y018027D01*
X019012Y017996D01*
X019078Y017975D01*
X019146Y017964D01*
X019160Y017964D01*
X019160Y018660D01*
X019200Y018660D01*
X019200Y018700D01*
X019617Y018700D01*
X019617Y018993D01*
X019607Y019061D01*
X019585Y019127D01*
X019554Y019188D01*
X019514Y019244D01*
X019465Y019292D01*
X019409Y019333D01*
X019348Y019364D01*
X019282Y019385D01*
X019214Y019396D01*
X019200Y019396D01*
X019359Y019359D02*
X019951Y019359D01*
X019785Y019200D02*
X019545Y019200D01*
X019610Y019042D02*
X019723Y019042D01*
X019723Y018883D02*
X019617Y018883D01*
X019617Y018725D02*
X019723Y018725D01*
X019617Y018660D02*
X019200Y018660D01*
X019200Y017964D01*
X019214Y017964D01*
X019282Y017975D01*
X019348Y017996D01*
X019409Y018027D01*
X019465Y018068D01*
X019514Y018116D01*
X019554Y018172D01*
X019585Y018233D01*
X019607Y018299D01*
X019617Y018367D01*
X019617Y018660D01*
X019617Y018566D02*
X019723Y018566D01*
X019723Y018408D02*
X019617Y018408D01*
X019591Y018249D02*
X019748Y018249D01*
X019844Y018091D02*
X019488Y018091D01*
X019200Y018091D02*
X019160Y018091D01*
X019160Y018249D02*
X019200Y018249D01*
X019200Y018408D02*
X019160Y018408D01*
X019160Y018566D02*
X019200Y018566D01*
X019200Y018725D02*
X019160Y018725D01*
X019160Y018883D02*
X019200Y018883D01*
X019200Y019042D02*
X019160Y019042D01*
X019160Y019200D02*
X019200Y019200D01*
X018815Y019200D02*
X018575Y019200D01*
X018637Y019042D02*
X018750Y019042D01*
X018743Y018883D02*
X018637Y018883D01*
X018637Y018725D02*
X018743Y018725D01*
X018743Y018566D02*
X018637Y018566D01*
X018637Y018408D02*
X018743Y018408D01*
X018769Y018249D02*
X018612Y018249D01*
X018516Y018091D02*
X018872Y018091D01*
X018438Y017932D02*
X019922Y017932D01*
X019922Y017774D02*
X018438Y017774D01*
X018438Y017615D02*
X019922Y017615D01*
X019922Y017457D02*
X018438Y017457D01*
X018438Y017298D02*
X019922Y017298D01*
X019922Y017140D02*
X018586Y017140D01*
X018744Y016981D02*
X020014Y016981D01*
X020172Y016823D02*
X018903Y016823D01*
X019061Y016664D02*
X020331Y016664D01*
X020489Y016506D02*
X019220Y016506D01*
X019378Y016347D02*
X020648Y016347D01*
X020806Y016189D02*
X019537Y016189D01*
X019695Y016030D02*
X020922Y016030D01*
X020922Y015872D02*
X019854Y015872D01*
X020012Y015713D02*
X020922Y015713D01*
X020922Y015555D02*
X020171Y015555D01*
X020329Y015396D02*
X020922Y015396D01*
X020922Y015238D02*
X020488Y015238D01*
X020646Y015079D02*
X020922Y015079D01*
X020922Y014921D02*
X020805Y014921D01*
X020680Y014680D02*
X018180Y017180D01*
X018180Y018680D01*
X017723Y018566D02*
X017637Y018566D01*
X017637Y018408D02*
X017723Y018408D01*
X017748Y018249D02*
X017612Y018249D01*
X017516Y018091D02*
X017844Y018091D01*
X017922Y017932D02*
X017438Y017932D01*
X017438Y017774D02*
X017922Y017774D01*
X017922Y017615D02*
X017438Y017615D01*
X017438Y017457D02*
X017922Y017457D01*
X017922Y017298D02*
X017438Y017298D01*
X017586Y017140D02*
X017922Y017140D01*
X018014Y016981D02*
X017744Y016981D01*
X017903Y016823D02*
X018172Y016823D01*
X018061Y016664D02*
X018331Y016664D01*
X018220Y016506D02*
X018489Y016506D01*
X018378Y016347D02*
X018648Y016347D01*
X018537Y016189D02*
X018806Y016189D01*
X018695Y016030D02*
X018965Y016030D01*
X018854Y015872D02*
X019123Y015872D01*
X019012Y015713D02*
X019282Y015713D01*
X019171Y015555D02*
X019440Y015555D01*
X019329Y015396D02*
X019599Y015396D01*
X019488Y015238D02*
X019757Y015238D01*
X019646Y015079D02*
X019916Y015079D01*
X019805Y014921D02*
X020074Y014921D01*
X019963Y014762D02*
X020233Y014762D01*
X020079Y014604D02*
X020391Y014604D01*
X020422Y014445D02*
X020088Y014445D01*
X020088Y014287D02*
X020422Y014287D01*
X020422Y014128D02*
X020174Y014128D01*
X020186Y013970D02*
X020422Y013970D01*
X020422Y013811D02*
X020114Y013811D01*
X020422Y013653D02*
X014623Y013653D01*
X014781Y013494D02*
X020422Y013494D01*
X020360Y013336D02*
X014940Y013336D01*
X015098Y013177D02*
X020324Y013177D01*
X020362Y013019D02*
X015257Y013019D01*
X015280Y012630D02*
X012880Y015030D01*
X009430Y015030D01*
X009080Y014630D01*
X009080Y013468D01*
X009089Y013408D01*
X008896Y013019D02*
X008232Y013019D01*
X008249Y013024D02*
X008307Y013054D01*
X008360Y013092D01*
X008406Y013138D01*
X008444Y013191D01*
X008474Y013249D01*
X008494Y013311D01*
X008504Y013376D01*
X008504Y013400D01*
X008098Y013400D01*
X008098Y012994D01*
X008122Y012994D01*
X008187Y013004D01*
X008249Y013024D01*
X008098Y013019D02*
X008081Y013019D01*
X007947Y013019D02*
X004667Y013019D01*
X004593Y012860D02*
X006541Y012860D01*
X006553Y012863D02*
X006470Y012841D01*
X006392Y012808D01*
X006318Y012766D01*
X006250Y012714D01*
X006190Y012653D01*
X006138Y012586D01*
X006095Y012512D01*
X006062Y012433D01*
X006040Y012351D01*
X006034Y012303D01*
X006600Y012303D01*
X006600Y012143D01*
X006760Y012143D01*
X006760Y011577D01*
X006807Y011584D01*
X006890Y011606D01*
X006968Y011638D01*
X007042Y011681D01*
X007110Y011733D01*
X007170Y011793D01*
X007222Y011861D01*
X007265Y011935D01*
X007298Y012014D01*
X007320Y012096D01*
X007326Y012143D01*
X006760Y012143D01*
X006760Y012303D01*
X007326Y012303D01*
X007320Y012351D01*
X007298Y012433D01*
X007265Y012512D01*
X007222Y012586D01*
X007170Y012653D01*
X007110Y012714D01*
X007042Y012766D01*
X006968Y012808D01*
X006890Y012841D01*
X006807Y012863D01*
X006760Y012869D01*
X006760Y012303D01*
X006600Y012303D01*
X006600Y012869D01*
X006553Y012863D01*
X006600Y012860D02*
X006760Y012860D01*
X006819Y012860D02*
X009831Y012860D01*
X009831Y012702D02*
X007122Y012702D01*
X007247Y012543D02*
X009390Y012543D01*
X009288Y012385D02*
X007311Y012385D01*
X007312Y012068D02*
X009340Y012068D01*
X009274Y012226D02*
X006760Y012226D01*
X006760Y012068D02*
X006600Y012068D01*
X006600Y012143D02*
X006600Y011577D01*
X006553Y011584D01*
X006470Y011606D01*
X006392Y011638D01*
X006318Y011681D01*
X006250Y011733D01*
X006190Y011793D01*
X006138Y011861D01*
X006095Y011935D01*
X006062Y012014D01*
X006040Y012096D01*
X006034Y012143D01*
X006600Y012143D01*
X006600Y012226D02*
X004558Y012226D01*
X004558Y012068D02*
X006048Y012068D01*
X006110Y011909D02*
X004558Y011909D01*
X004558Y011751D02*
X006232Y011751D01*
X006521Y011592D02*
X004558Y011592D01*
X004558Y011434D02*
X010061Y011434D01*
X009903Y011592D02*
X006839Y011592D01*
X006760Y011592D02*
X006600Y011592D01*
X006600Y011751D02*
X006760Y011751D01*
X006760Y011909D02*
X006600Y011909D01*
X006600Y012385D02*
X006760Y012385D01*
X006760Y012543D02*
X006600Y012543D01*
X006600Y012702D02*
X006760Y012702D01*
X006238Y012702D02*
X004560Y012702D01*
X004558Y012543D02*
X006113Y012543D01*
X006049Y012385D02*
X004558Y012385D01*
X004558Y011275D02*
X010220Y011275D01*
X010378Y011117D02*
X004558Y011117D01*
X004615Y010958D02*
X010537Y010958D01*
X010695Y010800D02*
X004681Y010800D01*
X004688Y010641D02*
X010854Y010641D01*
X010922Y010483D02*
X004649Y010483D01*
X004558Y010324D02*
X010922Y010324D01*
X010922Y010166D02*
X004558Y010166D01*
X004518Y010007D02*
X010922Y010007D01*
X010922Y009849D02*
X004384Y009849D01*
X004225Y009690D02*
X010922Y009690D01*
X010922Y009532D02*
X004067Y009532D01*
X003908Y009373D02*
X010922Y009373D01*
X010849Y009215D02*
X001750Y009215D01*
X001591Y009056D02*
X010691Y009056D01*
X010532Y008898D02*
X006114Y008898D01*
X005934Y008938D02*
X006431Y008825D01*
X006431Y008825D01*
X006889Y008604D01*
X006889Y008604D01*
X007287Y008287D01*
X007287Y008287D01*
X007604Y007889D01*
X007604Y007889D01*
X007825Y007431D01*
X007938Y006934D01*
X007938Y006924D01*
X007981Y006881D01*
X008036Y006751D01*
X008036Y006609D01*
X007981Y006479D01*
X007881Y006379D01*
X007751Y006324D01*
X007609Y006324D01*
X007479Y006379D01*
X007379Y006479D01*
X007324Y006609D01*
X007324Y006751D01*
X007379Y006881D01*
X007403Y006906D01*
X007324Y007255D01*
X007155Y007607D01*
X006911Y007911D01*
X006607Y008155D01*
X006255Y008324D01*
X005875Y008411D01*
X005680Y008422D01*
X003424Y008422D01*
X003381Y008379D01*
X003251Y008324D01*
X003109Y008324D01*
X002979Y008379D01*
X002879Y008479D01*
X002824Y008609D01*
X002824Y008751D01*
X002879Y008881D01*
X002979Y008981D01*
X003109Y009036D01*
X003251Y009036D01*
X003381Y008981D01*
X003424Y008938D01*
X005934Y008938D01*
X005680Y008680D02*
X003180Y008680D01*
X002836Y008581D02*
X001558Y008581D01*
X001558Y008739D02*
X002824Y008739D01*
X002895Y008898D02*
X001558Y008898D01*
X001558Y008422D02*
X002935Y008422D01*
X001558Y008264D02*
X006380Y008264D01*
X006669Y008105D02*
X001558Y008105D01*
X001558Y007947D02*
X006868Y007947D01*
X007010Y007788D02*
X001558Y007788D01*
X001558Y007630D02*
X007136Y007630D01*
X007220Y007471D02*
X001558Y007471D01*
X001558Y007313D02*
X007296Y007313D01*
X007347Y007154D02*
X001558Y007154D01*
X001558Y006996D02*
X007383Y006996D01*
X007360Y006837D02*
X001558Y006837D01*
X001558Y006679D02*
X007324Y006679D01*
X007361Y006520D02*
X001558Y006520D01*
X001558Y006362D02*
X007520Y006362D01*
X007840Y006362D02*
X007996Y006362D01*
X007999Y006520D02*
X008155Y006520D01*
X008036Y006679D02*
X008313Y006679D01*
X008472Y006837D02*
X008000Y006837D01*
X007924Y006996D02*
X008630Y006996D01*
X008789Y007154D02*
X007888Y007154D01*
X007852Y007313D02*
X008947Y007313D01*
X009106Y007471D02*
X007806Y007471D01*
X007729Y007630D02*
X009264Y007630D01*
X009423Y007788D02*
X007653Y007788D01*
X007559Y007947D02*
X009581Y007947D01*
X009740Y008105D02*
X007432Y008105D01*
X007306Y008264D02*
X009898Y008264D01*
X010057Y008422D02*
X007118Y008422D01*
X006919Y008581D02*
X010215Y008581D01*
X010374Y008739D02*
X006610Y008739D01*
X005680Y008680D02*
X005775Y008678D01*
X005870Y008671D01*
X005965Y008660D01*
X006059Y008644D01*
X006152Y008624D01*
X006243Y008599D01*
X006334Y008570D01*
X006423Y008537D01*
X006511Y008499D01*
X006596Y008458D01*
X006680Y008412D01*
X006761Y008363D01*
X006840Y008309D01*
X006916Y008252D01*
X006990Y008191D01*
X007060Y008127D01*
X007127Y008060D01*
X007191Y007990D01*
X007252Y007916D01*
X007309Y007840D01*
X007363Y007761D01*
X007412Y007680D01*
X007458Y007596D01*
X007499Y007511D01*
X007537Y007423D01*
X007570Y007334D01*
X007599Y007243D01*
X007624Y007152D01*
X007644Y007059D01*
X007660Y006965D01*
X007671Y006870D01*
X007678Y006775D01*
X007680Y006680D01*
X007838Y006203D02*
X001558Y006203D01*
X001558Y006045D02*
X007679Y006045D01*
X007383Y005886D02*
X001558Y005886D01*
X001558Y005728D02*
X007324Y005728D01*
X007341Y005569D02*
X001558Y005569D01*
X001558Y005411D02*
X007447Y005411D01*
X007728Y005094D02*
X001558Y005094D01*
X001558Y005252D02*
X007887Y005252D01*
X007913Y005411D02*
X008045Y005411D01*
X008019Y005569D02*
X008204Y005569D01*
X008093Y005728D02*
X008362Y005728D01*
X008251Y005886D02*
X008521Y005886D01*
X008410Y006045D02*
X008679Y006045D01*
X008568Y006203D02*
X008838Y006203D01*
X008727Y006362D02*
X008996Y006362D01*
X008885Y006520D02*
X009155Y006520D01*
X009044Y006679D02*
X009313Y006679D01*
X009202Y006837D02*
X009472Y006837D01*
X009361Y006996D02*
X012630Y006996D01*
X012789Y007154D02*
X009519Y007154D01*
X009678Y007313D02*
X012850Y007313D01*
X012968Y007471D02*
X009836Y007471D01*
X009995Y007630D02*
X013922Y007630D01*
X013922Y007788D02*
X010153Y007788D01*
X010312Y007947D02*
X013911Y007947D01*
X013826Y008105D02*
X010470Y008105D01*
X010629Y008264D02*
X013830Y008264D01*
X013919Y008422D02*
X010787Y008422D01*
X010946Y008581D02*
X015215Y008581D01*
X015302Y008739D02*
X015374Y008739D01*
X015058Y008739D02*
X014302Y008739D01*
X014058Y008739D02*
X011104Y008739D01*
X011263Y008898D02*
X013820Y008898D01*
X014180Y009180D02*
X013180Y009180D01*
X010089Y012271D01*
X010089Y013408D01*
X009715Y013177D02*
X009464Y013177D01*
X009524Y013336D02*
X009655Y013336D01*
X009655Y013494D02*
X009524Y013494D01*
X009458Y013653D02*
X009720Y013653D01*
X009927Y013811D02*
X009338Y013811D01*
X009338Y013970D02*
X009663Y013970D01*
X009818Y014180D02*
X009589Y014408D01*
X009818Y014180D02*
X010180Y014180D01*
X010580Y013830D01*
X010580Y012330D01*
X013180Y009680D01*
X014680Y009680D01*
X015180Y009180D01*
X015471Y009532D02*
X015922Y009532D01*
X015922Y009690D02*
X015035Y009690D01*
X014877Y009849D02*
X015922Y009849D01*
X015922Y010007D02*
X013221Y010007D01*
X013066Y010166D02*
X015922Y010166D01*
X015922Y010324D02*
X012910Y010324D01*
X012755Y010483D02*
X015877Y010483D01*
X015824Y010641D02*
X012599Y010641D01*
X012444Y010800D02*
X015845Y010800D01*
X015955Y010958D02*
X012288Y010958D01*
X012133Y011117D02*
X016422Y011117D01*
X016422Y011275D02*
X011977Y011275D01*
X011822Y011434D02*
X016422Y011434D01*
X016332Y011592D02*
X013158Y011592D01*
X013126Y011584D02*
X013209Y011606D01*
X013287Y011638D01*
X013361Y011681D01*
X013429Y011733D01*
X013489Y011793D01*
X013541Y011861D01*
X013584Y011935D01*
X013617Y012014D01*
X013639Y012096D01*
X013645Y012143D01*
X013079Y012143D01*
X013079Y011577D01*
X013126Y011584D01*
X013079Y011592D02*
X012919Y011592D01*
X012919Y011577D02*
X012919Y012143D01*
X013079Y012143D01*
X013079Y012303D01*
X013645Y012303D01*
X013639Y012351D01*
X013617Y012433D01*
X013584Y012512D01*
X013541Y012586D01*
X013489Y012653D01*
X013429Y012714D01*
X013361Y012766D01*
X013287Y012808D01*
X013209Y012841D01*
X013126Y012863D01*
X013079Y012869D01*
X013079Y012303D01*
X012919Y012303D01*
X012919Y012143D01*
X012353Y012143D01*
X012359Y012096D01*
X012381Y012014D01*
X012414Y011935D01*
X012457Y011861D01*
X012509Y011793D01*
X012569Y011733D01*
X012637Y011681D01*
X012710Y011638D01*
X012789Y011606D01*
X012872Y011584D01*
X012919Y011577D01*
X012840Y011592D02*
X011666Y011592D01*
X011511Y011751D02*
X012551Y011751D01*
X012429Y011909D02*
X011355Y011909D01*
X011200Y012068D02*
X012367Y012068D01*
X012353Y012303D02*
X012919Y012303D01*
X012919Y012869D01*
X012872Y012863D01*
X012789Y012841D01*
X012710Y012808D01*
X012637Y012766D01*
X012569Y012714D01*
X012509Y012653D01*
X012457Y012586D01*
X012414Y012512D01*
X012381Y012433D01*
X012359Y012351D01*
X012353Y012303D01*
X012368Y012385D02*
X010889Y012385D01*
X010838Y012543D02*
X012432Y012543D01*
X012557Y012702D02*
X010838Y012702D01*
X010838Y012860D02*
X012860Y012860D01*
X012919Y012860D02*
X013079Y012860D01*
X013137Y012860D02*
X014023Y012860D01*
X013862Y013019D02*
X011283Y013019D01*
X011464Y013177D02*
X013818Y013177D01*
X013659Y013336D02*
X011524Y013336D01*
X011524Y013494D02*
X013501Y013494D01*
X013342Y013653D02*
X011458Y013653D01*
X011252Y013811D02*
X013184Y013811D01*
X013025Y013970D02*
X010802Y013970D01*
X010840Y013811D02*
X010927Y013811D01*
X010923Y014128D02*
X011256Y014128D01*
X011170Y014287D02*
X011009Y014287D01*
X011024Y014445D02*
X011155Y014445D01*
X011200Y014604D02*
X010979Y014604D01*
X010850Y014762D02*
X011329Y014762D01*
X011589Y014408D02*
X012952Y014408D01*
X014180Y013180D01*
X014337Y012860D02*
X014685Y012860D01*
X014843Y012702D02*
X013441Y012702D01*
X013566Y012543D02*
X015002Y012543D01*
X015197Y012385D02*
X013630Y012385D01*
X013631Y012068D02*
X023545Y012068D01*
X023545Y012226D02*
X013079Y012226D01*
X013079Y012068D02*
X012919Y012068D01*
X012919Y012226D02*
X011044Y012226D01*
X010896Y013019D02*
X010838Y013019D01*
X009831Y013019D02*
X009283Y013019D01*
X008715Y013177D02*
X008434Y013177D01*
X008498Y013336D02*
X008655Y013336D01*
X008655Y013494D02*
X008496Y013494D01*
X008425Y013653D02*
X008720Y013653D01*
X008098Y013653D02*
X008081Y013653D01*
X008081Y013494D02*
X008098Y013494D01*
X008081Y013336D02*
X008098Y013336D01*
X008081Y013177D02*
X008098Y013177D01*
X007250Y011909D02*
X009586Y011909D01*
X009744Y011751D02*
X007128Y011751D01*
X009630Y012230D02*
X011180Y010680D01*
X011180Y009180D01*
X007680Y005680D01*
X008459Y005094D02*
X008728Y005094D01*
X008617Y005252D02*
X008887Y005252D01*
X008776Y005411D02*
X009045Y005411D01*
X008934Y005569D02*
X009204Y005569D01*
X009093Y005728D02*
X009362Y005728D01*
X009251Y005886D02*
X009521Y005886D01*
X009410Y006045D02*
X013179Y006045D01*
X013338Y006203D02*
X009568Y006203D01*
X009727Y006362D02*
X013496Y006362D01*
X013655Y006520D02*
X012885Y006520D01*
X013044Y006679D02*
X013813Y006679D01*
X013922Y006837D02*
X013281Y006837D01*
X013488Y006996D02*
X013922Y006996D01*
X013922Y007154D02*
X013536Y007154D01*
X013510Y007313D02*
X013922Y007313D01*
X013922Y007471D02*
X013392Y007471D01*
X013180Y007180D02*
X012680Y006680D01*
X009680Y006680D01*
X005680Y002680D01*
X005680Y002180D01*
X006102Y002399D02*
X006258Y002399D01*
X006206Y002241D02*
X006171Y002241D01*
X005972Y002558D02*
X006388Y002558D01*
X006422Y002716D02*
X006081Y002716D01*
X006240Y002875D02*
X006509Y002875D01*
X006398Y003033D02*
X006668Y003033D01*
X006557Y003192D02*
X006826Y003192D01*
X006715Y003350D02*
X006985Y003350D01*
X006874Y003509D02*
X007143Y003509D01*
X007032Y003667D02*
X007302Y003667D01*
X007191Y003826D02*
X007460Y003826D01*
X007349Y003984D02*
X007619Y003984D01*
X007508Y004143D02*
X007777Y004143D01*
X007666Y004301D02*
X007936Y004301D01*
X007825Y004460D02*
X008094Y004460D01*
X007983Y004618D02*
X008253Y004618D01*
X008142Y004777D02*
X008411Y004777D01*
X008300Y004935D02*
X008570Y004935D01*
X008983Y004618D02*
X009253Y004618D01*
X009142Y004777D02*
X009411Y004777D01*
X009534Y004899D02*
X007534Y002899D01*
X007461Y002826D01*
X007422Y002731D01*
X007422Y002586D01*
X007412Y002582D01*
X007278Y002448D01*
X007206Y002274D01*
X007206Y002226D01*
X007150Y002282D01*
X007082Y002448D01*
X006948Y002582D01*
X006947Y002582D01*
X009787Y005422D01*
X013231Y005422D01*
X013326Y005461D01*
X014300Y006434D01*
X014306Y006422D01*
X014346Y006366D01*
X014395Y006318D01*
X014451Y006277D01*
X014512Y006246D01*
X014578Y006225D01*
X014646Y006214D01*
X014660Y006214D01*
X014660Y006910D01*
X014700Y006910D01*
X014700Y006214D01*
X014714Y006214D01*
X014782Y006225D01*
X014848Y006246D01*
X014909Y006277D01*
X014922Y006286D01*
X014922Y005787D01*
X014073Y004938D01*
X009629Y004938D01*
X009534Y004899D01*
X009620Y004935D02*
X009300Y004935D01*
X009459Y005094D02*
X014228Y005094D01*
X014387Y005252D02*
X009617Y005252D01*
X009776Y005411D02*
X014545Y005411D01*
X014704Y005569D02*
X013434Y005569D01*
X013593Y005728D02*
X014862Y005728D01*
X014922Y005886D02*
X013751Y005886D01*
X013910Y006045D02*
X014922Y006045D01*
X014922Y006203D02*
X014068Y006203D01*
X014227Y006362D02*
X014351Y006362D01*
X014660Y006362D02*
X014700Y006362D01*
X014700Y006520D02*
X014660Y006520D01*
X014660Y006679D02*
X014700Y006679D01*
X014700Y006837D02*
X014660Y006837D01*
X014660Y006996D02*
X014700Y006996D01*
X014700Y007154D02*
X014660Y007154D01*
X014660Y007313D02*
X014700Y007313D01*
X014700Y007471D02*
X014660Y007471D01*
X014660Y007630D02*
X014700Y007630D01*
X014801Y007630D02*
X014922Y007630D01*
X014922Y007788D02*
X014438Y007788D01*
X014438Y007630D02*
X014559Y007630D01*
X014449Y007947D02*
X014922Y007947D01*
X014922Y008105D02*
X014534Y008105D01*
X014530Y008264D02*
X014935Y008264D01*
X015057Y008422D02*
X014441Y008422D01*
X014180Y008180D02*
X014180Y006680D01*
X013180Y005680D01*
X009680Y005680D01*
X006680Y002680D01*
X006680Y002180D01*
X007102Y002399D02*
X007258Y002399D01*
X007206Y002241D02*
X007192Y002241D01*
X007388Y002558D02*
X006972Y002558D01*
X007081Y002716D02*
X007422Y002716D01*
X007509Y002875D02*
X007240Y002875D01*
X007398Y003033D02*
X007668Y003033D01*
X007557Y003192D02*
X007826Y003192D01*
X007715Y003350D02*
X007985Y003350D01*
X007874Y003509D02*
X008143Y003509D01*
X008032Y003667D02*
X008302Y003667D01*
X008191Y003826D02*
X008460Y003826D01*
X008349Y003984D02*
X008619Y003984D01*
X008508Y004143D02*
X008777Y004143D01*
X008666Y004301D02*
X008936Y004301D01*
X008825Y004460D02*
X009094Y004460D01*
X009508Y004143D02*
X010324Y004143D01*
X010324Y004109D02*
X010324Y004251D01*
X010379Y004381D01*
X010419Y004422D01*
X009787Y004422D01*
X007947Y002582D01*
X007948Y002582D01*
X008082Y002448D01*
X008150Y002282D01*
X008206Y002226D01*
X008206Y002274D01*
X008278Y002448D01*
X008412Y002582D01*
X008586Y002654D01*
X008774Y002654D01*
X008784Y002650D01*
X009961Y003826D01*
X009961Y003826D01*
X010034Y003899D01*
X010129Y003938D01*
X010419Y003938D01*
X010379Y003979D01*
X010324Y004109D01*
X010376Y003984D02*
X009349Y003984D01*
X009191Y003826D02*
X009960Y003826D01*
X009802Y003667D02*
X009032Y003667D01*
X008874Y003509D02*
X009643Y003509D01*
X009485Y003350D02*
X008715Y003350D01*
X008557Y003192D02*
X009326Y003192D01*
X009168Y003033D02*
X008398Y003033D01*
X008240Y002875D02*
X009009Y002875D01*
X008851Y002716D02*
X008081Y002716D01*
X007972Y002558D02*
X008388Y002558D01*
X008258Y002399D02*
X008102Y002399D01*
X008192Y002241D02*
X008206Y002241D01*
X008680Y002180D02*
X010180Y003680D01*
X014430Y003680D01*
X016180Y005430D01*
X016507Y005569D02*
X017922Y005569D01*
X017922Y005411D02*
X016536Y005411D01*
X016491Y005252D02*
X017922Y005252D01*
X017922Y005094D02*
X016297Y005094D01*
X016050Y004935D02*
X017922Y004935D01*
X017922Y004777D02*
X015892Y004777D01*
X015733Y004618D02*
X017922Y004618D01*
X017922Y004460D02*
X015575Y004460D01*
X015416Y004301D02*
X017845Y004301D01*
X017824Y004143D02*
X015258Y004143D01*
X015099Y003984D02*
X017876Y003984D01*
X018107Y003826D02*
X014941Y003826D01*
X014782Y003667D02*
X022420Y003667D01*
X022422Y003826D02*
X018253Y003826D01*
X018484Y003984D02*
X022422Y003984D01*
X022422Y004143D02*
X018536Y004143D01*
X018515Y004301D02*
X022422Y004301D01*
X022422Y004460D02*
X018438Y004460D01*
X018438Y004618D02*
X022422Y004618D01*
X022422Y004777D02*
X022291Y004777D01*
X021964Y004777D02*
X018438Y004777D01*
X018438Y004935D02*
X021749Y004935D01*
X021678Y005094D02*
X018438Y005094D01*
X018438Y005252D02*
X021670Y005252D01*
X021718Y005411D02*
X019913Y005411D01*
X020019Y005569D02*
X021846Y005569D01*
X021798Y005886D02*
X020889Y005886D01*
X021009Y006045D02*
X021698Y006045D01*
X021670Y006203D02*
X021036Y006203D01*
X020990Y006362D02*
X021698Y006362D01*
X021797Y006520D02*
X020788Y006520D01*
X020572Y006520D02*
X018788Y006520D01*
X018688Y006679D02*
X022422Y006679D01*
X022422Y006837D02*
X022367Y006837D01*
X022147Y006837D02*
X022107Y006837D01*
X022107Y006996D02*
X022147Y006996D01*
X022147Y007154D02*
X022107Y007154D01*
X022107Y007313D02*
X022147Y007313D01*
X022147Y007471D02*
X022107Y007471D01*
X022107Y007630D02*
X022147Y007630D01*
X022680Y007680D02*
X022678Y007723D01*
X022673Y007766D01*
X022664Y007809D01*
X022652Y007850D01*
X022636Y007890D01*
X022617Y007929D01*
X022595Y007967D01*
X022570Y008002D01*
X022542Y008035D01*
X022511Y008066D01*
X022478Y008094D01*
X022443Y008119D01*
X022405Y008141D01*
X022366Y008160D01*
X022326Y008176D01*
X022285Y008188D01*
X022242Y008197D01*
X022199Y008202D01*
X022156Y008204D01*
X022127Y008204D01*
X022532Y008422D02*
X023545Y008422D01*
X023545Y008264D02*
X022679Y008264D01*
X022599Y008343D02*
X022599Y008343D01*
X022819Y008123D02*
X022819Y008123D01*
X022827Y008105D02*
X023545Y008105D01*
X023545Y007947D02*
X022892Y007947D01*
X022938Y007788D02*
X023545Y007788D01*
X023545Y007630D02*
X022938Y007630D01*
X022938Y007471D02*
X023545Y007471D01*
X023545Y007313D02*
X022938Y007313D01*
X022938Y007154D02*
X023545Y007154D01*
X023545Y006996D02*
X022938Y006996D01*
X022938Y006837D02*
X023545Y006837D01*
X023545Y006679D02*
X022938Y006679D01*
X022938Y006520D02*
X023545Y006520D01*
X023545Y006362D02*
X022938Y006362D01*
X022938Y006203D02*
X023545Y006203D01*
X023545Y006045D02*
X022938Y006045D01*
X022938Y005886D02*
X023545Y005886D01*
X023545Y005728D02*
X022938Y005728D01*
X022938Y005569D02*
X023545Y005569D01*
X023545Y005411D02*
X022938Y005411D01*
X022938Y005252D02*
X023545Y005252D01*
X023545Y005094D02*
X022938Y005094D01*
X022938Y004935D02*
X023545Y004935D01*
X023545Y004777D02*
X022938Y004777D01*
X022938Y004618D02*
X023545Y004618D01*
X023545Y004460D02*
X022938Y004460D01*
X022938Y004301D02*
X023545Y004301D01*
X023545Y004143D02*
X022938Y004143D01*
X022938Y003984D02*
X023545Y003984D01*
X023545Y003826D02*
X022938Y003826D01*
X022938Y003667D02*
X023545Y003667D01*
X023545Y003509D02*
X022930Y003509D01*
X022864Y003350D02*
X023545Y003350D01*
X023545Y003192D02*
X022764Y003192D01*
X022610Y003037D02*
X022610Y003037D01*
X022600Y003033D02*
X023545Y003033D01*
X023545Y002875D02*
X017039Y002875D01*
X016942Y002716D02*
X023545Y002716D01*
X023545Y002558D02*
X021145Y002558D01*
X021154Y002549D02*
X021049Y002654D01*
X020311Y002654D01*
X020206Y002549D01*
X020206Y001811D01*
X020311Y001706D01*
X021049Y001706D01*
X021154Y001811D01*
X021154Y002549D01*
X021154Y002399D02*
X023545Y002399D01*
X023545Y002241D02*
X021154Y002241D01*
X021154Y002082D02*
X023545Y002082D01*
X023545Y001924D02*
X023270Y001924D01*
X023428Y001765D02*
X023545Y001765D01*
X023542Y001607D02*
X023545Y001607D01*
X022248Y001924D02*
X021154Y001924D01*
X021108Y001765D02*
X022089Y001765D01*
X021975Y001607D02*
X016943Y001607D01*
X016923Y001546D02*
X016923Y001546D01*
X016852Y001448D02*
X021910Y001448D01*
X021872Y001290D02*
X021600Y001290D01*
X021608Y001281D02*
X021480Y001409D01*
X021270Y001409D01*
X021179Y001409D01*
X021089Y001409D01*
X021055Y001374D01*
X021020Y001409D01*
X020379Y001409D01*
X020329Y001359D01*
X020279Y001409D01*
X020099Y001409D01*
X020097Y001407D01*
X019971Y001281D01*
X019971Y000680D01*
X020099Y000552D01*
X020279Y000552D01*
X020329Y000601D01*
X020379Y000552D01*
X020560Y000552D01*
X020629Y000621D01*
X020699Y000552D01*
X020880Y000552D01*
X020985Y000656D01*
X021089Y000552D01*
X021480Y000552D01*
X021608Y000680D01*
X021608Y001071D01*
X021608Y001100D01*
X021608Y001281D01*
X021608Y001131D02*
X021872Y001131D01*
X021885Y000973D02*
X021608Y000973D01*
X021608Y000814D02*
X021950Y000814D01*
X022029Y000656D02*
X021584Y000656D01*
X020985Y000656D02*
X020984Y000656D01*
X021089Y001409D02*
X021089Y001409D01*
X021089Y001409D01*
X021270Y001409D02*
X021270Y001409D01*
X020252Y001765D02*
X019916Y001765D01*
X019948Y001778D02*
X020082Y001912D01*
X020154Y002086D01*
X020154Y002274D01*
X020082Y002448D01*
X019948Y002582D01*
X019774Y002654D01*
X019586Y002654D01*
X019412Y002582D01*
X019278Y002448D01*
X019206Y002274D01*
X019206Y002086D01*
X019278Y001912D01*
X019412Y001778D01*
X019586Y001706D01*
X019774Y001706D01*
X019948Y001778D01*
X020086Y001924D02*
X020206Y001924D01*
X020206Y002082D02*
X020152Y002082D01*
X020154Y002241D02*
X020206Y002241D01*
X020206Y002399D02*
X020102Y002399D01*
X020215Y002558D02*
X019972Y002558D01*
X019388Y002558D02*
X018972Y002558D01*
X018948Y002582D02*
X018774Y002654D01*
X018586Y002654D01*
X018412Y002582D01*
X018278Y002448D01*
X018206Y002274D01*
X018206Y002086D01*
X018278Y001912D01*
X018412Y001778D01*
X018586Y001706D01*
X018774Y001706D01*
X018948Y001778D01*
X019082Y001912D01*
X019154Y002086D01*
X019154Y002274D01*
X019082Y002448D01*
X018948Y002582D01*
X019102Y002399D02*
X019258Y002399D01*
X019206Y002241D02*
X019154Y002241D01*
X019152Y002082D02*
X019208Y002082D01*
X019274Y001924D02*
X019086Y001924D01*
X018916Y001765D02*
X019444Y001765D01*
X019979Y001290D02*
X016737Y001290D01*
X016581Y001131D02*
X019971Y001131D01*
X019971Y000973D02*
X016363Y000973D01*
X016314Y000937D02*
X016314Y000937D01*
X015937Y000814D02*
X019971Y000814D01*
X019995Y000656D02*
X008785Y000656D01*
X008595Y000995D02*
X008730Y001130D01*
X008595Y000995D02*
X008180Y000995D01*
X007180Y000995D01*
X007180Y001665D02*
X007180Y001680D01*
X007178Y001724D01*
X007172Y001767D01*
X007163Y001809D01*
X007150Y001851D01*
X007133Y001891D01*
X007113Y001930D01*
X007090Y001967D01*
X007063Y002001D01*
X007034Y002034D01*
X007001Y002063D01*
X006967Y002090D01*
X006930Y002113D01*
X006891Y002133D01*
X006851Y002150D01*
X006809Y002163D01*
X006767Y002172D01*
X006724Y002178D01*
X006680Y002180D01*
X006130Y001730D02*
X006130Y001665D01*
X005735Y001607D02*
X003745Y001607D01*
X003774Y001706D02*
X003948Y001778D01*
X004082Y001912D01*
X004154Y002086D01*
X004154Y002274D01*
X004082Y002448D01*
X003948Y002582D01*
X003774Y002654D01*
X003586Y002654D01*
X003412Y002582D01*
X003278Y002448D01*
X003206Y002274D01*
X003206Y002086D01*
X003278Y001912D01*
X003412Y001778D01*
X003586Y001706D01*
X003774Y001706D01*
X003916Y001765D02*
X004444Y001765D01*
X004412Y001778D02*
X004586Y001706D01*
X004774Y001706D01*
X004948Y001778D01*
X005082Y001912D01*
X005154Y002086D01*
X005154Y002274D01*
X005082Y002448D01*
X004948Y002582D01*
X004774Y002654D01*
X004586Y002654D01*
X004412Y002582D01*
X004278Y002448D01*
X004206Y002274D01*
X004206Y002086D01*
X004278Y001912D01*
X004412Y001778D01*
X004274Y001924D02*
X004086Y001924D01*
X004152Y002082D02*
X004208Y002082D01*
X004206Y002241D02*
X004154Y002241D01*
X004102Y002399D02*
X004258Y002399D01*
X004388Y002558D02*
X003972Y002558D01*
X003388Y002558D02*
X002126Y002558D01*
X002020Y002716D02*
X005422Y002716D01*
X005388Y002558D02*
X004972Y002558D01*
X005102Y002399D02*
X005258Y002399D01*
X005206Y002241D02*
X005154Y002241D01*
X005152Y002082D02*
X005208Y002082D01*
X005274Y001924D02*
X005086Y001924D01*
X004916Y001765D02*
X005444Y001765D01*
X005680Y002180D02*
X005722Y002178D01*
X005763Y002172D01*
X005803Y002163D01*
X005843Y002150D01*
X005881Y002133D01*
X005917Y002113D01*
X005951Y002089D01*
X005983Y002063D01*
X006013Y002033D01*
X006039Y002001D01*
X006063Y001967D01*
X006083Y001931D01*
X006100Y001893D01*
X006113Y001853D01*
X006122Y001813D01*
X006128Y001772D01*
X006130Y001730D01*
X005509Y002875D02*
X001915Y002875D01*
X001831Y003033D02*
X005668Y003033D01*
X005826Y003192D02*
X001766Y003192D01*
X001700Y003350D02*
X005985Y003350D01*
X006143Y003509D02*
X001654Y003509D01*
X001622Y003667D02*
X006302Y003667D01*
X006460Y003826D02*
X001590Y003826D01*
X001568Y003984D02*
X006619Y003984D01*
X006777Y004143D02*
X001560Y004143D01*
X001558Y004301D02*
X006936Y004301D01*
X007094Y004460D02*
X001558Y004460D01*
X001558Y004618D02*
X007253Y004618D01*
X007411Y004777D02*
X001558Y004777D01*
X001558Y004935D02*
X007570Y004935D01*
X009680Y004680D02*
X007680Y002680D01*
X007680Y002180D01*
X007724Y002178D01*
X007767Y002172D01*
X007809Y002163D01*
X007851Y002150D01*
X007891Y002133D01*
X007930Y002113D01*
X007967Y002090D01*
X008001Y002063D01*
X008034Y002034D01*
X008063Y002001D01*
X008090Y001967D01*
X008113Y001930D01*
X008133Y001891D01*
X008150Y001851D01*
X008163Y001809D01*
X008172Y001767D01*
X008178Y001724D01*
X008180Y001680D01*
X008180Y001665D01*
X008575Y001607D02*
X010302Y001607D01*
X010252Y001765D02*
X009866Y001765D01*
X009854Y001759D02*
X009918Y001792D01*
X009976Y001834D01*
X010026Y001884D01*
X010068Y001942D01*
X010101Y002006D01*
X010123Y002074D01*
X010134Y002144D01*
X010134Y002152D01*
X009708Y002152D01*
X009708Y002208D01*
X009652Y002208D01*
X009652Y002152D01*
X009708Y002152D01*
X009708Y001726D01*
X009716Y001726D01*
X009786Y001737D01*
X009854Y001759D01*
X009708Y001765D02*
X009652Y001765D01*
X009652Y001726D02*
X009652Y002152D01*
X009226Y002152D01*
X009226Y002144D01*
X009237Y002074D01*
X009259Y002006D01*
X009292Y001942D01*
X009334Y001884D01*
X009384Y001834D01*
X009442Y001792D01*
X009506Y001759D01*
X009574Y001737D01*
X009644Y001726D01*
X009652Y001726D01*
X009494Y001765D02*
X008916Y001765D01*
X009086Y001924D02*
X009305Y001924D01*
X009236Y002082D02*
X009152Y002082D01*
X009154Y002241D02*
X009230Y002241D01*
X009264Y002399D02*
X009282Y002399D01*
X009423Y002558D02*
X009427Y002558D01*
X009581Y002716D02*
X016422Y002716D01*
X016440Y002875D02*
X009740Y002875D01*
X009898Y003033D02*
X016505Y003033D01*
X016619Y003192D02*
X010057Y003192D01*
X010215Y003350D02*
X016816Y003350D01*
X016750Y003323D02*
X016750Y003323D01*
X017180Y003180D02*
X022180Y003180D01*
X022344Y003509D02*
X014624Y003509D01*
X014180Y004180D02*
X016180Y006180D01*
X016180Y008180D01*
X016680Y008680D01*
X016680Y011680D01*
X016954Y011909D02*
X023545Y011909D01*
X023545Y011751D02*
X017036Y011751D01*
X017028Y011592D02*
X023545Y011592D01*
X023545Y011434D02*
X016938Y011434D01*
X016938Y011275D02*
X023545Y011275D01*
X023545Y011117D02*
X016938Y011117D01*
X016938Y010958D02*
X023545Y010958D01*
X023545Y010800D02*
X018588Y010800D01*
X018748Y010641D02*
X023545Y010641D01*
X023545Y010483D02*
X018786Y010483D01*
X018750Y010324D02*
X023545Y010324D01*
X023545Y010166D02*
X018688Y010166D01*
X018688Y010007D02*
X023545Y010007D01*
X023545Y009849D02*
X018688Y009849D01*
X018688Y009690D02*
X023545Y009690D01*
X023545Y009532D02*
X022446Y009532D01*
X022386Y009591D02*
X022515Y009463D01*
X022584Y009295D01*
X022584Y009113D01*
X022515Y008945D01*
X022386Y008816D01*
X022218Y008746D01*
X022036Y008746D01*
X021868Y008816D01*
X021740Y008945D01*
X021670Y009113D01*
X021670Y009295D01*
X021740Y009463D01*
X021868Y009591D01*
X022036Y009661D01*
X022218Y009661D01*
X022386Y009591D01*
X022552Y009373D02*
X023545Y009373D01*
X023545Y009215D02*
X022584Y009215D01*
X022561Y009056D02*
X023545Y009056D01*
X023545Y008898D02*
X022468Y008898D01*
X022397Y008581D02*
X023545Y008581D01*
X023545Y008739D02*
X018688Y008739D01*
X018688Y008581D02*
X021858Y008581D01*
X021723Y008422D02*
X018688Y008422D01*
X018688Y008264D02*
X021670Y008264D01*
X021673Y008105D02*
X018688Y008105D01*
X018688Y007947D02*
X021739Y007947D01*
X021936Y007788D02*
X018688Y007788D01*
X018688Y007630D02*
X022022Y007630D01*
X022232Y007630D02*
X022422Y007630D01*
X022393Y007788D02*
X022319Y007788D01*
X022680Y007680D02*
X022680Y003680D01*
X022678Y003636D01*
X022672Y003593D01*
X022663Y003551D01*
X022650Y003509D01*
X022633Y003469D01*
X022613Y003430D01*
X022590Y003393D01*
X022563Y003359D01*
X022534Y003326D01*
X022501Y003297D01*
X022467Y003270D01*
X022430Y003247D01*
X022391Y003227D01*
X022351Y003210D01*
X022309Y003197D01*
X022267Y003188D01*
X022224Y003182D01*
X022180Y003180D01*
X022408Y005569D02*
X022422Y005569D01*
X022422Y005728D02*
X020036Y005728D01*
X019977Y005886D02*
X020471Y005886D01*
X020680Y006180D02*
X018680Y006180D01*
X018680Y005680D02*
X019680Y005680D01*
X019447Y005411D02*
X018913Y005411D01*
X018447Y005411D02*
X018438Y005411D01*
X017922Y005728D02*
X016385Y005728D01*
X016251Y005886D02*
X017922Y005886D01*
X017922Y006045D02*
X016404Y006045D01*
X016438Y006203D02*
X016568Y006203D01*
X016792Y006203D02*
X017568Y006203D01*
X017792Y006203D02*
X017922Y006203D01*
X018180Y006430D02*
X018180Y004180D01*
X017774Y002654D02*
X017586Y002654D01*
X017412Y002582D01*
X017278Y002448D01*
X017206Y002274D01*
X017206Y002086D01*
X017278Y001912D01*
X017412Y001778D01*
X017586Y001706D01*
X017774Y001706D01*
X017948Y001778D01*
X018082Y001912D01*
X018154Y002086D01*
X018154Y002274D01*
X018082Y002448D01*
X017948Y002582D01*
X017774Y002654D01*
X017972Y002558D02*
X018388Y002558D01*
X018258Y002399D02*
X018102Y002399D01*
X018154Y002241D02*
X018206Y002241D01*
X018208Y002082D02*
X018152Y002082D01*
X018086Y001924D02*
X018274Y001924D01*
X018444Y001765D02*
X017916Y001765D01*
X017444Y001765D02*
X016995Y001765D01*
X017086Y001924D02*
X017274Y001924D01*
X017208Y002082D02*
X017152Y002082D01*
X017154Y002241D02*
X017206Y002241D01*
X017258Y002399D02*
X017102Y002399D01*
X016972Y002558D02*
X017388Y002558D01*
X017180Y003180D02*
X017136Y003178D01*
X017093Y003172D01*
X017051Y003163D01*
X017009Y003150D01*
X016969Y003133D01*
X016930Y003113D01*
X016893Y003090D01*
X016859Y003063D01*
X016826Y003034D01*
X016797Y003001D01*
X016770Y002967D01*
X016747Y002930D01*
X016727Y002891D01*
X016710Y002851D01*
X016697Y002809D01*
X016688Y002767D01*
X016682Y002724D01*
X016680Y002680D01*
X016680Y002180D01*
X016137Y001765D02*
X015916Y001765D01*
X015902Y001607D02*
X011058Y001607D01*
X011108Y001765D02*
X013494Y001765D01*
X013506Y001759D02*
X013574Y001737D01*
X013644Y001726D01*
X013652Y001726D01*
X013652Y002152D01*
X013708Y002152D01*
X013708Y002208D01*
X014134Y002208D01*
X014134Y002216D01*
X014123Y002286D01*
X014101Y002354D01*
X014068Y002418D01*
X014026Y002476D01*
X013976Y002526D01*
X013918Y002568D01*
X013854Y002601D01*
X013786Y002623D01*
X013716Y002634D01*
X013708Y002634D01*
X013708Y002208D01*
X013652Y002208D01*
X013652Y002152D01*
X013226Y002152D01*
X013226Y002144D01*
X013237Y002074D01*
X013259Y002006D01*
X013292Y001942D01*
X013334Y001884D01*
X013384Y001834D01*
X013442Y001792D01*
X013506Y001759D01*
X013652Y001765D02*
X013708Y001765D01*
X013708Y001726D02*
X013716Y001726D01*
X013786Y001737D01*
X013854Y001759D01*
X013918Y001792D01*
X013976Y001834D01*
X014026Y001884D01*
X014068Y001942D01*
X014101Y002006D01*
X014123Y002074D01*
X014134Y002144D01*
X014134Y002152D01*
X013708Y002152D01*
X013708Y001726D01*
X013866Y001765D02*
X014494Y001765D01*
X014506Y001759D02*
X014574Y001737D01*
X014644Y001726D01*
X014652Y001726D01*
X014652Y002152D01*
X014708Y002152D01*
X014708Y002208D01*
X015134Y002208D01*
X015134Y002216D01*
X015123Y002286D01*
X015101Y002354D01*
X015068Y002418D01*
X015026Y002476D01*
X014976Y002526D01*
X014918Y002568D01*
X014854Y002601D01*
X014786Y002623D01*
X014716Y002634D01*
X014708Y002634D01*
X014708Y002208D01*
X014652Y002208D01*
X014652Y002152D01*
X014226Y002152D01*
X014226Y002144D01*
X014237Y002074D01*
X014259Y002006D01*
X014292Y001942D01*
X014334Y001884D01*
X014384Y001834D01*
X014442Y001792D01*
X014506Y001759D01*
X014652Y001765D02*
X014708Y001765D01*
X014708Y001726D02*
X014716Y001726D01*
X014786Y001737D01*
X014854Y001759D01*
X014918Y001792D01*
X014976Y001834D01*
X015026Y001884D01*
X015068Y001942D01*
X015101Y002006D01*
X015123Y002074D01*
X015134Y002144D01*
X015134Y002152D01*
X014708Y002152D01*
X014708Y001726D01*
X014866Y001765D02*
X015444Y001765D01*
X015274Y001924D02*
X015055Y001924D01*
X015124Y002082D02*
X015208Y002082D01*
X015206Y002241D02*
X015130Y002241D01*
X015078Y002399D02*
X015258Y002399D01*
X015388Y002558D02*
X014933Y002558D01*
X014708Y002558D02*
X014652Y002558D01*
X014652Y002634D02*
X014652Y002208D01*
X014226Y002208D01*
X014226Y002216D01*
X014237Y002286D01*
X014259Y002354D01*
X014292Y002418D01*
X014334Y002476D01*
X014384Y002526D01*
X014442Y002568D01*
X014506Y002601D01*
X014574Y002623D01*
X014644Y002634D01*
X014652Y002634D01*
X014652Y002399D02*
X014708Y002399D01*
X014708Y002241D02*
X014652Y002241D01*
X014652Y002082D02*
X014708Y002082D01*
X014708Y001924D02*
X014652Y001924D01*
X014305Y001924D02*
X014055Y001924D01*
X014124Y002082D02*
X014236Y002082D01*
X014230Y002241D02*
X014130Y002241D01*
X014078Y002399D02*
X014282Y002399D01*
X014427Y002558D02*
X013933Y002558D01*
X013708Y002558D02*
X013652Y002558D01*
X013652Y002634D02*
X013652Y002208D01*
X013226Y002208D01*
X013226Y002216D01*
X013237Y002286D01*
X013259Y002354D01*
X013292Y002418D01*
X013334Y002476D01*
X013384Y002526D01*
X013442Y002568D01*
X013506Y002601D01*
X013574Y002623D01*
X013644Y002634D01*
X013652Y002634D01*
X013652Y002399D02*
X013708Y002399D01*
X013708Y002241D02*
X013652Y002241D01*
X013652Y002082D02*
X013708Y002082D01*
X013708Y001924D02*
X013652Y001924D01*
X013305Y001924D02*
X011154Y001924D01*
X011154Y002082D02*
X013236Y002082D01*
X013230Y002241D02*
X011154Y002241D01*
X011154Y002399D02*
X013282Y002399D01*
X013427Y002558D02*
X011145Y002558D01*
X010215Y002558D02*
X009933Y002558D01*
X009918Y002568D02*
X009854Y002601D01*
X009786Y002623D01*
X009716Y002634D01*
X009708Y002634D01*
X009708Y002208D01*
X010134Y002208D01*
X010134Y002216D01*
X010123Y002286D01*
X010101Y002354D01*
X010068Y002418D01*
X010026Y002476D01*
X009976Y002526D01*
X009918Y002568D01*
X009708Y002558D02*
X009652Y002558D01*
X009652Y002399D02*
X009708Y002399D01*
X009708Y002241D02*
X009652Y002241D01*
X009652Y002082D02*
X009708Y002082D01*
X009708Y001924D02*
X009652Y001924D01*
X010055Y001924D02*
X010206Y001924D01*
X010206Y002082D02*
X010124Y002082D01*
X010130Y002241D02*
X010206Y002241D01*
X010206Y002399D02*
X010078Y002399D01*
X010680Y004180D02*
X014180Y004180D01*
X014180Y004680D02*
X009680Y004680D01*
X009666Y004301D02*
X010345Y004301D01*
X014180Y004680D02*
X015180Y005680D01*
X015180Y008180D01*
X016180Y009180D01*
X016180Y010680D01*
X016405Y010958D02*
X016422Y010958D01*
X016938Y010800D02*
X018272Y010800D01*
X018112Y010641D02*
X017422Y010641D01*
X017486Y010483D02*
X018074Y010483D01*
X018110Y010324D02*
X017471Y010324D01*
X017388Y010166D02*
X018172Y010166D01*
X018172Y010007D02*
X017388Y010007D01*
X017388Y009849D02*
X018172Y009849D01*
X018172Y009690D02*
X017388Y009690D01*
X017388Y009532D02*
X018172Y009532D01*
X018172Y009373D02*
X017388Y009373D01*
X017388Y009215D02*
X018172Y009215D01*
X018172Y009056D02*
X017388Y009056D01*
X017388Y008898D02*
X018172Y008898D01*
X018172Y008739D02*
X017388Y008739D01*
X017388Y008581D02*
X018172Y008581D01*
X018172Y008422D02*
X017388Y008422D01*
X017388Y008264D02*
X018172Y008264D01*
X018172Y008105D02*
X017388Y008105D01*
X017388Y007947D02*
X018172Y007947D01*
X018172Y007788D02*
X017388Y007788D01*
X017388Y007630D02*
X017501Y007630D01*
X017130Y007480D02*
X017680Y006930D01*
X018137Y006996D02*
X018172Y006996D01*
X018172Y007154D02*
X018137Y007154D01*
X018132Y007313D02*
X018172Y007313D01*
X018172Y007471D02*
X018064Y007471D01*
X018172Y007630D02*
X017859Y007630D01*
X017130Y007480D02*
X017130Y010430D01*
X018430Y010480D02*
X018430Y006680D01*
X018180Y006430D01*
X018172Y006837D02*
X018137Y006837D01*
X018688Y006837D02*
X021888Y006837D01*
X021742Y006996D02*
X018688Y006996D01*
X018688Y007154D02*
X021692Y007154D01*
X021703Y007313D02*
X018688Y007313D01*
X018688Y007471D02*
X021781Y007471D01*
X021787Y008898D02*
X018688Y008898D01*
X018688Y009056D02*
X021694Y009056D01*
X021670Y009215D02*
X018688Y009215D01*
X018688Y009373D02*
X021703Y009373D01*
X021809Y009532D02*
X018688Y009532D01*
X015922Y009373D02*
X015591Y009373D01*
X015634Y009215D02*
X015849Y009215D01*
X015691Y009056D02*
X015620Y009056D01*
X014820Y008898D02*
X014540Y008898D01*
X014620Y009056D02*
X014740Y009056D01*
X014726Y009215D02*
X014634Y009215D01*
X014622Y009373D02*
X014591Y009373D01*
X012939Y009056D02*
X011408Y009056D01*
X011438Y009215D02*
X012780Y009215D01*
X012622Y009373D02*
X011438Y009373D01*
X011438Y009532D02*
X012463Y009532D01*
X012305Y009690D02*
X011438Y009690D01*
X011438Y009849D02*
X012146Y009849D01*
X011988Y010007D02*
X011438Y010007D01*
X011438Y010166D02*
X011829Y010166D01*
X011671Y010324D02*
X011438Y010324D01*
X011438Y010483D02*
X011512Y010483D01*
X012919Y011751D02*
X013079Y011751D01*
X013079Y011909D02*
X012919Y011909D01*
X013447Y011751D02*
X016324Y011751D01*
X016406Y011909D02*
X013569Y011909D01*
X013079Y012385D02*
X012919Y012385D01*
X012919Y012543D02*
X013079Y012543D01*
X013079Y012702D02*
X012919Y012702D01*
X012867Y014128D02*
X011923Y014128D01*
X012082Y016002D02*
X012443Y016002D01*
X012776Y016140D01*
X013031Y016395D01*
X013169Y016728D01*
X013169Y017089D01*
X013031Y017422D01*
X012776Y017677D01*
X012443Y017815D01*
X012082Y017815D01*
X011749Y017677D01*
X011494Y017422D01*
X011356Y017089D01*
X011356Y016728D01*
X011494Y016395D01*
X011749Y016140D01*
X012082Y016002D01*
X012014Y016030D02*
X007669Y016030D01*
X007983Y016189D02*
X011700Y016189D01*
X011542Y016347D02*
X008141Y016347D01*
X008235Y016506D02*
X011448Y016506D01*
X011382Y016664D02*
X008300Y016664D01*
X008327Y016823D02*
X011356Y016823D01*
X011356Y016981D02*
X008327Y016981D01*
X008306Y017140D02*
X011377Y017140D01*
X011443Y017298D02*
X008240Y017298D01*
X008154Y017457D02*
X011528Y017457D01*
X011687Y017615D02*
X007996Y017615D01*
X007701Y017774D02*
X011982Y017774D01*
X012543Y017774D02*
X013898Y017774D01*
X013935Y017682D02*
X013935Y017682D01*
X014003Y017615D02*
X012838Y017615D01*
X012997Y017457D02*
X014161Y017457D01*
X013832Y017932D02*
X006616Y017932D01*
X006566Y017774D02*
X007139Y017774D01*
X006844Y017615D02*
X006558Y017615D01*
X006558Y017457D02*
X006686Y017457D01*
X006600Y017298D02*
X006558Y017298D01*
X005802Y017298D02*
X003429Y017298D01*
X003428Y017300D02*
X003383Y017410D01*
X003323Y017513D01*
X003251Y017607D01*
X003166Y017691D01*
X003072Y017764D01*
X002969Y017824D01*
X002859Y017869D01*
X002743Y017900D01*
X002646Y017913D01*
X002646Y017087D01*
X002486Y017087D01*
X002486Y017913D01*
X002388Y017900D01*
X002273Y017869D01*
X002163Y017824D01*
X002060Y017764D01*
X001965Y017691D01*
X001881Y017607D01*
X001809Y017513D01*
X001749Y017410D01*
X001703Y017300D01*
X001673Y017184D01*
X001660Y017087D01*
X002486Y017087D01*
X002486Y016927D01*
X001660Y016927D01*
X001673Y016829D01*
X001703Y016714D01*
X001749Y016604D01*
X001809Y016501D01*
X001881Y016406D01*
X001965Y016322D01*
X002060Y016250D01*
X002163Y016190D01*
X002273Y016144D01*
X002388Y016114D01*
X002486Y016101D01*
X002486Y016927D01*
X002646Y016927D01*
X002646Y017087D01*
X003472Y017087D01*
X003459Y017184D01*
X003428Y017300D01*
X003465Y017140D02*
X005802Y017140D01*
X005802Y016981D02*
X002646Y016981D01*
X002646Y016927D02*
X003472Y016927D01*
X003459Y016829D01*
X003428Y016714D01*
X003383Y016604D01*
X003323Y016501D01*
X003251Y016406D01*
X003166Y016322D01*
X003072Y016250D01*
X002969Y016190D01*
X002859Y016144D01*
X002743Y016114D01*
X002646Y016101D01*
X002646Y016927D01*
X002646Y016823D02*
X002486Y016823D01*
X002486Y016981D02*
X000437Y016981D01*
X000437Y016823D02*
X001674Y016823D01*
X001724Y016664D02*
X000437Y016664D01*
X000437Y016506D02*
X000608Y016506D01*
X000616Y016514D02*
X000568Y016465D01*
X000527Y016409D01*
X000496Y016348D01*
X000475Y016282D01*
X000464Y016214D01*
X000464Y016200D01*
X001160Y016200D01*
X001160Y016617D01*
X000867Y016617D01*
X000799Y016607D01*
X000733Y016585D01*
X000672Y016554D01*
X000616Y016514D01*
X000496Y016347D02*
X000437Y016347D01*
X000437Y016189D02*
X001160Y016189D01*
X001160Y016200D02*
X001160Y016160D01*
X001200Y016160D01*
X001200Y016200D01*
X001160Y016200D01*
X001200Y016200D02*
X001200Y016617D01*
X001493Y016617D01*
X001561Y016607D01*
X001627Y016585D01*
X001688Y016554D01*
X001744Y016514D01*
X001792Y016465D01*
X001833Y016409D01*
X001864Y016348D01*
X001885Y016282D01*
X001896Y016214D01*
X001896Y016200D01*
X001200Y016200D01*
X001200Y016189D02*
X002167Y016189D01*
X001896Y016160D02*
X001200Y016160D01*
X001200Y015743D01*
X001493Y015743D01*
X001561Y015753D01*
X001627Y015775D01*
X001688Y015806D01*
X001744Y015846D01*
X001792Y015895D01*
X001833Y015951D01*
X001864Y016012D01*
X001885Y016078D01*
X001896Y016146D01*
X001896Y016160D01*
X001870Y016030D02*
X003531Y016030D01*
X003523Y016010D02*
X003523Y015641D01*
X003665Y015300D01*
X003926Y015039D01*
X004267Y014897D01*
X004636Y014897D01*
X004978Y015039D01*
X005239Y015300D01*
X005380Y015641D01*
X005380Y016010D01*
X005239Y016352D01*
X004978Y016613D01*
X004636Y016754D01*
X004267Y016754D01*
X003926Y016613D01*
X003665Y016352D01*
X003523Y016010D01*
X003523Y015872D02*
X001769Y015872D01*
X001718Y015568D02*
X001550Y015637D01*
X000810Y015637D01*
X000642Y015568D01*
X000514Y015439D01*
X000444Y015271D01*
X000444Y015089D01*
X000514Y014921D01*
X000642Y014792D01*
X000810Y014723D01*
X001550Y014723D01*
X001718Y014792D01*
X001846Y014921D01*
X001916Y015089D01*
X001916Y015271D01*
X001846Y015439D01*
X001718Y015568D01*
X001731Y015555D02*
X003559Y015555D01*
X003523Y015713D02*
X000437Y015713D01*
X000437Y015555D02*
X000629Y015555D01*
X000496Y015396D02*
X000437Y015396D01*
X000437Y015238D02*
X000444Y015238D01*
X000437Y015079D02*
X000448Y015079D01*
X000437Y014921D02*
X000514Y014921D01*
X000437Y014762D02*
X000716Y014762D01*
X000437Y014604D02*
X005802Y014604D01*
X005802Y014762D02*
X001644Y014762D01*
X001846Y014921D02*
X004211Y014921D01*
X003885Y015079D02*
X001912Y015079D01*
X001916Y015238D02*
X003727Y015238D01*
X003625Y015396D02*
X001864Y015396D01*
X001160Y015743D02*
X001160Y016160D01*
X000464Y016160D01*
X000464Y016146D01*
X000475Y016078D01*
X000496Y016012D01*
X000527Y015951D01*
X000568Y015895D01*
X000616Y015846D01*
X000672Y015806D01*
X000733Y015775D01*
X000799Y015753D01*
X000867Y015743D01*
X001160Y015743D01*
X001160Y015872D02*
X001200Y015872D01*
X001200Y016030D02*
X001160Y016030D01*
X001160Y016347D02*
X001200Y016347D01*
X001200Y016506D02*
X001160Y016506D01*
X001752Y016506D02*
X001806Y016506D01*
X001864Y016347D02*
X001940Y016347D01*
X002486Y016347D02*
X002646Y016347D01*
X002646Y016189D02*
X002486Y016189D01*
X002486Y016506D02*
X002646Y016506D01*
X002646Y016664D02*
X002486Y016664D01*
X002965Y016189D02*
X003597Y016189D01*
X003663Y016347D02*
X003191Y016347D01*
X003326Y016506D02*
X003819Y016506D01*
X004050Y016664D02*
X003407Y016664D01*
X003457Y016823D02*
X005802Y016823D01*
X005802Y016664D02*
X004854Y016664D01*
X005085Y016506D02*
X005802Y016506D01*
X005802Y016347D02*
X005241Y016347D01*
X005306Y016189D02*
X005802Y016189D01*
X005802Y016030D02*
X005372Y016030D01*
X005380Y015872D02*
X005802Y015872D01*
X005802Y015713D02*
X005380Y015713D01*
X005344Y015555D02*
X005802Y015555D01*
X005802Y015396D02*
X005279Y015396D01*
X005176Y015238D02*
X005802Y015238D01*
X005802Y015079D02*
X005018Y015079D01*
X004693Y014921D02*
X005802Y014921D01*
X005802Y014445D02*
X000437Y014445D01*
X000437Y014287D02*
X005802Y014287D01*
X005788Y014128D02*
X000437Y014128D01*
X000437Y015872D02*
X000591Y015872D01*
X000490Y016030D02*
X000437Y016030D01*
X000437Y017140D02*
X001667Y017140D01*
X001703Y017298D02*
X000437Y017298D01*
X000437Y017457D02*
X001776Y017457D01*
X001889Y017615D02*
X000437Y017615D01*
X000437Y017774D02*
X002076Y017774D01*
X002486Y017774D02*
X002646Y017774D01*
X002646Y017615D02*
X002486Y017615D01*
X002486Y017457D02*
X002646Y017457D01*
X002646Y017298D02*
X002486Y017298D01*
X002486Y017140D02*
X002646Y017140D01*
X003055Y017774D02*
X003664Y017774D01*
X003635Y017824D02*
X003694Y017721D01*
X003767Y017627D01*
X003851Y017543D01*
X003946Y017470D01*
X004049Y017410D01*
X004159Y017365D01*
X004274Y017334D01*
X004372Y017321D01*
X004372Y018147D01*
X004532Y018147D01*
X004532Y018307D01*
X005358Y018307D01*
X005345Y018405D01*
X005314Y018520D01*
X005268Y018630D01*
X005209Y018733D01*
X005136Y018828D01*
X005052Y018912D01*
X004958Y018984D01*
X004854Y019044D01*
X004744Y019090D01*
X004629Y019120D01*
X004532Y019133D01*
X004532Y018307D01*
X004372Y018307D01*
X004372Y019133D01*
X004274Y019120D01*
X004159Y019090D01*
X004049Y019044D01*
X003946Y018984D01*
X003851Y018912D01*
X003767Y018828D01*
X003694Y018733D01*
X003635Y018630D01*
X003589Y018520D01*
X003558Y018405D01*
X003546Y018307D01*
X004372Y018307D01*
X004372Y018147D01*
X003546Y018147D01*
X003558Y018050D01*
X003589Y017935D01*
X003635Y017824D01*
X003590Y017932D02*
X001398Y017932D01*
X001723Y018091D02*
X003553Y018091D01*
X003559Y018408D02*
X001977Y018408D01*
X002042Y018566D02*
X003608Y018566D01*
X003689Y018725D02*
X002067Y018725D01*
X002067Y018883D02*
X003822Y018883D01*
X004045Y019042D02*
X002041Y019042D01*
X001975Y019200D02*
X015815Y019200D01*
X015750Y019042D02*
X013896Y019042D01*
X014178Y018925D02*
X014178Y018925D01*
X014219Y018883D02*
X015743Y018883D01*
X015743Y018725D02*
X014378Y018725D01*
X014425Y018678D02*
X014425Y018678D01*
X014471Y018566D02*
X015743Y018566D01*
X015743Y018408D02*
X014537Y018408D01*
X014558Y018249D02*
X015769Y018249D01*
X015872Y018091D02*
X014601Y018091D01*
X013802Y018091D02*
X006719Y018091D01*
X006945Y018249D02*
X013780Y018249D01*
X013083Y017298D02*
X016922Y017298D01*
X016922Y017140D02*
X013148Y017140D01*
X013169Y016981D02*
X017014Y016981D01*
X017172Y016823D02*
X013169Y016823D01*
X013143Y016664D02*
X017331Y016664D01*
X017489Y016506D02*
X013077Y016506D01*
X012984Y016347D02*
X017648Y016347D01*
X017806Y016189D02*
X012825Y016189D01*
X012512Y016030D02*
X017965Y016030D01*
X018123Y015872D02*
X006558Y015872D01*
X006558Y016030D02*
X007171Y016030D01*
X006858Y016189D02*
X006558Y016189D01*
X006558Y016347D02*
X006699Y016347D01*
X006606Y016506D02*
X006558Y016506D01*
X006558Y015713D02*
X018282Y015713D01*
X018440Y015555D02*
X006558Y015555D01*
X004744Y017365D02*
X004629Y017334D01*
X004532Y017321D01*
X004532Y018147D01*
X005358Y018147D01*
X005345Y018050D01*
X005314Y017935D01*
X005268Y017824D01*
X005209Y017721D01*
X005136Y017627D01*
X005052Y017543D01*
X004958Y017470D01*
X004854Y017410D01*
X004744Y017365D01*
X004934Y017457D02*
X005802Y017457D01*
X005802Y017615D02*
X005125Y017615D01*
X005239Y017774D02*
X005802Y017774D01*
X005813Y017932D02*
X005313Y017932D01*
X005350Y018091D02*
X005864Y018091D01*
X005916Y018249D02*
X004532Y018249D01*
X004532Y018091D02*
X004372Y018091D01*
X004372Y018249D02*
X001882Y018249D01*
X000962Y017932D02*
X000437Y017932D01*
X000437Y018091D02*
X000637Y018091D01*
X000478Y018249D02*
X000437Y018249D01*
X001720Y019517D02*
X022219Y019517D01*
X022061Y019359D02*
X021409Y019359D01*
X021575Y019200D02*
X021963Y019200D01*
X021898Y019042D02*
X021637Y019042D01*
X021637Y018883D02*
X021872Y018883D01*
X021872Y018725D02*
X021637Y018725D01*
X021637Y018566D02*
X021896Y018566D01*
X021962Y018408D02*
X021637Y018408D01*
X021612Y018249D02*
X022057Y018249D01*
X022216Y018091D02*
X021516Y018091D01*
X021438Y017932D02*
X022541Y017932D01*
X022976Y017932D02*
X023545Y017932D01*
X023545Y017774D02*
X021452Y017774D01*
X021610Y017615D02*
X023545Y017615D01*
X023545Y017457D02*
X021769Y017457D01*
X021911Y017298D02*
X023545Y017298D01*
X023545Y017140D02*
X021938Y017140D01*
X021938Y016981D02*
X023545Y016981D01*
X023545Y016823D02*
X021938Y016823D01*
X021938Y016664D02*
X023545Y016664D01*
X023545Y016506D02*
X021938Y016506D01*
X021938Y016347D02*
X023545Y016347D01*
X023545Y016189D02*
X021938Y016189D01*
X021938Y016030D02*
X023545Y016030D01*
X023545Y015872D02*
X021938Y015872D01*
X021938Y015713D02*
X023545Y015713D01*
X023545Y015555D02*
X021938Y015555D01*
X021938Y015396D02*
X023545Y015396D01*
X023545Y015238D02*
X021938Y015238D01*
X021938Y015079D02*
X023545Y015079D01*
X023545Y014921D02*
X021938Y014921D01*
X021938Y014762D02*
X023545Y014762D01*
X023545Y014604D02*
X021938Y014604D01*
X021938Y014445D02*
X023545Y014445D01*
X023545Y014287D02*
X021938Y014287D01*
X021938Y014128D02*
X023545Y014128D01*
X023545Y013970D02*
X021938Y013970D01*
X021938Y013811D02*
X023545Y013811D01*
X023545Y013653D02*
X021938Y013653D01*
X021938Y013494D02*
X023545Y013494D01*
X023545Y013336D02*
X022000Y013336D01*
X022036Y013177D02*
X023545Y013177D01*
X023545Y013019D02*
X021998Y013019D01*
X021837Y012860D02*
X023545Y012860D01*
X023545Y012702D02*
X021067Y012702D01*
X021008Y012543D02*
X023545Y012543D01*
X023545Y012385D02*
X020887Y012385D01*
X020660Y012660D02*
X020680Y012680D01*
X021180Y013180D01*
X021180Y016180D01*
X020180Y017180D01*
X020180Y018680D01*
X020637Y018725D02*
X020723Y018725D01*
X020723Y018883D02*
X020637Y018883D01*
X020637Y019042D02*
X020723Y019042D01*
X020785Y019200D02*
X020575Y019200D01*
X020409Y019359D02*
X020951Y019359D01*
X021180Y018680D02*
X021180Y017680D01*
X021680Y017180D01*
X021680Y013180D01*
X021523Y012860D02*
X021225Y012860D01*
X020680Y013180D02*
X020680Y014680D01*
X021378Y016347D02*
X021422Y016347D01*
X021422Y016506D02*
X021220Y016506D01*
X021061Y016664D02*
X021422Y016664D01*
X021422Y016823D02*
X020903Y016823D01*
X020744Y016981D02*
X021422Y016981D01*
X021355Y017140D02*
X020586Y017140D01*
X020438Y017298D02*
X021197Y017298D01*
X021038Y017457D02*
X020438Y017457D01*
X020438Y017615D02*
X020927Y017615D01*
X020922Y017774D02*
X020438Y017774D01*
X020438Y017932D02*
X020922Y017932D01*
X020844Y018091D02*
X020516Y018091D01*
X020612Y018249D02*
X020748Y018249D01*
X020723Y018408D02*
X020637Y018408D01*
X020637Y018566D02*
X020723Y018566D01*
X023302Y018091D02*
X023545Y018091D01*
X023545Y018249D02*
X023460Y018249D01*
X020370Y012860D02*
X016253Y012860D01*
X016335Y012702D02*
X020324Y012702D01*
X020352Y012543D02*
X016329Y012543D01*
X016237Y012385D02*
X020473Y012385D01*
X015980Y012630D02*
X015280Y012630D01*
X014526Y013019D02*
X014498Y013019D01*
X009630Y012280D02*
X009630Y012230D01*
X004532Y017457D02*
X004372Y017457D01*
X004372Y017615D02*
X004532Y017615D01*
X004532Y017774D02*
X004372Y017774D01*
X004372Y017932D02*
X004532Y017932D01*
X004532Y018408D02*
X004372Y018408D01*
X004372Y018566D02*
X004532Y018566D01*
X004532Y018725D02*
X004372Y018725D01*
X004372Y018883D02*
X004532Y018883D01*
X004532Y019042D02*
X004372Y019042D01*
X004859Y019042D02*
X006910Y019042D01*
X006546Y018923D02*
X006546Y018923D01*
X006491Y018883D02*
X005081Y018883D01*
X005214Y018725D02*
X006273Y018725D01*
X006120Y018566D02*
X005295Y018566D01*
X005344Y018408D02*
X006005Y018408D01*
X003969Y017457D02*
X003355Y017457D01*
X003243Y017615D02*
X003779Y017615D01*
X001878Y019359D02*
X016001Y019359D01*
X016160Y019359D02*
X016200Y019359D01*
X016200Y019396D02*
X016200Y018700D01*
X016617Y018700D01*
X016617Y018993D01*
X016607Y019061D01*
X016585Y019127D01*
X016554Y019188D01*
X016514Y019244D01*
X016465Y019292D01*
X016409Y019333D01*
X016348Y019364D01*
X016282Y019385D01*
X016214Y019396D01*
X016200Y019396D01*
X016359Y019359D02*
X016951Y019359D01*
X016785Y019200D02*
X016545Y019200D01*
X016610Y019042D02*
X016723Y019042D01*
X016723Y018883D02*
X016617Y018883D01*
X016617Y018725D02*
X016723Y018725D01*
X016723Y018566D02*
X016617Y018566D01*
X016617Y018408D02*
X016723Y018408D01*
X016748Y018249D02*
X016591Y018249D01*
X016488Y018091D02*
X016844Y018091D01*
X016200Y018725D02*
X016160Y018725D01*
X016160Y018883D02*
X016200Y018883D01*
X016200Y019042D02*
X016160Y019042D01*
X016160Y019200D02*
X016200Y019200D01*
X003180Y011117D02*
X003180Y011117D01*
X003180Y010958D02*
X003180Y010958D01*
X003180Y010800D02*
X003180Y010800D01*
X003180Y010680D02*
X003180Y010680D01*
X003180Y010680D01*
X002691Y010680D01*
X003180Y010680D01*
X003180Y010641D02*
X003180Y010641D01*
X003180Y010483D02*
X003180Y010483D01*
X003180Y010324D02*
X003180Y010324D01*
X002845Y010324D02*
X002688Y010324D01*
X002688Y010483D02*
X002732Y010483D01*
X002691Y010641D02*
X002688Y010641D01*
X002688Y010800D02*
X002705Y010800D01*
X002688Y010958D02*
X002778Y010958D01*
X002656Y011117D02*
X002960Y011117D01*
X003258Y002399D02*
X002271Y002399D01*
X002430Y002241D02*
X003206Y002241D01*
X003208Y002082D02*
X002624Y002082D01*
X002861Y001924D02*
X003274Y001924D01*
X003193Y001765D02*
X003444Y001765D01*
X002944Y001868D02*
X002944Y001868D01*
X001752Y000497D02*
X022187Y000497D01*
X017323Y006362D02*
X017037Y006362D01*
X017120Y006520D02*
X017240Y006520D01*
X017223Y006679D02*
X017137Y006679D01*
X017137Y006837D02*
X017223Y006837D01*
X017223Y006996D02*
X017137Y006996D01*
D23*
X016715Y006086D03*
X016180Y005430D03*
X015928Y004117D03*
X018180Y004180D03*
X018680Y005680D03*
X018680Y006180D03*
X018830Y007080D03*
X018830Y007880D03*
X020259Y007267D03*
X020680Y006180D03*
X019680Y005680D03*
X021834Y004117D03*
X023408Y004117D03*
X023408Y002149D03*
X021834Y002149D03*
X021834Y000574D03*
X019865Y000574D03*
X017897Y000574D03*
X015928Y000574D03*
X013960Y000574D03*
X011991Y000574D03*
X011991Y002149D03*
X010023Y000574D03*
X009054Y000574D03*
X008790Y003078D03*
X010680Y004180D03*
X010023Y005086D03*
X010023Y006086D03*
X011991Y006086D03*
X011991Y005086D03*
X014353Y006086D03*
X013180Y007180D03*
X014180Y008180D03*
X011991Y008054D03*
X010810Y008054D03*
X011991Y009629D03*
X010023Y010023D03*
X009038Y011007D03*
X008054Y010023D03*
X007267Y011007D03*
X008054Y011991D03*
X007267Y013369D03*
X009630Y012280D03*
X011991Y011991D03*
X011991Y013566D03*
X014180Y013180D03*
X014991Y014034D03*
X016322Y013172D03*
X015980Y012630D03*
X015928Y011991D03*
X016680Y011680D03*
X017109Y011204D03*
X017130Y010430D03*
X016180Y010680D03*
X014523Y011523D03*
X017109Y012385D03*
X017109Y013172D03*
X018290Y013172D03*
X018290Y012385D03*
X019078Y012385D03*
X019078Y013172D03*
X019830Y014030D03*
X020680Y013180D03*
X020680Y012680D03*
X021680Y013180D03*
X023408Y013960D03*
X023408Y015928D03*
X023408Y017897D03*
X021834Y019471D03*
X019865Y019471D03*
X017897Y019471D03*
X015928Y019471D03*
X015680Y017680D03*
X015180Y017680D03*
X016180Y017680D03*
X016680Y017680D03*
X013991Y015534D03*
X013507Y016715D03*
X011991Y015534D03*
X011007Y016715D03*
X010023Y017897D03*
X009038Y016715D03*
X008054Y017897D03*
X008054Y019471D03*
X006086Y019471D03*
X004117Y019471D03*
X002149Y019471D03*
X000574Y017897D03*
X004314Y014353D03*
X002739Y013369D03*
X002149Y011991D03*
X003330Y011991D03*
X006086Y010023D03*
X007267Y009038D03*
X008054Y008054D03*
X009038Y009038D03*
X007680Y006680D03*
X007680Y005680D03*
X003180Y008680D03*
X000574Y008054D03*
X000574Y006086D03*
X000574Y004117D03*
X000574Y002149D03*
X002149Y000574D03*
X004117Y000574D03*
X000574Y010023D03*
X000574Y011991D03*
X000574Y013960D03*
X007267Y015534D03*
X008054Y015534D03*
X010023Y015534D03*
X010023Y019471D03*
X011991Y019471D03*
X013960Y019471D03*
X018290Y011597D03*
X019078Y011597D03*
X019078Y010810D03*
X018430Y010480D03*
X019865Y009235D03*
X020652Y009735D03*
X022227Y010023D03*
X023408Y010023D03*
X023408Y011991D03*
X023408Y008054D03*
X023408Y006086D03*
X017503Y008891D03*
D24*
X016680Y002180D02*
X015680Y002180D01*
X015680Y001180D02*
X015740Y001182D01*
X015801Y001187D01*
X015860Y001196D01*
X015919Y001209D01*
X015978Y001225D01*
X016035Y001245D01*
X016090Y001268D01*
X016145Y001295D01*
X016197Y001324D01*
X016248Y001357D01*
X016297Y001393D01*
X016343Y001431D01*
X016387Y001473D01*
X016429Y001517D01*
X016467Y001563D01*
X016503Y001612D01*
X016536Y001663D01*
X016565Y001715D01*
X016592Y001770D01*
X016615Y001825D01*
X016635Y001882D01*
X016651Y001941D01*
X016664Y002000D01*
X016673Y002059D01*
X016678Y002120D01*
X016680Y002180D01*
X015680Y001180D02*
X010680Y001180D01*
X008780Y001180D01*
X008730Y001130D01*
X008580Y000980D01*
X006145Y000980D01*
X006130Y000995D01*
X006115Y000980D01*
X005830Y000980D01*
X005630Y001180D01*
X004180Y001180D01*
X004037Y001183D01*
X003895Y001194D01*
X003753Y001211D01*
X003612Y001234D01*
X003473Y001265D01*
X003335Y001302D01*
X003199Y001345D01*
X003065Y001395D01*
X002934Y001451D01*
X002805Y001513D01*
X002680Y001582D01*
X002558Y001656D01*
X002440Y001736D01*
X002326Y001822D01*
X002215Y001913D01*
X002110Y002009D01*
X002009Y002110D01*
X001913Y002215D01*
X001822Y002326D01*
X001736Y002440D01*
X001656Y002558D01*
X001582Y002680D01*
X001513Y002805D01*
X001451Y002934D01*
X001395Y003065D01*
X001345Y003199D01*
X001302Y003335D01*
X001265Y003473D01*
X001234Y003612D01*
X001211Y003753D01*
X001194Y003895D01*
X001183Y004037D01*
X001180Y004180D01*
X001180Y009180D01*
X001680Y009680D01*
X003680Y009680D01*
X004180Y010180D01*
X004180Y010680D01*
X004180Y012680D01*
X004182Y012740D01*
X004187Y012801D01*
X004196Y012860D01*
X004209Y012919D01*
X004225Y012978D01*
X004245Y013035D01*
X004268Y013090D01*
X004295Y013145D01*
X004324Y013197D01*
X004357Y013248D01*
X004393Y013297D01*
X004431Y013343D01*
X004473Y013387D01*
X004517Y013429D01*
X004563Y013467D01*
X004612Y013503D01*
X004663Y013536D01*
X004715Y013565D01*
X004770Y013592D01*
X004825Y013615D01*
X004882Y013635D01*
X004941Y013651D01*
X005000Y013664D01*
X005059Y013673D01*
X005120Y013678D01*
X005180Y013680D01*
X005680Y013680D01*
X005724Y013682D01*
X005767Y013688D01*
X005809Y013697D01*
X005851Y013710D01*
X005891Y013727D01*
X005930Y013747D01*
X005967Y013770D01*
X006001Y013797D01*
X006034Y013826D01*
X006063Y013859D01*
X006090Y013893D01*
X006113Y013930D01*
X006133Y013969D01*
X006150Y014009D01*
X006163Y014051D01*
X006172Y014093D01*
X006178Y014136D01*
X006180Y014180D01*
X006180Y017680D01*
X006182Y017740D01*
X006187Y017801D01*
X006196Y017860D01*
X006209Y017919D01*
X006225Y017978D01*
X006245Y018035D01*
X006268Y018090D01*
X006295Y018145D01*
X006324Y018197D01*
X006357Y018248D01*
X006393Y018297D01*
X006431Y018343D01*
X006473Y018387D01*
X006517Y018429D01*
X006563Y018467D01*
X006612Y018503D01*
X006663Y018536D01*
X006715Y018565D01*
X006770Y018592D01*
X006825Y018615D01*
X006882Y018635D01*
X006941Y018651D01*
X007000Y018664D01*
X007059Y018673D01*
X007120Y018678D01*
X007180Y018680D01*
X013680Y018680D01*
X013724Y018678D01*
X013767Y018672D01*
X013809Y018663D01*
X013851Y018650D01*
X013891Y018633D01*
X013930Y018613D01*
X013967Y018590D01*
X014001Y018563D01*
X014034Y018534D01*
X014063Y018501D01*
X014090Y018467D01*
X014113Y018430D01*
X014133Y018391D01*
X014150Y018351D01*
X014163Y018309D01*
X014172Y018267D01*
X014178Y018224D01*
X014180Y018180D01*
X014182Y018136D01*
X014188Y018093D01*
X014197Y018051D01*
X014210Y018009D01*
X014227Y017969D01*
X014247Y017930D01*
X014270Y017893D01*
X014297Y017859D01*
X014326Y017826D01*
X014359Y017797D01*
X014393Y017770D01*
X014430Y017747D01*
X014469Y017727D01*
X014509Y017710D01*
X014551Y017697D01*
X014593Y017688D01*
X014636Y017682D01*
X014680Y017680D01*
X015180Y017680D01*
X015680Y017680D01*
X016180Y017680D01*
X016680Y017680D01*
X010680Y002180D02*
X010680Y001180D01*
D25*
X014180Y009180D03*
X015180Y009180D03*
M02*
