G75*
G70*
%OFA0B0*%
%FSLAX24Y24*%
%IPPOS*%
%LPD*%
%AMOC8*
5,1,8,0,0,1.08239X$1,22.5*
%
%ADD10C,0.0000*%
%ADD11R,0.0472X0.0472*%
%ADD12C,0.0472*%
%ADD13C,0.1220*%
%ADD14C,0.0557*%
%ADD15C,0.0984*%
%ADD16C,0.0512*%
%ADD17R,0.0591X0.0591*%
%ADD18R,0.0512X0.0591*%
%ADD19C,0.0591*%
%ADD20R,0.0197X0.0591*%
%ADD21R,0.0591X0.0197*%
%ADD22C,0.0557*%
%ADD23R,0.0173X0.0453*%
%ADD24R,0.0248X0.0453*%
%ADD25R,0.0630X0.0709*%
%ADD26R,0.0787X0.0709*%
%ADD27R,0.0591X0.0512*%
%ADD28R,0.0453X0.0173*%
%ADD29R,0.0453X0.0248*%
%ADD30R,0.0236X0.0866*%
%ADD31R,0.0630X0.0512*%
%ADD32R,0.0433X0.0472*%
%ADD33R,0.0177X0.0394*%
%ADD34C,0.0160*%
%ADD35C,0.0354*%
%ADD36C,0.0400*%
%ADD37C,0.0240*%
%ADD38C,0.0320*%
%ADD39C,0.0551*%
D10*
X001125Y000180D02*
X022834Y000180D01*
X022893Y000182D01*
X022952Y000187D01*
X023011Y000197D01*
X023069Y000210D01*
X023126Y000226D01*
X023182Y000246D01*
X023236Y000270D01*
X023289Y000297D01*
X023340Y000327D01*
X023389Y000360D01*
X023436Y000397D01*
X023481Y000436D01*
X023523Y000478D01*
X023562Y000523D01*
X023599Y000570D01*
X023632Y000619D01*
X023662Y000670D01*
X023689Y000723D01*
X023713Y000777D01*
X023733Y000833D01*
X023749Y000890D01*
X023762Y000948D01*
X023772Y001007D01*
X023777Y001066D01*
X023779Y001125D01*
X023778Y001125D02*
X023778Y018881D01*
X023779Y018881D02*
X023777Y018940D01*
X023772Y018999D01*
X023762Y019058D01*
X023749Y019116D01*
X023733Y019173D01*
X023713Y019229D01*
X023689Y019283D01*
X023662Y019336D01*
X023632Y019387D01*
X023599Y019436D01*
X023562Y019483D01*
X023523Y019528D01*
X023481Y019570D01*
X023436Y019609D01*
X023389Y019646D01*
X023340Y019679D01*
X023289Y019709D01*
X023236Y019736D01*
X023182Y019760D01*
X023126Y019780D01*
X023069Y019796D01*
X023011Y019809D01*
X022952Y019819D01*
X022893Y019824D01*
X022834Y019826D01*
X001125Y019826D01*
X001066Y019824D01*
X001007Y019819D01*
X000948Y019809D01*
X000890Y019796D01*
X000833Y019780D01*
X000777Y019760D01*
X000723Y019736D01*
X000670Y019709D01*
X000619Y019679D01*
X000570Y019646D01*
X000523Y019609D01*
X000478Y019570D01*
X000436Y019528D01*
X000397Y019483D01*
X000360Y019436D01*
X000327Y019387D01*
X000297Y019336D01*
X000270Y019283D01*
X000246Y019229D01*
X000226Y019173D01*
X000210Y019116D01*
X000197Y019058D01*
X000187Y018999D01*
X000182Y018940D01*
X000180Y018881D01*
X000180Y001125D01*
X000182Y001066D01*
X000187Y001007D01*
X000197Y000948D01*
X000210Y000890D01*
X000226Y000833D01*
X000246Y000777D01*
X000270Y000723D01*
X000297Y000670D01*
X000327Y000619D01*
X000360Y000570D01*
X000397Y000523D01*
X000436Y000478D01*
X000478Y000436D01*
X000523Y000397D01*
X000570Y000360D01*
X000619Y000327D01*
X000670Y000297D01*
X000723Y000270D01*
X000777Y000246D01*
X000833Y000226D01*
X000890Y000210D01*
X000948Y000197D01*
X001007Y000187D01*
X001066Y000182D01*
X001125Y000180D01*
X000550Y001180D02*
X000552Y001230D01*
X000558Y001280D01*
X000568Y001329D01*
X000582Y001377D01*
X000599Y001424D01*
X000620Y001469D01*
X000645Y001513D01*
X000673Y001554D01*
X000705Y001593D01*
X000739Y001630D01*
X000776Y001664D01*
X000816Y001694D01*
X000858Y001721D01*
X000902Y001745D01*
X000948Y001766D01*
X000995Y001782D01*
X001043Y001795D01*
X001093Y001804D01*
X001142Y001809D01*
X001193Y001810D01*
X001243Y001807D01*
X001292Y001800D01*
X001341Y001789D01*
X001389Y001774D01*
X001435Y001756D01*
X001480Y001734D01*
X001523Y001708D01*
X001564Y001679D01*
X001603Y001647D01*
X001639Y001612D01*
X001671Y001574D01*
X001701Y001534D01*
X001728Y001491D01*
X001751Y001447D01*
X001770Y001401D01*
X001786Y001353D01*
X001798Y001304D01*
X001806Y001255D01*
X001810Y001205D01*
X001810Y001155D01*
X001806Y001105D01*
X001798Y001056D01*
X001786Y001007D01*
X001770Y000959D01*
X001751Y000913D01*
X001728Y000869D01*
X001701Y000826D01*
X001671Y000786D01*
X001639Y000748D01*
X001603Y000713D01*
X001564Y000681D01*
X001523Y000652D01*
X001480Y000626D01*
X001435Y000604D01*
X001389Y000586D01*
X001341Y000571D01*
X001292Y000560D01*
X001243Y000553D01*
X001193Y000550D01*
X001142Y000551D01*
X001093Y000556D01*
X001043Y000565D01*
X000995Y000578D01*
X000948Y000594D01*
X000902Y000615D01*
X000858Y000639D01*
X000816Y000666D01*
X000776Y000696D01*
X000739Y000730D01*
X000705Y000767D01*
X000673Y000806D01*
X000645Y000847D01*
X000620Y000891D01*
X000599Y000936D01*
X000582Y000983D01*
X000568Y001031D01*
X000558Y001080D01*
X000552Y001130D01*
X000550Y001180D01*
X006770Y016908D02*
X006772Y016958D01*
X006778Y017008D01*
X006788Y017058D01*
X006801Y017106D01*
X006818Y017154D01*
X006839Y017200D01*
X006863Y017244D01*
X006891Y017286D01*
X006922Y017326D01*
X006956Y017363D01*
X006993Y017398D01*
X007032Y017429D01*
X007073Y017458D01*
X007117Y017483D01*
X007163Y017505D01*
X007210Y017523D01*
X007258Y017537D01*
X007307Y017548D01*
X007357Y017555D01*
X007407Y017558D01*
X007458Y017557D01*
X007508Y017552D01*
X007558Y017543D01*
X007606Y017531D01*
X007654Y017514D01*
X007700Y017494D01*
X007745Y017471D01*
X007788Y017444D01*
X007828Y017414D01*
X007866Y017381D01*
X007901Y017345D01*
X007934Y017306D01*
X007963Y017265D01*
X007989Y017222D01*
X008012Y017177D01*
X008031Y017130D01*
X008046Y017082D01*
X008058Y017033D01*
X008066Y016983D01*
X008070Y016933D01*
X008070Y016883D01*
X008066Y016833D01*
X008058Y016783D01*
X008046Y016734D01*
X008031Y016686D01*
X008012Y016639D01*
X007989Y016594D01*
X007963Y016551D01*
X007934Y016510D01*
X007901Y016471D01*
X007866Y016435D01*
X007828Y016402D01*
X007788Y016372D01*
X007745Y016345D01*
X007700Y016322D01*
X007654Y016302D01*
X007606Y016285D01*
X007558Y016273D01*
X007508Y016264D01*
X007458Y016259D01*
X007407Y016258D01*
X007357Y016261D01*
X007307Y016268D01*
X007258Y016279D01*
X007210Y016293D01*
X007163Y016311D01*
X007117Y016333D01*
X007073Y016358D01*
X007032Y016387D01*
X006993Y016418D01*
X006956Y016453D01*
X006922Y016490D01*
X006891Y016530D01*
X006863Y016572D01*
X006839Y016616D01*
X006818Y016662D01*
X006801Y016710D01*
X006788Y016758D01*
X006778Y016808D01*
X006772Y016858D01*
X006770Y016908D01*
X011613Y016908D02*
X011615Y016958D01*
X011621Y017008D01*
X011631Y017058D01*
X011644Y017106D01*
X011661Y017154D01*
X011682Y017200D01*
X011706Y017244D01*
X011734Y017286D01*
X011765Y017326D01*
X011799Y017363D01*
X011836Y017398D01*
X011875Y017429D01*
X011916Y017458D01*
X011960Y017483D01*
X012006Y017505D01*
X012053Y017523D01*
X012101Y017537D01*
X012150Y017548D01*
X012200Y017555D01*
X012250Y017558D01*
X012301Y017557D01*
X012351Y017552D01*
X012401Y017543D01*
X012449Y017531D01*
X012497Y017514D01*
X012543Y017494D01*
X012588Y017471D01*
X012631Y017444D01*
X012671Y017414D01*
X012709Y017381D01*
X012744Y017345D01*
X012777Y017306D01*
X012806Y017265D01*
X012832Y017222D01*
X012855Y017177D01*
X012874Y017130D01*
X012889Y017082D01*
X012901Y017033D01*
X012909Y016983D01*
X012913Y016933D01*
X012913Y016883D01*
X012909Y016833D01*
X012901Y016783D01*
X012889Y016734D01*
X012874Y016686D01*
X012855Y016639D01*
X012832Y016594D01*
X012806Y016551D01*
X012777Y016510D01*
X012744Y016471D01*
X012709Y016435D01*
X012671Y016402D01*
X012631Y016372D01*
X012588Y016345D01*
X012543Y016322D01*
X012497Y016302D01*
X012449Y016285D01*
X012401Y016273D01*
X012351Y016264D01*
X012301Y016259D01*
X012250Y016258D01*
X012200Y016261D01*
X012150Y016268D01*
X012101Y016279D01*
X012053Y016293D01*
X012006Y016311D01*
X011960Y016333D01*
X011916Y016358D01*
X011875Y016387D01*
X011836Y016418D01*
X011799Y016453D01*
X011765Y016490D01*
X011734Y016530D01*
X011706Y016572D01*
X011682Y016616D01*
X011661Y016662D01*
X011644Y016710D01*
X011631Y016758D01*
X011621Y016808D01*
X011615Y016858D01*
X011613Y016908D01*
X000550Y018802D02*
X000552Y018852D01*
X000558Y018902D01*
X000568Y018951D01*
X000582Y018999D01*
X000599Y019046D01*
X000620Y019091D01*
X000645Y019135D01*
X000673Y019176D01*
X000705Y019215D01*
X000739Y019252D01*
X000776Y019286D01*
X000816Y019316D01*
X000858Y019343D01*
X000902Y019367D01*
X000948Y019388D01*
X000995Y019404D01*
X001043Y019417D01*
X001093Y019426D01*
X001142Y019431D01*
X001193Y019432D01*
X001243Y019429D01*
X001292Y019422D01*
X001341Y019411D01*
X001389Y019396D01*
X001435Y019378D01*
X001480Y019356D01*
X001523Y019330D01*
X001564Y019301D01*
X001603Y019269D01*
X001639Y019234D01*
X001671Y019196D01*
X001701Y019156D01*
X001728Y019113D01*
X001751Y019069D01*
X001770Y019023D01*
X001786Y018975D01*
X001798Y018926D01*
X001806Y018877D01*
X001810Y018827D01*
X001810Y018777D01*
X001806Y018727D01*
X001798Y018678D01*
X001786Y018629D01*
X001770Y018581D01*
X001751Y018535D01*
X001728Y018491D01*
X001701Y018448D01*
X001671Y018408D01*
X001639Y018370D01*
X001603Y018335D01*
X001564Y018303D01*
X001523Y018274D01*
X001480Y018248D01*
X001435Y018226D01*
X001389Y018208D01*
X001341Y018193D01*
X001292Y018182D01*
X001243Y018175D01*
X001193Y018172D01*
X001142Y018173D01*
X001093Y018178D01*
X001043Y018187D01*
X000995Y018200D01*
X000948Y018216D01*
X000902Y018237D01*
X000858Y018261D01*
X000816Y018288D01*
X000776Y018318D01*
X000739Y018352D01*
X000705Y018389D01*
X000673Y018428D01*
X000645Y018469D01*
X000620Y018513D01*
X000599Y018558D01*
X000582Y018605D01*
X000568Y018653D01*
X000558Y018702D01*
X000552Y018752D01*
X000550Y018802D01*
X022129Y018802D02*
X022131Y018852D01*
X022137Y018902D01*
X022147Y018951D01*
X022161Y018999D01*
X022178Y019046D01*
X022199Y019091D01*
X022224Y019135D01*
X022252Y019176D01*
X022284Y019215D01*
X022318Y019252D01*
X022355Y019286D01*
X022395Y019316D01*
X022437Y019343D01*
X022481Y019367D01*
X022527Y019388D01*
X022574Y019404D01*
X022622Y019417D01*
X022672Y019426D01*
X022721Y019431D01*
X022772Y019432D01*
X022822Y019429D01*
X022871Y019422D01*
X022920Y019411D01*
X022968Y019396D01*
X023014Y019378D01*
X023059Y019356D01*
X023102Y019330D01*
X023143Y019301D01*
X023182Y019269D01*
X023218Y019234D01*
X023250Y019196D01*
X023280Y019156D01*
X023307Y019113D01*
X023330Y019069D01*
X023349Y019023D01*
X023365Y018975D01*
X023377Y018926D01*
X023385Y018877D01*
X023389Y018827D01*
X023389Y018777D01*
X023385Y018727D01*
X023377Y018678D01*
X023365Y018629D01*
X023349Y018581D01*
X023330Y018535D01*
X023307Y018491D01*
X023280Y018448D01*
X023250Y018408D01*
X023218Y018370D01*
X023182Y018335D01*
X023143Y018303D01*
X023102Y018274D01*
X023059Y018248D01*
X023014Y018226D01*
X022968Y018208D01*
X022920Y018193D01*
X022871Y018182D01*
X022822Y018175D01*
X022772Y018172D01*
X022721Y018173D01*
X022672Y018178D01*
X022622Y018187D01*
X022574Y018200D01*
X022527Y018216D01*
X022481Y018237D01*
X022437Y018261D01*
X022395Y018288D01*
X022355Y018318D01*
X022318Y018352D01*
X022284Y018389D01*
X022252Y018428D01*
X022224Y018469D01*
X022199Y018513D01*
X022178Y018558D01*
X022161Y018605D01*
X022147Y018653D01*
X022137Y018702D01*
X022131Y018752D01*
X022129Y018802D01*
X022129Y001180D02*
X022131Y001230D01*
X022137Y001280D01*
X022147Y001329D01*
X022161Y001377D01*
X022178Y001424D01*
X022199Y001469D01*
X022224Y001513D01*
X022252Y001554D01*
X022284Y001593D01*
X022318Y001630D01*
X022355Y001664D01*
X022395Y001694D01*
X022437Y001721D01*
X022481Y001745D01*
X022527Y001766D01*
X022574Y001782D01*
X022622Y001795D01*
X022672Y001804D01*
X022721Y001809D01*
X022772Y001810D01*
X022822Y001807D01*
X022871Y001800D01*
X022920Y001789D01*
X022968Y001774D01*
X023014Y001756D01*
X023059Y001734D01*
X023102Y001708D01*
X023143Y001679D01*
X023182Y001647D01*
X023218Y001612D01*
X023250Y001574D01*
X023280Y001534D01*
X023307Y001491D01*
X023330Y001447D01*
X023349Y001401D01*
X023365Y001353D01*
X023377Y001304D01*
X023385Y001255D01*
X023389Y001205D01*
X023389Y001155D01*
X023385Y001105D01*
X023377Y001056D01*
X023365Y001007D01*
X023349Y000959D01*
X023330Y000913D01*
X023307Y000869D01*
X023280Y000826D01*
X023250Y000786D01*
X023218Y000748D01*
X023182Y000713D01*
X023143Y000681D01*
X023102Y000652D01*
X023059Y000626D01*
X023014Y000604D01*
X022968Y000586D01*
X022920Y000571D01*
X022871Y000560D01*
X022822Y000553D01*
X022772Y000550D01*
X022721Y000551D01*
X022672Y000556D01*
X022622Y000565D01*
X022574Y000578D01*
X022527Y000594D01*
X022481Y000615D01*
X022437Y000639D01*
X022395Y000666D01*
X022355Y000696D01*
X022318Y000730D01*
X022284Y000767D01*
X022252Y000806D01*
X022224Y000847D01*
X022199Y000891D01*
X022178Y000936D01*
X022161Y000983D01*
X022147Y001031D01*
X022137Y001080D01*
X022131Y001130D01*
X022129Y001180D01*
D11*
X002180Y010680D03*
D12*
X003180Y010680D03*
X004180Y010680D03*
D13*
X004452Y015826D03*
X002566Y017007D03*
X004452Y018227D03*
D14*
X001459Y016180D02*
X000901Y016180D01*
X000901Y015180D02*
X001459Y015180D01*
X014680Y007209D02*
X014680Y006651D01*
X015680Y006651D02*
X015680Y007209D01*
X016680Y007209D02*
X016680Y006651D01*
X017680Y006651D02*
X017680Y007209D01*
X017180Y018401D02*
X017180Y018959D01*
X016180Y018959D02*
X016180Y018401D01*
X018180Y018401D02*
X018180Y018959D01*
X019180Y018959D02*
X019180Y018401D01*
X020180Y018401D02*
X020180Y018959D01*
X021180Y018959D02*
X021180Y018401D01*
D15*
X012999Y012223D03*
X006680Y012223D03*
D16*
X008089Y013408D03*
X009089Y013408D03*
X010089Y013408D03*
X011089Y013408D03*
X010589Y014408D03*
X009589Y014408D03*
X008589Y014408D03*
X011589Y014408D03*
D17*
X006015Y007416D03*
X004637Y007416D03*
X004676Y005956D03*
X006054Y005956D03*
X006054Y004495D03*
X004676Y004495D03*
X010680Y002180D03*
X020680Y002180D03*
D18*
X018243Y008141D03*
X017495Y008141D03*
X021924Y010680D03*
X022672Y010680D03*
X018054Y015180D03*
X017306Y015180D03*
X005967Y014798D03*
X005219Y014798D03*
X005259Y013479D03*
X005928Y013479D03*
X002654Y008830D03*
X001906Y008830D03*
D19*
X003680Y002180D03*
X004680Y002180D03*
X005680Y002180D03*
X006680Y002180D03*
X007680Y002180D03*
X008680Y002180D03*
X009680Y002180D03*
X013680Y002180D03*
X014680Y002180D03*
X015680Y002180D03*
X016680Y002180D03*
X017680Y002180D03*
X018680Y002180D03*
X019680Y002180D03*
D20*
X019125Y009432D03*
X018810Y009432D03*
X018495Y009432D03*
X018180Y009432D03*
X017865Y009432D03*
X017550Y009432D03*
X017235Y009432D03*
X016920Y009432D03*
X016605Y009432D03*
X016290Y009432D03*
X015975Y009432D03*
X015975Y013999D03*
X016290Y013999D03*
X016605Y013999D03*
X016920Y013999D03*
X017235Y013999D03*
X017550Y013999D03*
X017865Y013999D03*
X018180Y013999D03*
X018495Y013999D03*
X018810Y013999D03*
X019125Y013999D03*
D21*
X019834Y013290D03*
X019834Y012975D03*
X019834Y012660D03*
X019834Y012345D03*
X019834Y012030D03*
X019834Y011715D03*
X019834Y011400D03*
X019834Y011086D03*
X019834Y010771D03*
X019834Y010456D03*
X019834Y010141D03*
X015267Y010141D03*
X015267Y010456D03*
X015267Y010771D03*
X015267Y011086D03*
X015267Y011400D03*
X015267Y011715D03*
X015267Y012030D03*
X015267Y012345D03*
X015267Y012660D03*
X015267Y012975D03*
X015267Y013290D03*
D22*
X022127Y009204D03*
X022127Y008204D03*
X022127Y007204D03*
X022127Y006204D03*
X022127Y005204D03*
D23*
X004467Y008308D03*
X004152Y008308D03*
X004152Y009076D03*
X004467Y009076D03*
D24*
X004820Y009076D03*
X004820Y008308D03*
X003800Y008308D03*
X003800Y009076D03*
D25*
X019129Y015180D03*
X020231Y015180D03*
D26*
X016407Y014980D03*
X014753Y014980D03*
X014753Y016980D03*
X016407Y016980D03*
D27*
X017380Y017054D03*
X017380Y016306D03*
X001180Y009554D03*
X001180Y008806D03*
D28*
X017296Y005337D03*
X017296Y005023D03*
X018064Y005023D03*
X018064Y005337D03*
D29*
X018064Y005690D03*
X017296Y005690D03*
X017296Y004670D03*
X018064Y004670D03*
D30*
X002930Y005656D03*
X002430Y005656D03*
X001930Y005656D03*
X001430Y005656D03*
X001430Y007704D03*
X001930Y007704D03*
X002430Y007704D03*
X002930Y007704D03*
D31*
X001680Y003554D03*
X001680Y002806D03*
D32*
X021452Y011999D03*
X022908Y011999D03*
X022908Y014361D03*
X021452Y014361D03*
D33*
X021186Y013180D03*
X023174Y013180D03*
D34*
X022927Y013180D01*
X022927Y013398D01*
X022938Y013438D01*
X022958Y013474D01*
X022988Y013504D01*
X023024Y013525D01*
X023065Y013536D01*
X023174Y013536D01*
X023174Y013180D01*
X023174Y013180D01*
X022927Y013180D01*
X022927Y012962D01*
X022938Y012922D01*
X022958Y012886D01*
X022988Y012856D01*
X023024Y012835D01*
X023065Y012824D01*
X023174Y012824D01*
X023174Y013180D01*
X023174Y013180D01*
X023174Y013180D01*
X023174Y013536D01*
X023284Y013536D01*
X023324Y013525D01*
X023360Y013504D01*
X023390Y013474D01*
X023411Y013438D01*
X023421Y013398D01*
X023421Y013180D01*
X023174Y013180D01*
X023174Y012824D01*
X023284Y012824D01*
X023324Y012835D01*
X023360Y012856D01*
X023390Y012886D01*
X023411Y012922D01*
X023421Y012962D01*
X023421Y013180D01*
X023174Y013180D01*
X023174Y013180D01*
X023174Y013177D02*
X023174Y013177D01*
X023174Y013019D02*
X023174Y013019D01*
X023174Y012860D02*
X023174Y012860D01*
X022984Y012860D02*
X021891Y012860D01*
X021904Y012901D02*
X021981Y012979D01*
X022036Y013109D01*
X022036Y013251D01*
X021981Y013381D01*
X021881Y013481D01*
X021751Y013536D01*
X021609Y013536D01*
X021479Y013481D01*
X021425Y013428D01*
X021422Y013438D01*
X021402Y013474D01*
X021372Y013504D01*
X021336Y013525D01*
X021295Y013536D01*
X021186Y013536D01*
X021186Y013180D01*
X021186Y013180D01*
X021186Y012824D01*
X021290Y012824D01*
X021253Y012773D01*
X021107Y012667D01*
X021036Y012643D01*
X021036Y012751D01*
X020986Y012870D01*
X021000Y012856D01*
X021036Y012835D01*
X021076Y012824D01*
X021186Y012824D01*
X021186Y013180D01*
X021186Y013180D01*
X021186Y013536D01*
X021076Y013536D01*
X021036Y013525D01*
X021000Y013504D01*
X020970Y013474D01*
X020949Y013438D01*
X020944Y013419D01*
X020881Y013481D01*
X020751Y013536D01*
X020609Y013536D01*
X020479Y013481D01*
X020379Y013381D01*
X020324Y013251D01*
X020324Y013234D01*
X020307Y013234D01*
X020307Y013463D01*
X020203Y013567D01*
X020092Y013567D01*
X020092Y013789D01*
X020131Y013829D01*
X020186Y013959D01*
X020186Y014101D01*
X020131Y014231D01*
X020031Y014331D01*
X019901Y014386D01*
X019759Y014386D01*
X019629Y014331D01*
X019529Y014231D01*
X019474Y014101D01*
X019474Y013959D01*
X019529Y013829D01*
X019575Y013782D01*
X019575Y013567D01*
X019464Y013567D01*
X019360Y013463D01*
X019360Y009968D01*
X019464Y009864D01*
X020203Y009864D01*
X020307Y009968D01*
X020307Y011142D01*
X020460Y011142D01*
X020532Y011136D01*
X020669Y011092D01*
X020786Y011007D01*
X020871Y010890D01*
X020916Y010752D01*
X020922Y010680D01*
X020922Y007772D01*
X020899Y007826D01*
X020826Y007899D01*
X019402Y009324D01*
X019402Y009801D01*
X019297Y009906D01*
X018438Y009906D01*
X018438Y010123D01*
X018440Y010124D01*
X018501Y010124D01*
X018631Y010179D01*
X018731Y010279D01*
X018786Y010409D01*
X018786Y010551D01*
X018731Y010681D01*
X018631Y010781D01*
X018501Y010836D01*
X018359Y010836D01*
X018229Y010781D01*
X018163Y010716D01*
X018163Y011254D01*
X018118Y011364D01*
X018034Y011448D01*
X017849Y011634D01*
X017849Y013525D01*
X019297Y013525D01*
X019402Y013630D01*
X019402Y014368D01*
X019383Y014387D01*
X019383Y014647D01*
X019518Y014647D01*
X019622Y014752D01*
X019622Y015608D01*
X019518Y015713D01*
X018740Y015713D01*
X018635Y015608D01*
X018635Y014752D01*
X018740Y014647D01*
X018866Y014647D01*
X018866Y014473D01*
X017995Y014473D01*
X018199Y014677D01*
X018228Y014706D01*
X018384Y014706D01*
X018488Y014811D01*
X018488Y015055D01*
X018516Y015090D01*
X018516Y015090D01*
X018569Y015292D01*
X018569Y015292D01*
X018558Y015371D01*
X018558Y016427D01*
X018430Y016905D01*
X018183Y017333D01*
X018183Y017333D01*
X017833Y017683D01*
X017405Y017930D01*
X017304Y017958D01*
X017439Y018014D01*
X017568Y018142D01*
X017637Y018310D01*
X017637Y019050D01*
X017568Y019218D01*
X017439Y019346D01*
X017271Y019416D01*
X017089Y019416D01*
X016921Y019346D01*
X016792Y019218D01*
X016723Y019050D01*
X016723Y018310D01*
X016792Y018142D01*
X016876Y018058D01*
X016452Y018058D01*
X016465Y018068D01*
X016514Y018116D01*
X016554Y018172D01*
X016585Y018233D01*
X016607Y018299D01*
X016617Y018367D01*
X016617Y018660D01*
X016200Y018660D01*
X016200Y018700D01*
X016160Y018700D01*
X016160Y019396D01*
X016146Y019396D01*
X016078Y019385D01*
X016012Y019364D01*
X015951Y019333D01*
X015895Y019292D01*
X015846Y019244D01*
X015806Y019188D01*
X015775Y019127D01*
X015753Y019061D01*
X015743Y018993D01*
X015743Y018700D01*
X016160Y018700D01*
X016160Y018660D01*
X015743Y018660D01*
X015743Y018367D01*
X015753Y018299D01*
X015775Y018233D01*
X015806Y018172D01*
X015846Y018116D01*
X015895Y018068D01*
X015908Y018058D01*
X015025Y018058D01*
X014886Y018001D01*
X014779Y017894D01*
X014771Y017875D01*
X014728Y017857D01*
X014728Y017857D01*
X014503Y017632D01*
X014454Y017513D01*
X014286Y017513D01*
X014181Y017408D01*
X014181Y016552D01*
X014286Y016447D01*
X015221Y016447D01*
X015325Y016552D01*
X015325Y017302D01*
X015835Y017302D01*
X015835Y016552D01*
X015939Y016447D01*
X016874Y016447D01*
X016926Y016499D01*
X016926Y016354D01*
X017332Y016354D01*
X017332Y016258D01*
X016926Y016258D01*
X016926Y016029D01*
X016937Y015989D01*
X016958Y015953D01*
X016987Y015923D01*
X017023Y015902D01*
X017064Y015891D01*
X017332Y015891D01*
X017332Y016258D01*
X017428Y016258D01*
X017428Y015891D01*
X017696Y015891D01*
X017737Y015902D01*
X017773Y015923D01*
X017802Y015952D01*
X017802Y015654D01*
X017724Y015654D01*
X017666Y015596D01*
X017659Y015602D01*
X017623Y015623D01*
X017583Y015634D01*
X017354Y015634D01*
X017354Y015228D01*
X017258Y015228D01*
X017258Y015634D01*
X017029Y015634D01*
X016989Y015623D01*
X016953Y015602D01*
X016923Y015573D01*
X016902Y015537D01*
X016891Y015496D01*
X016891Y015496D01*
X016874Y015513D01*
X015939Y015513D01*
X015835Y015408D01*
X015835Y014552D01*
X015914Y014473D01*
X015803Y014473D01*
X015698Y014368D01*
X015698Y013630D01*
X015803Y013525D01*
X017092Y013525D01*
X017113Y013546D01*
X017116Y013545D01*
X017235Y013545D01*
X017235Y013999D01*
X017235Y014453D01*
X017179Y014453D01*
X017179Y014620D01*
X017135Y014726D01*
X017258Y014726D01*
X017258Y015132D01*
X017354Y015132D01*
X017354Y014776D01*
X017297Y014719D01*
X017252Y014609D01*
X017252Y014453D01*
X017235Y014453D01*
X017235Y013999D01*
X017235Y013999D01*
X017235Y015070D01*
X017306Y015180D01*
X017258Y015238D02*
X017354Y015238D01*
X017354Y015396D02*
X017258Y015396D01*
X017258Y015555D02*
X017354Y015555D01*
X016913Y015555D02*
X005193Y015555D01*
X005240Y015669D02*
X005120Y015379D01*
X004993Y015252D01*
X005171Y015252D01*
X005171Y014846D01*
X005171Y014750D01*
X004805Y014750D01*
X004805Y014482D01*
X004816Y014442D01*
X004836Y014405D01*
X004866Y014376D01*
X004902Y014355D01*
X004943Y014344D01*
X005171Y014344D01*
X005171Y014750D01*
X005267Y014750D01*
X005267Y014344D01*
X005496Y014344D01*
X005537Y014355D01*
X005552Y014364D01*
X005552Y013929D01*
X005536Y013933D01*
X005307Y013933D01*
X005307Y013527D01*
X005211Y013527D01*
X005211Y013431D01*
X005307Y013431D01*
X005307Y013025D01*
X005490Y013025D01*
X003859Y011394D01*
X003802Y011255D01*
X003802Y010850D01*
X003765Y010762D01*
X003765Y010598D01*
X003774Y010577D01*
X003774Y010018D01*
X002113Y010018D01*
X001988Y009967D01*
X001634Y009613D01*
X001634Y009831D01*
X001623Y009871D01*
X001602Y009907D01*
X001573Y009937D01*
X001537Y009958D01*
X001496Y009969D01*
X001228Y009969D01*
X001228Y009602D01*
X001132Y009602D01*
X001132Y009506D01*
X000726Y009506D01*
X000726Y009277D01*
X000737Y009237D01*
X000758Y009201D01*
X000764Y009194D01*
X000706Y009136D01*
X000706Y008476D01*
X000811Y008372D01*
X001092Y008372D01*
X001092Y007636D01*
X001133Y007535D01*
X001133Y007197D01*
X001238Y007092D01*
X001622Y007092D01*
X001680Y007150D01*
X001738Y007092D01*
X002122Y007092D01*
X002180Y007150D01*
X002238Y007092D01*
X002622Y007092D01*
X002694Y007164D01*
X002714Y007144D01*
X002751Y007123D01*
X002791Y007112D01*
X002930Y007112D01*
X003069Y007112D01*
X003109Y007123D01*
X003146Y007144D01*
X003175Y007173D01*
X003196Y007209D01*
X003207Y007250D01*
X003207Y007704D01*
X003207Y008158D01*
X003196Y008198D01*
X003175Y008234D01*
X003146Y008264D01*
X003109Y008285D01*
X003069Y008295D01*
X002930Y008295D01*
X002791Y008295D01*
X002751Y008285D01*
X002714Y008264D01*
X002694Y008243D01*
X002688Y008249D01*
X002688Y008356D01*
X002984Y008356D01*
X002998Y008370D01*
X003109Y008324D01*
X003251Y008324D01*
X003381Y008379D01*
X003481Y008479D01*
X003498Y008518D01*
X003498Y008008D01*
X003542Y007964D01*
X003542Y005320D01*
X003581Y005225D01*
X004202Y004603D01*
X004202Y004126D01*
X004307Y004021D01*
X005045Y004021D01*
X005150Y004126D01*
X005150Y004864D01*
X005045Y004969D01*
X004568Y004969D01*
X004059Y005478D01*
X004059Y006208D01*
X004202Y006064D01*
X004202Y005586D01*
X004307Y005482D01*
X005045Y005482D01*
X005150Y005586D01*
X005150Y006325D01*
X005045Y006429D01*
X004568Y006429D01*
X004411Y006586D01*
X004411Y006943D01*
X005006Y006943D01*
X005110Y007047D01*
X005110Y007785D01*
X005006Y007890D01*
X004726Y007890D01*
X004726Y007903D01*
X005018Y007903D01*
X005122Y008008D01*
X005122Y008608D01*
X005039Y008692D01*
X005122Y008775D01*
X005122Y009376D01*
X005018Y009480D01*
X004531Y009480D01*
X004531Y010444D01*
X004532Y010445D01*
X004595Y010598D01*
X004595Y010762D01*
X004558Y010850D01*
X004558Y011023D01*
X006144Y012609D01*
X006251Y012716D01*
X006308Y012855D01*
X006308Y013056D01*
X006362Y013110D01*
X006362Y013848D01*
X006308Y013902D01*
X006308Y014336D01*
X006392Y014420D01*
X008043Y014420D01*
X008165Y014297D01*
X008221Y014162D01*
X008343Y014040D01*
X008503Y013974D01*
X008676Y013974D01*
X008835Y014040D01*
X008958Y014162D01*
X009024Y014322D01*
X009024Y014495D01*
X008958Y014654D01*
X008835Y014777D01*
X008701Y014832D01*
X008414Y015119D01*
X008275Y015177D01*
X006392Y015177D01*
X006297Y015272D01*
X005638Y015272D01*
X005579Y015214D01*
X005573Y015220D01*
X005537Y015241D01*
X005496Y015252D01*
X005267Y015252D01*
X005267Y014846D01*
X005171Y014846D01*
X004805Y014846D01*
X004805Y015114D01*
X004806Y015119D01*
X004609Y015037D01*
X004295Y015037D01*
X004005Y015157D01*
X003783Y015379D01*
X003755Y015447D01*
X003482Y015447D01*
X003001Y014966D01*
X002894Y014859D01*
X002755Y014802D01*
X001727Y014802D01*
X001718Y014792D01*
X001558Y014726D01*
X001558Y011837D01*
X002301Y011095D01*
X002490Y011095D01*
X002595Y010990D01*
X002595Y010370D01*
X002490Y010265D01*
X001870Y010265D01*
X001765Y010370D01*
X001765Y010559D01*
X000859Y011466D01*
X000802Y011605D01*
X000802Y014726D01*
X000642Y014792D01*
X000514Y014921D01*
X000444Y015089D01*
X000444Y015271D01*
X000514Y015439D01*
X000642Y015568D01*
X000810Y015637D01*
X001550Y015637D01*
X001718Y015568D01*
X001727Y015558D01*
X002523Y015558D01*
X003111Y016146D01*
X003250Y016204D01*
X003755Y016204D01*
X003783Y016272D01*
X004005Y016494D01*
X004295Y016614D01*
X004609Y016614D01*
X004898Y016494D01*
X005120Y016272D01*
X005240Y015983D01*
X005240Y015669D01*
X005240Y015713D02*
X017802Y015713D01*
X017802Y015872D02*
X005240Y015872D01*
X005221Y016030D02*
X007171Y016030D01*
X007240Y016002D02*
X007601Y016002D01*
X007934Y016140D01*
X008189Y016395D01*
X008327Y016728D01*
X008327Y017089D01*
X008189Y017422D01*
X007934Y017677D01*
X007601Y017815D01*
X007240Y017815D01*
X006907Y017677D01*
X006651Y017422D01*
X006513Y017089D01*
X006513Y016728D01*
X006651Y016395D01*
X006907Y016140D01*
X007240Y016002D01*
X006858Y016189D02*
X005155Y016189D01*
X005046Y016347D02*
X006699Y016347D01*
X006606Y016506D02*
X004871Y016506D01*
X004032Y016506D02*
X003150Y016506D01*
X003145Y016499D02*
X003207Y016579D01*
X003257Y016666D01*
X003296Y016759D01*
X003322Y016856D01*
X003331Y016927D01*
X002646Y016927D01*
X002646Y017087D01*
X002486Y017087D01*
X002486Y017772D01*
X002415Y017763D01*
X002318Y017736D01*
X002225Y017698D01*
X002138Y017648D01*
X002058Y017586D01*
X001986Y017515D01*
X001925Y017435D01*
X001875Y017348D01*
X001836Y017254D01*
X001810Y017157D01*
X001801Y017087D01*
X002486Y017087D01*
X002486Y016927D01*
X001801Y016927D01*
X001810Y016856D01*
X001836Y016759D01*
X001875Y016666D01*
X001925Y016579D01*
X001986Y016499D01*
X002058Y016427D01*
X002138Y016366D01*
X002225Y016316D01*
X002318Y016277D01*
X002415Y016251D01*
X002486Y016242D01*
X002486Y016927D01*
X002646Y016927D01*
X002646Y016242D01*
X002716Y016251D01*
X002814Y016277D01*
X002907Y016316D01*
X002994Y016366D01*
X003074Y016427D01*
X003145Y016499D01*
X003256Y016664D02*
X006540Y016664D01*
X006513Y016823D02*
X003313Y016823D01*
X003331Y017087D02*
X003322Y017157D01*
X003296Y017254D01*
X003257Y017348D01*
X003207Y017435D01*
X003145Y017515D01*
X003074Y017586D01*
X002994Y017648D01*
X002907Y017698D01*
X002814Y017736D01*
X002716Y017763D01*
X002646Y017772D01*
X002646Y017087D01*
X003331Y017087D01*
X003324Y017140D02*
X006534Y017140D01*
X006513Y016981D02*
X002646Y016981D01*
X002646Y016823D02*
X002486Y016823D01*
X002486Y016981D02*
X000437Y016981D01*
X000437Y016823D02*
X001819Y016823D01*
X001876Y016664D02*
X000437Y016664D01*
X000437Y016506D02*
X000608Y016506D01*
X000616Y016514D02*
X000568Y016465D01*
X000527Y016409D01*
X000496Y016348D01*
X000475Y016282D01*
X000464Y016214D01*
X000464Y016200D01*
X001160Y016200D01*
X001160Y016617D01*
X000867Y016617D01*
X000799Y016607D01*
X000733Y016585D01*
X000672Y016554D01*
X000616Y016514D01*
X000496Y016347D02*
X000437Y016347D01*
X000437Y016189D02*
X001160Y016189D01*
X001160Y016200D02*
X001160Y016160D01*
X001200Y016160D01*
X001200Y016200D01*
X001160Y016200D01*
X001200Y016200D02*
X001200Y016617D01*
X001493Y016617D01*
X001561Y016607D01*
X001627Y016585D01*
X001688Y016554D01*
X001744Y016514D01*
X001792Y016465D01*
X001833Y016409D01*
X001864Y016348D01*
X001885Y016282D01*
X001896Y016214D01*
X001896Y016200D01*
X001200Y016200D01*
X001200Y016189D02*
X003213Y016189D01*
X002995Y016030D02*
X001870Y016030D01*
X001864Y016012D02*
X001885Y016078D01*
X001896Y016146D01*
X001896Y016160D01*
X001200Y016160D01*
X001200Y015743D01*
X001493Y015743D01*
X001561Y015753D01*
X001627Y015775D01*
X001688Y015806D01*
X001744Y015846D01*
X001792Y015895D01*
X001833Y015951D01*
X001864Y016012D01*
X001769Y015872D02*
X002836Y015872D01*
X002678Y015713D02*
X000437Y015713D01*
X000437Y015555D02*
X000629Y015555D01*
X000496Y015396D02*
X000437Y015396D01*
X000437Y015238D02*
X000444Y015238D01*
X000437Y015079D02*
X000448Y015079D01*
X000437Y014921D02*
X000514Y014921D01*
X000437Y014762D02*
X000716Y014762D01*
X000802Y014604D02*
X000437Y014604D01*
X000437Y014445D02*
X000802Y014445D01*
X000802Y014287D02*
X000437Y014287D01*
X000437Y014128D02*
X000802Y014128D01*
X000802Y013970D02*
X000437Y013970D01*
X000437Y013811D02*
X000802Y013811D01*
X000802Y013653D02*
X000437Y013653D01*
X000437Y013494D02*
X000802Y013494D01*
X000802Y013336D02*
X000437Y013336D01*
X000437Y013177D02*
X000802Y013177D01*
X000802Y013019D02*
X000437Y013019D01*
X000437Y012860D02*
X000802Y012860D01*
X000802Y012702D02*
X000437Y012702D01*
X000437Y012543D02*
X000802Y012543D01*
X000802Y012385D02*
X000437Y012385D01*
X000437Y012226D02*
X000802Y012226D01*
X000802Y012068D02*
X000437Y012068D01*
X000437Y011909D02*
X000802Y011909D01*
X000802Y011751D02*
X000437Y011751D01*
X000437Y011592D02*
X000807Y011592D01*
X000891Y011434D02*
X000437Y011434D01*
X000437Y011275D02*
X001050Y011275D01*
X001208Y011117D02*
X000437Y011117D01*
X000437Y010958D02*
X001367Y010958D01*
X001525Y010800D02*
X000437Y010800D01*
X000437Y010641D02*
X001684Y010641D01*
X001765Y010483D02*
X000437Y010483D01*
X000437Y010324D02*
X001811Y010324D01*
X002085Y010007D02*
X000437Y010007D01*
X000437Y009849D02*
X000731Y009849D01*
X000726Y009831D02*
X000726Y009602D01*
X001132Y009602D01*
X001132Y009969D01*
X000864Y009969D01*
X000823Y009958D01*
X000787Y009937D01*
X000758Y009907D01*
X000737Y009871D01*
X000726Y009831D01*
X000726Y009690D02*
X000437Y009690D01*
X000437Y009532D02*
X001132Y009532D01*
X001132Y009690D02*
X001228Y009690D01*
X001228Y009849D02*
X001132Y009849D01*
X001629Y009849D02*
X001870Y009849D01*
X001711Y009690D02*
X001634Y009690D01*
X000726Y009373D02*
X000437Y009373D01*
X000437Y009215D02*
X000750Y009215D01*
X000706Y009056D02*
X000437Y009056D01*
X000437Y008898D02*
X000706Y008898D01*
X000706Y008739D02*
X000437Y008739D01*
X000437Y008581D02*
X000706Y008581D01*
X000760Y008422D02*
X000437Y008422D01*
X000437Y008264D02*
X001092Y008264D01*
X001092Y008105D02*
X000437Y008105D01*
X000437Y007947D02*
X001092Y007947D01*
X001092Y007788D02*
X000437Y007788D01*
X000437Y007630D02*
X001094Y007630D01*
X001133Y007471D02*
X000437Y007471D01*
X000437Y007313D02*
X001133Y007313D01*
X001176Y007154D02*
X000437Y007154D01*
X000437Y006996D02*
X003542Y006996D01*
X003542Y007154D02*
X003156Y007154D01*
X003207Y007313D02*
X003542Y007313D01*
X003542Y007471D02*
X003207Y007471D01*
X003207Y007630D02*
X003542Y007630D01*
X003542Y007788D02*
X003207Y007788D01*
X003207Y007704D02*
X002930Y007704D01*
X002930Y008295D01*
X002930Y007704D01*
X002930Y007704D01*
X002930Y007704D01*
X002930Y007704D01*
X002727Y007704D01*
X002727Y007704D01*
X002930Y007704D01*
X003207Y007704D01*
X003207Y007947D02*
X003542Y007947D01*
X003498Y008105D02*
X003207Y008105D01*
X003146Y008264D02*
X003498Y008264D01*
X003498Y008422D02*
X003425Y008422D01*
X003800Y008308D02*
X003800Y005371D01*
X004676Y004495D01*
X004202Y004460D02*
X002688Y004460D01*
X002688Y004618D02*
X004188Y004618D01*
X004029Y004777D02*
X002688Y004777D01*
X002688Y004935D02*
X003871Y004935D01*
X003712Y005094D02*
X003171Y005094D01*
X003122Y005045D02*
X003227Y005149D01*
X003227Y006163D01*
X003122Y006268D01*
X002738Y006268D01*
X002680Y006210D01*
X002622Y006268D01*
X002238Y006268D01*
X002180Y006210D01*
X002122Y006268D01*
X001738Y006268D01*
X001680Y006210D01*
X001622Y006268D01*
X001238Y006268D01*
X001133Y006163D01*
X001133Y005149D01*
X001238Y005045D01*
X001622Y005045D01*
X001672Y005094D01*
X001672Y003988D01*
X001291Y003988D01*
X001187Y003884D01*
X001187Y003224D01*
X001231Y003180D01*
X001187Y003136D01*
X001187Y002476D01*
X001291Y002372D01*
X001528Y002372D01*
X001673Y002173D01*
X001899Y002008D01*
X002166Y001922D01*
X003274Y001922D01*
X003278Y001912D01*
X003412Y001778D01*
X003586Y001706D01*
X003774Y001706D01*
X003948Y001778D01*
X004082Y001912D01*
X004154Y002086D01*
X004154Y002274D01*
X004082Y002448D01*
X003948Y002582D01*
X003774Y002654D01*
X003586Y002654D01*
X003412Y002582D01*
X003278Y002448D01*
X003274Y002438D01*
X002306Y002438D01*
X002248Y002443D01*
X002167Y002470D01*
X002173Y002476D01*
X002173Y003136D01*
X002129Y003180D01*
X002173Y003224D01*
X002173Y003716D01*
X002188Y003753D01*
X002188Y003838D01*
X002211Y003784D01*
X002961Y003034D01*
X003034Y002961D01*
X003129Y002922D01*
X004073Y002922D01*
X004413Y002582D01*
X004412Y002582D01*
X004278Y002448D01*
X004206Y002274D01*
X004206Y002086D01*
X004278Y001912D01*
X004412Y001778D01*
X004586Y001706D01*
X004774Y001706D01*
X004948Y001778D01*
X005082Y001912D01*
X005154Y002086D01*
X005154Y002274D01*
X005082Y002448D01*
X004948Y002582D01*
X004938Y002586D01*
X004938Y002731D01*
X004899Y002826D01*
X004826Y002899D01*
X004326Y003399D01*
X004231Y003438D01*
X003287Y003438D01*
X002688Y004037D01*
X002688Y005094D01*
X002738Y005045D01*
X003122Y005045D01*
X003227Y005252D02*
X003570Y005252D01*
X003542Y005411D02*
X003227Y005411D01*
X003227Y005569D02*
X003542Y005569D01*
X003542Y005728D02*
X003227Y005728D01*
X003227Y005886D02*
X003542Y005886D01*
X003542Y006045D02*
X003227Y006045D01*
X003187Y006203D02*
X003542Y006203D01*
X003542Y006362D02*
X000437Y006362D01*
X000437Y006520D02*
X003542Y006520D01*
X003542Y006679D02*
X000437Y006679D01*
X000437Y006837D02*
X003542Y006837D01*
X002930Y007112D02*
X002930Y007704D01*
X002930Y007704D01*
X002930Y007112D01*
X002930Y007154D02*
X002930Y007154D01*
X002930Y007313D02*
X002930Y007313D01*
X002930Y007471D02*
X002930Y007471D01*
X002930Y007630D02*
X002930Y007630D01*
X002930Y007788D02*
X002930Y007788D01*
X002930Y007947D02*
X002930Y007947D01*
X002930Y008105D02*
X002930Y008105D01*
X002930Y008264D02*
X002930Y008264D01*
X002714Y008264D02*
X002688Y008264D01*
X002430Y008430D02*
X002432Y008460D01*
X002437Y008490D01*
X002446Y008519D01*
X002459Y008546D01*
X002474Y008572D01*
X002493Y008596D01*
X002514Y008617D01*
X002538Y008636D01*
X002564Y008651D01*
X002591Y008664D01*
X002620Y008673D01*
X002650Y008678D01*
X002680Y008680D01*
X002680Y008804D01*
X002679Y008812D01*
X002675Y008819D01*
X002669Y008825D01*
X002662Y008829D01*
X002654Y008830D01*
X002680Y008680D02*
X003180Y008680D01*
X003800Y009076D02*
X004152Y009076D01*
X004467Y009076D01*
X004531Y009532D02*
X012922Y009532D01*
X012922Y009690D02*
X004531Y009690D01*
X004531Y009849D02*
X012922Y009849D01*
X012922Y010007D02*
X004531Y010007D01*
X004531Y010166D02*
X012922Y010166D01*
X012922Y010324D02*
X004531Y010324D01*
X004547Y010483D02*
X012922Y010483D01*
X012922Y010641D02*
X004595Y010641D01*
X004579Y010800D02*
X012950Y010800D01*
X012961Y010826D02*
X012922Y010731D01*
X012922Y007424D01*
X012879Y007381D01*
X012824Y007251D01*
X012824Y007109D01*
X012879Y006979D01*
X012979Y006879D01*
X013109Y006824D01*
X013251Y006824D01*
X013381Y006879D01*
X013481Y006979D01*
X013522Y007075D01*
X013522Y004987D01*
X013323Y004788D01*
X008687Y004788D01*
X008438Y005037D01*
X008438Y006231D01*
X008399Y006326D01*
X008036Y006690D01*
X008036Y006751D01*
X007981Y006881D01*
X007881Y006981D01*
X007751Y007036D01*
X007609Y007036D01*
X007479Y006981D01*
X007379Y006881D01*
X007324Y006751D01*
X007324Y006609D01*
X007379Y006479D01*
X007479Y006379D01*
X007609Y006324D01*
X007670Y006324D01*
X007922Y006073D01*
X007922Y005941D01*
X007881Y005981D01*
X007751Y006036D01*
X007690Y006036D01*
X007551Y006175D01*
X007456Y006214D01*
X006528Y006214D01*
X006528Y006325D01*
X006423Y006429D01*
X005685Y006429D01*
X005580Y006325D01*
X005580Y005586D01*
X005685Y005482D01*
X006423Y005482D01*
X006528Y005586D01*
X006528Y005697D01*
X007297Y005697D01*
X007324Y005670D01*
X007324Y005609D01*
X007379Y005479D01*
X007479Y005379D01*
X007609Y005324D01*
X007751Y005324D01*
X007881Y005379D01*
X007922Y005419D01*
X007922Y004879D01*
X007961Y004784D01*
X008034Y004711D01*
X008306Y004438D01*
X006528Y004438D01*
X006528Y004864D01*
X006423Y004969D01*
X005685Y004969D01*
X005580Y004864D01*
X005580Y004126D01*
X005685Y004021D01*
X006162Y004021D01*
X006223Y003961D01*
X006318Y003922D01*
X010436Y003922D01*
X010479Y003879D01*
X010609Y003824D01*
X010751Y003824D01*
X010881Y003879D01*
X010981Y003979D01*
X011036Y004109D01*
X011036Y004251D01*
X011027Y004272D01*
X013481Y004272D01*
X013576Y004311D01*
X013649Y004384D01*
X013999Y004734D01*
X014038Y004829D01*
X014038Y007854D01*
X014109Y007824D01*
X014251Y007824D01*
X014381Y007879D01*
X014481Y007979D01*
X014536Y008109D01*
X014536Y008251D01*
X014481Y008381D01*
X014381Y008481D01*
X014251Y008536D01*
X014190Y008536D01*
X013938Y008787D01*
X013938Y008789D01*
X014090Y008726D01*
X014270Y008726D01*
X014437Y008795D01*
X014565Y008923D01*
X014634Y009090D01*
X014634Y009269D01*
X014790Y009424D01*
X014726Y009270D01*
X014726Y009090D01*
X014795Y008923D01*
X014923Y008795D01*
X015090Y008726D01*
X015270Y008726D01*
X015437Y008795D01*
X015565Y008923D01*
X015634Y009090D01*
X015634Y009174D01*
X015698Y009174D01*
X015698Y009063D01*
X015803Y008958D01*
X016032Y008958D01*
X016032Y008897D01*
X015534Y008399D01*
X015461Y008326D01*
X015422Y008231D01*
X015422Y007597D01*
X015421Y007596D01*
X015292Y007468D01*
X015223Y007300D01*
X015223Y006560D01*
X015292Y006392D01*
X015421Y006264D01*
X015589Y006194D01*
X015771Y006194D01*
X015922Y006256D01*
X015922Y005674D01*
X015879Y005631D01*
X015824Y005501D01*
X015824Y005359D01*
X015879Y005229D01*
X015979Y005129D01*
X016109Y005074D01*
X016251Y005074D01*
X016381Y005129D01*
X016481Y005229D01*
X016536Y005359D01*
X016536Y005501D01*
X016481Y005631D01*
X016438Y005674D01*
X016438Y006256D01*
X016589Y006194D01*
X016771Y006194D01*
X016939Y006264D01*
X017068Y006392D01*
X017137Y006560D01*
X017137Y007300D01*
X017068Y007468D01*
X016939Y007596D01*
X016938Y007597D01*
X016938Y008073D01*
X017081Y008215D01*
X017081Y008189D01*
X017447Y008189D01*
X017447Y008595D01*
X017219Y008595D01*
X017179Y008584D01*
X017179Y008958D01*
X017407Y008958D01*
X017428Y008979D01*
X017431Y008978D01*
X017550Y008978D01*
X017550Y009432D01*
X017550Y009886D01*
X017494Y009886D01*
X017494Y010376D01*
X017486Y010395D01*
X017486Y010501D01*
X017431Y010631D01*
X017331Y010731D01*
X017201Y010786D01*
X017059Y010786D01*
X016929Y010731D01*
X016829Y010631D01*
X016774Y010501D01*
X016774Y010359D01*
X016829Y010229D01*
X016929Y010129D01*
X016977Y010109D01*
X016977Y009906D01*
X015803Y009906D01*
X015698Y009801D01*
X015698Y009690D01*
X015381Y009690D01*
X015286Y009651D01*
X015269Y009634D01*
X015090Y009634D01*
X014936Y009570D01*
X015229Y009864D01*
X015636Y009864D01*
X015740Y009968D01*
X015740Y010197D01*
X016231Y010197D01*
X016326Y010237D01*
X016399Y010309D01*
X016438Y010404D01*
X016438Y010436D01*
X016481Y010479D01*
X016536Y010609D01*
X016536Y010751D01*
X016481Y010881D01*
X016381Y010981D01*
X016251Y011036D01*
X016109Y011036D01*
X015979Y010981D01*
X015879Y010881D01*
X015824Y010751D01*
X015824Y010714D01*
X015740Y010714D01*
X015740Y011142D01*
X016424Y011142D01*
X016439Y011138D01*
X016475Y011142D01*
X016511Y011142D01*
X016525Y011148D01*
X016541Y011150D01*
X016572Y011168D01*
X016606Y011181D01*
X016617Y011192D01*
X016631Y011200D01*
X016653Y011228D01*
X016679Y011254D01*
X016685Y011269D01*
X016729Y011324D01*
X016751Y011324D01*
X016881Y011379D01*
X016981Y011479D01*
X017036Y011609D01*
X017036Y011751D01*
X016981Y011881D01*
X016881Y011981D01*
X016751Y012036D01*
X016609Y012036D01*
X016479Y011981D01*
X016379Y011881D01*
X016324Y011751D01*
X016324Y011659D01*
X015740Y011659D01*
X015740Y012367D01*
X015779Y012329D01*
X015909Y012274D01*
X016051Y012274D01*
X016181Y012329D01*
X016281Y012429D01*
X016336Y012559D01*
X016336Y012701D01*
X016281Y012831D01*
X016181Y012931D01*
X016051Y012986D01*
X015909Y012986D01*
X015779Y012931D01*
X015766Y012919D01*
X015740Y012919D01*
X015740Y013463D01*
X015636Y013567D01*
X014897Y013567D01*
X014793Y013463D01*
X014793Y013238D01*
X014536Y013238D01*
X014536Y013251D01*
X014481Y013381D01*
X014381Y013481D01*
X014251Y013536D01*
X014109Y013536D01*
X013979Y013481D01*
X013879Y013381D01*
X013824Y013251D01*
X013824Y013109D01*
X013879Y012979D01*
X013979Y012879D01*
X014109Y012824D01*
X014170Y012824D01*
X014234Y012761D01*
X014329Y012722D01*
X014793Y012722D01*
X014793Y012603D01*
X014699Y012564D01*
X014626Y012492D01*
X012961Y010826D01*
X013093Y010958D02*
X004558Y010958D01*
X004652Y011117D02*
X013251Y011117D01*
X013410Y011275D02*
X004810Y011275D01*
X004969Y011434D02*
X013568Y011434D01*
X013727Y011592D02*
X013158Y011592D01*
X013126Y011584D02*
X013209Y011606D01*
X013287Y011638D01*
X013361Y011681D01*
X013429Y011733D01*
X013489Y011793D01*
X013541Y011861D01*
X013584Y011935D01*
X013617Y012014D01*
X013639Y012096D01*
X013645Y012143D01*
X013079Y012143D01*
X013079Y011577D01*
X013126Y011584D01*
X013079Y011592D02*
X012919Y011592D01*
X012919Y011577D02*
X012919Y012143D01*
X013079Y012143D01*
X013079Y012303D01*
X013645Y012303D01*
X013639Y012351D01*
X013617Y012433D01*
X013584Y012512D01*
X013541Y012586D01*
X013489Y012653D01*
X013429Y012714D01*
X013361Y012766D01*
X013287Y012808D01*
X013209Y012841D01*
X013126Y012863D01*
X013079Y012869D01*
X013079Y012303D01*
X012919Y012303D01*
X012919Y012143D01*
X012353Y012143D01*
X012359Y012096D01*
X012381Y012014D01*
X012414Y011935D01*
X012457Y011861D01*
X012509Y011793D01*
X012569Y011733D01*
X012637Y011681D01*
X012710Y011638D01*
X012789Y011606D01*
X012872Y011584D01*
X012919Y011577D01*
X012840Y011592D02*
X006839Y011592D01*
X006807Y011584D02*
X006890Y011606D01*
X006968Y011638D01*
X007042Y011681D01*
X007110Y011733D01*
X007170Y011793D01*
X007222Y011861D01*
X007265Y011935D01*
X007298Y012014D01*
X007320Y012096D01*
X007326Y012143D01*
X006760Y012143D01*
X006760Y011577D01*
X006807Y011584D01*
X006760Y011592D02*
X006600Y011592D01*
X006600Y011577D02*
X006600Y012143D01*
X006760Y012143D01*
X006760Y012303D01*
X007326Y012303D01*
X007320Y012351D01*
X007298Y012433D01*
X007265Y012512D01*
X007222Y012586D01*
X007170Y012653D01*
X007110Y012714D01*
X007042Y012766D01*
X006968Y012808D01*
X006890Y012841D01*
X006807Y012863D01*
X006760Y012869D01*
X006760Y012303D01*
X006600Y012303D01*
X006600Y012143D01*
X006034Y012143D01*
X006040Y012096D01*
X006062Y012014D01*
X006095Y011935D01*
X006138Y011861D01*
X006190Y011793D01*
X006250Y011733D01*
X006318Y011681D01*
X006392Y011638D01*
X006470Y011606D01*
X006553Y011584D01*
X006600Y011577D01*
X006521Y011592D02*
X005127Y011592D01*
X005286Y011751D02*
X006232Y011751D01*
X006110Y011909D02*
X005444Y011909D01*
X005603Y012068D02*
X006048Y012068D01*
X006034Y012303D02*
X006600Y012303D01*
X006600Y012869D01*
X006553Y012863D01*
X006470Y012841D01*
X006392Y012808D01*
X006318Y012766D01*
X006250Y012714D01*
X006190Y012653D01*
X006138Y012586D01*
X006095Y012512D01*
X006062Y012433D01*
X006040Y012351D01*
X006034Y012303D01*
X006049Y012385D02*
X005920Y012385D01*
X006078Y012543D02*
X006113Y012543D01*
X006237Y012702D02*
X006238Y012702D01*
X006308Y012860D02*
X006541Y012860D01*
X006600Y012860D02*
X006760Y012860D01*
X006819Y012860D02*
X009372Y012860D01*
X009372Y012702D02*
X007122Y012702D01*
X007247Y012543D02*
X009372Y012543D01*
X009372Y012524D02*
X009329Y012481D01*
X009274Y012351D01*
X009274Y012209D01*
X009329Y012079D01*
X009429Y011979D01*
X009559Y011924D01*
X009701Y011924D01*
X009831Y011979D01*
X009931Y012079D01*
X009986Y012209D01*
X009986Y012351D01*
X009931Y012481D01*
X009888Y012524D01*
X009888Y013021D01*
X010003Y012974D01*
X010176Y012974D01*
X010335Y013040D01*
X010458Y013162D01*
X010524Y013322D01*
X010524Y013495D01*
X010458Y013654D01*
X010335Y013777D01*
X010199Y013833D01*
X010387Y014022D01*
X010503Y013974D01*
X010676Y013974D01*
X010835Y014040D01*
X010958Y014162D01*
X011024Y014322D01*
X011024Y014495D01*
X010958Y014654D01*
X010835Y014777D01*
X010676Y014843D01*
X010503Y014843D01*
X010343Y014777D01*
X010221Y014654D01*
X010173Y014539D01*
X010024Y014389D01*
X010024Y014495D01*
X009958Y014654D01*
X009835Y014777D01*
X009676Y014843D01*
X009503Y014843D01*
X009343Y014777D01*
X009221Y014654D01*
X009155Y014495D01*
X009155Y014322D01*
X009221Y014162D01*
X009343Y014040D01*
X009503Y013974D01*
X009609Y013974D01*
X009484Y013849D01*
X009411Y013776D01*
X009389Y013723D01*
X009335Y013777D01*
X009176Y013843D01*
X009003Y013843D01*
X008843Y013777D01*
X008721Y013654D01*
X008655Y013495D01*
X008655Y013322D01*
X008721Y013162D01*
X008843Y013040D01*
X009003Y012974D01*
X009176Y012974D01*
X009335Y013040D01*
X009372Y013076D01*
X009372Y012524D01*
X009288Y012385D02*
X007311Y012385D01*
X007312Y012068D02*
X009340Y012068D01*
X009274Y012226D02*
X006760Y012226D01*
X006760Y012068D02*
X006600Y012068D01*
X006600Y012226D02*
X005761Y012226D01*
X005166Y012702D02*
X001558Y012702D01*
X001558Y012860D02*
X005325Y012860D01*
X005211Y013025D02*
X004982Y013025D01*
X004942Y013036D01*
X004905Y013057D01*
X004876Y013086D01*
X004855Y013123D01*
X004844Y013163D01*
X004844Y013431D01*
X005211Y013431D01*
X005211Y013025D01*
X005211Y013177D02*
X005307Y013177D01*
X005307Y013336D02*
X005211Y013336D01*
X005211Y013494D02*
X001558Y013494D01*
X001558Y013336D02*
X004844Y013336D01*
X004844Y013177D02*
X001558Y013177D01*
X001558Y013019D02*
X005483Y013019D01*
X005211Y013527D02*
X004844Y013527D01*
X004844Y013795D01*
X004855Y013836D01*
X004876Y013872D01*
X004905Y013902D01*
X004942Y013922D01*
X004982Y013933D01*
X005211Y013933D01*
X005211Y013527D01*
X005211Y013653D02*
X005307Y013653D01*
X005307Y013811D02*
X005211Y013811D01*
X004848Y013811D02*
X001558Y013811D01*
X001558Y013653D02*
X004844Y013653D01*
X005552Y013970D02*
X001558Y013970D01*
X001558Y014128D02*
X005552Y014128D01*
X005552Y014287D02*
X001558Y014287D01*
X001558Y014445D02*
X004815Y014445D01*
X004805Y014604D02*
X001558Y014604D01*
X001644Y014762D02*
X005171Y014762D01*
X005171Y014604D02*
X005267Y014604D01*
X005267Y014445D02*
X005171Y014445D01*
X005171Y014921D02*
X005267Y014921D01*
X005267Y015079D02*
X005171Y015079D01*
X005171Y015238D02*
X005267Y015238D01*
X005127Y015396D02*
X014212Y015396D01*
X014201Y015355D01*
X014201Y015060D01*
X014673Y015060D01*
X014673Y014900D01*
X014201Y014900D01*
X014201Y014605D01*
X014212Y014564D01*
X014233Y014528D01*
X014262Y014499D01*
X014298Y014478D01*
X014339Y014467D01*
X014673Y014467D01*
X014673Y014900D01*
X014833Y014900D01*
X014833Y014467D01*
X015168Y014467D01*
X015208Y014478D01*
X015244Y014499D01*
X015274Y014528D01*
X015295Y014564D01*
X015306Y014605D01*
X015306Y014900D01*
X014833Y014900D01*
X014833Y015060D01*
X014673Y015060D01*
X014673Y015493D01*
X014339Y015493D01*
X014298Y015482D01*
X014262Y015461D01*
X014233Y015432D01*
X014212Y015396D01*
X014201Y015238D02*
X006331Y015238D01*
X005603Y015238D02*
X005543Y015238D01*
X004805Y015079D02*
X004710Y015079D01*
X004805Y014921D02*
X002956Y014921D01*
X003114Y015079D02*
X004193Y015079D01*
X003924Y015238D02*
X003273Y015238D01*
X003431Y015396D02*
X003776Y015396D01*
X003858Y016347D02*
X002961Y016347D01*
X002646Y016347D02*
X002486Y016347D01*
X002486Y016506D02*
X002646Y016506D01*
X002646Y016664D02*
X002486Y016664D01*
X002171Y016347D02*
X001864Y016347D01*
X001752Y016506D02*
X001981Y016506D01*
X001808Y017140D02*
X000437Y017140D01*
X000437Y017298D02*
X001854Y017298D01*
X001942Y017457D02*
X000437Y017457D01*
X000437Y017615D02*
X002095Y017615D01*
X002486Y017615D02*
X002646Y017615D01*
X002646Y017457D02*
X002486Y017457D01*
X002486Y017298D02*
X002646Y017298D01*
X002646Y017140D02*
X002486Y017140D01*
X003036Y017615D02*
X003986Y017615D01*
X004024Y017586D02*
X004111Y017536D01*
X004204Y017498D01*
X004301Y017471D01*
X004372Y017462D01*
X004372Y018147D01*
X004532Y018147D01*
X004532Y018307D01*
X005217Y018307D01*
X005207Y018378D01*
X005181Y018475D01*
X005143Y018568D01*
X005092Y018655D01*
X005031Y018735D01*
X004960Y018807D01*
X004880Y018868D01*
X004792Y018918D01*
X004699Y018957D01*
X004602Y018983D01*
X004532Y018992D01*
X004532Y018307D01*
X004372Y018307D01*
X004372Y018992D01*
X004301Y018983D01*
X004204Y018957D01*
X004111Y018918D01*
X004024Y018868D01*
X003944Y018807D01*
X003872Y018735D01*
X003811Y018655D01*
X003760Y018568D01*
X003722Y018475D01*
X003696Y018378D01*
X003687Y018307D01*
X004372Y018307D01*
X004372Y018147D01*
X003687Y018147D01*
X003696Y018077D01*
X003722Y017980D01*
X003760Y017886D01*
X003811Y017799D01*
X003872Y017719D01*
X003944Y017648D01*
X004024Y017586D01*
X003831Y017774D02*
X000437Y017774D01*
X000437Y017932D02*
X000962Y017932D01*
X001004Y017915D02*
X001356Y017915D01*
X001682Y018050D01*
X001932Y018300D01*
X002067Y018626D01*
X002067Y018978D01*
X001932Y019305D01*
X001682Y019554D01*
X001648Y019569D01*
X022291Y019569D01*
X022256Y019554D01*
X022007Y019305D01*
X021872Y018978D01*
X021872Y018626D01*
X022007Y018300D01*
X022256Y018050D01*
X022582Y017915D01*
X022935Y017915D01*
X023261Y018050D01*
X023511Y018300D01*
X023521Y018325D01*
X023521Y001657D01*
X023511Y001682D01*
X023261Y001932D01*
X022935Y002067D01*
X022582Y002067D01*
X022256Y001932D01*
X022007Y001682D01*
X021872Y001356D01*
X021872Y001004D01*
X022007Y000678D01*
X022247Y000437D01*
X001692Y000437D01*
X001932Y000678D01*
X002067Y001004D01*
X002067Y001356D01*
X001932Y001682D01*
X001682Y001932D01*
X001356Y002067D01*
X001004Y002067D01*
X000678Y001932D01*
X000437Y001692D01*
X000437Y018290D01*
X000678Y018050D01*
X001004Y017915D01*
X000637Y018091D02*
X000437Y018091D01*
X000437Y018249D02*
X000478Y018249D01*
X001398Y017932D02*
X003742Y017932D01*
X003694Y018091D02*
X001723Y018091D01*
X001882Y018249D02*
X004372Y018249D01*
X004372Y018091D02*
X004532Y018091D01*
X004532Y018147D02*
X004532Y017462D01*
X004602Y017471D01*
X004699Y017498D01*
X004792Y017536D01*
X004880Y017586D01*
X004960Y017648D01*
X005031Y017719D01*
X005092Y017799D01*
X005143Y017886D01*
X005181Y017980D01*
X005207Y018077D01*
X005217Y018147D01*
X004532Y018147D01*
X004532Y018249D02*
X015769Y018249D01*
X015743Y018408D02*
X005199Y018408D01*
X005144Y018566D02*
X015743Y018566D01*
X015743Y018725D02*
X005039Y018725D01*
X004854Y018883D02*
X015743Y018883D01*
X015750Y019042D02*
X002041Y019042D01*
X002067Y018883D02*
X004050Y018883D01*
X003864Y018725D02*
X002067Y018725D01*
X002042Y018566D02*
X003760Y018566D01*
X003704Y018408D02*
X001977Y018408D01*
X001975Y019200D02*
X015815Y019200D01*
X016001Y019359D02*
X001878Y019359D01*
X001720Y019517D02*
X022219Y019517D01*
X022061Y019359D02*
X021409Y019359D01*
X021439Y019346D02*
X021271Y019416D01*
X021089Y019416D01*
X020921Y019346D01*
X020792Y019218D01*
X020723Y019050D01*
X020723Y018310D01*
X020792Y018142D01*
X020921Y018014D01*
X021089Y017944D01*
X021271Y017944D01*
X021439Y018014D01*
X021568Y018142D01*
X021637Y018310D01*
X021637Y019050D01*
X021568Y019218D01*
X021439Y019346D01*
X021575Y019200D02*
X021963Y019200D01*
X021898Y019042D02*
X021637Y019042D01*
X021637Y018883D02*
X021872Y018883D01*
X021872Y018725D02*
X021637Y018725D01*
X021637Y018566D02*
X021896Y018566D01*
X021962Y018408D02*
X021637Y018408D01*
X021612Y018249D02*
X022057Y018249D01*
X022216Y018091D02*
X021516Y018091D01*
X020844Y018091D02*
X020516Y018091D01*
X020568Y018142D02*
X020637Y018310D01*
X020637Y019050D01*
X020568Y019218D01*
X020439Y019346D01*
X020271Y019416D01*
X020089Y019416D01*
X019921Y019346D01*
X019792Y019218D01*
X019723Y019050D01*
X019723Y018310D01*
X019792Y018142D01*
X019921Y018014D01*
X020089Y017944D01*
X020271Y017944D01*
X020439Y018014D01*
X020568Y018142D01*
X020612Y018249D02*
X020748Y018249D01*
X020723Y018408D02*
X020637Y018408D01*
X020637Y018566D02*
X020723Y018566D01*
X020723Y018725D02*
X020637Y018725D01*
X020637Y018883D02*
X020723Y018883D01*
X020723Y019042D02*
X020637Y019042D01*
X020575Y019200D02*
X020785Y019200D01*
X020951Y019359D02*
X020409Y019359D01*
X019951Y019359D02*
X019359Y019359D01*
X019348Y019364D02*
X019282Y019385D01*
X019214Y019396D01*
X019200Y019396D01*
X019200Y018700D01*
X019160Y018700D01*
X019160Y019396D01*
X019146Y019396D01*
X019078Y019385D01*
X019012Y019364D01*
X018951Y019333D01*
X018895Y019292D01*
X018846Y019244D01*
X018806Y019188D01*
X018775Y019127D01*
X018753Y019061D01*
X018743Y018993D01*
X018743Y018700D01*
X019160Y018700D01*
X019160Y018660D01*
X018743Y018660D01*
X018743Y018367D01*
X018753Y018299D01*
X018775Y018233D01*
X018806Y018172D01*
X018846Y018116D01*
X018895Y018068D01*
X018951Y018027D01*
X019012Y017996D01*
X019078Y017975D01*
X019146Y017964D01*
X019160Y017964D01*
X019160Y018660D01*
X019200Y018660D01*
X019200Y018700D01*
X019617Y018700D01*
X019617Y018993D01*
X019607Y019061D01*
X019585Y019127D01*
X019554Y019188D01*
X019514Y019244D01*
X019465Y019292D01*
X019409Y019333D01*
X019348Y019364D01*
X019200Y019359D02*
X019160Y019359D01*
X019160Y019200D02*
X019200Y019200D01*
X019200Y019042D02*
X019160Y019042D01*
X019160Y018883D02*
X019200Y018883D01*
X019200Y018725D02*
X019160Y018725D01*
X019200Y018660D02*
X019617Y018660D01*
X019617Y018367D01*
X019607Y018299D01*
X019585Y018233D01*
X019554Y018172D01*
X019514Y018116D01*
X019465Y018068D01*
X019409Y018027D01*
X019348Y017996D01*
X019282Y017975D01*
X019214Y017964D01*
X019200Y017964D01*
X019200Y018660D01*
X019200Y018566D02*
X019160Y018566D01*
X019160Y018408D02*
X019200Y018408D01*
X019200Y018249D02*
X019160Y018249D01*
X019160Y018091D02*
X019200Y018091D01*
X019488Y018091D02*
X019844Y018091D01*
X019748Y018249D02*
X019591Y018249D01*
X019617Y018408D02*
X019723Y018408D01*
X019723Y018566D02*
X019617Y018566D01*
X019617Y018725D02*
X019723Y018725D01*
X019723Y018883D02*
X019617Y018883D01*
X019610Y019042D02*
X019723Y019042D01*
X019785Y019200D02*
X019545Y019200D01*
X019001Y019359D02*
X018409Y019359D01*
X018439Y019346D02*
X018271Y019416D01*
X018089Y019416D01*
X017921Y019346D01*
X017792Y019218D01*
X017723Y019050D01*
X017723Y018310D01*
X017792Y018142D01*
X017921Y018014D01*
X018089Y017944D01*
X018271Y017944D01*
X018439Y018014D01*
X018568Y018142D01*
X018637Y018310D01*
X018637Y019050D01*
X018568Y019218D01*
X018439Y019346D01*
X018575Y019200D02*
X018815Y019200D01*
X018750Y019042D02*
X018637Y019042D01*
X018637Y018883D02*
X018743Y018883D01*
X018743Y018725D02*
X018637Y018725D01*
X018637Y018566D02*
X018743Y018566D01*
X018743Y018408D02*
X018637Y018408D01*
X018612Y018249D02*
X018769Y018249D01*
X018872Y018091D02*
X018516Y018091D01*
X017844Y018091D02*
X017516Y018091D01*
X017612Y018249D02*
X017748Y018249D01*
X017723Y018408D02*
X017637Y018408D01*
X017637Y018566D02*
X017723Y018566D01*
X017723Y018725D02*
X017637Y018725D01*
X017637Y018883D02*
X017723Y018883D01*
X017723Y019042D02*
X017637Y019042D01*
X017575Y019200D02*
X017785Y019200D01*
X017951Y019359D02*
X017409Y019359D01*
X016951Y019359D02*
X016359Y019359D01*
X016348Y019364D02*
X016282Y019385D01*
X016214Y019396D01*
X016200Y019396D01*
X016200Y018700D01*
X016617Y018700D01*
X016617Y018993D01*
X016607Y019061D01*
X016585Y019127D01*
X016554Y019188D01*
X016514Y019244D01*
X016465Y019292D01*
X016409Y019333D01*
X016348Y019364D01*
X016200Y019359D02*
X016160Y019359D01*
X016160Y019200D02*
X016200Y019200D01*
X016200Y019042D02*
X016160Y019042D01*
X016160Y018883D02*
X016200Y018883D01*
X016200Y018725D02*
X016160Y018725D01*
X016617Y018725D02*
X016723Y018725D01*
X016723Y018883D02*
X016617Y018883D01*
X016610Y019042D02*
X016723Y019042D01*
X016785Y019200D02*
X016545Y019200D01*
X016617Y018566D02*
X016723Y018566D01*
X016723Y018408D02*
X016617Y018408D01*
X016591Y018249D02*
X016748Y018249D01*
X016844Y018091D02*
X016488Y018091D01*
X015872Y018091D02*
X005209Y018091D01*
X005162Y017932D02*
X014817Y017932D01*
X014644Y017774D02*
X012543Y017774D01*
X012443Y017815D02*
X012082Y017815D01*
X011749Y017677D01*
X011494Y017422D01*
X011356Y017089D01*
X011356Y016728D01*
X011494Y016395D01*
X011749Y016140D01*
X012082Y016002D01*
X012443Y016002D01*
X012776Y016140D01*
X013031Y016395D01*
X013169Y016728D01*
X013169Y017089D01*
X013031Y017422D01*
X012776Y017677D01*
X012443Y017815D01*
X011982Y017774D02*
X007701Y017774D01*
X007996Y017615D02*
X011687Y017615D01*
X011528Y017457D02*
X008154Y017457D01*
X008240Y017298D02*
X011443Y017298D01*
X011377Y017140D02*
X008306Y017140D01*
X008327Y016981D02*
X011356Y016981D01*
X011356Y016823D02*
X008327Y016823D01*
X008300Y016664D02*
X011382Y016664D01*
X011448Y016506D02*
X008235Y016506D01*
X008141Y016347D02*
X011542Y016347D01*
X011700Y016189D02*
X007983Y016189D01*
X007669Y016030D02*
X012014Y016030D01*
X012512Y016030D02*
X016926Y016030D01*
X016926Y016189D02*
X012825Y016189D01*
X012984Y016347D02*
X017332Y016347D01*
X017332Y016189D02*
X017428Y016189D01*
X017428Y016030D02*
X017332Y016030D01*
X017354Y015079D02*
X017258Y015079D01*
X017258Y014921D02*
X017354Y014921D01*
X017340Y014762D02*
X017258Y014762D01*
X017252Y014604D02*
X017179Y014604D01*
X017235Y014445D02*
X017235Y014445D01*
X017235Y014287D02*
X017235Y014287D01*
X017235Y014128D02*
X017235Y014128D01*
X017235Y013999D02*
X017235Y013545D01*
X017252Y013545D01*
X017252Y011451D01*
X017297Y011341D01*
X017567Y011071D01*
X017567Y009886D01*
X017550Y009886D01*
X017550Y009432D01*
X017550Y009432D01*
X017550Y009432D01*
X017550Y008385D01*
X017495Y008141D01*
X017180Y008180D01*
X017081Y008093D02*
X017081Y007824D01*
X017092Y007784D01*
X017112Y007748D01*
X017142Y007718D01*
X017178Y007697D01*
X017219Y007687D01*
X017447Y007687D01*
X017447Y008093D01*
X017081Y008093D01*
X016970Y008105D02*
X017447Y008105D01*
X017447Y008093D02*
X017447Y008189D01*
X017543Y008189D01*
X017543Y008595D01*
X017772Y008595D01*
X017813Y008584D01*
X017849Y008563D01*
X017855Y008556D01*
X017897Y008598D01*
X017646Y008849D01*
X017607Y008944D01*
X017607Y008978D01*
X017550Y008978D01*
X017550Y009432D01*
X017550Y009373D02*
X017550Y009373D01*
X017550Y009215D02*
X017550Y009215D01*
X017550Y009056D02*
X017550Y009056D01*
X017626Y008898D02*
X017179Y008898D01*
X017179Y008739D02*
X017756Y008739D01*
X017818Y008581D02*
X017880Y008581D01*
X018180Y008680D02*
X018180Y008204D01*
X018243Y008141D01*
X018678Y008105D02*
X018890Y008105D01*
X018922Y008073D02*
X018922Y006441D01*
X018881Y006481D01*
X018751Y006536D01*
X018609Y006536D01*
X018479Y006481D01*
X018436Y006438D01*
X018129Y006438D01*
X018078Y006417D01*
X018137Y006560D01*
X018137Y007300D01*
X018068Y007468D01*
X017939Y007596D01*
X017771Y007666D01*
X017589Y007666D01*
X017421Y007596D01*
X017292Y007468D01*
X017223Y007300D01*
X017223Y006560D01*
X017292Y006392D01*
X017421Y006264D01*
X017589Y006194D01*
X017771Y006194D01*
X017869Y006235D01*
X017845Y006210D01*
X017805Y006115D01*
X017805Y005992D01*
X017764Y005992D01*
X017680Y005909D01*
X017596Y005992D01*
X016996Y005992D01*
X016891Y005888D01*
X016891Y004631D01*
X016461Y004200D01*
X016422Y004105D01*
X016422Y002586D01*
X016412Y002582D01*
X016278Y002448D01*
X016206Y002274D01*
X016206Y002086D01*
X016278Y001912D01*
X016412Y001778D01*
X016586Y001706D01*
X016774Y001706D01*
X016948Y001778D01*
X017082Y001912D01*
X017154Y002086D01*
X017154Y002274D01*
X017082Y002448D01*
X016948Y002582D01*
X016938Y002586D01*
X016938Y003947D01*
X017359Y004368D01*
X017596Y004368D01*
X017680Y004451D01*
X017764Y004368D01*
X017873Y004368D01*
X017824Y004251D01*
X017824Y004190D01*
X017534Y003899D01*
X017534Y003899D01*
X017461Y003826D01*
X017422Y003731D01*
X017422Y002586D01*
X017412Y002582D01*
X017278Y002448D01*
X017206Y002274D01*
X017206Y002086D01*
X017278Y001912D01*
X017412Y001778D01*
X017586Y001706D01*
X017774Y001706D01*
X017948Y001778D01*
X018082Y001912D01*
X018154Y002086D01*
X018154Y002274D01*
X018082Y002448D01*
X017948Y002582D01*
X017938Y002586D01*
X017938Y003573D01*
X018190Y003824D01*
X018251Y003824D01*
X018381Y003879D01*
X018422Y003919D01*
X018422Y002586D01*
X018412Y002582D01*
X018278Y002448D01*
X018206Y002274D01*
X018206Y002086D01*
X018278Y001912D01*
X018412Y001778D01*
X018586Y001706D01*
X018774Y001706D01*
X018948Y001778D01*
X019082Y001912D01*
X019154Y002086D01*
X019154Y002274D01*
X019082Y002448D01*
X018948Y002582D01*
X018938Y002586D01*
X018938Y004073D01*
X019326Y004461D01*
X019399Y004534D01*
X019422Y004588D01*
X019422Y002586D01*
X019412Y002582D01*
X019278Y002448D01*
X019206Y002274D01*
X019206Y002086D01*
X019278Y001912D01*
X019412Y001778D01*
X019586Y001706D01*
X019774Y001706D01*
X019948Y001778D01*
X020082Y001912D01*
X020154Y002086D01*
X020154Y002274D01*
X020082Y002448D01*
X019948Y002582D01*
X019938Y002586D01*
X019938Y005436D01*
X019981Y005479D01*
X020036Y005609D01*
X020036Y005751D01*
X019981Y005881D01*
X019938Y005924D01*
X019938Y008056D01*
X020422Y007573D01*
X020422Y006424D01*
X020379Y006381D01*
X020324Y006251D01*
X020324Y006109D01*
X020379Y005979D01*
X020422Y005936D01*
X020422Y002654D01*
X020311Y002654D01*
X020206Y002549D01*
X020206Y001811D01*
X020311Y001706D01*
X021049Y001706D01*
X021154Y001811D01*
X021154Y002549D01*
X021049Y002654D01*
X020938Y002654D01*
X020938Y005493D01*
X021033Y005264D01*
X021240Y005057D01*
X021240Y005057D01*
X021510Y004945D01*
X021739Y004945D01*
X021740Y004945D01*
X021868Y004816D01*
X022036Y004746D01*
X022218Y004746D01*
X022386Y004816D01*
X022515Y004945D01*
X022584Y005113D01*
X022584Y005295D01*
X022515Y005463D01*
X022386Y005591D01*
X022218Y005661D01*
X022036Y005661D01*
X021868Y005591D01*
X021740Y005463D01*
X021739Y005462D01*
X021656Y005462D01*
X021614Y005466D01*
X021535Y005499D01*
X021475Y005559D01*
X021443Y005637D01*
X021438Y005680D01*
X021438Y006258D01*
X021479Y006202D01*
X021699Y006042D01*
X021740Y005945D01*
X021868Y005816D01*
X022036Y005746D01*
X022218Y005746D01*
X022386Y005816D01*
X022515Y005945D01*
X022584Y006113D01*
X022584Y006295D01*
X022515Y006463D01*
X022386Y006591D01*
X022218Y006661D01*
X022036Y006661D01*
X021868Y006591D01*
X021853Y006576D01*
X021852Y006576D01*
X021781Y006674D01*
X021743Y006790D01*
X021738Y006851D01*
X021738Y007003D01*
X021753Y006974D01*
X021794Y006919D01*
X021842Y006870D01*
X021898Y006829D01*
X021959Y006798D01*
X022025Y006777D01*
X022093Y006766D01*
X022107Y006766D01*
X022107Y007184D01*
X022147Y007184D01*
X022147Y007224D01*
X022107Y007224D01*
X022107Y007641D01*
X022093Y007641D01*
X022025Y007630D01*
X021959Y007609D01*
X021898Y007578D01*
X021842Y007537D01*
X021794Y007489D01*
X021753Y007433D01*
X021738Y007404D01*
X021738Y007948D01*
X021740Y007945D01*
X021868Y007816D01*
X022036Y007746D01*
X022218Y007746D01*
X022386Y007816D01*
X022515Y007945D01*
X022549Y008028D01*
X022620Y008057D01*
X022827Y008264D01*
X022938Y008534D01*
X022938Y010206D01*
X023002Y010206D01*
X023106Y010311D01*
X023106Y011049D01*
X023002Y011154D01*
X022342Y011154D01*
X022298Y011109D01*
X022254Y011154D01*
X022112Y011154D01*
X022073Y011301D01*
X021861Y011668D01*
X021843Y011686D01*
X021847Y011689D01*
X021847Y012309D01*
X021742Y012414D01*
X021640Y012414D01*
X021831Y012678D01*
X021904Y012901D01*
X021998Y013019D02*
X022927Y013019D01*
X022927Y013177D02*
X022036Y013177D01*
X022000Y013336D02*
X022927Y013336D01*
X022978Y013494D02*
X021851Y013494D01*
X021509Y013494D02*
X021382Y013494D01*
X021186Y013494D02*
X021186Y013494D01*
X021186Y013336D02*
X021186Y013336D01*
X021186Y013177D02*
X021186Y013177D01*
X021186Y013019D02*
X021186Y013019D01*
X021186Y012860D02*
X021186Y012860D01*
X021155Y012702D02*
X021036Y012702D01*
X020996Y012860D02*
X020990Y012860D01*
X020845Y012345D02*
X020902Y012347D01*
X020959Y012353D01*
X021015Y012362D01*
X021070Y012376D01*
X021125Y012393D01*
X021178Y012414D01*
X021229Y012439D01*
X021279Y012467D01*
X021327Y012498D01*
X021372Y012532D01*
X021415Y012570D01*
X021455Y012610D01*
X021493Y012653D01*
X021527Y012698D01*
X021558Y012746D01*
X021586Y012796D01*
X021611Y012847D01*
X021632Y012900D01*
X021649Y012955D01*
X021663Y013010D01*
X021672Y013066D01*
X021678Y013123D01*
X021680Y013180D01*
X021839Y012702D02*
X023521Y012702D01*
X023521Y012860D02*
X023364Y012860D01*
X023421Y013019D02*
X023521Y013019D01*
X023521Y013177D02*
X023421Y013177D01*
X023421Y013336D02*
X023521Y013336D01*
X023521Y013494D02*
X023370Y013494D01*
X023174Y013494D02*
X023174Y013494D01*
X023174Y013336D02*
X023174Y013336D01*
X023521Y013653D02*
X020092Y013653D01*
X020114Y013811D02*
X023521Y013811D01*
X023521Y013970D02*
X023222Y013970D01*
X023199Y013946D02*
X023303Y014051D01*
X023303Y014671D01*
X023199Y014776D01*
X022618Y014776D01*
X022513Y014671D01*
X022513Y014051D01*
X022618Y013946D01*
X023199Y013946D01*
X023303Y014128D02*
X023521Y014128D01*
X023521Y014287D02*
X023303Y014287D01*
X023303Y014445D02*
X023521Y014445D01*
X023521Y014604D02*
X023303Y014604D01*
X023213Y014762D02*
X023521Y014762D01*
X023521Y014921D02*
X020705Y014921D01*
X020705Y014805D02*
X020705Y015103D01*
X020309Y015103D01*
X020309Y015257D01*
X020705Y015257D01*
X020705Y015555D01*
X020694Y015596D01*
X020673Y015632D01*
X020644Y015661D01*
X020607Y015682D01*
X020567Y015693D01*
X020309Y015693D01*
X020309Y015257D01*
X020154Y015257D01*
X020154Y015103D01*
X019757Y015103D01*
X019757Y014805D01*
X019768Y014764D01*
X019789Y014728D01*
X019819Y014699D01*
X019855Y014678D01*
X019895Y014667D01*
X020154Y014667D01*
X020154Y015103D01*
X020309Y015103D01*
X020309Y014667D01*
X020567Y014667D01*
X020607Y014678D01*
X020644Y014699D01*
X020673Y014728D01*
X020694Y014764D01*
X020705Y014805D01*
X020693Y014762D02*
X021147Y014762D01*
X021161Y014776D02*
X021057Y014671D01*
X021057Y014051D01*
X021161Y013946D01*
X021742Y013946D01*
X021847Y014051D01*
X021847Y014671D01*
X021742Y014776D01*
X021161Y014776D01*
X021057Y014604D02*
X019383Y014604D01*
X019383Y014445D02*
X021057Y014445D01*
X021057Y014287D02*
X020076Y014287D01*
X020174Y014128D02*
X021057Y014128D01*
X021138Y013970D02*
X020186Y013970D01*
X019834Y014026D02*
X019830Y014030D01*
X019834Y014026D02*
X019834Y013290D01*
X020307Y013336D02*
X020360Y013336D01*
X020276Y013494D02*
X020509Y013494D01*
X020680Y013180D02*
X020678Y013153D01*
X020673Y013127D01*
X020664Y013102D01*
X020653Y013077D01*
X020638Y013055D01*
X020620Y013035D01*
X020600Y013017D01*
X020577Y013002D01*
X020553Y012991D01*
X020528Y012982D01*
X020502Y012977D01*
X020475Y012975D01*
X019834Y012975D01*
X019834Y012660D02*
X020660Y012660D01*
X020680Y012680D01*
X020845Y012345D02*
X019834Y012345D01*
X019834Y012030D02*
X020574Y012030D01*
X021204Y012030D01*
X021420Y012030D01*
X021452Y011999D01*
X021452Y011908D01*
X021554Y011680D02*
X021204Y012030D01*
X021847Y012068D02*
X022533Y012068D01*
X022533Y012027D02*
X022533Y012256D01*
X022544Y012296D01*
X022565Y012333D01*
X022594Y012362D01*
X022631Y012383D01*
X022671Y012394D01*
X022880Y012394D01*
X022880Y012027D01*
X022880Y011971D01*
X022533Y011971D01*
X022533Y011742D01*
X022544Y011701D01*
X022565Y011665D01*
X022594Y011636D01*
X022631Y011615D01*
X022671Y011604D01*
X022880Y011604D01*
X022880Y011971D01*
X022937Y011971D01*
X022937Y012027D01*
X023284Y012027D01*
X023284Y012256D01*
X023273Y012296D01*
X023252Y012333D01*
X023222Y012362D01*
X023186Y012383D01*
X023146Y012394D01*
X022937Y012394D01*
X022937Y012027D01*
X022880Y012027D01*
X022533Y012027D01*
X022533Y011909D02*
X021847Y011909D01*
X021847Y011751D02*
X022533Y011751D01*
X022880Y011751D02*
X022937Y011751D01*
X022937Y011604D02*
X023146Y011604D01*
X023186Y011615D01*
X023222Y011636D01*
X023252Y011665D01*
X023273Y011701D01*
X023284Y011742D01*
X023284Y011971D01*
X022937Y011971D01*
X022937Y011604D01*
X022937Y011909D02*
X022880Y011909D01*
X022880Y012068D02*
X022937Y012068D01*
X022937Y012226D02*
X022880Y012226D01*
X022880Y012385D02*
X022937Y012385D01*
X023181Y012385D02*
X023521Y012385D01*
X023521Y012543D02*
X021734Y012543D01*
X021771Y012385D02*
X022636Y012385D01*
X022533Y012226D02*
X021847Y012226D01*
X021831Y012678D02*
X021831Y012678D01*
X020990Y013494D02*
X020851Y013494D01*
X021765Y013970D02*
X022595Y013970D01*
X022513Y014128D02*
X021847Y014128D01*
X021847Y014287D02*
X022513Y014287D01*
X022513Y014445D02*
X021847Y014445D01*
X021847Y014604D02*
X022513Y014604D01*
X022604Y014762D02*
X021756Y014762D01*
X020705Y015079D02*
X023521Y015079D01*
X023521Y015238D02*
X020309Y015238D01*
X020154Y015238D02*
X019622Y015238D01*
X019757Y015257D02*
X020154Y015257D01*
X020154Y015693D01*
X019895Y015693D01*
X019855Y015682D01*
X019819Y015661D01*
X019789Y015632D01*
X019768Y015596D01*
X019757Y015555D01*
X019757Y015257D01*
X019757Y015396D02*
X019622Y015396D01*
X019622Y015555D02*
X019757Y015555D01*
X020154Y015555D02*
X020309Y015555D01*
X020309Y015396D02*
X020154Y015396D01*
X020154Y015079D02*
X020309Y015079D01*
X020309Y014921D02*
X020154Y014921D01*
X020154Y014762D02*
X020309Y014762D01*
X019770Y014762D02*
X019622Y014762D01*
X019622Y014921D02*
X019757Y014921D01*
X019757Y015079D02*
X019622Y015079D01*
X019129Y015180D02*
X019125Y015176D01*
X019125Y013999D01*
X019402Y013970D02*
X019474Y013970D01*
X019486Y014128D02*
X019402Y014128D01*
X019402Y014287D02*
X019584Y014287D01*
X019546Y013811D02*
X019402Y013811D01*
X019402Y013653D02*
X019575Y013653D01*
X019391Y013494D02*
X017849Y013494D01*
X017849Y013336D02*
X019360Y013336D01*
X019360Y013177D02*
X017849Y013177D01*
X017849Y013019D02*
X019360Y013019D01*
X019360Y012860D02*
X017849Y012860D01*
X017849Y012702D02*
X019360Y012702D01*
X019360Y012543D02*
X017849Y012543D01*
X017849Y012385D02*
X019360Y012385D01*
X019360Y012226D02*
X017849Y012226D01*
X017849Y012068D02*
X019360Y012068D01*
X019360Y011909D02*
X017849Y011909D01*
X017849Y011751D02*
X019360Y011751D01*
X019360Y011592D02*
X017890Y011592D01*
X018034Y011448D02*
X018034Y011448D01*
X018049Y011434D02*
X019360Y011434D01*
X019360Y011275D02*
X018155Y011275D01*
X018163Y011117D02*
X019360Y011117D01*
X019360Y010958D02*
X018163Y010958D01*
X018163Y010800D02*
X018272Y010800D01*
X018430Y010480D02*
X018180Y010230D01*
X018180Y009432D01*
X018180Y009180D01*
X017865Y008995D02*
X018180Y008680D01*
X018495Y008865D02*
X018495Y009432D01*
X018810Y009432D02*
X018810Y009050D01*
X019680Y008180D01*
X019680Y005680D01*
X019680Y005180D01*
X019680Y002180D01*
X019972Y002558D02*
X020215Y002558D01*
X020206Y002399D02*
X020102Y002399D01*
X020154Y002241D02*
X020206Y002241D01*
X020206Y002082D02*
X020152Y002082D01*
X020206Y001924D02*
X020086Y001924D01*
X020252Y001765D02*
X019916Y001765D01*
X019444Y001765D02*
X018916Y001765D01*
X019086Y001924D02*
X019274Y001924D01*
X019208Y002082D02*
X019152Y002082D01*
X019154Y002241D02*
X019206Y002241D01*
X019258Y002399D02*
X019102Y002399D01*
X018972Y002558D02*
X019388Y002558D01*
X019422Y002716D02*
X018938Y002716D01*
X018938Y002875D02*
X019422Y002875D01*
X019422Y003033D02*
X018938Y003033D01*
X018938Y003192D02*
X019422Y003192D01*
X019422Y003350D02*
X018938Y003350D01*
X018938Y003509D02*
X019422Y003509D01*
X019422Y003667D02*
X018938Y003667D01*
X018938Y003826D02*
X019422Y003826D01*
X019422Y003984D02*
X018938Y003984D01*
X019008Y004143D02*
X019422Y004143D01*
X019422Y004301D02*
X019166Y004301D01*
X019325Y004460D02*
X019422Y004460D01*
X019180Y004680D02*
X019180Y004980D01*
X019137Y005023D01*
X018064Y005023D01*
X018064Y005337D02*
X018337Y005337D01*
X018680Y005680D01*
X018680Y006180D02*
X018180Y006180D01*
X018064Y006064D01*
X018064Y005690D01*
X017805Y006045D02*
X016438Y006045D01*
X016438Y006203D02*
X016568Y006203D01*
X016792Y006203D02*
X017568Y006203D01*
X017792Y006203D02*
X017842Y006203D01*
X018120Y006520D02*
X018572Y006520D01*
X018788Y006520D02*
X018922Y006520D01*
X018922Y006679D02*
X018137Y006679D01*
X018137Y006837D02*
X018922Y006837D01*
X018922Y006996D02*
X018137Y006996D01*
X018137Y007154D02*
X018922Y007154D01*
X018922Y007313D02*
X018132Y007313D01*
X018064Y007471D02*
X018922Y007471D01*
X018922Y007630D02*
X017859Y007630D01*
X017914Y007667D02*
X018573Y007667D01*
X018678Y007771D01*
X018678Y008317D01*
X018922Y008073D01*
X018922Y007947D02*
X018678Y007947D01*
X018678Y007788D02*
X018922Y007788D01*
X019180Y008180D02*
X018495Y008865D01*
X018678Y008264D02*
X018731Y008264D01*
X019180Y008180D02*
X019180Y004980D01*
X019180Y004680D02*
X018680Y004180D01*
X018680Y002180D01*
X018388Y002558D02*
X017972Y002558D01*
X017938Y002716D02*
X018422Y002716D01*
X018422Y002875D02*
X017938Y002875D01*
X017938Y003033D02*
X018422Y003033D01*
X018422Y003192D02*
X017938Y003192D01*
X017938Y003350D02*
X018422Y003350D01*
X018422Y003509D02*
X017938Y003509D01*
X018032Y003667D02*
X018422Y003667D01*
X018422Y003826D02*
X018253Y003826D01*
X018180Y004180D02*
X017680Y003680D01*
X017680Y002180D01*
X017388Y002558D02*
X016972Y002558D01*
X016938Y002716D02*
X017422Y002716D01*
X017422Y002875D02*
X016938Y002875D01*
X016938Y003033D02*
X017422Y003033D01*
X017422Y003192D02*
X016938Y003192D01*
X016938Y003350D02*
X017422Y003350D01*
X017422Y003509D02*
X016938Y003509D01*
X016938Y003667D02*
X017422Y003667D01*
X017461Y003826D02*
X016938Y003826D01*
X016975Y003984D02*
X017619Y003984D01*
X017777Y004143D02*
X017134Y004143D01*
X017292Y004301D02*
X017845Y004301D01*
X018180Y004180D02*
X018180Y004554D01*
X018064Y004670D01*
X017296Y004670D02*
X017296Y005023D01*
X017296Y005337D01*
X017296Y005690D01*
X016891Y005728D02*
X016438Y005728D01*
X016438Y005886D02*
X016891Y005886D01*
X016891Y005569D02*
X016507Y005569D01*
X016536Y005411D02*
X016891Y005411D01*
X016891Y005252D02*
X016491Y005252D01*
X016297Y005094D02*
X016891Y005094D01*
X016891Y004935D02*
X014038Y004935D01*
X014038Y005094D02*
X016063Y005094D01*
X015869Y005252D02*
X014038Y005252D01*
X014038Y005411D02*
X015824Y005411D01*
X015853Y005569D02*
X014038Y005569D01*
X014038Y005728D02*
X015922Y005728D01*
X015922Y005886D02*
X014038Y005886D01*
X014038Y006045D02*
X015922Y006045D01*
X015922Y006203D02*
X015792Y006203D01*
X015568Y006203D02*
X014038Y006203D01*
X014038Y006362D02*
X014351Y006362D01*
X014346Y006366D02*
X014395Y006318D01*
X014451Y006277D01*
X014512Y006246D01*
X014578Y006225D01*
X014646Y006214D01*
X014660Y006214D01*
X014660Y006910D01*
X014700Y006910D01*
X014700Y006950D01*
X015117Y006950D01*
X015117Y007243D01*
X015107Y007311D01*
X015085Y007377D01*
X015054Y007438D01*
X015014Y007494D01*
X014965Y007542D01*
X014909Y007583D01*
X014848Y007614D01*
X014782Y007635D01*
X014714Y007646D01*
X014700Y007646D01*
X014700Y006950D01*
X014660Y006950D01*
X014660Y007646D01*
X014646Y007646D01*
X014578Y007635D01*
X014512Y007614D01*
X014451Y007583D01*
X014395Y007542D01*
X014346Y007494D01*
X014306Y007438D01*
X014275Y007377D01*
X014253Y007311D01*
X014243Y007243D01*
X014243Y006950D01*
X014660Y006950D01*
X014660Y006910D01*
X014243Y006910D01*
X014243Y006617D01*
X014253Y006549D01*
X014275Y006483D01*
X014306Y006422D01*
X014346Y006366D01*
X014263Y006520D02*
X014038Y006520D01*
X014038Y006679D02*
X014243Y006679D01*
X014243Y006837D02*
X014038Y006837D01*
X014038Y006996D02*
X014243Y006996D01*
X014243Y007154D02*
X014038Y007154D01*
X014038Y007313D02*
X014254Y007313D01*
X014330Y007471D02*
X014038Y007471D01*
X014038Y007630D02*
X014559Y007630D01*
X014660Y007630D02*
X014700Y007630D01*
X014801Y007630D02*
X015422Y007630D01*
X015422Y007788D02*
X014038Y007788D01*
X013780Y007830D02*
X013780Y004880D01*
X013430Y004530D01*
X008580Y004530D01*
X008180Y004930D01*
X008180Y006180D01*
X007680Y006680D01*
X008000Y006837D02*
X013079Y006837D01*
X013281Y006837D02*
X013522Y006837D01*
X013522Y006679D02*
X008047Y006679D01*
X008205Y006520D02*
X013522Y006520D01*
X013522Y006362D02*
X008364Y006362D01*
X008438Y006203D02*
X013522Y006203D01*
X013522Y006045D02*
X008438Y006045D01*
X008438Y005886D02*
X013522Y005886D01*
X013522Y005728D02*
X008438Y005728D01*
X008438Y005569D02*
X013522Y005569D01*
X013522Y005411D02*
X008438Y005411D01*
X008438Y005252D02*
X013522Y005252D01*
X013522Y005094D02*
X008438Y005094D01*
X008540Y004935D02*
X013470Y004935D01*
X013883Y004618D02*
X016879Y004618D01*
X016891Y004777D02*
X014017Y004777D01*
X013725Y004460D02*
X016720Y004460D01*
X016562Y004301D02*
X013552Y004301D01*
X013644Y002634D02*
X013574Y002623D01*
X013506Y002601D01*
X013442Y002568D01*
X013384Y002526D01*
X013334Y002476D01*
X013292Y002418D01*
X013259Y002354D01*
X013237Y002286D01*
X013226Y002216D01*
X013226Y002208D01*
X013652Y002208D01*
X013652Y002152D01*
X013708Y002152D01*
X013708Y002208D01*
X014134Y002208D01*
X014134Y002216D01*
X014123Y002286D01*
X014101Y002354D01*
X014068Y002418D01*
X014026Y002476D01*
X013976Y002526D01*
X013918Y002568D01*
X013854Y002601D01*
X013786Y002623D01*
X013716Y002634D01*
X013708Y002634D01*
X013708Y002208D01*
X013652Y002208D01*
X013652Y002634D01*
X013644Y002634D01*
X013652Y002558D02*
X013708Y002558D01*
X013708Y002399D02*
X013652Y002399D01*
X013652Y002241D02*
X013708Y002241D01*
X013708Y002152D02*
X014134Y002152D01*
X014134Y002144D01*
X014123Y002074D01*
X014101Y002006D01*
X014068Y001942D01*
X014026Y001884D01*
X013976Y001834D01*
X013918Y001792D01*
X013854Y001759D01*
X013786Y001737D01*
X013716Y001726D01*
X013708Y001726D01*
X013708Y002152D01*
X013652Y002152D02*
X013652Y001726D01*
X013644Y001726D01*
X013574Y001737D01*
X013506Y001759D01*
X013442Y001792D01*
X013384Y001834D01*
X013334Y001884D01*
X013292Y001942D01*
X013259Y002006D01*
X013237Y002074D01*
X013226Y002144D01*
X013226Y002152D01*
X013652Y002152D01*
X013652Y002082D02*
X013708Y002082D01*
X013708Y001924D02*
X013652Y001924D01*
X013652Y001765D02*
X013708Y001765D01*
X013866Y001765D02*
X014494Y001765D01*
X014506Y001759D02*
X014574Y001737D01*
X014644Y001726D01*
X014652Y001726D01*
X014652Y002152D01*
X014708Y002152D01*
X014708Y002208D01*
X015134Y002208D01*
X015134Y002216D01*
X015123Y002286D01*
X015101Y002354D01*
X015068Y002418D01*
X015026Y002476D01*
X014976Y002526D01*
X014918Y002568D01*
X014854Y002601D01*
X014786Y002623D01*
X014716Y002634D01*
X014708Y002634D01*
X014708Y002208D01*
X014652Y002208D01*
X014652Y002152D01*
X014226Y002152D01*
X014226Y002144D01*
X014237Y002074D01*
X014259Y002006D01*
X014292Y001942D01*
X014334Y001884D01*
X014384Y001834D01*
X014442Y001792D01*
X014506Y001759D01*
X014652Y001765D02*
X014708Y001765D01*
X014708Y001726D02*
X014716Y001726D01*
X014786Y001737D01*
X014854Y001759D01*
X014918Y001792D01*
X014976Y001834D01*
X015026Y001884D01*
X015068Y001942D01*
X015101Y002006D01*
X015123Y002074D01*
X015134Y002144D01*
X015134Y002152D01*
X014708Y002152D01*
X014708Y001726D01*
X014866Y001765D02*
X015444Y001765D01*
X015412Y001778D02*
X015586Y001706D01*
X015774Y001706D01*
X015948Y001778D01*
X016082Y001912D01*
X016154Y002086D01*
X016154Y002274D01*
X016082Y002448D01*
X015948Y002582D01*
X015774Y002654D01*
X015586Y002654D01*
X015412Y002582D01*
X015278Y002448D01*
X015206Y002274D01*
X015206Y002086D01*
X015278Y001912D01*
X015412Y001778D01*
X015274Y001924D02*
X015055Y001924D01*
X015124Y002082D02*
X015208Y002082D01*
X015206Y002241D02*
X015130Y002241D01*
X015078Y002399D02*
X015258Y002399D01*
X015388Y002558D02*
X014933Y002558D01*
X014708Y002558D02*
X014652Y002558D01*
X014652Y002634D02*
X014652Y002208D01*
X014226Y002208D01*
X014226Y002216D01*
X014237Y002286D01*
X014259Y002354D01*
X014292Y002418D01*
X014334Y002476D01*
X014384Y002526D01*
X014442Y002568D01*
X014506Y002601D01*
X014574Y002623D01*
X014644Y002634D01*
X014652Y002634D01*
X014652Y002399D02*
X014708Y002399D01*
X014708Y002241D02*
X014652Y002241D01*
X014652Y002082D02*
X014708Y002082D01*
X014708Y001924D02*
X014652Y001924D01*
X014305Y001924D02*
X014055Y001924D01*
X014124Y002082D02*
X014236Y002082D01*
X014230Y002241D02*
X014130Y002241D01*
X014078Y002399D02*
X014282Y002399D01*
X014427Y002558D02*
X013933Y002558D01*
X013427Y002558D02*
X011145Y002558D01*
X011154Y002549D02*
X011049Y002654D01*
X010311Y002654D01*
X010206Y002549D01*
X010206Y001811D01*
X010311Y001706D01*
X011049Y001706D01*
X011154Y001811D01*
X011154Y002549D01*
X011154Y002399D02*
X013282Y002399D01*
X013230Y002241D02*
X011154Y002241D01*
X011154Y002082D02*
X013236Y002082D01*
X013305Y001924D02*
X011154Y001924D01*
X011108Y001765D02*
X013494Y001765D01*
X015916Y001765D02*
X016444Y001765D01*
X016274Y001924D02*
X016086Y001924D01*
X016152Y002082D02*
X016208Y002082D01*
X016206Y002241D02*
X016154Y002241D01*
X016102Y002399D02*
X016258Y002399D01*
X016388Y002558D02*
X015972Y002558D01*
X016422Y002716D02*
X004938Y002716D01*
X004972Y002558D02*
X005388Y002558D01*
X005412Y002582D02*
X005278Y002448D01*
X005206Y002274D01*
X005206Y002086D01*
X005278Y001912D01*
X005412Y001778D01*
X005586Y001706D01*
X005774Y001706D01*
X005948Y001778D01*
X006082Y001912D01*
X006154Y002086D01*
X006154Y002274D01*
X006082Y002448D01*
X005948Y002582D01*
X005774Y002654D01*
X005586Y002654D01*
X005412Y002582D01*
X005258Y002399D02*
X005102Y002399D01*
X005154Y002241D02*
X005206Y002241D01*
X005208Y002082D02*
X005152Y002082D01*
X005086Y001924D02*
X005274Y001924D01*
X005444Y001765D02*
X004916Y001765D01*
X004444Y001765D02*
X003916Y001765D01*
X004086Y001924D02*
X004274Y001924D01*
X004208Y002082D02*
X004152Y002082D01*
X004154Y002241D02*
X004206Y002241D01*
X004258Y002399D02*
X004102Y002399D01*
X003972Y002558D02*
X004388Y002558D01*
X004279Y002716D02*
X002173Y002716D01*
X002173Y002558D02*
X003388Y002558D01*
X003680Y002180D02*
X002306Y002180D01*
X002160Y001924D02*
X001691Y001924D01*
X001798Y002082D02*
X000437Y002082D01*
X000437Y001924D02*
X000669Y001924D01*
X000510Y001765D02*
X000437Y001765D01*
X000437Y002241D02*
X001624Y002241D01*
X001673Y002173D02*
X001673Y002173D01*
X001850Y001765D02*
X003444Y001765D01*
X002306Y002180D02*
X002257Y002182D01*
X002208Y002188D01*
X002160Y002197D01*
X002113Y002211D01*
X002066Y002228D01*
X002022Y002248D01*
X001979Y002272D01*
X001938Y002300D01*
X001899Y002330D01*
X001863Y002363D01*
X001830Y002399D01*
X001800Y002438D01*
X001772Y002479D01*
X001748Y002522D01*
X001728Y002566D01*
X001711Y002613D01*
X001697Y002660D01*
X001688Y002708D01*
X001682Y002757D01*
X001680Y002806D01*
X002173Y002875D02*
X004120Y002875D01*
X004180Y003180D02*
X004680Y002680D01*
X004680Y002180D01*
X004851Y002875D02*
X016422Y002875D01*
X016422Y003033D02*
X004692Y003033D01*
X004534Y003192D02*
X016422Y003192D01*
X016422Y003350D02*
X004375Y003350D01*
X004180Y003180D02*
X003180Y003180D01*
X002430Y003930D01*
X002430Y005656D01*
X001930Y005656D02*
X001930Y003804D01*
X001680Y003554D01*
X002173Y003509D02*
X002486Y003509D01*
X002328Y003667D02*
X002173Y003667D01*
X002188Y003826D02*
X002194Y003826D01*
X002173Y003350D02*
X002645Y003350D01*
X002803Y003192D02*
X002141Y003192D01*
X002173Y003033D02*
X002962Y003033D01*
X003217Y003509D02*
X016422Y003509D01*
X016422Y003667D02*
X003058Y003667D01*
X002900Y003826D02*
X010607Y003826D01*
X010753Y003826D02*
X016422Y003826D01*
X016422Y003984D02*
X010984Y003984D01*
X011036Y004143D02*
X016437Y004143D01*
X016680Y004054D02*
X017296Y004670D01*
X016680Y004054D02*
X016680Y002180D01*
X017102Y002399D02*
X017258Y002399D01*
X017206Y002241D02*
X017154Y002241D01*
X017152Y002082D02*
X017208Y002082D01*
X017274Y001924D02*
X017086Y001924D01*
X016916Y001765D02*
X017444Y001765D01*
X017916Y001765D02*
X018444Y001765D01*
X018274Y001924D02*
X018086Y001924D01*
X018152Y002082D02*
X018208Y002082D01*
X018206Y002241D02*
X018154Y002241D01*
X018102Y002399D02*
X018258Y002399D01*
X019938Y002716D02*
X020422Y002716D01*
X020422Y002875D02*
X019938Y002875D01*
X019938Y003033D02*
X020422Y003033D01*
X020422Y003192D02*
X019938Y003192D01*
X019938Y003350D02*
X020422Y003350D01*
X020422Y003509D02*
X019938Y003509D01*
X019938Y003667D02*
X020422Y003667D01*
X020422Y003826D02*
X019938Y003826D01*
X019938Y003984D02*
X020422Y003984D01*
X020422Y004143D02*
X019938Y004143D01*
X019938Y004301D02*
X020422Y004301D01*
X020422Y004460D02*
X019938Y004460D01*
X019938Y004618D02*
X020422Y004618D01*
X020422Y004777D02*
X019938Y004777D01*
X019938Y004935D02*
X020422Y004935D01*
X020422Y005094D02*
X019938Y005094D01*
X019938Y005252D02*
X020422Y005252D01*
X020422Y005411D02*
X019938Y005411D01*
X020019Y005569D02*
X020422Y005569D01*
X020422Y005728D02*
X020036Y005728D01*
X019977Y005886D02*
X020422Y005886D01*
X020351Y006045D02*
X019938Y006045D01*
X019938Y006203D02*
X020324Y006203D01*
X020370Y006362D02*
X019938Y006362D01*
X019938Y006520D02*
X020422Y006520D01*
X020422Y006679D02*
X019938Y006679D01*
X019938Y006837D02*
X020422Y006837D01*
X020422Y006996D02*
X019938Y006996D01*
X019938Y007154D02*
X020422Y007154D01*
X020422Y007313D02*
X019938Y007313D01*
X019938Y007471D02*
X020422Y007471D01*
X020365Y007630D02*
X019938Y007630D01*
X019938Y007788D02*
X020207Y007788D01*
X020048Y007947D02*
X019938Y007947D01*
X020303Y008422D02*
X020922Y008422D01*
X020922Y008264D02*
X020462Y008264D01*
X020620Y008105D02*
X020922Y008105D01*
X020922Y007947D02*
X020779Y007947D01*
X020915Y007788D02*
X020922Y007788D01*
X020680Y007680D02*
X020680Y006680D01*
X020680Y006180D01*
X020680Y002180D01*
X021154Y002241D02*
X023521Y002241D01*
X023521Y002399D02*
X021154Y002399D01*
X021145Y002558D02*
X023521Y002558D01*
X023521Y002716D02*
X020938Y002716D01*
X020938Y002875D02*
X023521Y002875D01*
X023521Y003033D02*
X020938Y003033D01*
X020938Y003192D02*
X023521Y003192D01*
X023521Y003350D02*
X020938Y003350D01*
X020938Y003509D02*
X023521Y003509D01*
X023521Y003667D02*
X020938Y003667D01*
X020938Y003826D02*
X023521Y003826D01*
X023521Y003984D02*
X020938Y003984D01*
X020938Y004143D02*
X023521Y004143D01*
X023521Y004301D02*
X020938Y004301D01*
X020938Y004460D02*
X023521Y004460D01*
X023521Y004618D02*
X020938Y004618D01*
X020938Y004777D02*
X021964Y004777D01*
X021749Y004935D02*
X020938Y004935D01*
X020938Y005094D02*
X021204Y005094D01*
X021045Y005252D02*
X020938Y005252D01*
X021033Y005264D02*
X021033Y005264D01*
X020973Y005411D02*
X020938Y005411D01*
X021180Y005680D02*
X021180Y010680D01*
X020922Y010641D02*
X020307Y010641D01*
X020460Y011400D02*
X020511Y011398D01*
X020562Y011393D01*
X020613Y011384D01*
X020663Y011371D01*
X020712Y011355D01*
X020759Y011335D01*
X020805Y011312D01*
X020849Y011286D01*
X020891Y011256D01*
X020931Y011224D01*
X020969Y011189D01*
X021004Y011151D01*
X021036Y011111D01*
X021066Y011069D01*
X021092Y011025D01*
X021115Y010979D01*
X021135Y010932D01*
X021151Y010883D01*
X021164Y010833D01*
X021173Y010782D01*
X021178Y010731D01*
X021180Y010680D01*
X020901Y010800D02*
X020307Y010800D01*
X020307Y010958D02*
X020822Y010958D01*
X020593Y011117D02*
X020307Y011117D01*
X020460Y011400D02*
X019834Y011400D01*
X019834Y011715D02*
X020545Y011715D01*
X020604Y011713D01*
X020662Y011708D01*
X020720Y011698D01*
X020778Y011686D01*
X020834Y011669D01*
X020889Y011649D01*
X020943Y011626D01*
X020995Y011599D01*
X021046Y011569D01*
X021095Y011536D01*
X021141Y011500D01*
X021185Y011462D01*
X021227Y011420D01*
X021265Y011376D01*
X021301Y011330D01*
X021334Y011281D01*
X021364Y011230D01*
X021391Y011178D01*
X021414Y011124D01*
X021434Y011069D01*
X021451Y011013D01*
X021463Y010955D01*
X021473Y010897D01*
X021478Y010839D01*
X021480Y010780D01*
X021480Y006851D01*
X021740Y006837D02*
X021888Y006837D01*
X021779Y006679D02*
X023521Y006679D01*
X023521Y006837D02*
X022367Y006837D01*
X022357Y006829D02*
X022412Y006870D01*
X022461Y006919D01*
X022501Y006974D01*
X022533Y007036D01*
X022554Y007101D01*
X022565Y007169D01*
X022565Y007184D01*
X022147Y007184D01*
X022147Y006766D01*
X022162Y006766D01*
X022230Y006777D01*
X022295Y006798D01*
X022357Y006829D01*
X022147Y006837D02*
X022107Y006837D01*
X021480Y006851D02*
X021482Y006803D01*
X021487Y006755D01*
X021496Y006707D01*
X021509Y006660D01*
X021525Y006615D01*
X021544Y006570D01*
X021567Y006528D01*
X021592Y006487D01*
X021621Y006448D01*
X021653Y006411D01*
X021687Y006377D01*
X021724Y006345D01*
X021763Y006316D01*
X021803Y006291D01*
X021846Y006268D01*
X021891Y006249D01*
X021936Y006233D01*
X021983Y006220D01*
X022031Y006211D01*
X022079Y006206D01*
X022127Y006204D01*
X022584Y006203D02*
X023521Y006203D01*
X023521Y006045D02*
X022556Y006045D01*
X022456Y005886D02*
X023521Y005886D01*
X023521Y005728D02*
X021438Y005728D01*
X021438Y005886D02*
X021798Y005886D01*
X021696Y006045D02*
X021438Y006045D01*
X021438Y006203D02*
X021478Y006203D01*
X021479Y006202D02*
X021479Y006202D01*
X021180Y005680D02*
X021182Y005639D01*
X021187Y005597D01*
X021196Y005557D01*
X021209Y005517D01*
X021225Y005479D01*
X021244Y005442D01*
X021266Y005407D01*
X021291Y005374D01*
X021319Y005343D01*
X021350Y005315D01*
X021383Y005290D01*
X021418Y005268D01*
X021455Y005249D01*
X021493Y005233D01*
X021533Y005220D01*
X021573Y005211D01*
X021615Y005206D01*
X021656Y005204D01*
X022127Y005204D01*
X022536Y005411D02*
X023521Y005411D01*
X023521Y005569D02*
X022408Y005569D01*
X022584Y005252D02*
X023521Y005252D01*
X023521Y005094D02*
X022576Y005094D01*
X022505Y004935D02*
X023521Y004935D01*
X023521Y004777D02*
X022291Y004777D01*
X021846Y005569D02*
X021471Y005569D01*
X022557Y006362D02*
X023521Y006362D01*
X023521Y006520D02*
X022457Y006520D01*
X022512Y006996D02*
X023521Y006996D01*
X023521Y007154D02*
X022562Y007154D01*
X022565Y007224D02*
X022147Y007224D01*
X022147Y007641D01*
X022162Y007641D01*
X022230Y007630D01*
X022295Y007609D01*
X022357Y007578D01*
X022412Y007537D01*
X022461Y007489D01*
X022501Y007433D01*
X022533Y007372D01*
X022554Y007306D01*
X022565Y007238D01*
X022565Y007224D01*
X022552Y007313D02*
X023521Y007313D01*
X023521Y007471D02*
X022474Y007471D01*
X022232Y007630D02*
X023521Y007630D01*
X023521Y007788D02*
X022319Y007788D01*
X022147Y007630D02*
X022107Y007630D01*
X022022Y007630D02*
X021738Y007630D01*
X021738Y007788D02*
X021936Y007788D01*
X021738Y007947D02*
X021739Y007947D01*
X022127Y008204D02*
X022204Y008204D01*
X022516Y007947D02*
X023521Y007947D01*
X023521Y008105D02*
X022668Y008105D01*
X022620Y008057D02*
X022620Y008057D01*
X022826Y008264D02*
X023521Y008264D01*
X023521Y008422D02*
X022892Y008422D01*
X022938Y008581D02*
X023521Y008581D01*
X023521Y008739D02*
X022938Y008739D01*
X022938Y008898D02*
X023521Y008898D01*
X023521Y009056D02*
X022938Y009056D01*
X022938Y009215D02*
X023521Y009215D01*
X023521Y009373D02*
X022938Y009373D01*
X022938Y009532D02*
X023521Y009532D01*
X023521Y009690D02*
X022938Y009690D01*
X022938Y009849D02*
X023521Y009849D01*
X023521Y010007D02*
X022938Y010007D01*
X022938Y010166D02*
X023521Y010166D01*
X023521Y010324D02*
X023106Y010324D01*
X023106Y010483D02*
X023521Y010483D01*
X023521Y010641D02*
X023106Y010641D01*
X023106Y010800D02*
X023521Y010800D01*
X023521Y010958D02*
X023106Y010958D01*
X023039Y011117D02*
X023521Y011117D01*
X023521Y011275D02*
X022080Y011275D01*
X022073Y011301D02*
X022073Y011301D01*
X021996Y011434D02*
X023521Y011434D01*
X023521Y011592D02*
X021905Y011592D01*
X021861Y011668D02*
X021861Y011668D01*
X022291Y011117D02*
X022305Y011117D01*
X022672Y010680D02*
X022686Y010665D01*
X022697Y010647D01*
X022704Y010629D01*
X022709Y010609D01*
X022710Y010588D01*
X022707Y010568D01*
X022701Y010549D01*
X022692Y010531D01*
X022680Y010514D01*
X022680Y010515D02*
X022680Y008680D01*
X022827Y008264D02*
X022827Y008264D01*
X022680Y008680D02*
X022678Y008639D01*
X022673Y008597D01*
X022664Y008557D01*
X022651Y008517D01*
X022635Y008479D01*
X022616Y008442D01*
X022594Y008407D01*
X022569Y008374D01*
X022541Y008343D01*
X022510Y008315D01*
X022477Y008290D01*
X022442Y008268D01*
X022405Y008249D01*
X022367Y008233D01*
X022327Y008220D01*
X022287Y008211D01*
X022245Y008206D01*
X022204Y008204D01*
X022147Y007471D02*
X022107Y007471D01*
X022107Y007313D02*
X022147Y007313D01*
X022147Y007154D02*
X022107Y007154D01*
X022107Y006996D02*
X022147Y006996D01*
X021742Y006996D02*
X021738Y006996D01*
X021738Y007471D02*
X021781Y007471D01*
X020680Y007680D02*
X019125Y009235D01*
X019125Y009432D01*
X019402Y009373D02*
X020922Y009373D01*
X020922Y009215D02*
X019511Y009215D01*
X019669Y009056D02*
X020922Y009056D01*
X020922Y008898D02*
X019828Y008898D01*
X019986Y008739D02*
X020922Y008739D01*
X020922Y008581D02*
X020145Y008581D01*
X019402Y009532D02*
X020922Y009532D01*
X020922Y009690D02*
X019402Y009690D01*
X019354Y009849D02*
X020922Y009849D01*
X020922Y010007D02*
X020307Y010007D01*
X020307Y010166D02*
X020922Y010166D01*
X020922Y010324D02*
X020307Y010324D01*
X020307Y010483D02*
X020922Y010483D01*
X021924Y010680D02*
X021922Y010751D01*
X021917Y010821D01*
X021907Y010891D01*
X021894Y010961D01*
X021878Y011029D01*
X021858Y011097D01*
X021834Y011164D01*
X021807Y011229D01*
X021777Y011293D01*
X021743Y011355D01*
X021706Y011415D01*
X021666Y011474D01*
X021623Y011530D01*
X021577Y011583D01*
X021529Y011635D01*
X021477Y011683D01*
X021424Y011729D01*
X021368Y011772D01*
X021309Y011812D01*
X021249Y011849D01*
X021187Y011883D01*
X021123Y011913D01*
X021058Y011940D01*
X020991Y011964D01*
X020923Y011984D01*
X020855Y012000D01*
X020785Y012013D01*
X020715Y012023D01*
X020645Y012028D01*
X020574Y012030D01*
X019360Y010800D02*
X018588Y010800D01*
X018748Y010641D02*
X019360Y010641D01*
X019360Y010483D02*
X018786Y010483D01*
X018750Y010324D02*
X019360Y010324D01*
X019360Y010166D02*
X018600Y010166D01*
X018438Y010007D02*
X019360Y010007D01*
X017865Y009432D02*
X017865Y008995D01*
X017543Y008581D02*
X017447Y008581D01*
X017447Y008422D02*
X017543Y008422D01*
X017543Y008264D02*
X017447Y008264D01*
X017447Y008093D02*
X017543Y008093D01*
X017543Y007687D01*
X017772Y007687D01*
X017813Y007697D01*
X017849Y007718D01*
X017855Y007725D01*
X017914Y007667D01*
X017543Y007788D02*
X017447Y007788D01*
X017447Y007947D02*
X017543Y007947D01*
X017501Y007630D02*
X016938Y007630D01*
X016938Y007788D02*
X017090Y007788D01*
X017081Y007947D02*
X016938Y007947D01*
X016680Y008180D02*
X016680Y006930D01*
X017137Y006996D02*
X017223Y006996D01*
X017223Y007154D02*
X017137Y007154D01*
X017132Y007313D02*
X017228Y007313D01*
X017296Y007471D02*
X017064Y007471D01*
X017137Y006837D02*
X017223Y006837D01*
X017223Y006679D02*
X017137Y006679D01*
X017120Y006520D02*
X017240Y006520D01*
X017323Y006362D02*
X017037Y006362D01*
X016180Y005430D02*
X016180Y008180D01*
X016605Y008605D01*
X016605Y009432D01*
X016290Y009432D02*
X016290Y008790D01*
X015680Y008180D01*
X015680Y006930D01*
X015223Y006996D02*
X015117Y006996D01*
X015117Y006910D02*
X014700Y006910D01*
X014700Y006214D01*
X014714Y006214D01*
X014782Y006225D01*
X014848Y006246D01*
X014909Y006277D01*
X014965Y006318D01*
X015014Y006366D01*
X015054Y006422D01*
X015085Y006483D01*
X015107Y006549D01*
X015117Y006617D01*
X015117Y006910D01*
X015117Y006837D02*
X015223Y006837D01*
X015223Y006679D02*
X015117Y006679D01*
X015097Y006520D02*
X015240Y006520D01*
X015323Y006362D02*
X015009Y006362D01*
X014700Y006362D02*
X014660Y006362D01*
X014660Y006520D02*
X014700Y006520D01*
X014700Y006679D02*
X014660Y006679D01*
X014660Y006837D02*
X014700Y006837D01*
X014700Y006996D02*
X014660Y006996D01*
X014660Y007154D02*
X014700Y007154D01*
X014700Y007313D02*
X014660Y007313D01*
X014660Y007471D02*
X014700Y007471D01*
X015030Y007471D02*
X015296Y007471D01*
X015228Y007313D02*
X015106Y007313D01*
X015117Y007154D02*
X015223Y007154D01*
X015422Y007947D02*
X014449Y007947D01*
X014534Y008105D02*
X015422Y008105D01*
X015435Y008264D02*
X014530Y008264D01*
X014441Y008422D02*
X015557Y008422D01*
X015715Y008581D02*
X014145Y008581D01*
X014058Y008739D02*
X013986Y008739D01*
X014302Y008739D02*
X015058Y008739D01*
X015302Y008739D02*
X015874Y008739D01*
X016032Y008898D02*
X015540Y008898D01*
X015620Y009056D02*
X015705Y009056D01*
X015975Y009432D02*
X015432Y009432D01*
X015180Y009180D01*
X014769Y009373D02*
X014738Y009373D01*
X014726Y009215D02*
X014634Y009215D01*
X014620Y009056D02*
X014740Y009056D01*
X014820Y008898D02*
X014540Y008898D01*
X014180Y009180D02*
X015141Y010141D01*
X015267Y010141D01*
X015214Y009849D02*
X015746Y009849D01*
X015740Y010007D02*
X016977Y010007D01*
X016892Y010166D02*
X015740Y010166D01*
X016180Y010456D02*
X015267Y010456D01*
X015267Y010771D02*
X014271Y010771D01*
X013680Y010180D01*
X013680Y008680D01*
X014180Y008180D01*
X013780Y007830D02*
X013430Y008180D01*
X013430Y010330D01*
X014186Y011086D01*
X015267Y011086D01*
X015267Y011400D02*
X016460Y011400D01*
X016680Y011680D01*
X016936Y011434D02*
X017259Y011434D01*
X017252Y011592D02*
X017028Y011592D01*
X017036Y011751D02*
X017252Y011751D01*
X017252Y011909D02*
X016954Y011909D01*
X017252Y012068D02*
X015740Y012068D01*
X015740Y012226D02*
X017252Y012226D01*
X017252Y012385D02*
X016237Y012385D01*
X016329Y012543D02*
X017252Y012543D01*
X017252Y012702D02*
X016335Y012702D01*
X016253Y012860D02*
X017252Y012860D01*
X017252Y013019D02*
X015740Y013019D01*
X015740Y013177D02*
X017252Y013177D01*
X017252Y013336D02*
X015740Y013336D01*
X015709Y013494D02*
X017252Y013494D01*
X017235Y013653D02*
X017235Y013653D01*
X017235Y013811D02*
X017235Y013811D01*
X017235Y013970D02*
X017235Y013970D01*
X017235Y013999D02*
X017235Y013999D01*
X016920Y013999D02*
X016920Y014467D01*
X016918Y014509D01*
X016913Y014551D01*
X016904Y014593D01*
X016892Y014634D01*
X016877Y014673D01*
X016858Y014711D01*
X016836Y014748D01*
X016812Y014782D01*
X016784Y014814D01*
X016754Y014844D01*
X016722Y014872D01*
X016688Y014896D01*
X016651Y014918D01*
X016613Y014937D01*
X016574Y014952D01*
X016533Y014964D01*
X016491Y014973D01*
X016449Y014978D01*
X016407Y014980D01*
X015835Y014921D02*
X014833Y014921D01*
X014833Y015060D02*
X015306Y015060D01*
X015306Y015355D01*
X015295Y015396D01*
X015835Y015396D01*
X015835Y015238D02*
X015306Y015238D01*
X015295Y015396D02*
X015274Y015432D01*
X015244Y015461D01*
X015208Y015482D01*
X015168Y015493D01*
X014833Y015493D01*
X014833Y015060D01*
X014833Y015079D02*
X014673Y015079D01*
X014673Y014921D02*
X008612Y014921D01*
X008454Y015079D02*
X014201Y015079D01*
X014201Y014762D02*
X011850Y014762D01*
X011835Y014777D02*
X011676Y014843D01*
X011503Y014843D01*
X011343Y014777D01*
X011221Y014654D01*
X011155Y014495D01*
X011155Y014322D01*
X011221Y014162D01*
X011343Y014040D01*
X011503Y013974D01*
X011676Y013974D01*
X011835Y014040D01*
X011958Y014162D01*
X012024Y014322D01*
X012024Y014495D01*
X011958Y014654D01*
X011835Y014777D01*
X011979Y014604D02*
X014201Y014604D01*
X014673Y014604D02*
X014833Y014604D01*
X014833Y014762D02*
X014673Y014762D01*
X014673Y015238D02*
X014833Y015238D01*
X014833Y015396D02*
X014673Y015396D01*
X015306Y015079D02*
X015835Y015079D01*
X015835Y014762D02*
X015306Y014762D01*
X015305Y014604D02*
X015835Y014604D01*
X015775Y014445D02*
X012024Y014445D01*
X012009Y014287D02*
X015698Y014287D01*
X015698Y014128D02*
X011923Y014128D01*
X011458Y013654D02*
X011335Y013777D01*
X011176Y013843D01*
X011003Y013843D01*
X010843Y013777D01*
X010721Y013654D01*
X010655Y013495D01*
X010655Y013322D01*
X010721Y013162D01*
X010843Y013040D01*
X011003Y012974D01*
X011176Y012974D01*
X011335Y013040D01*
X011458Y013162D01*
X011524Y013322D01*
X011524Y013495D01*
X011458Y013654D01*
X011458Y013653D02*
X015698Y013653D01*
X015698Y013811D02*
X011252Y013811D01*
X011524Y013494D02*
X014009Y013494D01*
X013860Y013336D02*
X011524Y013336D01*
X011464Y013177D02*
X013824Y013177D01*
X013862Y013019D02*
X011283Y013019D01*
X010896Y013019D02*
X010283Y013019D01*
X010464Y013177D02*
X010715Y013177D01*
X010655Y013336D02*
X010524Y013336D01*
X010524Y013494D02*
X010655Y013494D01*
X010720Y013653D02*
X010458Y013653D01*
X010252Y013811D02*
X010927Y013811D01*
X010923Y014128D02*
X011256Y014128D01*
X011170Y014287D02*
X011009Y014287D01*
X011024Y014445D02*
X011155Y014445D01*
X011200Y014604D02*
X010979Y014604D01*
X010850Y014762D02*
X011329Y014762D01*
X010589Y014408D02*
X010408Y014408D01*
X009630Y013630D01*
X009630Y012280D01*
X009888Y012543D02*
X012432Y012543D01*
X012414Y012512D02*
X012381Y012433D01*
X012359Y012351D01*
X012353Y012303D01*
X012919Y012303D01*
X012919Y012869D01*
X012872Y012863D01*
X012789Y012841D01*
X012710Y012808D01*
X012637Y012766D01*
X012569Y012714D01*
X012509Y012653D01*
X012457Y012586D01*
X012414Y012512D01*
X012368Y012385D02*
X009972Y012385D01*
X009986Y012226D02*
X012919Y012226D01*
X012919Y012068D02*
X013079Y012068D01*
X013079Y012226D02*
X014361Y012226D01*
X014519Y012385D02*
X013630Y012385D01*
X013566Y012543D02*
X014678Y012543D01*
X014793Y012702D02*
X013441Y012702D01*
X013137Y012860D02*
X014023Y012860D01*
X014180Y013180D02*
X014380Y012980D01*
X015262Y012980D01*
X015267Y012975D01*
X015267Y012660D02*
X015950Y012660D01*
X015980Y012630D01*
X015267Y012345D02*
X014845Y012345D01*
X013180Y010680D01*
X013180Y007180D01*
X012850Y007313D02*
X006469Y007313D01*
X006469Y007349D02*
X006469Y007100D01*
X006458Y007060D01*
X006437Y007023D01*
X006407Y006994D01*
X006371Y006973D01*
X006331Y006962D01*
X006082Y006962D01*
X006082Y007349D01*
X006082Y007484D01*
X005947Y007484D01*
X005947Y007870D01*
X005698Y007870D01*
X005658Y007859D01*
X005622Y007839D01*
X005592Y007809D01*
X005571Y007773D01*
X005561Y007732D01*
X005561Y007484D01*
X005947Y007484D01*
X005947Y007349D01*
X005561Y007349D01*
X005561Y007100D01*
X005571Y007060D01*
X005592Y007023D01*
X005622Y006994D01*
X005658Y006973D01*
X005698Y006962D01*
X005947Y006962D01*
X005947Y007349D01*
X006082Y007349D01*
X006469Y007349D01*
X006469Y007484D02*
X006469Y007732D01*
X006458Y007773D01*
X006437Y007809D01*
X006407Y007839D01*
X006371Y007859D01*
X006331Y007870D01*
X006082Y007870D01*
X006082Y007484D01*
X006469Y007484D01*
X006469Y007630D02*
X012922Y007630D01*
X012922Y007788D02*
X006449Y007788D01*
X006082Y007788D02*
X005947Y007788D01*
X005947Y007630D02*
X006082Y007630D01*
X006082Y007471D02*
X012922Y007471D01*
X012824Y007154D02*
X006469Y007154D01*
X006409Y006996D02*
X007513Y006996D01*
X007360Y006837D02*
X004411Y006837D01*
X004411Y006679D02*
X007324Y006679D01*
X007361Y006520D02*
X004477Y006520D01*
X004152Y006479D02*
X004676Y005956D01*
X004202Y005886D02*
X004059Y005886D01*
X004059Y005728D02*
X004202Y005728D01*
X004220Y005569D02*
X004059Y005569D01*
X004126Y005411D02*
X007447Y005411D01*
X007341Y005569D02*
X006510Y005569D01*
X006054Y005956D02*
X007404Y005956D01*
X007680Y005680D01*
X007681Y006045D02*
X007922Y006045D01*
X007792Y006203D02*
X007482Y006203D01*
X007520Y006362D02*
X006491Y006362D01*
X006082Y006996D02*
X005947Y006996D01*
X005947Y007154D02*
X006082Y007154D01*
X006082Y007313D02*
X005947Y007313D01*
X005947Y007471D02*
X005110Y007471D01*
X005110Y007313D02*
X005561Y007313D01*
X005561Y007154D02*
X005110Y007154D01*
X005059Y006996D02*
X005620Y006996D01*
X005617Y006362D02*
X005113Y006362D01*
X005150Y006203D02*
X005580Y006203D01*
X005580Y006045D02*
X005150Y006045D01*
X005150Y005886D02*
X005580Y005886D01*
X005580Y005728D02*
X005150Y005728D01*
X005132Y005569D02*
X005598Y005569D01*
X005651Y004935D02*
X005079Y004935D01*
X005150Y004777D02*
X005580Y004777D01*
X005580Y004618D02*
X005150Y004618D01*
X005150Y004460D02*
X005580Y004460D01*
X005580Y004301D02*
X005150Y004301D01*
X005150Y004143D02*
X005580Y004143D01*
X006054Y004495D02*
X006369Y004180D01*
X010680Y004180D01*
X009854Y002601D02*
X009786Y002623D01*
X009716Y002634D01*
X009708Y002634D01*
X009708Y002208D01*
X010134Y002208D01*
X010134Y002216D01*
X010123Y002286D01*
X010101Y002354D01*
X010068Y002418D01*
X010026Y002476D01*
X009976Y002526D01*
X009918Y002568D01*
X009854Y002601D01*
X009933Y002558D02*
X010215Y002558D01*
X010206Y002399D02*
X010078Y002399D01*
X010130Y002241D02*
X010206Y002241D01*
X010134Y002152D02*
X009708Y002152D01*
X009708Y002208D01*
X009652Y002208D01*
X009652Y002152D01*
X009708Y002152D01*
X009708Y001726D01*
X009716Y001726D01*
X009786Y001737D01*
X009854Y001759D01*
X009918Y001792D01*
X009976Y001834D01*
X010026Y001884D01*
X010068Y001942D01*
X010101Y002006D01*
X010123Y002074D01*
X010134Y002144D01*
X010134Y002152D01*
X010124Y002082D02*
X010206Y002082D01*
X010206Y001924D02*
X010055Y001924D01*
X009866Y001765D02*
X010252Y001765D01*
X009708Y001765D02*
X009652Y001765D01*
X009652Y001726D02*
X009652Y002152D01*
X009226Y002152D01*
X009226Y002144D01*
X009237Y002074D01*
X009259Y002006D01*
X009292Y001942D01*
X009334Y001884D01*
X009384Y001834D01*
X009442Y001792D01*
X009506Y001759D01*
X009574Y001737D01*
X009644Y001726D01*
X009652Y001726D01*
X009494Y001765D02*
X008916Y001765D01*
X008948Y001778D02*
X009082Y001912D01*
X009154Y002086D01*
X009154Y002274D01*
X009082Y002448D01*
X008948Y002582D01*
X008774Y002654D01*
X008586Y002654D01*
X008412Y002582D01*
X008278Y002448D01*
X008206Y002274D01*
X008206Y002086D01*
X008278Y001912D01*
X008412Y001778D01*
X008586Y001706D01*
X008774Y001706D01*
X008948Y001778D01*
X009086Y001924D02*
X009305Y001924D01*
X009236Y002082D02*
X009152Y002082D01*
X009226Y002208D02*
X009652Y002208D01*
X009652Y002634D01*
X009644Y002634D01*
X009574Y002623D01*
X009506Y002601D01*
X009442Y002568D01*
X009384Y002526D01*
X009334Y002476D01*
X009292Y002418D01*
X009259Y002354D01*
X009237Y002286D01*
X009226Y002216D01*
X009226Y002208D01*
X009230Y002241D02*
X009154Y002241D01*
X009102Y002399D02*
X009282Y002399D01*
X009427Y002558D02*
X008972Y002558D01*
X009652Y002558D02*
X009708Y002558D01*
X009708Y002399D02*
X009652Y002399D01*
X009652Y002241D02*
X009708Y002241D01*
X009708Y002082D02*
X009652Y002082D01*
X009652Y001924D02*
X009708Y001924D01*
X008444Y001765D02*
X007916Y001765D01*
X007948Y001778D02*
X008082Y001912D01*
X008154Y002086D01*
X008154Y002274D01*
X008082Y002448D01*
X007948Y002582D01*
X007774Y002654D01*
X007586Y002654D01*
X007412Y002582D01*
X007278Y002448D01*
X007206Y002274D01*
X007206Y002086D01*
X007278Y001912D01*
X007412Y001778D01*
X007586Y001706D01*
X007774Y001706D01*
X007948Y001778D01*
X008086Y001924D02*
X008274Y001924D01*
X008208Y002082D02*
X008152Y002082D01*
X008154Y002241D02*
X008206Y002241D01*
X008258Y002399D02*
X008102Y002399D01*
X007972Y002558D02*
X008388Y002558D01*
X007388Y002558D02*
X006972Y002558D01*
X006948Y002582D02*
X006774Y002654D01*
X006586Y002654D01*
X006412Y002582D01*
X006278Y002448D01*
X006206Y002274D01*
X006206Y002086D01*
X006278Y001912D01*
X006412Y001778D01*
X006586Y001706D01*
X006774Y001706D01*
X006948Y001778D01*
X007082Y001912D01*
X007154Y002086D01*
X007154Y002274D01*
X007082Y002448D01*
X006948Y002582D01*
X007102Y002399D02*
X007258Y002399D01*
X007206Y002241D02*
X007154Y002241D01*
X007152Y002082D02*
X007208Y002082D01*
X007274Y001924D02*
X007086Y001924D01*
X006916Y001765D02*
X007444Y001765D01*
X006444Y001765D02*
X005916Y001765D01*
X006086Y001924D02*
X006274Y001924D01*
X006208Y002082D02*
X006152Y002082D01*
X006154Y002241D02*
X006206Y002241D01*
X006258Y002399D02*
X006102Y002399D01*
X005972Y002558D02*
X006388Y002558D01*
X006200Y003984D02*
X002741Y003984D01*
X002688Y004143D02*
X004202Y004143D01*
X004202Y004301D02*
X002688Y004301D01*
X002688Y005094D02*
X002689Y005094D01*
X001672Y005094D02*
X001671Y005094D01*
X001672Y004935D02*
X000437Y004935D01*
X000437Y004777D02*
X001672Y004777D01*
X001672Y004618D02*
X000437Y004618D01*
X000437Y004460D02*
X001672Y004460D01*
X001672Y004301D02*
X000437Y004301D01*
X000437Y004143D02*
X001672Y004143D01*
X001287Y003984D02*
X000437Y003984D01*
X000437Y003826D02*
X001187Y003826D01*
X001187Y003667D02*
X000437Y003667D01*
X000437Y003509D02*
X001187Y003509D01*
X001187Y003350D02*
X000437Y003350D01*
X000437Y003192D02*
X001219Y003192D01*
X001187Y003033D02*
X000437Y003033D01*
X000437Y002875D02*
X001187Y002875D01*
X001187Y002716D02*
X000437Y002716D01*
X000437Y002558D02*
X001187Y002558D01*
X001264Y002399D02*
X000437Y002399D01*
X001964Y001607D02*
X021975Y001607D01*
X021910Y001448D02*
X002029Y001448D01*
X002067Y001290D02*
X021872Y001290D01*
X021872Y001131D02*
X002067Y001131D01*
X002054Y000973D02*
X021885Y000973D01*
X021950Y000814D02*
X001989Y000814D01*
X001910Y000656D02*
X022029Y000656D01*
X022187Y000497D02*
X001752Y000497D01*
X006528Y004460D02*
X008285Y004460D01*
X008127Y004618D02*
X006528Y004618D01*
X006528Y004777D02*
X007968Y004777D01*
X007922Y004935D02*
X006457Y004935D01*
X007922Y005094D02*
X004443Y005094D01*
X004284Y005252D02*
X007922Y005252D01*
X007913Y005411D02*
X007922Y005411D01*
X007847Y006996D02*
X012872Y006996D01*
X013488Y006996D02*
X013522Y006996D01*
X012922Y007947D02*
X005061Y007947D01*
X005108Y007788D02*
X005580Y007788D01*
X005561Y007630D02*
X005110Y007630D01*
X005122Y008105D02*
X012922Y008105D01*
X012922Y008264D02*
X005122Y008264D01*
X005122Y008422D02*
X012922Y008422D01*
X012922Y008581D02*
X005122Y008581D01*
X005086Y008739D02*
X012922Y008739D01*
X012922Y008898D02*
X005122Y008898D01*
X005122Y009056D02*
X012922Y009056D01*
X012922Y009215D02*
X005122Y009215D01*
X005122Y009373D02*
X012922Y009373D01*
X015055Y009690D02*
X015380Y009690D01*
X016180Y010456D02*
X016180Y010680D01*
X015845Y010800D02*
X015740Y010800D01*
X015740Y010958D02*
X015955Y010958D01*
X015740Y011117D02*
X017521Y011117D01*
X017567Y010958D02*
X016405Y010958D01*
X016515Y010800D02*
X017567Y010800D01*
X017567Y010641D02*
X017422Y010641D01*
X017486Y010483D02*
X017567Y010483D01*
X017567Y010324D02*
X017494Y010324D01*
X017494Y010166D02*
X017567Y010166D01*
X017567Y010007D02*
X017494Y010007D01*
X017550Y009849D02*
X017550Y009849D01*
X017550Y009690D02*
X017550Y009690D01*
X017550Y009532D02*
X017550Y009532D01*
X017235Y009432D02*
X017235Y010325D01*
X017130Y010430D01*
X016789Y010324D02*
X016405Y010324D01*
X016483Y010483D02*
X016774Y010483D01*
X016838Y010641D02*
X016536Y010641D01*
X016690Y011275D02*
X017363Y011275D01*
X016324Y011751D02*
X015740Y011751D01*
X015740Y011909D02*
X016406Y011909D01*
X014793Y011909D02*
X014774Y011909D01*
X014793Y011927D02*
X014209Y011344D01*
X014793Y011344D01*
X014793Y011927D01*
X014793Y011751D02*
X014616Y011751D01*
X014457Y011592D02*
X014793Y011592D01*
X014793Y011434D02*
X014299Y011434D01*
X013885Y011751D02*
X013447Y011751D01*
X013569Y011909D02*
X014044Y011909D01*
X014202Y012068D02*
X013631Y012068D01*
X013079Y011909D02*
X012919Y011909D01*
X012919Y011751D02*
X013079Y011751D01*
X012551Y011751D02*
X007128Y011751D01*
X007250Y011909D02*
X012429Y011909D01*
X012367Y012068D02*
X009920Y012068D01*
X009888Y012702D02*
X012557Y012702D01*
X012860Y012860D02*
X009888Y012860D01*
X009888Y013019D02*
X009896Y013019D01*
X009372Y013019D02*
X009283Y013019D01*
X008896Y013019D02*
X008232Y013019D01*
X008249Y013024D02*
X008307Y013054D01*
X008360Y013092D01*
X008406Y013138D01*
X008444Y013191D01*
X008474Y013249D01*
X008494Y013311D01*
X008504Y013376D01*
X008504Y013400D01*
X008098Y013400D01*
X008098Y013417D01*
X008081Y013417D01*
X008081Y013823D01*
X008057Y013823D01*
X007992Y013813D01*
X007930Y013793D01*
X007872Y013763D01*
X007819Y013725D01*
X007773Y013678D01*
X007735Y013626D01*
X007705Y013568D01*
X007685Y013505D01*
X007675Y013441D01*
X007675Y013417D01*
X008081Y013417D01*
X008081Y013400D01*
X007675Y013400D01*
X007675Y013376D01*
X007685Y013311D01*
X007705Y013249D01*
X007735Y013191D01*
X007773Y013138D01*
X007819Y013092D01*
X007872Y013054D01*
X007930Y013024D01*
X007992Y013004D01*
X008057Y012994D01*
X008081Y012994D01*
X008081Y013400D01*
X008098Y013400D01*
X008098Y012994D01*
X008122Y012994D01*
X008187Y013004D01*
X008249Y013024D01*
X008098Y013019D02*
X008081Y013019D01*
X007947Y013019D02*
X006308Y013019D01*
X006362Y013177D02*
X007745Y013177D01*
X007681Y013336D02*
X006362Y013336D01*
X006362Y013494D02*
X007683Y013494D01*
X007754Y013653D02*
X006362Y013653D01*
X006362Y013811D02*
X007987Y013811D01*
X008081Y013811D02*
X008098Y013811D01*
X008098Y013823D02*
X008098Y013417D01*
X008504Y013417D01*
X008504Y013441D01*
X008494Y013505D01*
X008474Y013568D01*
X008444Y013626D01*
X008406Y013678D01*
X008360Y013725D01*
X008307Y013763D01*
X008249Y013793D01*
X008187Y013813D01*
X008122Y013823D01*
X008098Y013823D01*
X008192Y013811D02*
X008927Y013811D01*
X008720Y013653D02*
X008425Y013653D01*
X008496Y013494D02*
X008655Y013494D01*
X008655Y013336D02*
X008498Y013336D01*
X008434Y013177D02*
X008715Y013177D01*
X008098Y013177D02*
X008081Y013177D01*
X008081Y013336D02*
X008098Y013336D01*
X008081Y013494D02*
X008098Y013494D01*
X008081Y013653D02*
X008098Y013653D01*
X008256Y014128D02*
X006308Y014128D01*
X006308Y013970D02*
X009604Y013970D01*
X009446Y013811D02*
X009252Y013811D01*
X009256Y014128D02*
X008923Y014128D01*
X009009Y014287D02*
X009170Y014287D01*
X009155Y014445D02*
X009024Y014445D01*
X008979Y014604D02*
X009200Y014604D01*
X009329Y014762D02*
X008850Y014762D01*
X008170Y014287D02*
X006308Y014287D01*
X006600Y012702D02*
X006760Y012702D01*
X006760Y012543D02*
X006600Y012543D01*
X006600Y012385D02*
X006760Y012385D01*
X006760Y011909D02*
X006600Y011909D01*
X006600Y011751D02*
X006760Y011751D01*
X005008Y012543D02*
X001558Y012543D01*
X001558Y012385D02*
X004849Y012385D01*
X004691Y012226D02*
X001558Y012226D01*
X001558Y012068D02*
X004532Y012068D01*
X004374Y011909D02*
X001558Y011909D01*
X001645Y011751D02*
X004215Y011751D01*
X004057Y011592D02*
X001803Y011592D01*
X001962Y011434D02*
X003898Y011434D01*
X003810Y011275D02*
X002120Y011275D01*
X002279Y011117D02*
X003802Y011117D01*
X003802Y010958D02*
X003461Y010958D01*
X003487Y010932D02*
X003432Y010987D01*
X003367Y011030D01*
X003295Y011060D01*
X003219Y011075D01*
X003180Y011075D01*
X003141Y011075D01*
X003065Y011060D01*
X002993Y011030D01*
X002928Y010987D01*
X002873Y010932D01*
X002830Y010867D01*
X002800Y010795D01*
X002785Y010719D01*
X002785Y010680D01*
X002785Y010641D01*
X002595Y010641D01*
X002595Y010483D02*
X002837Y010483D01*
X002830Y010493D02*
X002873Y010428D01*
X002928Y010373D01*
X002993Y010330D01*
X003065Y010300D01*
X003141Y010285D01*
X003180Y010285D01*
X003219Y010285D01*
X003295Y010300D01*
X003367Y010330D01*
X003432Y010373D01*
X003487Y010428D01*
X003530Y010493D01*
X003560Y010565D01*
X003575Y010641D01*
X003765Y010641D01*
X003774Y010483D02*
X003523Y010483D01*
X003575Y010641D02*
X003575Y010680D01*
X003575Y010719D01*
X003560Y010795D01*
X003530Y010867D01*
X003487Y010932D01*
X003558Y010800D02*
X003781Y010800D01*
X003575Y010680D02*
X003180Y010680D01*
X003180Y010680D01*
X003180Y010680D01*
X003180Y011075D01*
X003180Y010680D01*
X003575Y010680D01*
X003180Y010680D02*
X003180Y010285D01*
X003180Y010680D01*
X003180Y010680D01*
X003180Y010680D01*
X002785Y010680D01*
X003180Y010680D01*
X003180Y010641D02*
X003180Y010641D01*
X003180Y010483D02*
X003180Y010483D01*
X003180Y010324D02*
X003180Y010324D01*
X003353Y010324D02*
X003774Y010324D01*
X003774Y010166D02*
X000437Y010166D01*
X001180Y008806D02*
X001180Y008680D01*
X001430Y008680D01*
X002430Y008430D02*
X002430Y007704D01*
X002684Y007154D02*
X002704Y007154D01*
X004059Y006203D02*
X004063Y006203D01*
X004059Y006045D02*
X004202Y006045D01*
X004152Y006479D02*
X004152Y008308D01*
X004467Y008308D02*
X004467Y007586D01*
X004637Y007416D01*
X003007Y010324D02*
X002549Y010324D01*
X002830Y010493D02*
X002800Y010565D01*
X002785Y010641D01*
X002802Y010800D02*
X002595Y010800D01*
X002595Y010958D02*
X002899Y010958D01*
X003180Y010958D02*
X003180Y010958D01*
X003180Y010800D02*
X003180Y010800D01*
X001173Y006203D02*
X000437Y006203D01*
X000437Y006045D02*
X001133Y006045D01*
X001133Y005886D02*
X000437Y005886D01*
X000437Y005728D02*
X001133Y005728D01*
X001133Y005569D02*
X000437Y005569D01*
X000437Y005411D02*
X001133Y005411D01*
X001133Y005252D02*
X000437Y005252D01*
X000437Y005094D02*
X001189Y005094D01*
X010335Y013970D02*
X015698Y013970D01*
X014824Y013494D02*
X014351Y013494D01*
X014500Y013336D02*
X014793Y013336D01*
X013079Y012860D02*
X012919Y012860D01*
X012919Y012702D02*
X013079Y012702D01*
X013079Y012543D02*
X012919Y012543D01*
X012919Y012385D02*
X013079Y012385D01*
X010200Y014604D02*
X009979Y014604D01*
X010024Y014445D02*
X010080Y014445D01*
X009850Y014762D02*
X010329Y014762D01*
X013077Y016506D02*
X014227Y016506D01*
X014181Y016664D02*
X013143Y016664D01*
X013169Y016823D02*
X014181Y016823D01*
X014181Y016981D02*
X013169Y016981D01*
X013148Y017140D02*
X014181Y017140D01*
X014181Y017298D02*
X013083Y017298D01*
X012997Y017457D02*
X014229Y017457D01*
X014496Y017615D02*
X012838Y017615D01*
X014503Y017632D02*
X014503Y017632D01*
X015325Y017298D02*
X015835Y017298D01*
X015835Y017140D02*
X015325Y017140D01*
X015325Y016981D02*
X015835Y016981D01*
X015835Y016823D02*
X015325Y016823D01*
X015325Y016664D02*
X015835Y016664D01*
X015881Y016506D02*
X015279Y016506D01*
X017399Y017932D02*
X022541Y017932D01*
X022976Y017932D02*
X023521Y017932D01*
X023521Y017774D02*
X017677Y017774D01*
X017833Y017683D02*
X017833Y017683D01*
X017901Y017615D02*
X023521Y017615D01*
X023521Y017457D02*
X018060Y017457D01*
X018204Y017298D02*
X023521Y017298D01*
X023521Y017140D02*
X018295Y017140D01*
X018387Y016981D02*
X023521Y016981D01*
X023521Y016823D02*
X018453Y016823D01*
X018430Y016905D02*
X018430Y016905D01*
X018495Y016664D02*
X023521Y016664D01*
X023521Y016506D02*
X018537Y016506D01*
X018558Y016347D02*
X023521Y016347D01*
X023521Y016189D02*
X018558Y016189D01*
X018558Y016030D02*
X023521Y016030D01*
X023521Y015872D02*
X018558Y015872D01*
X018558Y015713D02*
X023521Y015713D01*
X023521Y015555D02*
X020705Y015555D01*
X020705Y015396D02*
X023521Y015396D01*
X023521Y018091D02*
X023302Y018091D01*
X023460Y018249D02*
X023521Y018249D01*
X018866Y014604D02*
X018126Y014604D01*
X018440Y014762D02*
X018635Y014762D01*
X018635Y014921D02*
X018488Y014921D01*
X018507Y015079D02*
X018635Y015079D01*
X018635Y015238D02*
X018554Y015238D01*
X018558Y015396D02*
X018635Y015396D01*
X018635Y015555D02*
X018558Y015555D01*
X017405Y017930D02*
X017405Y017930D01*
X023284Y012226D02*
X023521Y012226D01*
X023521Y012068D02*
X023284Y012068D01*
X023284Y011909D02*
X023521Y011909D01*
X023521Y011751D02*
X023284Y011751D01*
X021924Y010680D02*
X021909Y010678D01*
X021894Y010674D01*
X021880Y010667D01*
X021868Y010657D01*
X021858Y010645D01*
X021851Y010631D01*
X021847Y010616D01*
X021845Y010601D01*
X021845Y009486D01*
X022127Y009204D01*
X022104Y009661D02*
X022104Y010206D01*
X022254Y010206D01*
X022298Y010251D01*
X022342Y010206D01*
X022422Y010206D01*
X022422Y009556D01*
X022386Y009591D01*
X022218Y009661D01*
X022104Y009661D01*
X022104Y009690D02*
X022422Y009690D01*
X022422Y009849D02*
X022104Y009849D01*
X022104Y010007D02*
X022422Y010007D01*
X022422Y010166D02*
X022104Y010166D01*
X016920Y009432D02*
X016920Y008420D01*
X016680Y008180D01*
X021154Y002082D02*
X023521Y002082D01*
X023521Y001924D02*
X023270Y001924D01*
X023428Y001765D02*
X023521Y001765D01*
X022248Y001924D02*
X021154Y001924D01*
X021108Y001765D02*
X022089Y001765D01*
X006600Y017298D02*
X003278Y017298D01*
X003190Y017457D02*
X006686Y017457D01*
X006844Y017615D02*
X004917Y017615D01*
X005073Y017774D02*
X007139Y017774D01*
X004532Y017774D02*
X004372Y017774D01*
X004372Y017932D02*
X004532Y017932D01*
X004532Y017615D02*
X004372Y017615D01*
X004372Y018408D02*
X004532Y018408D01*
X004532Y018566D02*
X004372Y018566D01*
X004372Y018725D02*
X004532Y018725D01*
X004532Y018883D02*
X004372Y018883D01*
X001200Y016506D02*
X001160Y016506D01*
X001160Y016347D02*
X001200Y016347D01*
X001160Y016160D02*
X000464Y016160D01*
X000464Y016146D01*
X000475Y016078D01*
X000496Y016012D01*
X000527Y015951D01*
X000568Y015895D01*
X000616Y015846D01*
X000672Y015806D01*
X000733Y015775D01*
X000799Y015753D01*
X000867Y015743D01*
X001160Y015743D01*
X001160Y016160D01*
X001160Y016030D02*
X001200Y016030D01*
X001200Y015872D02*
X001160Y015872D01*
X000591Y015872D02*
X000437Y015872D01*
X000437Y016030D02*
X000490Y016030D01*
D35*
X000574Y017897D03*
X002149Y019471D03*
X004117Y019471D03*
X006086Y019471D03*
X008054Y019471D03*
X008054Y017897D03*
X009038Y016715D03*
X010023Y017897D03*
X011007Y016715D03*
X011991Y015534D03*
X013507Y016715D03*
X013991Y015534D03*
X014991Y014034D03*
X014180Y013180D03*
X014523Y011523D03*
X015928Y011991D03*
X015980Y012630D03*
X016322Y013172D03*
X017109Y013172D03*
X017109Y012385D03*
X016680Y011680D03*
X017109Y011204D03*
X017130Y010430D03*
X016180Y010680D03*
X017503Y008891D03*
X018830Y007880D03*
X018830Y007080D03*
X018680Y006180D03*
X018680Y005680D03*
X019680Y005680D03*
X020680Y006180D03*
X020259Y007267D03*
X019865Y009235D03*
X020652Y009735D03*
X022227Y010023D03*
X023408Y010023D03*
X023408Y011991D03*
X021680Y013180D03*
X020680Y013180D03*
X020680Y012680D03*
X019830Y014030D03*
X019078Y013172D03*
X019078Y012385D03*
X019078Y011597D03*
X019078Y010810D03*
X018430Y010480D03*
X018290Y011597D03*
X018290Y012385D03*
X018290Y013172D03*
X016680Y017680D03*
X016180Y017680D03*
X015680Y017680D03*
X015180Y017680D03*
X015928Y019471D03*
X013960Y019471D03*
X011991Y019471D03*
X010023Y019471D03*
X010023Y015534D03*
X008054Y015534D03*
X007267Y015534D03*
X007267Y013369D03*
X008054Y011991D03*
X007267Y011007D03*
X008054Y010023D03*
X009038Y011007D03*
X010023Y010023D03*
X009038Y009038D03*
X008054Y008054D03*
X007267Y009038D03*
X006086Y010023D03*
X003330Y011991D03*
X002149Y011991D03*
X002739Y013369D03*
X004314Y014353D03*
X000574Y013960D03*
X000574Y011991D03*
X000574Y010023D03*
X000574Y008054D03*
X000574Y006086D03*
X000574Y004117D03*
X000574Y002149D03*
X002149Y000574D03*
X004117Y000574D03*
X008790Y003078D03*
X010680Y004180D03*
X010023Y005086D03*
X010023Y006086D03*
X011991Y006086D03*
X011991Y005086D03*
X014353Y006086D03*
X013180Y007180D03*
X014180Y008180D03*
X011991Y008054D03*
X010810Y008054D03*
X011991Y009629D03*
X011991Y011991D03*
X011991Y013566D03*
X009630Y012280D03*
X003180Y008680D03*
X007680Y006680D03*
X007680Y005680D03*
X011991Y002149D03*
X011991Y000574D03*
X013960Y000574D03*
X015928Y000574D03*
X017897Y000574D03*
X019865Y000574D03*
X021834Y000574D03*
X021834Y002149D03*
X023408Y002149D03*
X023408Y004117D03*
X021834Y004117D03*
X023408Y006086D03*
X023408Y008054D03*
X018180Y004180D03*
X016180Y005430D03*
X016715Y006086D03*
X015928Y004117D03*
X010023Y000574D03*
X009054Y000574D03*
X023408Y013960D03*
X023408Y015928D03*
X023408Y017897D03*
X021834Y019471D03*
X019865Y019471D03*
X017897Y019471D03*
D36*
X016680Y017680D02*
X016180Y017680D01*
X015680Y017680D01*
X015180Y017680D01*
X015100Y017680D01*
X016407Y016980D02*
X016438Y016982D01*
X016468Y016987D01*
X016497Y016995D01*
X016525Y017007D01*
X016552Y017022D01*
X016577Y017040D01*
X016600Y017060D01*
X016620Y017083D01*
X016638Y017108D01*
X016653Y017135D01*
X016665Y017163D01*
X016673Y017192D01*
X016678Y017222D01*
X016680Y017253D01*
X016680Y017680D01*
X016756Y017678D01*
X016832Y017672D01*
X016907Y017663D01*
X016982Y017649D01*
X017056Y017632D01*
X017129Y017611D01*
X017201Y017587D01*
X017272Y017558D01*
X017341Y017527D01*
X017408Y017492D01*
X017473Y017453D01*
X017537Y017411D01*
X017598Y017366D01*
X017657Y017318D01*
X017713Y017267D01*
X017767Y017213D01*
X017818Y017157D01*
X017866Y017098D01*
X017911Y017037D01*
X017953Y016973D01*
X017992Y016908D01*
X018027Y016841D01*
X018058Y016772D01*
X018087Y016701D01*
X018111Y016629D01*
X018132Y016556D01*
X018149Y016482D01*
X018163Y016407D01*
X018172Y016332D01*
X018178Y016256D01*
X018180Y016180D01*
X018180Y015345D01*
X018180Y015346D02*
X018181Y015323D01*
X018179Y015300D01*
X018173Y015277D01*
X018163Y015256D01*
X018151Y015237D01*
X018136Y015220D01*
X018118Y015205D01*
X018098Y015194D01*
X018076Y015185D01*
X018054Y015180D01*
X008589Y014408D02*
X008200Y014798D01*
X005967Y014798D01*
X005930Y014796D01*
X005930Y013180D01*
X005928Y013182D01*
X005928Y013479D01*
X005930Y013180D02*
X005930Y012930D01*
X004180Y011180D01*
X004180Y010680D01*
X004152Y010652D01*
X004152Y009076D01*
X002180Y010680D02*
X001180Y011680D01*
X001180Y015180D01*
X002680Y015180D01*
X003326Y015826D01*
X004452Y015826D01*
D37*
X014680Y017053D02*
X014680Y017180D01*
X014680Y017053D02*
X014682Y017037D01*
X014687Y017021D01*
X014696Y017007D01*
X014707Y016996D01*
X014721Y016987D01*
X014737Y016982D01*
X014753Y016980D01*
X014680Y017180D02*
X014682Y017224D01*
X014688Y017267D01*
X014697Y017309D01*
X014710Y017351D01*
X014727Y017391D01*
X014747Y017430D01*
X014770Y017467D01*
X014797Y017501D01*
X014826Y017534D01*
X014859Y017563D01*
X014893Y017590D01*
X014930Y017613D01*
X014969Y017633D01*
X015009Y017650D01*
X015051Y017663D01*
X015093Y017672D01*
X015136Y017678D01*
X015180Y017680D01*
X016680Y017253D02*
X016682Y017224D01*
X016687Y017196D01*
X016696Y017168D01*
X016707Y017142D01*
X016722Y017117D01*
X016740Y017095D01*
X016761Y017074D01*
X016783Y017056D01*
X016808Y017041D01*
X016834Y017030D01*
X016862Y017021D01*
X016890Y017016D01*
X016919Y017014D01*
X016919Y017015D02*
X017380Y017054D01*
X018054Y015180D02*
X018030Y015165D01*
X018030Y014930D01*
X017780Y014680D01*
X017680Y014680D01*
X017550Y014550D01*
X017550Y013999D01*
X017550Y011510D01*
X017865Y011195D01*
X017865Y009432D01*
D38*
X004152Y009076D02*
X004048Y009680D01*
X002180Y009680D01*
X001430Y008930D01*
X001430Y008680D01*
X001680Y008930D01*
X001906Y008830D01*
X001430Y008680D02*
X001430Y007704D01*
D39*
X014180Y009180D03*
X015180Y009180D03*
M02*
